<?xml version="1.0" standalone="no"?>
<!DOCTYPE svg PUBLIC "-//W3C//DTD SVG 1.1//EN" "http://www.w3.org/Graphics/SVG/1.1/DTD/svg11.dtd" >
<svg xmlns="http://www.w3.org/2000/svg">
<metadata></metadata>
<defs>
<font id="mission_gothicregular" horiz-adv-x="510" >
<font-face units-per-em="1000" ascent="750" descent="-250" />
<missing-glyph horiz-adv-x="260" />
<glyph horiz-adv-x="753" />
<glyph horiz-adv-x="753" />
<glyph unicode="&#xd;" horiz-adv-x="260" />
<glyph unicode=" "  horiz-adv-x="260" />
<glyph unicode="&#x09;" horiz-adv-x="260" />
<glyph unicode="&#xa0;" horiz-adv-x="260" />
<glyph unicode="!" horiz-adv-x="225" d="M158 184h-92v516h92v-516zM113 -10q-23 0 -40 16.5t-17 40.5q0 23 17 39.5t40 16.5t40 -16.5t17 -39.5q0 -24 -17 -40.5t-40 -16.5z" />
<glyph unicode="&#x22;" horiz-adv-x="328" d="M124 492h-72l17 208h83zM246 492h-72l17 208h83z" />
<glyph unicode="#" horiz-adv-x="628" d="M562 258h-142l-33 -150h-87l33 150h-101l-32 -150h-87l32 150h-123l6 72h133l25 120h-126l7 73h134l30 142h87l-29 -142h99l31 142h87l-29 -142h131l-8 -73h-140l-24 -120h133zM349 330l24 120h-100l-25 -120h101z" />
<glyph unicode="$" horiz-adv-x="495" d="M229 -97h-62l10 96q-107 26 -150 124l80 52q18 -45 56.5 -71t92.5 -26q47 0 77.5 28.5t30.5 74.5q0 30 -17 54.5t-44.5 42t-61 34t-67 35.5t-61 42t-44.5 58t-17 79q0 82 55 132.5t147 50.5l12 104h62l-13 -115q89 -28 130 -129l-81 -48q-32 100 -122 100 q-44 0 -71 -25.5t-27 -66.5q0 -35 23 -62.5t58 -44t75 -37.5t75 -43.5t58 -63t23 -93.5q0 -90 -58 -142t-160 -52z" />
<glyph unicode="%" horiz-adv-x="626" d="M151 0h-82l406 700h83zM170 365q-65 0 -94.5 47.5t-29.5 124.5q0 173 124 173q125 0 125 -173q0 -77 -29.5 -124.5t-95.5 -47.5zM170 435q52 0 52 102q0 103 -52 103q-51 0 -51 -103q0 -102 51 -102zM456 -10q-125 0 -125 172q0 78 29.5 125.5t95.5 47.5t95.5 -47.5 t29.5 -125.5q0 -172 -125 -172zM456 59q52 0 52 103t-52 103t-52 -103t52 -103z" />
<glyph unicode="&#x26;" horiz-adv-x="585" d="M546 86l-13 -88q-63 2 -102 79h-2q-65 -91 -175 -91q-100 0 -158 66.5t-58 157.5q0 72 39 127.5t104 73.5v2q-83 50 -83 135q0 66 45 114t125 48q83 0 140 -59l-63 -74q-26 44 -76 44q-36 0 -57 -22.5t-21 -56.5q0 -38 27.5 -66.5t84.5 -29.5l120 -218h2q16 64 16 158 q0 38 -1 56h88q0 -179 -49 -299q12 -23 31 -39t36 -18zM383 150l-126 219q-58 -6 -91 -51t-33 -103q0 -59 34 -99.5t94 -40.5q79 0 122 75z" />
<glyph unicode="'" horiz-adv-x="167" d="M108 492h-72l17 208h83z" />
<glyph unicode="(" horiz-adv-x="236" d="M210 -53l-68 -41q-101 155 -101 444t101 444l68 -41q-82 -126 -82 -403t82 -403z" />
<glyph unicode=")" horiz-adv-x="236" d="M94 -94l-68 41q82 126 82 403t-82 403l68 41q101 -155 101 -444t-101 -444z" />
<glyph unicode="*" horiz-adv-x="399" d="M338 403l-69 -49q-34 51 -69 148h-2q-4 -8 -16 -37.5t-26.5 -59t-28.5 -51.5q-5 4 -30.5 22t-39.5 27q36 46 118 110l-1 2q-6 1 -41.5 3.5t-64 6.5t-52.5 11l26 81q63 -23 140 -76l2 1q-26 91 -29 158h85q-2 -60 -29 -159q1 -1 2 -1q85 57 141 77q18 -54 26 -81 q-24 -7 -53 -11t-64.5 -7.5t-39.5 -3.5l-1 -2q75 -58 116 -109z" />
<glyph unicode="+" horiz-adv-x="364" d="M222 186h-80v126h-121v74h121v126h80v-126h121v-74h-121v-126z" />
<glyph unicode="," horiz-adv-x="215" d="M61 -96l-9 31q52 14 59 63l-2 1q-5 -4 -14 -4q-17 0 -30 14t-13 35q0 20 14 34t35 14q57 0 57 -77q0 -40 -27.5 -73.5t-69.5 -37.5z" />
<glyph unicode="-" horiz-adv-x="295" d="M266 291h-237v82h237v-82z" />
<glyph unicode="." horiz-adv-x="213" d="M107 -10q-23 0 -40 16.5t-17 40.5q0 23 17 39.5t40 16.5t40 -16.5t17 -39.5q0 -24 -17 -40.5t-40 -16.5z" />
<glyph unicode="/" horiz-adv-x="320" d="M125 -60h-90l157 820h92z" />
<glyph unicode="0" horiz-adv-x="517" d="M258 -10q-212 0 -212 360t212 360t212 -360t-212 -360zM258 78q120 0 120 272t-120 272t-120 -272t120 -272z" />
<glyph unicode="1" horiz-adv-x="273" d="M190 0h-92v612h-59v88h151v-700z" />
<glyph unicode="2" horiz-adv-x="484" d="M428 0h-399v1l264 380q50 72 50 134q0 46 -28.5 76t-75.5 30q-45 0 -76.5 -33.5t-35.5 -88.5l-86 37q17 76 69.5 125t130.5 49q93 0 144.5 -56t51.5 -139q0 -87 -64 -180l-107 -154q-18 -26 -35.5 -48.5t-26.5 -32.5l-9 -9v-2h233v-89z" />
<glyph unicode="3" horiz-adv-x="486" d="M32 141l82 52q13 -55 45.5 -85t79.5 -30q58 0 88 39.5t30 95.5t-35 93t-96 37q-23 0 -36 -2l-31 81l101 122l24 28t21.5 24t11.5 12v2h-256v90h371v-86l-171 -197q187 -34 187 -207q0 -91 -56 -155.5t-158 -64.5q-77 0 -128.5 41.5t-73.5 109.5z" />
<glyph unicode="4" horiz-adv-x="478" d="M359 0h-93v150h-260l260 550h93v-461h82v-89h-82v-150zM272 233v294h-2q-1 -2 -11 -26.5t-16 -36.5l-63 -138q-16 -35 -44 -91v-2h136z" />
<glyph unicode="5" horiz-adv-x="514" d="M55 141l82 48q27 -111 118 -111q53 0 82 40t29 96q0 54 -29.5 94.5t-83.5 40.5q-56 0 -98 -42l-77 40l33 353h300v-92h-222l-19 -192l2 -1q44 21 89 21q99 0 150 -64t51 -155q0 -92 -55.5 -159.5t-151.5 -67.5q-77 0 -127 41.5t-73 109.5z" />
<glyph unicode="6" horiz-adv-x="517" d="M265 78q49 0 80 45.5t31 102.5q0 54 -28.5 91t-79.5 37q-54 0 -84 -38.5t-30 -97.5q0 -60 30.5 -100t80.5 -40zM451 582l-80 -49q-31 88 -101 88q-65 0 -98 -73t-34 -201l2 -1q20 39 57.5 64.5t83.5 25.5q90 0 140 -61t50 -147q0 -94 -56 -166t-149 -72q-216 0 -216 364 q0 99 21.5 176.5t72 128.5t125.5 51q128 0 182 -128z" />
<glyph unicode="7" horiz-adv-x="401" d="M191 0h-97l194 612h-269v88h395z" />
<glyph unicode="8" horiz-adv-x="508" d="M255 75q58 0 90.5 39.5t32.5 94.5q0 53 -33 93.5t-90 40.5q-58 0 -90.5 -40.5t-32.5 -93.5q0 -55 32.5 -94.5t90.5 -39.5zM255 429q42 0 65.5 29t23.5 69q0 42 -23.5 69.5t-65.5 27.5q-43 0 -66.5 -27.5t-23.5 -69.5q0 -39 24 -68.5t66 -29.5zM351 391v-2 q55 -23 86.5 -73.5t31.5 -112.5q0 -86 -56.5 -149.5t-157.5 -63.5t-158 63.5t-57 149.5q0 62 31 111.5t86 72.5v2q-38 22 -60 61t-22 83q0 73 48 125t132 52q83 0 131 -52t48 -125q0 -45 -23 -84t-60 -58z" />
<glyph unicode="9" horiz-adv-x="521" d="M70 117l80 49q31 -88 101 -88q45 0 74 34t41 91.5t14 143.5q-52 -84 -139 -84q-93 0 -144 62.5t-51 150.5q0 94 55.5 164t153.5 70q216 0 216 -365q0 -99 -21 -176t-71.5 -128t-125.5 -51q-130 0 -183 127zM253 345q54 0 84 38t30 97q0 61 -30 101t-81 40 q-53 0 -84 -42.5t-31 -99.5q0 -55 29.5 -94.5t82.5 -39.5z" />
<glyph unicode=":" horiz-adv-x="213" d="M107 -10q-23 0 -40 16.5t-17 40.5q0 23 17 39.5t40 16.5t40 -16.5t17 -39.5q0 -24 -17 -40.5t-40 -16.5zM107 317q-23 0 -40 16.5t-17 40.5q0 23 17 39.5t40 16.5t40 -16.5t17 -39.5q0 -24 -17 -40.5t-40 -16.5z" />
<glyph unicode=";" horiz-adv-x="213" d="M61 -96l-9 31q52 14 59 63l-2 1q-5 -4 -14 -4q-17 0 -30 14t-13 35q0 20 14 34t35 14q57 0 57 -77q0 -40 -27.5 -73.5t-69.5 -37.5zM107 317q-23 0 -40 16.5t-17 40.5q0 23 17 39.5t40 16.5t40 -16.5t17 -39.5q0 -24 -17 -40.5t-40 -16.5z" />
<glyph unicode="&#x3c;" horiz-adv-x="325" d="M240 156l-217 173v51l217 173l48 -66l-118 -94q-38 -31 -51 -37v-2q23 -15 51 -38l118 -94z" />
<glyph unicode="=" horiz-adv-x="324" d="M295 234h-266v75h266v-75zM295 390h-266v75h266v-75z" />
<glyph unicode="&#x3e;" horiz-adv-x="325" d="M81 554l217 -173v-51l-217 -173l-48 66l118 94q38 31 51 37v2q-23 15 -51 38l-118 94z" />
<glyph unicode="?" horiz-adv-x="428" d="M257 190l-77 -44q-34 38 -34 93q0 36 17 69t41 59t48 50.5t41 52.5t17 56q0 44 -24.5 69.5t-70.5 25.5t-76.5 -35t-35.5 -91l-85 46q16 75 68 122t128 47q90 0 141 -50t51 -135q0 -40 -17 -76t-41 -62t-48 -49t-41 -48t-17 -50t15 -50zM269 46q0 -23 -16.5 -39.5 t-40.5 -16.5q-23 0 -39.5 16.5t-16.5 39.5t16.5 40t39.5 17q24 0 40.5 -17t16.5 -40z" />
<glyph unicode="@" horiz-adv-x="776" d="M547 88l33 -75q-79 -61 -190 -61q-152 0 -248 111.5t-96 286.5t96 286.5t248 111.5q85 0 152.5 -36t107 -93.5t59.5 -123.5t20 -133q0 -89 -36 -140.5t-105 -51.5q-83 0 -117 77q-32 -77 -105 -77q-59 0 -95.5 45t-36.5 135q0 78 40 129t108 51q64 0 93 -54h2l10 42h64 q-9 -33 -9 -72v-107q0 -42 14 -64.5t39 -22.5q55 0 55 104q0 135 -70 224.5t-190 89.5q-112 0 -187.5 -86.5t-75.5 -233.5q0 -144 76.5 -232t186.5 -88q89 0 157 58zM382 249q29 0 51.5 30.5t22.5 85.5q0 39 -19.5 62.5t-46.5 23.5q-31 0 -50 -26t-19 -75q0 -51 17.5 -76 t43.5 -25z" />
<glyph unicode="A" horiz-adv-x="503" d="M483 0h-97l-36 143h-198l-35 -143h-97l182 700h99zM332 226l-65 264l-14 69h-2q-8 -42 -15 -69l-65 -264h161z" />
<glyph unicode="B" horiz-adv-x="548" d="M272 0h-190v700h171q214 0 214 -184q0 -105 -88 -145v-2q57 -16 87.5 -58.5t30.5 -103.5q0 -94 -56 -150.5t-169 -56.5zM174 88h103q131 0 131 119q0 116 -131 116h-103v-235zM174 405h70q131 0 131 109q0 52 -31 75t-101 23h-69v-207z" />
<glyph unicode="C" horiz-adv-x="511" d="M401 185l80 -48q-57 -147 -202 -147q-64 0 -111 28.5t-73.5 80t-38.5 113.5t-12 138t12 138t38.5 113.5t73.5 80t111 28.5q151 0 206 -159l-81 -45q-34 116 -125 116q-74 0 -108.5 -74t-34.5 -198t34.5 -198t108.5 -74q87 0 122 107z" />
<glyph unicode="D" horiz-adv-x="548" d="M247 0h-165v700h161q133 0 194.5 -96.5t61.5 -253.5q0 -59 -8.5 -110t-27.5 -96t-47.5 -76.5t-71.5 -49.5t-97 -18zM174 88h73q80 0 119.5 70.5t39.5 191.5t-40 191.5t-123 70.5h-69v-524z" />
<glyph unicode="E" horiz-adv-x="507" d="M436 0h-354v700h354v-89h-262v-241h223v-88h-223v-194h262v-88z" />
<glyph unicode="F" horiz-adv-x="475" d="M174 0h-92v700h354v-89h-262v-270h222v-88h-222v-253z" />
<glyph unicode="G" horiz-adv-x="552" d="M408 274h-105v89h203q0 -373 -224 -373q-64 0 -111 28.5t-73.5 79.5t-38.5 113.5t-12 138.5t12 138t38.5 113.5t73.5 80t111 28.5q153 0 207 -162l-82 -46q-33 119 -125 119q-74 0 -108.5 -74t-34.5 -197q0 -124 34.5 -198t108.5 -74q64 0 94 54.5t32 141.5z" />
<glyph unicode="H" horiz-adv-x="579" d="M497 0h-92v281h-231v-281h-92v700h92v-331h231v331h92v-700z" />
<glyph unicode="I" horiz-adv-x="256" d="M174 0h-92v700h92v-700z" />
<glyph unicode="J" horiz-adv-x="366" d="M10 6l35 84q21 -12 51 -12q105 0 105 150v472h92v-467q0 -121 -51 -182t-145 -61q-51 0 -87 16z" />
<glyph unicode="K" horiz-adv-x="517" d="M494 0h-100l-126 264q-20 40 -28 62h-4q-3 -4 -13 -19.5t-23 -35.5t-26 -38v-233h-92v700h92v-231q0 -14 -0.5 -48t-0.5 -38h2l207 317h108l-195 -286z" />
<glyph unicode="L" horiz-adv-x="436" d="M414 0h-332v700h92v-612h240v-88z" />
<glyph unicode="M" horiz-adv-x="684" d="M602 0h-89v475l1 62h-2q-13 -30 -26 -53l-141 -254h-8l-138 253l-28 55h-2q1 -35 1 -63v-475h-88v700h100l130 -245l28 -56h2q17 34 29 57l130 244h101v-700z" />
<glyph unicode="N" horiz-adv-x="588" d="M506 0h-86l-255 515h-2q3 -36 3 -69v-446h-84v700h86l227 -450l26 -61h2q0 1 -0.5 13t-1 28t-0.5 27v443h85v-700z" />
<glyph unicode="O" horiz-adv-x="553" d="M276 -10q-82 0 -135.5 50t-75 128t-21.5 182t21.5 182t75 128t135.5 50q121 0 177 -99t56 -261t-56 -261t-177 -99zM276 78q72 0 106.5 72t34.5 200q0 272 -141 272q-140 0 -140 -272q0 -128 34.5 -200t105.5 -72z" />
<glyph unicode="P" horiz-adv-x="513" d="M174 0h-92v700h170q113 0 173.5 -72t60.5 -179q0 -108 -59.5 -181t-176.5 -73h-76v-195zM174 284h78q70 0 106 45t36 119q0 75 -36 119.5t-106 44.5h-78v-328z" />
<glyph unicode="Q" horiz-adv-x="554" d="M449 -55l-42 -44q-45 41 -72 97q-36 -8 -59 -8q-82 0 -135.5 50t-75 128t-21.5 182q0 77 12.5 140t39 113.5t72.5 78.5t108 28q121 0 177 -99.5t56 -260.5q0 -249 -121 -330q21 -38 61 -75zM252 187l46 34q29 -37 56 -112l1 -1h2q60 64 60 242q0 271 -141 271 q-140 0 -140 -271q0 -129 34.5 -200.5t105.5 -71.5q17 0 29 4q-23 62 -53 105z" />
<glyph unicode="R" horiz-adv-x="547" d="M489 0h-99l-99 227q-13 -3 -41 -3h-76v-224h-92v700h179q111 0 168 -66.5t57 -170.5q0 -69 -27.5 -123.5t-81.5 -83.5zM174 312h78q70 0 106 40.5t36 109.5q0 71 -36 110.5t-106 39.5h-78v-300z" />
<glyph unicode="S" horiz-adv-x="495" d="M27 123l80 52q17 -45 54.5 -71t84.5 -26q56 0 87 29.5t31 75.5q0 30 -17 54.5t-44.5 41t-61 32.5t-67 35t-61 41.5t-44.5 58t-17 80.5q0 79 53 131.5t138 52.5q146 0 202 -141l-83 -48q-32 100 -120 100q-45 0 -71 -26t-26 -66q0 -42 32 -72t77.5 -51t91.5 -45t78 -68.5 t32 -107.5q0 -87 -57 -141t-153 -54q-76 0 -134 36.5t-85 96.5z" />
<glyph unicode="T" horiz-adv-x="437" d="M265 0h-93v611h-145v89h382v-89h-144v-611z" />
<glyph unicode="U" horiz-adv-x="566" d="M396 243v457h93v-467q0 -120 -55 -181.5t-150 -61.5t-151 61.5t-56 182.5v466h92v-458q0 -164 114 -164q63 0 88 43.5t25 121.5z" />
<glyph unicode="V" horiz-adv-x="484" d="M291 0h-99l-183 700h96l119 -485l16 -73h2q7 39 15 73l120 485h97z" />
<glyph unicode="W" horiz-adv-x="763" d="M597 0h-100l-104 458l-10 59h-4q-4 -27 -11 -59l-102 -458h-100l-159 700h97l103 -506q4 -19 10 -57h2q6 33 11 57l108 506h86l108 -506l11 -57h2q-3 5 9 57l104 506h97q-94 -414 -158 -700z" />
<glyph unicode="X" horiz-adv-x="472" d="M450 0h-98l-90 216l-25 70h-2q-15 -45 -26 -72l-89 -214h-98l153 350l-153 350h98l89 -216l26 -71h2q14 45 25 70l90 217h98l-153 -350z" />
<glyph unicode="Y" horiz-adv-x="462" d="M277 0h-93v203l-173 497h102l94 -296q16 -48 23 -89h2q7 41 22 89l94 296h103l-174 -497v-203z" />
<glyph unicode="Z" horiz-adv-x="482" d="M431 0h-407v2l261 552l31 56v2q-24 -1 -42 -1h-218v89h399v-2l-260 -544l-34 -66q0 -1 1 -1q15 1 33 1h236v-88z" />
<glyph unicode="[" horiz-adv-x="273" d="M263 -137h-187v984h187v-74h-103v-836h103v-74z" />
<glyph unicode="\" horiz-adv-x="286" d="M267 -60h-90l-159 820h92z" />
<glyph unicode="]" horiz-adv-x="273" d="M10 847h187v-984h-187v74h103v836h-103v74z" />
<glyph unicode="^" horiz-adv-x="340" d="M273 749l-60 64l-41 47h-2q-21 -26 -41 -47l-60 -64l-55 60l118 110h77l118 -110z" />
<glyph unicode="_" horiz-adv-x="388" d="M388 -184h-388v84h388v-84z" />
<glyph unicode="`" horiz-adv-x="252" d="M226 734l-223 94l33 72l218 -106z" />
<glyph unicode="a" horiz-adv-x="491" d="M436 0h-90q-8 10 -17 75q-45 -85 -137 -85q-72 0 -111.5 44t-39.5 114q0 82 71.5 128.5t215.5 46.5v33q0 57 -23.5 87.5t-68.5 30.5q-72 0 -110 -80l-59 62q71 99 184 99q74 0 121.5 -52.5t47.5 -155.5v-262q0 -55 16 -85zM328 215v39h-22q-83 0 -130 -27t-47 -79 q0 -39 23 -60.5t56 -21.5q55 0 87.5 43.5t32.5 105.5z" />
<glyph unicode="b" horiz-adv-x="508" d="M143 0h-81q11 55 11 85v645h92v-171l-1 -71h2q45 67 121 67q86 0 131 -75t45 -206t-48 -207.5t-133 -76.5q-80 0 -124 72h-2q-2 -30 -13 -62zM165 350v-110q0 -164 98 -164q106 0 106 198t-106 198q-47 0 -72.5 -35t-25.5 -87z" />
<glyph unicode="c" horiz-adv-x="457" d="M351 170l73 -54q-48 -126 -177 -126q-97 0 -149.5 74t-52.5 207q0 132 53.5 208t148.5 76q125 0 177 -124l-76 -55q-21 92 -97 92q-112 0 -112 -197q0 -195 112 -195q71 0 100 94z" />
<glyph unicode="d" d="M447 0h-83q-12 32 -14 65h-2q-42 -75 -128 -75q-83 0 -129 76.5t-46 206.5t48.5 206t136.5 76q70 0 111 -60h2q-1 34 -1 63v172h92v-646q0 -48 13 -84zM342 203v108q0 161 -98 161q-106 0 -106 -199q0 -198 106 -198q47 0 72.5 36t25.5 92z" />
<glyph unicode="e" horiz-adv-x="485" d="M370 164l69 -51q-31 -62 -76 -92.5t-115 -30.5q-98 0 -150.5 74t-52.5 206t54 208.5t149 76.5q45 0 79.5 -15t56 -40.5t35 -63.5t18.5 -78.5t5 -90.5v-25h-305q7 -170 120 -170q78 0 113 92zM137 312h216q-5 166 -102 166q-53 0 -81 -44.5t-33 -121.5z" />
<glyph unicode="f" horiz-adv-x="323" d="M194 0h-92v466h-72v79h72v25q0 182 148 182q41 0 77 -16l-23 -81q-23 16 -49 16q-61 0 -61 -85v-41h100v-79h-100v-466z" />
<glyph unicode="g" horiz-adv-x="514" d="M343 -5v26l2 64h-2q-41 -70 -121 -70q-85 0 -130.5 72.5t-45.5 201.5q0 127 48.5 196.5t137.5 69.5q77 0 119 -69h2q1 15 4 29.5t5 22.5l3 7h87q-16 -40 -16 -84v-457q0 -106 -48.5 -164t-140.5 -58q-123 0 -178 111l73 59q32 -84 103 -84q98 0 98 127zM343 235v88 q0 149 -97 149q-59 0 -83 -48t-24 -135q0 -188 103 -188q49 0 75 38t26 96z" />
<glyph unicode="h" horiz-adv-x="520" d="M458 0h-92v338q0 60 -23.5 97t-72.5 37t-78.5 -36t-29.5 -94v-342h-92v730h92v-189l-1 -63h2q46 77 132 77t124.5 -60t38.5 -156v-339z" />
<glyph unicode="i" horiz-adv-x="239" d="M165 0h-92v545h92v-545zM119 614q-23 0 -40 16.5t-17 40.5q0 23 17 39.5t40 16.5t40 -16.5t17 -39.5q0 -24 -17 -40.5t-40 -16.5z" />
<glyph unicode="j" horiz-adv-x="266" d="M-77 -201l32 84q21 -14 54 -14q47 0 68 32t21 104v540h95v-542q0 -108 -46 -164t-132 -56q-48 0 -92 16zM146 614q-23 0 -40 16.5t-17 40.5q0 23 17 39.5t40 16.5t40 -16.5t17 -39.5q0 -24 -17 -40.5t-40 -16.5z" />
<glyph unicode="k" horiz-adv-x="495" d="M472 0h-105l-148 263h-2q-14 -20 -29 -38l-26 -32v-193h-92v730h92v-343l-1 -65h2q0 1 59 75l120 148h110l-172 -211z" />
<glyph unicode="l" horiz-adv-x="232" d="M162 0h-92v730h92v-730z" />
<glyph unicode="m" horiz-adv-x="761" d="M699 0h-93v355q0 115 -75 115q-44 0 -71 -34.5t-27 -97.5v-338h-93v355q0 115 -75 115q-43 0 -70.5 -33.5t-27.5 -94.5v-342h-92v461q0 51 -13 84h83q11 -33 14 -72h2q42 79 125 79q104 0 132 -90h2q43 93 136 93q81 0 112 -52t31 -146v-357z" />
<glyph unicode="n" horiz-adv-x="532" d="M463 0h-92v303q0 81 -19 125t-77 44q-108 0 -108 -169v-303h-92v461q0 51 -13 84h83q12 -35 15 -76h2q45 86 138 86q87 0 125 -60t38 -156v-339z" />
<glyph unicode="o" horiz-adv-x="498" d="M249 74q110 0 110 199q0 90 -26.5 144.5t-83.5 54.5t-84 -54.5t-27 -144.5q0 -88 27 -143.5t84 -55.5zM249 -10q-101 0 -152.5 74.5t-51.5 208.5q0 133 51.5 207.5t152.5 74.5t152.5 -74.5t51.5 -207.5q0 -134 -51.5 -208.5t-152.5 -74.5z" />
<glyph unicode="p" d="M167 -200h-92v661q0 51 -13 84h83q10 -30 13 -63h2q47 73 124 73q85 0 132.5 -77t47.5 -209q0 -130 -45 -204.5t-129 -74.5q-79 0 -122 65h-2q1 -31 1 -63v-192zM167 317v-92q0 -153 98 -153q106 0 106 198t-106 198q-98 0 -98 -151z" />
<glyph unicode="q" horiz-adv-x="511" d="M436 -200h-93v195l2 65h-2q-40 -70 -123 -70q-85 0 -130 74t-45 206q0 131 47 208t133 77q81 0 125 -76h2q2 17 5 33.5t5 24.5l3 8h84q-13 -33 -13 -84v-661zM343 224v91q0 67 -23 110t-76 43q-106 0 -106 -198t106 -198q99 0 99 152z" />
<glyph unicode="r" horiz-adv-x="351" d="M167 0h-92v461q0 51 -13 84h83q14 -40 17 -90h2q45 99 153 99q3 0 9.5 -0.5t9.5 -0.5l-15 -106q-12 6 -36 6q-54 0 -86 -38t-32 -99v-316z" />
<glyph unicode="s" horiz-adv-x="474" d="M42 89l68 61q19 -34 58 -55.5t81 -21.5t66.5 21t24.5 54q0 32 -29 54.5t-70 37t-82 31t-70 49t-29 79.5q0 65 48.5 110t135.5 45q111 0 175 -79l-63 -58q-41 59 -118 59q-37 0 -62 -19t-25 -51q0 -28 29 -47t70 -32.5t82.5 -31t70.5 -53.5t29 -89q0 -72 -49 -117.5 t-132 -45.5q-138 0 -209 99z" />
<glyph unicode="t" horiz-adv-x="354" d="M301 89l23 -81q-38 -18 -89 -18q-70 0 -106 40.5t-36 116.5v318h-65v80h65v143h92v-143h116v-80h-116v-312q0 -77 64 -77q30 0 52 13z" />
<glyph unicode="u" horiz-adv-x="526" d="M463 0h-83q-12 34 -15 75h-2q-45 -85 -139 -85q-86 0 -124 59.5t-38 155.5v340h92v-304q0 -31 2 -53.5t7.5 -45.5t16 -37.5t28 -23.5t42.5 -9q54 0 81 40.5t27 95.5v337h92v-462q0 -53 13 -83z" />
<glyph unicode="v" horiz-adv-x="459" d="M277 0h-95l-163 545h99l87 -320l24 -102h2q12 52 25 102l84 320h99z" />
<glyph unicode="w" horiz-adv-x="760" d="M585 0h-95l-86 309l-24 101h-2q-10 -52 -24 -102l-85 -308h-94l-156 545h99l82 -320l21 -103h2q13 58 25 103l89 320h84l91 -319l25 -104h2q10 58 21 103l81 320h99z" />
<glyph unicode="x" horiz-adv-x="452" d="M421 0h-96l-70 147q-7 14 -14 30t-11 26t-3 10h-2q-15 -36 -29 -66l-70 -147h-96l132 273l-132 272h96l70 -147q6 -11 13 -28t11 -28l5 -10h2q15 39 28 66l70 147h96l-132 -272z" />
<glyph unicode="y" horiz-adv-x="475" d="M199 0l-172 545h104l89 -315q4 -16 9.5 -37.5t8.5 -35t3 -14.5h2q11 51 21 87l85 315h98l-151 -532q-33 -117 -72 -169t-108 -52q-61 0 -108 34l44 78q26 -24 63 -24q32 0 49.5 29.5t34.5 90.5z" />
<glyph unicode="z" horiz-adv-x="456" d="M396 0h-373v2l212 393l35 59v2h-216v89h363v-2l-204 -379q-11 -20 -22.5 -38.5t-17.5 -27.5l-6 -8v-2h229v-88z" />
<glyph unicode="{" horiz-adv-x="265" d="M213 -146h-10q-76 0 -120 36t-44 110q0 51 34.5 139.5t34.5 116.5q0 54 -67 54v83q67 0 67 54q0 28 -34.5 116.5t-34.5 139.5q0 74 44.5 110.5t119.5 36.5h10v-80h-11q-74 0 -74 -74q0 -34 32 -115.5t32 -128.5q0 -81 -73 -100v-2q73 -15 73 -99q0 -47 -32 -128.5 t-32 -115.5q0 -35 19 -54.5t54 -19.5l12 1v-80z" />
<glyph unicode="|" horiz-adv-x="242" d="M170 -100h-98v900h98v-900z" />
<glyph unicode="}" horiz-adv-x="265" d="M57 -146h-10v80q4 -1 12 -1q35 0 54 19.5t19 54.5q0 34 -32 115.5t-32 128.5q0 84 73 99v2q-73 19 -73 100q0 47 32 128.5t32 115.5q0 74 -74 74h-11v80h10q75 0 119.5 -36.5t44.5 -110.5q0 -51 -34.5 -139.5t-34.5 -116.5q0 -54 67 -54v-83q-67 0 -67 -54 q0 -28 34.5 -116.5t34.5 -139.5q0 -74 -44 -110t-120 -36z" />
<glyph unicode="~" horiz-adv-x="409" d="M299 445h60q0 -118 -94 -118q-32 0 -70.5 25.5t-53.5 25.5q-32 0 -32 -44h-60q0 118 93 118q32 0 71 -26t53 -26q16 0 24.5 13.5t8.5 31.5z" />
<glyph unicode="&#xa1;" horiz-adv-x="225" d="M67 516h92v-516h-92v516zM112 710q23 0 40 -16.5t17 -40.5q0 -23 -17 -39.5t-40 -16.5t-40 16.5t-17 39.5q0 24 17 40.5t40 16.5z" />
<glyph unicode="&#xa2;" horiz-adv-x="436" d="M160 61h-40l32 106q-53 25 -80.5 76t-27.5 114q0 87 51 148.5t142 61.5q24 0 41 -4l31 100h40l-35 -111q52 -20 81 -72l-65 -61q-33 60 -91 60q-49 0 -76.5 -35t-27.5 -87t27.5 -86t77.5 -34q61 0 92 62l69 -59q-54 -91 -161 -91q-32 0 -51 5z" />
<glyph unicode="&#xa3;" d="M425 113l35 -82q-38 -41 -104 -41q-28 0 -83 10.5t-79 10.5q-57 0 -90 -26l-50 69q69 76 69 176q0 29 -2 45h-89v65h82q-17 129 -17 157q0 98 44.5 155.5t138.5 57.5q134 0 173 -162l-82 -44q-18 117 -92 117q-43 0 -66 -33t-23 -91q0 -29 14 -157h156v-65h-151 q2 -26 2 -35q0 -75 -42 -146l1 -1v-1q11 2 36 2q19 0 61 -7.5t65 -7.5q56 0 93 34z" />
<glyph unicode="&#xa4;" horiz-adv-x="518" d="M403 186l80 -48q-52 -148 -195 -148q-206 0 -224 303h-49v34h48v46h-48v34h49q18 303 224 303q148 0 199 -161l-82 -45q-29 117 -117 117q-117 0 -131 -214h177v-34h-179v-46h179v-34h-177q14 -215 131 -215q84 0 115 108z" />
<glyph unicode="&#xa5;" horiz-adv-x="464" d="M279 0h-93v150h-121v34h121l-4 33l-14 38h-103v34h91l-143 411h102l87 -271l30 -104h2q16 57 31 104l85 271h103l-143 -411h91v-34h-103l-14 -38l-4 -33h121v-34h-122v-150z" />
<glyph unicode="&#xa6;" horiz-adv-x="234" d="M162 -99h-90v413h90v-413zM162 401h-90v400h90v-400z" />
<glyph unicode="&#xa7;" horiz-adv-x="503" d="M410 238v-2q35 -30 35 -82q0 -68 -54 -116t-144 -48q-139 0 -205 110l70 56q50 -82 143 -82q48 0 71.5 21.5t23.5 54.5q0 30 -30.5 48.5t-74.5 30t-88 26t-74.5 46.5t-30.5 81q0 62 46 98v2q-26 29 -26 78q0 70 49 110t131 40q133 0 185 -126l-80 -50q-33 91 -112 91 q-42 0 -66 -18t-24 -49q0 -33 30 -52.5t73.5 -30.5t86.5 -24.5t73 -45t30 -82.5q0 -55 -38 -85zM151 441q-24 -19 -24 -52q0 -29 23.5 -47.5t53 -26t74.5 -19t72 -23.5q21 19 21 45q0 38 -34.5 57.5t-96 35t-89.5 30.5z" />
<glyph unicode="&#xa8;" horiz-adv-x="322" d="M132 805q0 -20 -13 -32t-34 -12t-34 12t-13 32t13 33t34 13q20 0 33.5 -13t13.5 -33zM283 805q0 -20 -13 -32t-34 -12t-34 12t-13 32t13.5 33t33.5 13t33.5 -13t13.5 -33z" />
<glyph unicode="&#xa9;" horiz-adv-x="787" d="M755 350q0 -153 -104 -256.5t-257 -103.5q-154 0 -258 103t-104 257q0 153 104 256.5t258 103.5q153 0 257 -103.5t104 -256.5zM395 50q127 0 211 85.5t84 214.5q0 128 -84 214t-211 86q-129 0 -214 -86t-85 -214q0 -129 85 -214.5t214 -85.5zM443 297l51 -28 q-26 -81 -102 -81q-59 0 -90 47t-31 121t31 120.5t90 46.5q74 0 100 -79l-51 -26q-13 45 -49 45q-28 0 -43 -28t-15 -79q0 -108 58 -108q35 0 51 49z" />
<glyph unicode="&#xaa;" horiz-adv-x="269" d="M249 383h-65l-12 56h-74l-12 -56h-65l87 317h53zM162 485l-14 66l-12 69h-2q-5 -30 -13 -69l-13 -66h54z" />
<glyph unicode="&#xab;" horiz-adv-x="474" d="M251 231l-58 -57l-156 146v67l156 145l58 -56l-95 -79q-22 -18 -38.5 -31t-16.5 -12v-2q8 -3 55 -42zM436 231l-58 -57l-156 146v67l156 145l58 -56l-95 -79q-22 -18 -38.5 -31t-16.5 -12v-2q8 -3 55 -42z" />
<glyph unicode="&#xac;" horiz-adv-x="353" d="M268 199l-94 93l-91 -91l-52 53l92 91l-95 94l57 57l93 -94l92 91l52 -53l-93 -91l96 -93z" />
<glyph unicode="&#xae;" horiz-adv-x="787" d="M755 350q0 -153 -104 -256.5t-257 -103.5q-154 0 -258 103t-104 257q0 153 104 256.5t258 103.5q153 0 257 -103.5t104 -256.5zM394 50q128 0 212 85.5t84 214.5q0 128 -84 213.5t-212 85.5t-213.5 -85.5t-85.5 -213.5q0 -129 85.5 -214.5t213.5 -85.5zM514 195h-69 q-30 66 -44 99q-5 -1 -10 -1h-34v-98h-63v322h97q55 0 84.5 -30.5t29.5 -81.5q0 -64 -43 -94zM357 353h36q49 0 49 52q0 51 -49 51h-36v-103z" />
<glyph unicode="&#xaf;" horiz-adv-x="295" d="M266 801h-237v82h237v-82z" />
<glyph unicode="&#xb0;" horiz-adv-x="294" d="M276 601q0 -56 -35.5 -88.5t-92.5 -32.5q-58 0 -93.5 32.5t-35.5 88.5q0 55 36 89t93 34t92.5 -34t35.5 -89zM203 601q0 24 -15.5 39.5t-39.5 15.5t-40.5 -15.5t-16.5 -39.5t16 -39t41 -15q24 0 39.5 15t15.5 39z" />
<glyph unicode="&#xb1;" horiz-adv-x="350" d="M215 291h-80v121h-117v74h117v121h80v-121h117v-74h-117v-121zM306 131h-263v82h263v-82z" />
<glyph unicode="&#xb2;" horiz-adv-x="272" d="M227 385h-197v2l114 169q23 34 23 58q0 36 -33 36q-38 0 -47 -57l-58 25q27 92 107 92q46 0 71.5 -27t25.5 -67q0 -35 -28 -78l-33 -50l-34 -43v-3h89v-57z" />
<glyph unicode="&#xb3;" horiz-adv-x="261" d="M106 526l-26 45l30 32l40 38v2h-115v57h195v-49l-80 -77l1 -2q40 -5 63 -29.5t23 -64.5q0 -44 -28.5 -73.5t-80.5 -29.5q-81 0 -109 77l55 31q12 -50 57 -50q22 0 34 13t12 34q0 28 -20.5 39t-50.5 7z" />
<glyph unicode="&#xb4;" horiz-adv-x="262" d="M255 828l-223 -94l-28 60l217 106z" />
<glyph unicode="&#xb6;" horiz-adv-x="503" d="M443 0h-40v700h40v-700zM373 0h-87v195q-118 0 -183.5 75t-65.5 180q0 102 57 176t168 74h111v-700z" />
<glyph unicode="&#xb7;" horiz-adv-x="207" d="M103 263q-23 0 -40 16.5t-17 40.5q0 23 17 39.5t40 16.5t40 -16.5t17 -39.5q0 -24 -17 -40.5t-40 -16.5z" />
<glyph unicode="&#xb8;" horiz-adv-x="273" d="M38 -219l53 45q17 -35 53 -35q25 0 38.5 13.5t13.5 34.5q0 20 -14.5 33.5t-38.5 13.5q-33 0 -50 -23l-51 27l31 136h60l-23 -96l2 -1q20 10 43 10q46 0 76 -28t30 -74q0 -51 -32 -79.5t-83 -28.5q-77 0 -108 52z" />
<glyph unicode="&#xb9;" horiz-adv-x="173" d="M128 385h-63v255h-32v60h95v-315z" />
<glyph unicode="&#xba;" horiz-adv-x="279" d="M139 371q-113 0 -113 170q0 169 113 169t113 -169q0 -170 -113 -170zM139 426q52 0 52 115q0 113 -52 113t-52 -113q0 -115 52 -115z" />
<glyph unicode="&#xbb;" horiz-adv-x="474" d="M90 174l-58 57l95 79q47 39 55 42v2q0 -1 -16.5 12t-38.5 31l-95 79l58 56l156 -145v-67zM276 174l-58 57l95 79q47 39 55 42v2q0 -1 -16.5 12t-38.5 31l-95 79l58 56l156 -145v-67z" />
<glyph unicode="&#xbc;" horiz-adv-x="474" d="M400 0h-63v57h-118l115 259h66v-198h36v-61h-36v-57zM344 113v114h-2q-18 -58 -48 -111v-1q1 -1 1 -2h49zM89 0h-71l363 700h72zM144 385h-63v255h-32v60h95v-315z" />
<glyph unicode="&#xbd;" horiz-adv-x="521" d="M89 0h-71l363 700h72zM144 385h-63v255h-32v60h95v-315zM466 0h-197v2l114 169q23 34 23 58q0 36 -33 36q-38 0 -47 -57l-58 25q27 92 107 92q46 0 71.5 -27t25.5 -67q0 -35 -28 -78l-33 -50l-34 -43v-3h89v-57z" />
<glyph unicode="&#xbe;" horiz-adv-x="504" d="M432 0h-63v57h-118l116 259h65v-198h36v-61h-36v-57zM377 113v114h-3q-16 -52 -47 -111v-3h50zM119 0h-71l363 700h72zM112 526l-26 45l30 32l40 38v2h-115v57h195v-49l-80 -77l1 -2q40 -5 63 -29.5t23 -64.5q0 -44 -28.5 -73.5t-80.5 -29.5q-81 0 -109 77l55 31 q12 -50 57 -50q22 0 34 13t12 34q0 28 -20.5 39t-50.5 7z" />
<glyph unicode="&#xbf;" horiz-adv-x="428" d="M169 510l77 44q34 -38 34 -93q0 -36 -17 -69t-41 -59t-48 -50.5t-41 -52.5t-17 -56q0 -44 24.5 -69.5t70.5 -25.5t76.5 35t35.5 91l85 -46q-16 -75 -68 -122t-128 -47q-90 0 -141 50t-51 135q0 40 17 76t41 62t48 49t41 48t17 50t-15 50zM157 654q0 23 16.5 39.5 t40.5 16.5q23 0 39.5 -16.5t16.5 -39.5t-16.5 -40t-39.5 -17q-24 0 -40.5 17t-16.5 40z" />
<glyph unicode="&#xc0;" horiz-adv-x="503" d="M483 0h-97l-36 143h-198l-35 -143h-97l182 700h99zM332 226l-65 264l-14 69h-2q-8 -42 -15 -69l-65 -264h161zM341 734l-223 94l33 72l218 -106z" />
<glyph unicode="&#xc1;" horiz-adv-x="503" d="M483 0h-97l-36 143h-198l-35 -143h-97l182 700h99zM332 226l-65 264l-14 69h-2q-8 -42 -15 -69l-65 -264h161zM376 828l-223 -94l-28 60l217 106z" />
<glyph unicode="&#xc2;" horiz-adv-x="503" d="M483 0h-97l-36 143h-198l-35 -143h-97l182 700h99zM332 226l-65 264l-14 69h-2q-8 -42 -15 -69l-65 -264h161zM357 749l-60 64l-41 47h-2q-21 -26 -41 -47l-60 -64l-55 60l118 110h77l118 -110z" />
<glyph unicode="&#xc3;" horiz-adv-x="503" d="M483 0h-97l-36 143h-198l-35 -143h-97l182 700h99zM332 226l-65 264l-14 69h-2q-8 -42 -15 -69l-65 -264h161zM340 885h60q0 -118 -94 -118q-32 0 -70.5 25.5t-53.5 25.5q-32 0 -32 -44h-60q0 118 93 118q32 0 71 -26t53 -26q16 0 24.5 13.5t8.5 31.5z" />
<glyph unicode="&#xc4;" horiz-adv-x="503" d="M483 0h-97l-36 143h-198l-35 -143h-97l182 700h99zM332 226l-65 264l-14 69h-2q-8 -42 -15 -69l-65 -264h161zM225 805q0 -20 -13 -32t-34 -12t-34 12t-13 32t13 33t34 13q20 0 33.5 -13t13.5 -33zM376 805q0 -20 -13 -32t-34 -12t-34 12t-13 32t13.5 33t33.5 13 t33.5 -13t13.5 -33z" />
<glyph unicode="&#xc5;" horiz-adv-x="503" d="M483 0h-97l-36 143h-198l-35 -143h-97l182 700h99zM332 226l-65 264l-14 69h-2q-8 -42 -15 -69l-65 -264h161zM349 856q0 -42 -26.5 -66.5t-69.5 -24.5t-70 25t-27 66t27.5 67t69.5 26q43 0 69.5 -26t26.5 -67zM290 856q0 16 -10.5 26.5t-26.5 10.5t-27 -10.5t-11 -26.5 q0 -15 11 -25t27 -10t26.5 9.5t10.5 25.5z" />
<glyph unicode="&#xc6;" horiz-adv-x="771" d="M700 0h-354v143h-181l-63 -143h-99l311 700h386v-89h-261v-241h223v-88h-223v-194h261v-88zM346 232v343q-5 -7 -11.5 -24t-16.5 -43t-17 -43l-101 -233h146z" />
<glyph unicode="&#xc7;" horiz-adv-x="511" d="M168 -219l53 45q17 -35 53 -35q25 0 38.5 13.5t13.5 34.5q0 20 -14.5 33.5t-38.5 13.5q-33 0 -50 -23l-51 27l26 114q-154 59 -154 346q0 76 12 138t38.5 113.5t73.5 80t111 28.5q151 0 206 -159l-81 -45q-34 116 -125 116q-74 0 -108.5 -74t-34.5 -198t34.5 -198 t108.5 -74q87 0 122 107l80 -48q-57 -147 -202 -147q-17 0 -25 1l-14 -61l2 -1q20 10 43 10q46 0 76 -28t30 -74q0 -51 -32 -79.5t-83 -28.5q-77 0 -108 52z" />
<glyph unicode="&#xc8;" horiz-adv-x="507" d="M436 0h-354v700h354v-89h-262v-241h223v-88h-223v-194h262v-88zM354 734l-223 94l33 72l218 -106z" />
<glyph unicode="&#xc9;" horiz-adv-x="507" d="M436 0h-354v700h354v-89h-262v-241h223v-88h-223v-194h262v-88zM391 828l-223 -94l-28 60l217 106z" />
<glyph unicode="&#xca;" horiz-adv-x="507" d="M436 0h-354v700h354v-89h-262v-241h223v-88h-223v-194h262v-88zM359 749l-60 64l-41 47h-2q-21 -26 -41 -47l-60 -64l-55 60l118 110h77l118 -110z" />
<glyph unicode="&#xcb;" horiz-adv-x="507" d="M436 0h-354v700h354v-89h-262v-241h223v-88h-223v-194h262v-88zM232 805q0 -20 -13 -32t-34 -12t-34 12t-13 32t13 33t34 13q20 0 33.5 -13t13.5 -33zM383 805q0 -20 -13 -32t-34 -12t-34 12t-13 32t13.5 33t33.5 13t33.5 -13t13.5 -33z" />
<glyph unicode="&#xcc;" horiz-adv-x="256" d="M174 0h-92v700h92v-700zM211 734l-223 94l33 72l218 -106z" />
<glyph unicode="&#xcd;" horiz-adv-x="256" d="M175 0h-92v700h92v-700zM261 828l-223 -94l-28 60l217 106z" />
<glyph unicode="&#xce;" horiz-adv-x="256" d="M174 0h-92v700h92v-700zM233 749l-60 64l-41 47h-2q-21 -26 -41 -47l-60 -64l-55 60l118 110h77l118 -110z" />
<glyph unicode="&#xcf;" horiz-adv-x="256" d="M174 0h-92v700h92v-700zM101 805q0 -20 -13 -32t-34 -12t-34 12t-13 32t13 33t34 13q20 0 33.5 -13t13.5 -33zM252 805q0 -20 -13 -32t-34 -12t-34 12t-13 32t13.5 33t33.5 13t33.5 -13t13.5 -33z" />
<glyph unicode="&#xd0;" horiz-adv-x="542" d="M241 0h-164v315h-58v72h58v313h160q56 0 99.5 -18t72.5 -49.5t48.5 -76.5t27.5 -96t8 -110q0 -157 -60.5 -253.5t-191.5 -96.5zM169 88h72q81 0 120.5 70.5t39.5 191.5q0 122 -40 192t-124 70h-68v-225h107v-72h-107v-227z" />
<glyph unicode="&#xd1;" horiz-adv-x="588" d="M506 0h-86l-255 515h-2q3 -36 3 -69v-446h-84v700h86l227 -450l26 -61h2q0 1 -0.5 13t-1 28t-0.5 27v443h85v-700zM387 885h60q0 -118 -94 -118q-32 0 -70.5 25.5t-53.5 25.5q-32 0 -32 -44h-60q0 118 93 118q32 0 71 -26t53 -26q16 0 24.5 13.5t8.5 31.5z" />
<glyph unicode="&#xd2;" horiz-adv-x="553" d="M276 -10q-82 0 -135.5 50t-75 128t-21.5 182t21.5 182t75 128t135.5 50q121 0 177 -99t56 -261t-56 -261t-177 -99zM276 78q72 0 106.5 72t34.5 200q0 272 -141 272q-140 0 -140 -272q0 -128 34.5 -200t105.5 -72zM373 734l-223 94l33 72l218 -106z" />
<glyph unicode="&#xd3;" horiz-adv-x="553" d="M276 -10q-82 0 -135.5 50t-75 128t-21.5 182t21.5 182t75 128t135.5 50q121 0 177 -99t56 -261t-56 -261t-177 -99zM276 78q72 0 106.5 72t34.5 200q0 272 -141 272q-140 0 -140 -272q0 -128 34.5 -200t105.5 -72zM400 828l-223 -94l-28 60l217 106z" />
<glyph unicode="&#xd4;" horiz-adv-x="553" d="M276 -10q-82 0 -135.5 50t-75 128t-21.5 182t21.5 182t75 128t135.5 50q121 0 177 -99t56 -261t-56 -261t-177 -99zM276 78q72 0 106.5 72t34.5 200q0 272 -141 272q-140 0 -140 -272q0 -128 34.5 -200t105.5 -72zM380 749l-60 64l-41 47h-2q-21 -26 -41 -47l-60 -64 l-55 60l118 110h77l118 -110z" />
<glyph unicode="&#xd5;" horiz-adv-x="553" d="M276 -10q-82 0 -135.5 50t-75 128t-21.5 182t21.5 182t75 128t135.5 50q121 0 177 -99t56 -261t-56 -261t-177 -99zM276 78q72 0 106.5 72t34.5 200q0 272 -141 272q-140 0 -140 -272q0 -128 34.5 -200t105.5 -72zM372 885h60q0 -118 -94 -118q-32 0 -70.5 25.5 t-53.5 25.5q-32 0 -32 -44h-60q0 118 93 118q32 0 71 -26t53 -26q16 0 24.5 13.5t8.5 31.5z" />
<glyph unicode="&#xd6;" horiz-adv-x="553" d="M276 -10q-82 0 -135.5 50t-75 128t-21.5 182t21.5 182t75 128t135.5 50q121 0 177 -99t56 -261t-56 -261t-177 -99zM276 78q72 0 106.5 72t34.5 200q0 272 -141 272q-140 0 -140 -272q0 -128 34.5 -200t105.5 -72zM249 805q0 -20 -13 -32t-34 -12t-34 12t-13 32t13 33 t34 13q20 0 33.5 -13t13.5 -33zM400 805q0 -20 -13 -32t-34 -12t-34 12t-13 32t13.5 33t33.5 13t33.5 -13t13.5 -33z" />
<glyph unicode="&#xd7;" horiz-adv-x="353" d="M262 205l-88 87l-85 -85l-53 53l87 85l-89 88l57 57l87 -88l86 85l53 -52l-88 -86l90 -87z" />
<glyph unicode="&#xd8;" horiz-adv-x="552" d="M276 -10q-82 0 -135.5 50t-75 128t-21.5 182t21.5 182t75 128t135.5 50t135.5 -50t75 -128t21.5 -182t-21.5 -182t-75 -128t-135.5 -50zM375 551l-175 -437q30 -36 76 -36q140 0 140 272q0 137 -41 201zM176 152l174 436q-29 34 -74 34q-140 0 -140 -272q0 -135 40 -198z " />
<glyph unicode="&#xd9;" horiz-adv-x="566" d="M396 243v457h93v-467q0 -120 -55 -181.5t-150 -61.5t-151 61.5t-56 182.5v466h92v-458q0 -164 114 -164q63 0 88 43.5t25 121.5zM378 734l-223 94l33 72l218 -106z" />
<glyph unicode="&#xda;" horiz-adv-x="566" d="M396 243v457h93v-467q0 -120 -55 -181.5t-150 -61.5t-151 61.5t-56 182.5v466h92v-458q0 -164 114 -164q63 0 88 43.5t25 121.5zM414 828l-223 -94l-28 60l217 106z" />
<glyph unicode="&#xdb;" horiz-adv-x="566" d="M396 243v457h93v-467q0 -120 -55 -181.5t-150 -61.5t-151 61.5t-56 182.5v466h92v-458q0 -164 114 -164q63 0 88 43.5t25 121.5zM387 749l-60 64l-41 47h-2q-21 -26 -41 -47l-60 -64l-55 60l118 110h77l118 -110z" />
<glyph unicode="&#xdc;" horiz-adv-x="566" d="M396 243v457h93v-467q0 -120 -55 -181.5t-150 -61.5t-151 61.5t-56 182.5v466h92v-458q0 -164 114 -164q63 0 88 43.5t25 121.5zM254 805q0 -20 -13 -32t-34 -12t-34 12t-13 32t13 33t34 13q20 0 33.5 -13t13.5 -33zM405 805q0 -20 -13 -32t-34 -12t-34 12t-13 32 t13.5 33t33.5 13t33.5 -13t13.5 -33z" />
<glyph unicode="&#xdd;" horiz-adv-x="462" d="M277 0h-93v203l-173 497h102l94 -296q16 -48 23 -89h2q7 41 22 89l94 296h103l-174 -497v-203zM355 828l-223 -94l-28 60l217 106z" />
<glyph unicode="&#xde;" horiz-adv-x="499" d="M174 0h-92v700h92v-90h79q107 0 161.5 -71.5t54.5 -179.5t-58 -181t-169 -73h-68v-105zM174 194h70q65 0 99 45.5t34 118.5q0 74 -34.5 119t-99.5 45h-69v-328z" />
<glyph unicode="&#xdf;" horiz-adv-x="523" d="M205 27l39 75q31 -29 74 -29q39 0 61.5 20t22.5 54q0 29 -19.5 50.5t-47 36.5t-55.5 31.5t-47.5 46.5t-19.5 72q0 33 13 58.5t31 41t36 30t31 33.5t13 42q0 34 -23 52.5t-57 18.5q-43 0 -68.5 -28.5t-25.5 -79.5v-552h-93v545q0 95 51 145.5t135 50.5q73 0 121 -39.5 t48 -114.5q0 -36 -12.5 -63t-30.5 -42.5t-35.5 -29t-30 -29.5t-12.5 -36q0 -25 19.5 -43t47 -32t54.5 -31.5t46.5 -50t19.5 -77.5q0 -72 -44.5 -117.5t-131.5 -45.5q-63 0 -110 37z" />
<glyph unicode="&#xe0;" horiz-adv-x="491" d="M436 0h-90q-8 10 -17 75q-45 -85 -137 -85q-72 0 -111.5 44t-39.5 114q0 82 71.5 128.5t215.5 46.5v33q0 57 -23.5 87.5t-68.5 30.5q-72 0 -110 -80l-59 62q71 99 184 99q74 0 121.5 -52.5t47.5 -155.5v-262q0 -55 16 -85zM328 215v39h-22q-83 0 -130 -27t-47 -79 q0 -39 23 -60.5t56 -21.5q55 0 87.5 43.5t32.5 105.5zM341 586l-223 94l33 72l218 -106z" />
<glyph unicode="&#xe1;" horiz-adv-x="491" d="M436 0h-90q-8 10 -17 75q-45 -85 -137 -85q-72 0 -111.5 44t-39.5 114q0 82 71.5 128.5t215.5 46.5v33q0 57 -23.5 87.5t-68.5 30.5q-72 0 -110 -80l-59 62q71 99 184 99q74 0 121.5 -52.5t47.5 -155.5v-262q0 -55 16 -85zM328 215v39h-22q-83 0 -130 -27t-47 -79 q0 -39 23 -60.5t56 -21.5q55 0 87.5 43.5t32.5 105.5zM364 681l-223 -94l-28 60l217 106z" />
<glyph unicode="&#xe2;" horiz-adv-x="491" d="M436 0h-90q-8 10 -17 75q-45 -85 -137 -85q-72 0 -111.5 44t-39.5 114q0 82 71.5 128.5t215.5 46.5v33q0 57 -23.5 87.5t-68.5 30.5q-72 0 -110 -80l-59 62q71 99 184 99q74 0 121.5 -52.5t47.5 -155.5v-262q0 -55 16 -85zM328 215v39h-22q-83 0 -130 -27t-47 -79 q0 -39 23 -60.5t56 -21.5q55 0 87.5 43.5t32.5 105.5zM345 594l-60 64l-41 47h-2q-21 -26 -41 -47l-60 -64l-55 60l118 110h77l118 -110z" />
<glyph unicode="&#xe3;" horiz-adv-x="491" d="M436 0h-90q-8 10 -17 75q-45 -85 -137 -85q-72 0 -111.5 44t-39.5 114q0 82 71.5 128.5t215.5 46.5v33q0 57 -23.5 87.5t-68.5 30.5q-72 0 -110 -80l-59 62q71 99 184 99q74 0 121.5 -52.5t47.5 -155.5v-262q0 -55 16 -85zM328 215v39h-22q-83 0 -130 -27t-47 -79 q0 -39 23 -60.5t56 -21.5q55 0 87.5 43.5t32.5 105.5zM333 720h60q0 -118 -94 -118q-32 0 -70.5 25.5t-53.5 25.5q-32 0 -32 -44h-60q0 118 93 118q32 0 71 -26t53 -26q16 0 24.5 13.5t8.5 31.5z" />
<glyph unicode="&#xe4;" horiz-adv-x="491" d="M436 0h-90q-8 10 -17 75q-45 -85 -137 -85q-72 0 -111.5 44t-39.5 114q0 82 71.5 128.5t215.5 46.5v33q0 57 -23.5 87.5t-68.5 30.5q-72 0 -110 -80l-59 62q71 99 184 99q74 0 121.5 -52.5t47.5 -155.5v-262q0 -55 16 -85zM328 215v39h-22q-83 0 -130 -27t-47 -79 q0 -39 23 -60.5t56 -21.5q55 0 87.5 43.5t32.5 105.5zM211 662q0 -20 -13 -32t-34 -12t-34 12t-13 32t13 33t34 13q20 0 33.5 -13t13.5 -33zM362 662q0 -20 -13 -32t-34 -12t-34 12t-13 32t13.5 33t33.5 13t33.5 -13t13.5 -33z" />
<glyph unicode="&#xe5;" horiz-adv-x="491" d="M436 0h-90q-8 10 -17 75q-45 -85 -137 -85q-72 0 -111.5 44t-39.5 114q0 82 71.5 128.5t215.5 46.5v33q0 57 -23.5 87.5t-68.5 30.5q-72 0 -110 -80l-59 62q71 99 184 99q74 0 121.5 -52.5t47.5 -155.5v-262q0 -55 16 -85zM328 215v39h-22q-83 0 -130 -27t-47 -79 q0 -39 23 -60.5t56 -21.5q55 0 87.5 43.5t32.5 105.5zM338 696q0 -42 -26.5 -66.5t-69.5 -24.5t-70 25t-27 66t27.5 67t69.5 26q43 0 69.5 -26t26.5 -67zM279 696q0 16 -10.5 26.5t-26.5 10.5t-27 -10.5t-11 -26.5q0 -15 11 -25t27 -10t26.5 9.5t10.5 25.5z" />
<glyph unicode="&#xe6;" horiz-adv-x="768" d="M653 164l68 -51q-31 -63 -72.5 -93t-106.5 -30q-129 0 -170 139q-53 -139 -174 -139q-73 0 -115 43t-42 115q0 82 71.5 128.5t215.5 46.5v33q0 55 -23.5 86.5t-68.5 31.5q-72 0 -110 -80l-59 62q73 99 175 99q108 0 137 -124h2q45 124 158 124q55 0 93 -24.5t57.5 -70 t27.5 -96t8 -114.5h-306q0 -83 32 -130.5t89 -47.5q77 0 113 92zM328 215v39h-22q-83 0 -130 -27t-47 -79q0 -39 23 -60.5t56 -21.5q56 0 88 43t32 106zM420 320h215q-7 158 -102 158q-99 0 -113 -158z" />
<glyph unicode="&#xe7;" horiz-adv-x="457" d="M139 -219l53 45q18 -35 53 -35q25 0 38.5 13.5t13.5 34.5q0 20 -14.5 33.5t-38.5 13.5q-33 0 -50 -23l-51 27l26 115q-124 54 -124 266q0 132 53.5 208t148.5 76q125 0 177 -124l-76 -55q-21 92 -97 92q-112 0 -112 -197q0 -195 112 -195q71 0 100 94l73 -54 q-48 -126 -177 -126q-4 0 -11.5 0.5t-10.5 0.5l-14 -61l2 -1q20 10 43 10q46 0 76 -28t30 -74q0 -51 -32 -79.5t-83 -28.5q-77 0 -108 52z" />
<glyph unicode="&#xe8;" horiz-adv-x="485" d="M370 164l69 -51q-31 -62 -76 -92.5t-115 -30.5q-98 0 -150.5 74t-52.5 206t54 208.5t149 76.5q45 0 79.5 -15t56 -40.5t35 -63.5t18.5 -78.5t5 -90.5v-25h-305q7 -170 120 -170q78 0 113 92zM137 312h216q-5 166 -102 166q-53 0 -81 -44.5t-33 -121.5zM350 586l-223 94 l33 72l218 -106z" />
<glyph unicode="&#xe9;" horiz-adv-x="485" d="M370 164l69 -51q-31 -62 -76 -92.5t-115 -30.5q-98 0 -150.5 74t-52.5 206t54 208.5t149 76.5q45 0 79.5 -15t56 -40.5t35 -63.5t18.5 -78.5t5 -90.5v-25h-305q7 -170 120 -170q78 0 113 92zM137 312h216q-5 166 -102 166q-53 0 -81 -44.5t-33 -121.5zM372 680l-223 -94 l-28 60l217 106z" />
<glyph unicode="&#xea;" horiz-adv-x="485" d="M370 164l69 -51q-31 -62 -76 -92.5t-115 -30.5q-98 0 -150.5 74t-52.5 206t54 208.5t149 76.5q45 0 79.5 -15t56 -40.5t35 -63.5t18.5 -78.5t5 -90.5v-25h-305q7 -170 120 -170q78 0 113 92zM137 312h216q-5 166 -102 166q-53 0 -81 -44.5t-33 -121.5zM350 603l-60 64 l-41 47h-2q-21 -26 -41 -47l-60 -64l-55 60l118 110h77l118 -110z" />
<glyph unicode="&#xeb;" horiz-adv-x="485" d="M370 164l69 -51q-31 -62 -76 -92.5t-115 -30.5q-98 0 -150.5 74t-52.5 206t54 208.5t149 76.5q45 0 79.5 -15t56 -40.5t35 -63.5t18.5 -78.5t5 -90.5v-25h-305q7 -170 120 -170q78 0 113 92zM137 312h216q-5 166 -102 166q-53 0 -81 -44.5t-33 -121.5zM215 663 q0 -20 -13 -32t-34 -12t-34 12t-13 32t13 33t34 13q20 0 33.5 -13t13.5 -33zM366 663q0 -20 -13 -32t-34 -12t-34 12t-13 32t13.5 33t33.5 13t33.5 -13t13.5 -33z" />
<glyph unicode="&#xec;" horiz-adv-x="258" d="M191 597l-161 68l33 72l156 -80zM174 0h-92v545h92v-545z" />
<glyph unicode="&#xed;" horiz-adv-x="258" d="M222 665l-161 -68l-28 60l156 80zM178 0h-92v545h92v-545z" />
<glyph unicode="&#xee;" horiz-adv-x="267" d="M179 0h-92v545h92v-545zM225 607l-53 57l-37 42h-1q-19 -24 -37 -42l-53 -57l-49 53l105 98h68l106 -98z" />
<glyph unicode="&#xef;" horiz-adv-x="248" d="M111 662q0 -20 -13 -32t-34 -12t-34 12t-13 32t13 33t34 13q20 0 33.5 -13t13.5 -33zM231 662q0 -20 -13 -32t-34 -12t-34 12t-13 32t13.5 33t33.5 13t33.5 -13t13.5 -33zM168 0h-92v545h92v-545z" />
<glyph unicode="&#xf0;" d="M445 0h-81q-10 24 -14 65h-2q-40 -75 -128 -75q-84 0 -129.5 73.5t-45.5 203.5t48.5 203t136.5 73q69 0 111 -61h2v53q0 50 -19 82q-1 -1 -19.5 -18t-27.5 -26l-27 27l45 48q-24 17 -67 17q-16 0 -24 -1v85h12q85 0 136 -38l55 59l36 -39l-56 -53q45 -57 45 -153v-441 q0 -48 13 -84zM342 204v98q0 158 -98 158q-106 0 -106 -193q0 -192 106 -192q47 0 72.5 36t25.5 93z" />
<glyph unicode="&#xf1;" horiz-adv-x="532" d="M463 0h-92v303q0 81 -19 125t-77 44q-108 0 -108 -169v-303h-92v461q0 51 -13 84h83q12 -35 15 -76h2q45 86 138 86q87 0 125 -60t38 -156v-339zM370 737h60q0 -118 -94 -118q-32 0 -70.5 25.5t-53.5 25.5q-32 0 -32 -44h-60q0 118 93 118q32 0 71 -26t53 -26 q16 0 24.5 13.5t8.5 31.5z" />
<glyph unicode="&#xf2;" horiz-adv-x="498" d="M249 74q110 0 110 199q0 90 -26.5 144.5t-83.5 54.5t-84 -54.5t-27 -144.5q0 -88 27 -143.5t84 -55.5zM249 -10q-101 0 -152.5 74.5t-51.5 208.5q0 133 51.5 207.5t152.5 74.5t152.5 -74.5t51.5 -207.5q0 -134 -51.5 -208.5t-152.5 -74.5zM348 586l-223 94l33 72 l218 -106z" />
<glyph unicode="&#xf3;" horiz-adv-x="498" d="M249 74q110 0 110 199q0 90 -26.5 144.5t-83.5 54.5t-84 -54.5t-27 -144.5q0 -88 27 -143.5t84 -55.5zM249 -10q-101 0 -152.5 74.5t-51.5 208.5q0 133 51.5 207.5t152.5 74.5t152.5 -74.5t51.5 -207.5q0 -134 -51.5 -208.5t-152.5 -74.5zM372 683l-223 -94l-28 60 l217 106z" />
<glyph unicode="&#xf4;" horiz-adv-x="498" d="M249 74q110 0 110 199q0 90 -26.5 144.5t-83.5 54.5t-84 -54.5t-27 -144.5q0 -88 27 -143.5t84 -55.5zM249 -10q-101 0 -152.5 74.5t-51.5 208.5q0 133 51.5 207.5t152.5 74.5t152.5 -74.5t51.5 -207.5q0 -134 -51.5 -208.5t-152.5 -74.5zM352 602l-60 64l-41 47h-2 q-21 -26 -41 -47l-60 -64l-55 60l118 110h77l118 -110z" />
<glyph unicode="&#xf5;" horiz-adv-x="498" d="M249 74q110 0 110 199q0 90 -26.5 144.5t-83.5 54.5t-84 -54.5t-27 -144.5q0 -88 27 -143.5t84 -55.5zM249 -10q-101 0 -152.5 74.5t-51.5 208.5q0 133 51.5 207.5t152.5 74.5t152.5 -74.5t51.5 -207.5q0 -134 -51.5 -208.5t-152.5 -74.5zM339 737h60q0 -118 -94 -118 q-32 0 -70.5 25.5t-53.5 25.5q-32 0 -32 -44h-60q0 118 93 118q32 0 71 -26t53 -26q16 0 24.5 13.5t8.5 31.5z" />
<glyph unicode="&#xf6;" horiz-adv-x="498" d="M249 74q110 0 110 199q0 90 -26.5 144.5t-83.5 54.5t-84 -54.5t-27 -144.5q0 -88 27 -143.5t84 -55.5zM249 -10q-101 0 -152.5 74.5t-51.5 208.5q0 133 51.5 207.5t152.5 74.5t152.5 -74.5t51.5 -207.5q0 -134 -51.5 -208.5t-152.5 -74.5zM221 663q0 -20 -13 -32t-34 -12 t-34 12t-13 32t13 33t34 13q20 0 33.5 -13t13.5 -33zM372 663q0 -20 -13 -32t-34 -12t-34 12t-13 32t13.5 33t33.5 13t33.5 -13t13.5 -33z" />
<glyph unicode="&#xf7;" horiz-adv-x="392" d="M363 291h-334v82h334v-82zM198 133q-22 0 -37.5 15.5t-15.5 37.5q0 21 15.5 36t37.5 15t37.5 -15t15.5 -36q0 -22 -15.5 -37.5t-37.5 -15.5zM198 425q-22 0 -37.5 15.5t-15.5 37.5q0 21 15.5 36t37.5 15t37.5 -15t15.5 -36q0 -22 -15.5 -37.5t-37.5 -15.5z" />
<glyph unicode="&#xf8;" horiz-adv-x="497" d="M248 -10q-101 0 -152 74.5t-51 208.5t51 208t152 74t152.5 -74.5t51.5 -207.5q0 -134 -51.5 -208.5t-152.5 -74.5zM334 411l-148 -312q25 -25 62 -25q111 0 111 199q0 88 -25 138zM163 135l147 312q-25 25 -62 25q-57 0 -83.5 -54.5t-26.5 -144.5q0 -89 25 -138z" />
<glyph unicode="&#xf9;" horiz-adv-x="526" d="M463 0h-83q-12 34 -15 75h-2q-45 -85 -139 -85q-86 0 -124 59.5t-38 155.5v340h92v-304q0 -31 2 -53.5t7.5 -45.5t16 -37.5t28 -23.5t42.5 -9q54 0 81 40.5t27 95.5v337h92v-462q0 -53 13 -83zM349 586l-223 94l33 72l218 -106z" />
<glyph unicode="&#xfa;" horiz-adv-x="526" d="M463 0h-83q-12 34 -15 75h-2q-45 -85 -139 -85q-86 0 -124 59.5t-38 155.5v340h92v-304q0 -31 2 -53.5t7.5 -45.5t16 -37.5t28 -23.5t42.5 -9q54 0 81 40.5t27 95.5v337h92v-462q0 -53 13 -83zM378 680l-223 -94l-28 60l217 106z" />
<glyph unicode="&#xfb;" horiz-adv-x="526" d="M463 0h-83q-12 34 -15 75h-2q-45 -85 -139 -85q-86 0 -124 59.5t-38 155.5v340h92v-304q0 -31 2 -53.5t7.5 -45.5t16 -37.5t28 -23.5t42.5 -9q54 0 81 40.5t27 95.5v337h92v-462q0 -53 13 -83zM355 603l-60 64l-41 47h-2q-21 -26 -41 -47l-60 -64l-55 60l118 110h77 l118 -110z" />
<glyph unicode="&#xfc;" horiz-adv-x="526" d="M463 0h-83q-12 34 -15 75h-2q-45 -85 -139 -85q-86 0 -124 59.5t-38 155.5v340h92v-304q0 -31 2 -53.5t7.5 -45.5t16 -37.5t28 -23.5t42.5 -9q54 0 81 40.5t27 95.5v337h92v-462q0 -53 13 -83zM228 663q0 -20 -13 -32t-34 -12t-34 12t-13 32t13 33t34 13q20 0 33.5 -13 t13.5 -33zM379 663q0 -20 -13 -32t-34 -12t-34 12t-13 32t13.5 33t33.5 13t33.5 -13t13.5 -33z" />
<glyph unicode="&#xfd;" horiz-adv-x="475" d="M199 0l-172 545h104l89 -315q4 -16 9.5 -37.5t8.5 -35t3 -14.5h2q11 51 21 87l85 315h98l-151 -532q-33 -117 -72 -169t-108 -52q-61 0 -108 34l44 78q26 -24 63 -24q32 0 49.5 29.5t34.5 90.5zM357 680l-223 -94l-28 60l217 106z" />
<glyph unicode="&#xfe;" horiz-adv-x="508" d="M165 -200h-93v930h93v-178l-1 -64h2q43 67 116 67q85 0 132.5 -77t47.5 -208t-45 -205.5t-131 -74.5q-79 0 -121 64h-2q2 -29 2 -62v-192zM165 314v-90q0 -152 97 -152q107 0 107 198t-107 198q-97 0 -97 -154z" />
<glyph unicode="&#xff;" horiz-adv-x="475" d="M199 0l-172 545h104l89 -315q4 -16 9.5 -37.5t8.5 -35t3 -14.5h2q11 51 21 87l85 315h98l-151 -532q-33 -117 -72 -169t-108 -52q-61 0 -108 34l44 78q26 -24 63 -24q32 0 49.5 29.5t34.5 90.5zM214 663q0 -20 -13 -32t-34 -12t-34 12t-13 32t13 33t34 13q20 0 33.5 -13 t13.5 -33zM365 663q0 -20 -13 -32t-34 -12t-34 12t-13 32t13.5 33t33.5 13t33.5 -13t13.5 -33z" />
<glyph unicode="&#x131;" horiz-adv-x="240" d="M166 0h-92v545h92v-545z" />
<glyph unicode="&#x141;" horiz-adv-x="439" d="M417 0h-332v258l-60 -26l-14 35l74 32v401h93v-361l138 60l14 -35l-152 -66v-210h239v-88z" />
<glyph unicode="&#x142;" horiz-adv-x="251" d="M171 0h-92v261l-59 -26l-14 35l73 32v428h92v-388l59 25l14 -35l-73 -31v-301z" />
<glyph unicode="&#x152;" horiz-adv-x="727" d="M668 0h-394q-228 0 -228 350t228 350h394v-89h-261v-241h223v-88h-223v-194h261v-88zM314 88v523h-40q-136 0 -136 -261q0 -262 136 -262h40z" />
<glyph unicode="&#x153;" horiz-adv-x="800" d="M685 164l69 -51q-32 -63 -72.5 -93t-106.5 -30q-61 0 -104.5 43.5t-64.5 120.5h-2q-39 -164 -168 -164q-89 0 -140 76t-51 207q0 130 51 206t140 76q64 0 107.5 -42.5t61.5 -119.5h2q19 77 62 119.5t106 42.5q182 0 182 -305h-306q5 -77 33 -126t81 -49q88 0 120 89z M248 73q111 0 111 200q0 198 -111 198q-110 0 -110 -198q0 -89 26.5 -144.5t83.5 -55.5zM452 320h215q-7 158 -102 158q-99 0 -113 -158z" />
<glyph unicode="&#x160;" horiz-adv-x="495" d="M27 123l80 52q17 -45 54.5 -71t84.5 -26q56 0 87 29.5t31 75.5q0 30 -17 54.5t-44.5 41t-61 32.5t-67 35t-61 41.5t-44.5 58t-17 80.5q0 79 53 131.5t138 52.5q146 0 202 -141l-83 -48q-32 100 -120 100q-45 0 -71 -26t-26 -66q0 -42 32 -72t77.5 -51t91.5 -45t78 -68.5 t32 -107.5q0 -87 -57 -141t-153 -54q-76 0 -134 36.5t-85 96.5zM144 940l60 -64l41 -47h2q21 26 41 47l60 64l55 -60l-118 -110h-77l-118 110z" />
<glyph unicode="&#x161;" horiz-adv-x="474" d="M42 89l68 61q19 -34 58 -55.5t81 -21.5t66.5 21t24.5 54q0 32 -29 54.5t-70 37t-82 31t-70 49t-29 79.5q0 65 48.5 110t135.5 45q111 0 175 -79l-63 -58q-41 59 -118 59q-37 0 -62 -19t-25 -51q0 -28 29 -47t70 -32.5t82.5 -31t70.5 -53.5t29 -89q0 -72 -49 -117.5 t-132 -45.5q-138 0 -209 99zM142 783l60 -64l41 -47h2q21 26 41 47l60 64l55 -60l-118 -110h-77l-118 110z" />
<glyph unicode="&#x178;" horiz-adv-x="462" d="M277 0h-93v203l-173 497h102l94 -296q16 -48 23 -89h2q7 41 22 89l94 296h103l-174 -497v-203zM203 805q0 -20 -13 -32t-34 -12t-34 12t-13 32t13 33t34 13q20 0 33.5 -13t13.5 -33zM354 805q0 -20 -13 -32t-34 -12t-34 12t-13 32t13.5 33t33.5 13t33.5 -13t13.5 -33z " />
<glyph unicode="&#x17d;" horiz-adv-x="482" d="M431 0h-407v2l261 552l31 56v2q-24 -1 -42 -1h-218v89h399v-2l-260 -544l-34 -66q0 -1 1 -1q15 1 33 1h236v-88zM149 940l60 -64l41 -47h2q21 26 41 47l60 64l55 -60l-118 -110h-77l-118 110z" />
<glyph unicode="&#x17e;" horiz-adv-x="456" d="M396 0h-373v2l212 393l35 59v2h-216v89h363v-2l-204 -379q-11 -20 -22.5 -38.5t-17.5 -27.5l-6 -8v-2h229v-88zM126 783l60 -64l41 -47h2q21 26 41 47l60 64l55 -60l-118 -110h-77l-118 110z" />
<glyph unicode="&#x192;" horiz-adv-x="464" d="M409 332h-126q-2 -73 -7 -125q-11 -100 -66 -157t-150 -57q-10 0 -24 1t-16 1l11 84q34 0 59.5 7.5t42.5 18t29 32t18 37.5t10 48.5t4.5 51.5t1.5 58h-129v38h129v42q0 137 52 216t156 79q9 0 22 -1t15 -1q-2 -12 -4 -26.5t-4.5 -31.5t-3.5 -27q-2 0 -9 0.5t-12 0.5 q-32 0 -54 -12.5t-34.5 -32t-19.5 -51t-10 -62t-5 -71.5q-1 -15 -1 -22h125v-38z" />
<glyph unicode="&#x2c6;" horiz-adv-x="357" d="M281 749l-60 64l-41 47h-2q-21 -26 -41 -47l-60 -64l-55 60l118 110h77l118 -110z" />
<glyph unicode="&#x2c7;" horiz-adv-x="369" d="M90 940l60 -64l41 -47h2q21 26 41 47l60 64l55 -60l-118 -110h-77l-118 110z" />
<glyph unicode="&#x2d8;" horiz-adv-x="347" d="M227 870l83 12q2 -20 2 -28q0 -52 -34.5 -81.5t-104.5 -29.5t-104.5 29.5t-34.5 81.5q0 8 2 28l83 -12q-2 -5 -2 -13q0 -18 15.5 -28.5t40.5 -10.5t40.5 10.5t15.5 28.5q0 8 -2 13z" />
<glyph unicode="&#x2d9;" horiz-adv-x="225" d="M160 814q0 -20 -13.5 -32.5t-34.5 -12.5q-20 0 -33.5 12.5t-13.5 32.5t13.5 33t33.5 13t34 -13t14 -33z" />
<glyph unicode="&#x2da;" horiz-adv-x="273" d="M233 856q0 -42 -26.5 -66.5t-69.5 -24.5t-70 25t-27 66t27.5 67t69.5 26q43 0 69.5 -26t26.5 -67zM174 856q0 16 -10.5 26.5t-26.5 10.5t-27 -10.5t-11 -26.5q0 -15 11 -25t27 -10t26.5 9.5t10.5 25.5z" />
<glyph unicode="&#x2db;" horiz-adv-x="277" d="M201 -127l21 -85q-30 -12 -57 -12q-57 0 -90.5 40t-33.5 94q0 49 28 89t81 55l20 -54q-27 -8 -41 -28t-14 -44q0 -25 15 -43t41 -18q13 0 30 6z" />
<glyph unicode="&#x2dc;" horiz-adv-x="395" d="M292 885h60q0 -118 -94 -118q-32 0 -70.5 25.5t-53.5 25.5q-32 0 -32 -44h-60q0 118 93 118q32 0 71 -26t53 -26q16 0 24.5 13.5t8.5 31.5z" />
<glyph unicode="&#x2dd;" horiz-adv-x="294" d="M118 751h-73l26 153h85zM233 751h-74l27 153h85z" />
<glyph unicode="&#x3c0;" horiz-adv-x="786" d="M755 350q0 -153 -104 -256.5t-257 -103.5q-154 0 -258 103t-104 257q0 153 104 256.5t258 103.5q153 0 257 -103.5t104 -256.5zM395 50q127 0 211 85.5t84 214.5q0 128 -84 214t-211 86q-129 0 -214 -86t-85 -214q0 -129 85 -214.5t214 -85.5zM371 195h-63v322h97 q55 0 84.5 -31.5t29.5 -83.5q0 -49 -26.5 -82.5t-87.5 -33.5h-34v-91zM371 346h35q50 0 50 56q0 55 -50 55h-35v-111z" />
<glyph unicode="&#x2013;" horiz-adv-x="392" d="M363 291h-334v82h334v-82z" />
<glyph unicode="&#x2014;" horiz-adv-x="593" d="M563 291h-534v82h534v-82z" />
<glyph unicode="&#x2018;" horiz-adv-x="187" d="M134 710l9 -31q-52 -14 -59 -63l2 -1q5 4 14 4q17 0 30 -14t13 -35q0 -20 -14 -34t-35 -14q-57 0 -57 77q0 40 27.5 73.5t69.5 37.5z" />
<glyph unicode="&#x2019;" horiz-adv-x="187" d="M53 521l-9 31q52 14 59 63l-2 1q-5 -4 -14 -4q-17 0 -30 14t-13 35q0 20 14 34t35 14q57 0 57 -77q0 -40 -27.5 -73.5t-69.5 -37.5z" />
<glyph unicode="&#x201a;" horiz-adv-x="215" d="M61 -96l-9 31q52 14 59 63l-2 1q-5 -4 -14 -4q-17 0 -30 14t-13 35q0 20 14 34t35 14q57 0 57 -77q0 -40 -27.5 -73.5t-69.5 -37.5z" />
<glyph unicode="&#x201c;" horiz-adv-x="323" d="M134 710l9 -31q-52 -14 -59 -63l2 -1q5 4 14 4q17 0 30 -14t13 -35q0 -20 -14 -34t-35 -14q-57 0 -57 77q0 40 27.5 73.5t69.5 37.5zM270 710l9 -31q-52 -14 -59 -63l2 -1q5 4 14 4q17 0 30 -14t13 -35q0 -20 -14 -34t-35 -14q-57 0 -57 77q0 40 27.5 73.5t69.5 37.5z " />
<glyph unicode="&#x201d;" horiz-adv-x="321" d="M53 521l-9 31q52 14 59 63l-2 1q-5 -4 -14 -4q-17 0 -30 14t-13 35q0 20 14 34t35 14q57 0 57 -77q0 -40 -27.5 -73.5t-69.5 -37.5zM187 521l-9 31q52 14 59 63l-2 1q-5 -4 -14 -4q-17 0 -30 14t-13 35q0 20 14 34t35 14q57 0 57 -77q0 -40 -27.5 -73.5t-69.5 -37.5z" />
<glyph unicode="&#x201e;" horiz-adv-x="351" d="M61 -96l-9 31q52 14 59 63l-2 1q-5 -4 -14 -4q-17 0 -30 14t-13 35q0 20 14 34t35 14q57 0 57 -77q0 -40 -27.5 -73.5t-69.5 -37.5zM201 -96l-9 31q52 14 59 63l-2 1q-5 -4 -14 -4q-17 0 -30 14t-13 35q0 20 14 34t35 14q57 0 57 -77q0 -40 -27.5 -73.5t-69.5 -37.5z" />
<glyph unicode="&#x2020;" horiz-adv-x="440" d="M266 -100h-92v519q-18 10 -35 10q-39 0 -39 -47h-67q0 128 86 128q38 0 55 -15v305h92v-327q18 -10 35 -10q39 0 39 47h67q0 -128 -86 -128q-38 0 -55 15v-497z" />
<glyph unicode="&#x2021;" horiz-adv-x="440" d="M266 -100h-92v431q-18 10 -35 10q-39 0 -39 -47h-67q0 128 86 128q38 0 55 -15v90q-18 10 -35 10q-39 0 -39 -47h-67q0 128 86 128q38 0 55 -15v227h92v-249q18 -10 35 -10q39 0 39 47h67q0 -128 -86 -128q-38 0 -55 15v-90q18 -10 35 -10q39 0 39 47h67q0 -128 -86 -128 q-38 0 -55 15v-409z" />
<glyph unicode="&#x2022;" horiz-adv-x="295" d="M149 219q-40 0 -68.5 28.5t-28.5 69.5q0 40 28.5 67.5t68.5 27.5t69 -28t29 -67q0 -41 -29 -69.5t-69 -28.5z" />
<glyph unicode="&#x2026;" horiz-adv-x="530" d="M107 -10q-23 0 -40 16.5t-17 40.5q0 23 17 39.5t40 16.5t40 -16.5t17 -39.5q0 -24 -17 -40.5t-40 -16.5zM266 -10q-23 0 -40 16.5t-17 40.5q0 23 17 39.5t40 16.5t40 -16.5t17 -39.5q0 -24 -17 -40.5t-40 -16.5zM422 -10q-23 0 -40 16.5t-17 40.5q0 23 17 39.5t40 16.5 t40 -16.5t17 -39.5q0 -24 -17 -40.5t-40 -16.5z" />
<glyph unicode="&#x2030;" horiz-adv-x="908" d="M739 -10q-124 0 -124 172q0 78 29.5 125.5t94.5 47.5q66 0 95.5 -47.5t29.5 -125.5q0 -172 -125 -172zM739 59q52 0 52 103t-52 103q-51 0 -51 -103t51 -103zM153 0h-82l406 700h83zM172 365q-65 0 -94.5 47.5t-29.5 124.5q0 173 124 173q125 0 125 -173 q0 -77 -29.5 -124.5t-95.5 -47.5zM172 435q52 0 52 102q0 103 -52 103q-51 0 -51 -103q0 -102 51 -102zM458 -10q-125 0 -125 172q0 78 29.5 125.5t95.5 47.5t95.5 -47.5t29.5 -125.5q0 -172 -125 -172zM458 59q52 0 52 103t-52 103t-52 -103t52 -103z" />
<glyph unicode="&#x2039;" horiz-adv-x="288" d="M251 231l-58 -57l-156 146v67l156 145l58 -56l-95 -79q-22 -18 -38.5 -31t-16.5 -12v-2q8 -3 55 -42z" />
<glyph unicode="&#x203a;" horiz-adv-x="292" d="M90 174l-58 57l95 79q47 39 55 42v2q0 -1 -16.5 12t-38.5 31l-95 79l58 56l156 -145v-67z" />
<glyph unicode="&#x2044;" horiz-adv-x="464" d="M79 0h-71l363 700h72z" />
<glyph unicode="&#x20ac;" horiz-adv-x="523" d="M403 186l80 -48q-52 -148 -195 -148q-206 0 -224 303h-49v34h48v46h-48v34h49q18 303 224 303q148 0 199 -161l-82 -45q-29 117 -117 117q-117 0 -131 -214h177v-34h-179v-46h179v-34h-177q14 -215 131 -215q84 0 115 108z" />
<glyph unicode="&#x2116;" horiz-adv-x="970" d="M760 200q-80 0 -122.5 59.5t-42.5 160.5t42.5 160.5t122.5 59.5q81 0 123 -59.5t42 -160.5t-42 -160.5t-123 -59.5zM760 285q82 0 82 135q0 134 -82 134q-81 0 -81 -134q0 -135 81 -135zM923 29h-328v74h328v-74zM506 0h-86l-255 515h-2q3 -36 3 -69v-446h-84v700h86 l227 -450l26 -61h2q0 1 -0.5 13t-1 28t-0.5 27v443h85v-700z" />
<glyph unicode="&#x2122;" horiz-adv-x="587" d="M152 385h-64v254h-68v61h200v-61h-68v-254zM551 385h-63v142l2 68h-2q-6 -13 -32 -56l-44 -74h-3l-44 73l-32 56h-2q2 -33 2 -67v-142h-64v315h67l42 -70l31 -58h2q18 33 32 58l41 70h67v-315z" />
<glyph unicode="&#x2212;" horiz-adv-x="295" d="M266 291h-237v82h237v-82z" />
<glyph unicode="&#x2260;" horiz-adv-x="327" d="M295 234h-156l-33 -78h-42l33 78h-68v75h95l34 81h-129v75h157l30 72h42l-29 -72h66v-75h-94l-34 -81h128v-75z" />
<glyph unicode="&#x25fc;" horiz-adv-x="545" d="M0 545h545v-545h-545v545z" />
<glyph unicode="&#xf8ff;" horiz-adv-x="1412" d="M205 494v145h-40v-148q0 -35 -26 -35q-6 0 -14 4l-16 -36q14 -6 30 -6q30 0 48 19t18 57zM189 72v179h39v38h-117v-38h38v-179h40zM514 421v39h-75v45h63v39h-63v56h75v39h-116v-218h116zM395 72h61q75 0 75 65q0 35 -32 48q26 14 26 45q0 59 -70 59h-60v-217zM459 110 h-23v55h23q15 0 24.5 -8t9.5 -18q0 -29 -34 -29zM450 201h-14v50h14q34 0 34 -23q0 -27 -34 -27zM320 421v179h38v39h-116v-39h38v-179h40zM374 72l-52 218h-46l-52 -218h42l7 34h50l8 -34h43zM317 143h-36l17 80q0 2 0.5 4.5t0.5 3.5v-8q0 -2 0.5 -4.5t0.5 -3.5zM548 336 v39h-455v-39h455zM1257 201q-12 -5 -21 -5t-9 4q0 1 3 4l6 6q7 5 12.5 10t15 15t16.5 20t15 25.5t13.5 31.5t9 37t3.5 44q0 51 -11 96.5t-37 90t-78 71t-124 26.5q-119 0 -178.5 -51.5t-59.5 -105.5q0 -23 -13 -27q-86 -31 -86 -121q0 -37 15 -70t36 -44q7 -4 7 -7 q0 -2 -4 -2q-7 0 -17 7q-58 41 -58 114q0 45 22 83.5t59 55.5q12 5 12 15q0 69 71 128.5t194 59.5q137 0 217 -81t80 -238q0 -37 -10.5 -69.5t-24 -52.5t-31 -36.5t-27.5 -23t-18 -10.5zM993 137l-5 24l-2 3l-2 -2l-19 -34q-2 -4 -2 -7q0 -9 2 -22t2 -16q0 -21 -14 -21 q-13 0 -13 18q0 4 4.5 19t4.5 16q0 15 -15 60l-23 -41q-4 -8 -4 -11q0 -5 3.5 -17.5t3.5 -15.5q0 -26 -16 -26q-12 0 -12 20q0 9 4 24v2q1 3 1 5t-0.5 4t-0.5 3q-11 46 -18 46q2 0 -2 -2.5t-10 -11t-6 -19.5q0 -9 3.5 -21.5t3.5 -17.5q0 -22 -15 -22q-13 0 -13 23 q0 5 1.5 14.5t1.5 10.5q0 5 -9 25.5t-11 20.5q-3 0 -6.5 -27t-3.5 -43q0 -24 11 -38.5t36 -21t49.5 -8.5t67.5 -2q36 0 61 1.5t54.5 6t45.5 15.5t18 28q18 180 71 220q2 2 7 2q8 0 8 -5q0 -3 -3 -6q-44 -49 -55 -218q-1 -15 -7 -26.5t-23 -25.5t-56 -22t-97 -8 q-119 0 -158.5 22t-39.5 75q0 25 12 90v1q1 1 1 2q0 6 -9.5 23t-9.5 27q0 14 13 14q7 0 12 -5.5t6 -15.5q0 -3 -1 -12t-1 -14l11 -18q19 -32 21 -32q1 0 3 3l13 27q0 1 1 3q0 7 -6 23t-6 24q0 13 6 21t13 8q13 0 13 -20q0 -7 -3.5 -21t-3.5 -20l5 -13q12 -41 17 -41 q1 0 7.5 9t13.5 19.5t7 14.5l-1 2v3q-11 31 -11 40q0 12 6 19t14 7q16 0 16 -23q0 -4 -4.5 -17.5t-4.5 -17.5q0 -6 4 -22t7.5 -29t2.5 -13q1 0 7 8.5t11.5 20.5t5.5 18q0 10 -2 25t-2 20q0 23 16 23q6 0 10.5 -4.5t4.5 -11.5q0 -6 -6 -21.5t-6 -22.5l1 -1v-2l5 -23 q0 -5 3 -5q1 0 15.5 14t16.5 14q1 0 1 -1t-15.5 -17t-15.5 -24q0 -9 2 -21t2 -16q0 -25 -15 -25q-13 0 -13 16q0 4 3.5 17t3.5 19v4zM1064 262q-49 0 -74 31t-25 77q0 41 29.5 68.5t71.5 27.5q41 0 66.5 -28t25.5 -67q0 -43 -23 -76t-71 -33zM852 269q-44 0 -71 26t-27 73 q0 38 24.5 68t71.5 30q45 0 71.5 -23t26.5 -67q0 -50 -26.5 -78.5t-69.5 -28.5zM771 148q8 -2 8 -6q0 -14 -41.5 -23t-64.5 -9q-9 0 -26 2t-24 2q-24 0 -32 -31q-5 -19 -13 -32t-15 -20.5t-24 -13t-28.5 -7.5t-38.5 -6q-73 -10 -129 -10q-52 0 -119 10q-88 13 -115 29 q-45 26 -58 111q-7 51 -7 139q0 162 21.5 270t59.5 127q22 12 98.5 22t141.5 10q82 0 139 -20.5t74 -49.5q20 -33 26 -76.5t6 -119.5v-63q0 -103 35 -165t126 -70zM923 330v80h-15l-16 -32h-1l-17 32h-14v-80h15v51l15 -25h3l14 25h1v-51h15zM1042 324l-15 40l15 40h-15 l-9 -30h-2l-9 30h-15l15 -40l-15 -40h15l9 29h2l9 -29h15zM1134 324v80h-15v-80h15zM843 330v80h-15l-16 -32h-1l-17 32h-14v-80h15v51l15 -25h3l14 25h1v-51h15zM1067 324v80h-15v-80h15zM1100 324v80h-15v-80h15z" />
<glyph unicode="&#xfb01;" horiz-adv-x="558" d="M194 0h-92v466h-72v79h72v25q0 182 148 182q41 0 77 -16l-23 -81q-23 16 -49 16q-61 0 -61 -85v-41h100v-79h-100v-466zM438 609q-23 0 -40 16.5t-17 40.5q0 23 17 39.5t40 16.5t40 -16.5t17 -39.5q0 -24 -17 -40.5t-40 -16.5zM483 0h-92v545h92v-545z" />
<glyph unicode="&#xfb02;" horiz-adv-x="567" d="M194 0h-92v466h-72v79h72v25q0 182 148 182q41 0 77 -16l-23 -81q-23 16 -49 16q-61 0 -61 -85v-41h100v-79h-100v-466zM497 0h-92v730h92v-730z" />
<glyph horiz-adv-x="511" d="M448 0h-83q-13 32 -15 66h-2q-40 -75 -130 -75q-84 0 -128.5 76t-44.5 206t49.5 206t135.5 76q71 0 121 -69q4 33 14 59h83q-13 -33 -13 -85v-376q0 -54 13 -84zM342 228v92q0 152 -97 152q-107 0 -107 -199q0 -198 107 -198q97 0 97 153z" />
<glyph d="M448 0h-83q-13 32 -15 66h-2q-40 -75 -130 -75q-84 0 -128.5 76t-44.5 206t49.5 206t135.5 76q71 0 121 -69q4 33 14 59h83q-13 -33 -13 -85v-376q0 -54 13 -84zM342 228v92q0 152 -97 152q-107 0 -107 -199q0 -198 107 -198q97 0 97 153zM352 586l-223 94l33 72 l218 -106z" />
<glyph d="M448 0h-83q-13 32 -15 66h-2q-40 -75 -130 -75q-84 0 -128.5 76t-44.5 206t49.5 206t135.5 76q71 0 121 -69q4 33 14 59h83q-13 -33 -13 -85v-376q0 -54 13 -84zM342 228v92q0 152 -97 152q-107 0 -107 -199q0 -198 107 -198q97 0 97 153zM369 680l-223 -94l-28 60 l217 106z" />
<glyph d="M448 0h-83q-13 32 -15 66h-2q-40 -75 -130 -75q-84 0 -128.5 76t-44.5 206t49.5 206t135.5 76q71 0 121 -69q4 33 14 59h83q-13 -33 -13 -85v-376q0 -54 13 -84zM342 228v92q0 152 -97 152q-107 0 -107 -199q0 -198 107 -198q97 0 97 153zM358 603l-60 64l-41 47h-2 q-21 -26 -41 -47l-60 -64l-55 60l118 110h77l118 -110z" />
<glyph d="M448 0h-83q-13 32 -15 66h-2q-40 -75 -130 -75q-84 0 -128.5 76t-44.5 206t49.5 206t135.5 76q71 0 121 -69q4 33 14 59h83q-13 -33 -13 -85v-376q0 -54 13 -84zM342 228v92q0 152 -97 152q-107 0 -107 -199q0 -198 107 -198q97 0 97 153zM343 737h60q0 -118 -94 -118 q-32 0 -70.5 25.5t-53.5 25.5q-32 0 -32 -44h-60q0 118 93 118q32 0 71 -26t53 -26q16 0 24.5 13.5t8.5 31.5z" />
<glyph d="M448 0h-83q-13 32 -15 66h-2q-40 -75 -130 -75q-84 0 -128.5 76t-44.5 206t49.5 206t135.5 76q71 0 121 -69q4 33 14 59h83q-13 -33 -13 -85v-376q0 -54 13 -84zM342 228v92q0 152 -97 152q-107 0 -107 -199q0 -198 107 -198q97 0 97 153zM220 662q0 -20 -13 -32t-34 -12 t-34 12t-13 32t13 33t34 13q20 0 33.5 -13t13.5 -33zM371 662q0 -20 -13 -32t-34 -12t-34 12t-13 32t13.5 33t33.5 13t33.5 -13t13.5 -33z" />
<glyph d="M340 704q0 -42 -26.5 -66.5t-69.5 -24.5t-70 25t-27 66t27.5 67t69.5 26q43 0 69.5 -26t26.5 -67zM281 704q0 16 -10.5 26.5t-26.5 10.5t-27 -10.5t-11 -26.5q0 -15 11 -25t27 -10t26.5 9.5t10.5 25.5zM448 0h-83q-13 32 -15 66h-2q-40 -75 -130 -75q-84 0 -128.5 76 t-44.5 206t49.5 206t135.5 76q71 0 121 -69q4 33 14 59h83q-13 -33 -13 -85v-376q0 -54 13 -84zM342 228v92q0 152 -97 152q-107 0 -107 -199q0 -198 107 -198q97 0 97 153z" />
<glyph horiz-adv-x="260" d="M183 0h-92v457h-64v88h156v-545z" />
<glyph horiz-adv-x="482" d="M430 0h-419v2l253 261q61 63 61 113q0 36 -24 64t-70 28q-87 0 -114 -109l-84 34q23 75 73.5 118.5t126.5 43.5q87 0 135 -51.5t48 -125.5q0 -88 -73 -161q-77 -77 -140 -130v-2q70 3 119 3h108v-88z" />
<glyph horiz-adv-x="488" d="M438 458l-172 -164l1 -2q86 -8 135.5 -55t49.5 -126q0 -90 -58 -148.5t-160 -58.5q-81 0 -135 39t-76 105l81 51q28 -107 134 -107q58 0 90.5 33t32.5 81q0 50 -36.5 82t-94.5 32q-22 0 -34 -2l-31 83l109 111q27 27 45 42h-267v91h386v-87z" />
<glyph horiz-adv-x="480" d="M364 -87h-92v147h-260v1l260 495h92v-408h83v-88h-83v-147zM277 142v272h-3q-16 -39 -33 -76l-54 -115l-41 -79v-2h131z" />
<glyph horiz-adv-x="490" d="M44 33l80 54q34 -95 116 -95q53 0 81.5 34t28.5 87q0 52 -30 86.5t-82 34.5q-56 0 -99 -43l-77 41l33 313h301v-91h-223l-19 -151l2 -1q42 20 92 20q94 0 146 -59t52 -146q0 -90 -55 -151.5t-151 -61.5q-141 0 -196 129z" />
<glyph horiz-adv-x="514" d="M448 565l-54 -74q-44 56 -113 56q-50 0 -82.5 -36t-44.5 -82.5t-14 -105.5h2q19 37 56 59.5t86 22.5q91 0 140 -56t49 -143q0 -90 -54 -153t-153 -63q-112 0 -162.5 91t-50.5 243q0 144 63.5 228.5t167.5 84.5q84 0 164 -72zM266 77q52 0 82 36t30 91q0 53 -29 86t-80 33 q-53 0 -82.5 -34.5t-29.5 -85.5q0 -57 31 -91.5t78 -34.5z" />
<glyph horiz-adv-x="409" d="M196 -87h-97l186 544h-262v88h388z" />
<glyph horiz-adv-x="516" d="M380 192q0 50 -32 85.5t-88 35.5q-57 0 -89 -35.5t-32 -85.5q0 -51 31.5 -84t89.5 -33t89 33t31 84zM260 388q40 0 61 25t21 62t-22 61.5t-60 24.5q-39 0 -61.5 -24.5t-22.5 -61.5t21.5 -62t62.5 -25zM346 359v-2q60 -21 93 -66.5t33 -105.5q0 -84 -55.5 -139.5 t-156.5 -55.5q-102 0 -157.5 55.5t-55.5 139.5q0 60 32.5 105.5t93.5 66.5v2q-40 18 -61.5 51.5t-21.5 71.5q0 67 45 111.5t125 44.5q79 0 124 -44.5t45 -111.5q0 -38 -21.5 -71.5t-61.5 -51.5z" />
<glyph horiz-adv-x="514" d="M254 220q54 0 82 34.5t28 85.5q0 56 -30.5 91t-78.5 35q-52 0 -82 -35.5t-30 -90.5q0 -54 29.5 -87t81.5 -33zM381 219l-2 1q-18 -38 -54 -60t-85 -22q-92 0 -142 56.5t-50 142.5q0 90 54 153.5t153 63.5q57 0 99.5 -25.5t66.5 -72.5t35.5 -105.5t11.5 -130.5 q0 -145 -61.5 -229t-167.5 -84q-96 0 -169 70l55 74q52 -54 117 -54q129 0 139 222z" />
<glyph horiz-adv-x="492" d="M236 -97h-62l10 94q-91 20 -142 92l68 61q19 -34 58 -55.5t81 -21.5t66.5 21t24.5 54q0 32 -29 54.5t-70 37t-82 31t-70 49t-29 79.5q0 65 48.5 110t135.5 45h1l11 98h62l-12 -105q68 -17 113 -72l-63 -58q-41 59 -118 59q-37 0 -62 -19t-25 -51q0 -28 29 -47t70 -32.5 t82.5 -31t70.5 -53.5t29 -89q0 -72 -49 -117.5t-132 -45.5h-6z" />
<glyph d="M413 105l33 -83q-36 -32 -99 -32q-28 0 -86 10.5t-84 10.5q-46 0 -74 -25q-6 8 -22.5 28.5t-25.5 32.5q49 50 52 120q0 22 -1 35h-66v65h61q-6 78 -6 83q0 205 175 205q130 0 169 -145l-82 -41q-13 100 -89 100q-42 0 -63 -28.5t-21 -78.5q0 -15 5 -95h150v-65h-149 q0 -81 -32 -123q1 -1 1 -2q22 7 50 7q17 0 52 -4t53 -4q61 0 99 29z" />
<glyph horiz-adv-x="457" d="M350 169l74 -53q-48 -126 -177 -126q-86 0 -137.5 57t-61.5 161h-40v34h37v50h-37v34h39q10 107 62.5 168t137.5 61q126 0 176 -125l-75 -54q-23 92 -98 92q-97 0 -110 -142h113v-34h-115q0 -41 1 -50h114v-34h-112q12 -133 109 -133q72 0 100 94z" />
<glyph horiz-adv-x="447" d="M272 0h-91v137h-122v34h122l-24 54h-98v34h82l-128 286h103l86 -214l23 -72h2q6 25 24 72l85 214h104l-130 -286h79v-34h-94l-23 -54h117v-34h-117v-137z" />
<glyph horiz-adv-x="498" d="M249 74q59 0 89.5 55t30.5 144q0 88 -31 143.5t-89 55.5t-89.5 -56t-31.5 -143q0 -86 31.5 -142.5t89.5 -56.5zM249 -10q-102 0 -158 75.5t-56 207.5t56 207t158 75t158 -75t56 -207t-56 -207.5t-158 -75.5z" />
</font>
</defs>
</svg>
