<?xml version="1.0" standalone="no"?>
<!DOCTYPE svg PUBLIC "-//W3C//DTD SVG 1.1//EN" "http://www.w3.org/Graphics/SVG/1.1/DTD/svg11.dtd" >
<svg xmlns="http://www.w3.org/2000/svg">
<metadata></metadata>
<defs>
<font id="mission_gothicthin_italic" horiz-adv-x="474" >
<font-face units-per-em="1000" ascent="750" descent="-250" />
<missing-glyph horiz-adv-x="260" />
<glyph horiz-adv-x="1000" />
<glyph horiz-adv-x="1000" />
<glyph unicode="&#xd;" horiz-adv-x="260" />
<glyph unicode=" "  horiz-adv-x="260" />
<glyph unicode="&#x09;" horiz-adv-x="260" />
<glyph unicode="&#xa0;" horiz-adv-x="260" />
<glyph unicode="!" horiz-adv-x="191" d="M112 148h-40l117 552h40zM89 16q0 -11 -8 -18.5t-19 -7.5t-18.5 7.5t-7.5 18.5t7.5 19t18.5 8t19 -8t8 -19z" />
<glyph unicode="&#x22;" horiz-adv-x="250" d="M150 492h-32l43 208h43zM250 492h-32l43 208h43z" />
<glyph unicode="#" horiz-adv-x="600" d="M581 321l-3 -34h-159l-38 -179h-42l38 179h-128l-38 -179h-42l38 179h-147l3 34h151l31 146h-148l3 34h153l35 164h41l-35 -164h129l35 164h41l-35 -164h154l-3 -34h-158l-31 -146h155zM256 321h128l31 146h-128z" />
<glyph unicode="$" horiz-adv-x="489" d="M190 -2l-31 -98h-38l35 108q-80 35 -113 109l35 20q22 -47 69.5 -78t104.5 -31q67 0 112 42t45 108q0 32 -10 57.5t-33 46.5t-40 33.5t-51 32.5q-33 20 -53 34.5t-43.5 38t-34.5 52t-11 62.5q0 78 54 126.5t134 48.5q27 0 59 -9l37 112h39l-41 -125q67 -34 96 -105 l-37 -18q-18 45 -59 76t-95 31q-60 0 -103.5 -37t-43.5 -99q0 -51 29.5 -83t85.5 -66q33 -19 47.5 -28.5t41 -30.5t39 -39.5t23 -47t10.5 -61.5q0 -87 -57 -138.5t-142 -51.5q-30 0 -60 8z" />
<glyph unicode="%" horiz-adv-x="600" d="M96 0l513 700h-42l-513 -700h42zM444 -10q-53 0 -80.5 37t-27.5 98q0 79 44 144.5t115 65.5q53 0 80.5 -37t27.5 -98q0 -79 -44 -144.5t-115 -65.5zM447 25q50 0 83 55.5t33 119.5q0 46 -18 73t-53 27q-50 0 -83 -55.5t-33 -119.5q0 -46 18 -73t53 -27zM174 365 q-53 0 -80.5 37t-27.5 98q0 79 44 144.5t115 65.5q53 0 80.5 -37t27.5 -98q0 -79 -44 -144.5t-115 -65.5zM177 400q50 0 83 55.5t33 119.5q0 46 -18 73t-53 27q-50 0 -83 -55.5t-33 -119.5q0 -46 18 -73t53 -27z" />
<glyph unicode="&#x26;" horiz-adv-x="566" d="M508 35l-11 -37q-29 0 -50 24t-30 62h-2q-72 -98 -188 -98q-78 0 -128 51.5t-50 130.5q0 102 62 166t158 82v2q-80 39 -80 127q0 66 45.5 115.5t127.5 49.5q83 0 130 -62l-31 -27q-29 51 -103 51q-61 0 -95 -38t-34 -89q0 -48 29.5 -82t82.5 -34l86 -264h2q49 93 88 277 h41q-44 -210 -114 -321l10 -29q17 -53 54 -57zM402 125l-87 267q-96 -3 -160.5 -63t-64.5 -158q0 -64 36.5 -105.5t101.5 -41.5q103 0 174 101z" />
<glyph unicode="'" horiz-adv-x="150" d="M150 492h-32l43 208h43z" />
<glyph unicode="(" horiz-adv-x="208" d="M151 -72l-36 -14q-35 94 -35 231q0 175 59 352.5t157 289.5l30 -24q-91 -104 -149.5 -277.5t-58.5 -340.5q0 -120 33 -217z" />
<glyph unicode=")" horiz-adv-x="208" d="M129 783l36 14q35 -94 35 -231q0 -175 -59 -352.5t-157 -289.5l-30 24q91 104 149.5 277.5t58.5 340.5q0 120 -33 217z" />
<glyph unicode="*" horiz-adv-x="385" d="M365 382l-35 -19q-39 72 -68 152h-2q-99 -116 -109 -126l-29 28q49 50 122 108v2q-7 3 -36.5 14.5t-59.5 24.5t-54 25l18 36q32 -16 85.5 -48t56.5 -34l2 1q3 104 12 162l39 -6q-4 -32 -33 -159l2 -1q150 36 160 38l6 -40q-14 -2 -160 -17l-1 -2q66 -106 84 -139z" />
<glyph unicode="+" horiz-adv-x="372" d="M374 330h-141l-31 -146h-40l31 146h-141l8 38h141l31 146h40l-31 -146h141z" />
<glyph unicode="," horiz-adv-x="160" d="M39 -79l-16 18q18 16 29 30.5t12 21.5l2 7l-1 1q-5 -3 -10 -3q-8 0 -14 6.5t-6 16.5q0 24 26 24q24 0 24 -31q0 -47 -46 -91z" />
<glyph unicode="-" horiz-adv-x="288" d="M278 370l-8 -38h-198l8 38h198z" />
<glyph unicode="." horiz-adv-x="163" d="M80 16q0 -11 -8 -18.5t-19 -7.5t-18.5 7.5t-7.5 18.5t7.5 19t18.5 8t19 -8t8 -19z" />
<glyph unicode="/" horiz-adv-x="291" d="M368 760l-331 -820h-44l330 820h45z" />
<glyph unicode="0" horiz-adv-x="465" d="M199 -10q-61 0 -97 35t-45 93t-5.5 115t16.5 117q77 360 263 360q62 0 98 -37t43 -97t3.5 -114.5t-15.5 -111.5q-24 -111 -55 -186.5t-83.5 -124.5t-122.5 -49zM199 27q153 0 221 323q7 32 12 65.5t6 82.5t-7 85.5t-33.5 63t-67.5 26.5q-154 0 -222 -323 q-7 -35 -12 -67.5t-6.5 -82t7 -85t34 -62t68.5 -26.5z" />
<glyph unicode="1" horiz-adv-x="268" d="M129 0h-41l140 662h-68l8 38h109z" />
<glyph unicode="2" horiz-adv-x="463" d="M362 0h-365v2l342 355q107 111 107 198q0 50 -32 83.5t-88 33.5q-62 0 -105 -43t-61 -114l-38 10q25 89 77.5 137t129.5 48q76 0 116.5 -44t40.5 -109q0 -104 -120 -229l-206 -214l-76 -71v-2h286z" />
<glyph unicode="3" horiz-adv-x="449" d="M29 161l42 4q0 -66 36 -101.5t93 -35.5q78 0 127 66.5t49 145.5q0 61 -31.5 103t-88.5 42q-19 0 -40 -3l-24 27l237 253h-266l8 38h341v-2l-266 -281l2 -2h14q77 0 115.5 -51.5t38.5 -123.5q0 -97 -60 -173.5t-155 -76.5q-78 0 -125 50.5t-47 120.5z" />
<glyph unicode="4" horiz-adv-x="425" d="M274 0h-40l37 174h-248v2l359 524h40l-103 -488h106l-9 -38h-105zM279 212l64 302l23 99h-2q-27 -44 -56 -87l-156 -232l-59 -80v-2h186z" />
<glyph unicode="5" horiz-adv-x="463" d="M43 161l42 4q0 -66 36 -101.5t93 -35.5q78 0 127 66.5t49 145.5q0 61 -31 101t-89 40q-66 0 -120 -35l-34 14l103 340h256l-8 -41h-220l-86 -270l2 -1q43 31 109 31q75 0 116.5 -53t41.5 -126q0 -97 -60 -173.5t-155 -76.5q-78 0 -125 50.5t-47 120.5z" />
<glyph unicode="6" horiz-adv-x="489" d="M487 573l-39 -8q-20 108 -113 108q-164 0 -232 -368h2q27 51 76 81.5t102 30.5q62 0 103 -42t41 -121q0 -45 -12 -89.5t-36 -84.5t-65.5 -65t-94.5 -25q-51 0 -86 24.5t-50.5 61t-20.5 87t-1.5 95.5t12.5 92q69 360 266 360q123 0 148 -137zM221 27q77 3 121.5 72.5 t44.5 153.5q0 57 -27.5 91.5t-81.5 34.5q-66 0 -124.5 -49.5t-58.5 -132.5q0 -74 30.5 -123.5t95.5 -46.5z" />
<glyph unicode="7" horiz-adv-x="363" d="M90 0h-50l350 662h-279l8 38h342z" />
<glyph unicode="8" horiz-adv-x="468" d="M335 385v-2q52 -9 80 -49t28 -92q0 -105 -65 -178.5t-169 -73.5q-79 0 -123 48t-44 117q0 88 49 151t130 79v2q-78 35 -78 118q0 85 55.5 145t138.5 60q67 0 101 -36t34 -91q0 -60 -39 -119.5t-98 -78.5zM211 28q84 0 138 61t54 151q0 55 -33 91.5t-97 36.5 q-81 0 -136 -60t-55 -149q0 -55 32.5 -93t96.5 -38zM285 402q60 0 102.5 56.5t42.5 118.5q0 42 -24.5 68.5t-74.5 26.5q-58 0 -103 -46.5t-45 -122.5q0 -43 26 -72t76 -29z" />
<glyph unicode="9" horiz-adv-x="485" d="M440 395h-2q-27 -51 -76 -81.5t-102 -30.5q-62 0 -103 42t-41 121q0 45 12 89.5t36 84.5t65.5 65t94.5 25q51 0 86 -24.5t50.5 -61t20.5 -87t1.5 -95.5t-12.5 -92q-69 -360 -266 -360q-123 0 -148 137l39 8q20 -108 113 -108q164 0 232 368zM448 503q0 74 -30.5 123.5 t-95.5 46.5q-77 -3 -121.5 -72.5t-44.5 -153.5q0 -57 27.5 -91.5t81.5 -34.5q66 0 124.5 49.5t58.5 132.5z" />
<glyph unicode=":" horiz-adv-x="163" d="M80 16q0 -11 -8 -18.5t-19 -7.5t-18.5 7.5t-7.5 18.5t7.5 19t18.5 8t19 -8t8 -19zM149 343q0 -11 -8 -18.5t-19 -7.5t-18.5 7.5t-7.5 18.5t7.5 19t18.5 8t19 -8t8 -19z" />
<glyph unicode=";" horiz-adv-x="160" d="M146 343q0 -11 -8 -18.5t-19 -7.5t-18.5 7.5t-7.5 18.5t7.5 19t18.5 8t19 -8t8 -19zM32 -79l-16 18q18 16 29 30.5t13 21.5l1 7l-1 1q-4 -3 -10 -3q-8 0 -14 6.5t-6 16.5q0 24 26 24q24 0 24 -31q0 -47 -46 -91z" />
<glyph unicode="&#x3c;" horiz-adv-x="308" d="M235 159l-193 195v2l276 194l21 -31l-165 -111l-88 -56v-2q27 -24 76 -71l98 -94z" />
<glyph unicode="=" horiz-adv-x="344" d="M310 269h-242l8 40h242zM336 391h-242l8 40h242z" />
<glyph unicode="&#x3e;" horiz-adv-x="308" d="M145 551l193 -195v-2l-276 -194l-21 31l165 111l88 56v2q-27 24 -76 71l-98 94z" />
<glyph unicode="?" horiz-adv-x="393" d="M214 133l-37 -15q-11 20 -11 51q0 45 25 88t61 76.5t72.5 67t61.5 73.5t25 82q0 49 -32.5 82.5t-87.5 33.5q-61 0 -104.5 -43t-61.5 -114l-38 10q25 89 77.5 137t129.5 48q72 0 114.5 -43.5t42.5 -106.5q0 -43 -18 -82t-45.5 -67.5t-59 -59t-59 -56t-45.5 -59t-18 -67.5 q0 -10 2 -19t4 -13zM188 16q0 -11 -8 -18.5t-19 -7.5t-18.5 7.5t-7.5 18.5t7.5 19t18.5 8t19 -8t8 -19z" />
<glyph unicode="@" horiz-adv-x="793" d="M570 48l20 -35q-92 -61 -197 -61q-118 0 -194.5 60t-101 156t-1.5 212q31 159 133 263.5t251 104.5q142 0 219 -95t77 -232q0 -103 -42.5 -177t-120.5 -74q-39 0 -63.5 26t-24.5 74h-2q-24 -48 -63 -74t-80 -26q-36 0 -60.5 18t-32.5 46.5t-10 62t7 65.5q17 77 63 122.5 t109 45.5q66 0 97.5 -47.5t17.5 -119.5l-7 -35q-6 -27 -6 -49q0 -71 59 -71q56 0 88 63.5t32 148.5q0 58 -15.5 108.5t-46 92t-82 65.5t-116.5 24q-129 0 -221.5 -93t-121.5 -242q-17 -75 -7.5 -144t38 -122t89 -85t143.5 -32q55 0 91.5 13.5t81.5 42.5zM390 208q46 0 86 40 t54 112q12 66 -10 99t-66 33q-46 0 -80.5 -37t-49.5 -105q-15 -72 5 -107t61 -35z" />
<glyph unicode="A" horiz-adv-x="480" d="M429 0h-40l-19 190h-256l-99 -190h-45l363 700h30zM366 228l-27 287l-6 105h-2q-25 -59 -47 -101l-150 -291h232z" />
<glyph unicode="B" horiz-adv-x="509" d="M222 0h-181l148 700h141q171 0 171 -134q0 -74 -42 -124.5t-114 -64.5v-2q123 -24 123 -154q0 -106 -67 -163.5t-179 -57.5zM90 38h140q91 0 144.5 47t53.5 138q0 64 -35 98.5t-96 34.5h-140zM165 394h100q92 0 144 43.5t52 124.5q0 52 -33.5 76t-105.5 24h-100z" />
<glyph unicode="C" horiz-adv-x="499" d="M421 166l35 -17q-82 -159 -226 -159q-176 0 -176 230q0 55 9 116.5t32 129t56 121t86 88.5t118 35q157 0 174 -187l-39 -3q-15 153 -138 153q-67 0 -120 -47.5t-81.5 -120t-43 -145t-14.5 -137.5q0 -196 140 -196q118 0 188 139z" />
<glyph unicode="D" horiz-adv-x="505" d="M173 0h-152l148 700h135q127 0 178.5 -96t20.5 -254q-32 -163 -115 -256.5t-215 -93.5zM69 37h111q107 0 180.5 82.5t102.5 230.5q28 145 -12.5 229t-147.5 84h-102z" />
<glyph unicode="E" horiz-adv-x="470" d="M394 0h-353l148 700h354l-8 -37h-314l-66 -311h273l-8 -38h-273l-58 -276h313z" />
<glyph unicode="F" horiz-adv-x="447" d="M404 276h-265l-58 -276h-40l148 700h344l-8 -37h-304l-74 -349h265z" />
<glyph unicode="G" horiz-adv-x="523" d="M462 301h-164l8 38h204q-65 -349 -273 -349q-63 0 -104.5 30.5t-58 81.5t-19.5 118t13 140q30 160 101.5 255t185.5 95q155 0 174 -179l-40 -5q-17 147 -137 147q-93 0 -154.5 -85t-89.5 -228q-15 -90 -13.5 -164t38 -121.5t105.5 -47.5q161 0 224 274z" />
<glyph unicode="H" horiz-adv-x="550" d="M431 0h-42l64 300h-306l-64 -300h-42l148 700h42l-76 -362h306l76 362h42z" />
<glyph unicode="I" horiz-adv-x="241" d="M102 0h-41l148 700h41z" />
<glyph unicode="J" horiz-adv-x="366" d="M236 234l98 466h42l-100 -473q-25 -122 -76 -179.5t-141 -57.5q-41 0 -65 8l8 37q22 -7 57 -7q70 0 112 48.5t65 157.5z" />
<glyph unicode="K" horiz-adv-x="470" d="M419 0h-43l-127 353h-2q-40 -48 -120 -139l-45 -214h-41l148 700h41l-66 -310l-24 -103h2l359 413h53l-277 -315z" />
<glyph unicode="L" horiz-adv-x="377" d="M338 0h-297l148 700h41l-141 -662h257z" />
<glyph unicode="M" horiz-adv-x="662" d="M533 0h-41l105 498l31 125h-2q-36 -57 -80 -117l-197 -270h-16l-78 270l-32 117h-2q-9 -53 -23 -119l-106 -504h-41l148 700h41l85 -295l26 -102h2q37 55 65 94l222 303h41z" />
<glyph unicode="N" horiz-adv-x="609" d="M451 0h-36l-170 513l-33 109h-2q-7 -56 -19 -111l-109 -511h-41l148 700h35l171 -514l33 -111h2q7 54 19 111l109 514h41z" />
<glyph unicode="O" horiz-adv-x="524" d="M230 -10q-82 0 -126.5 53t-48 135t12.5 182q30 160 101.5 255t185.5 95q82 0 126.5 -53t48 -135t-12.5 -182q-30 -160 -101.5 -255t-185.5 -95zM233 27q93 0 154.5 85t89.5 228q15 90 14 164t-36.5 121.5t-102.5 47.5q-93 0 -154.5 -85t-89.5 -228q-15 -90 -14 -164 t36.5 -121.5t102.5 -47.5z" />
<glyph unicode="P" horiz-adv-x="479" d="M82 0h-41l149 700h145q107 0 151 -68.5t23 -183.5q-21 -116 -93.5 -184t-187.5 -68h-105zM131 234h105q88 0 150 57.5t83 156.5q21 100 -15 157t-127 57h-105z" />
<glyph unicode="Q" horiz-adv-x="524" d="M406 -62l-26 -28q-50 46 -73 101q-47 -21 -97 -21q-82 0 -126.5 53t-48 135t12.5 182q30 160 101.5 255t185.5 95q82 0 126.5 -53t48 -135t-12.5 -182q-43 -228 -158 -310q24 -51 67 -92zM241 150l29 22q23 -33 53 -107h2q92 73 132 275q15 90 14 164t-36.5 121.5 t-102.5 47.5q-93 0 -154.5 -85t-89.5 -228q-15 -90 -14 -164t36.5 -121.5t102.5 -47.5q40 0 80 19q-24 60 -52 104z" />
<glyph unicode="R" horiz-adv-x="505" d="M421 0h-43l-73 234q-37 -8 -77 -8h-98l-48 -226h-41l149 700h145q89 0 135.5 -43.5t46.5 -123.5q0 -60 -18 -116.5t-58.5 -104t-97.5 -68.5zM138 264h98q103 0 171.5 68t68.5 195q0 135 -149 135h-105z" />
<glyph unicode="S" horiz-adv-x="489" d="M43 117l35 20q22 -47 69.5 -78t104.5 -31q67 0 112 42t45 108q0 32 -10 57.5t-33 46.5t-40 33.5t-51 32.5q-33 20 -53 34.5t-43.5 38t-34.5 52t-11 62.5q0 78 54 126.5t134 48.5q68 0 118 -36t72 -91l-37 -18q-18 45 -59 76t-95 31q-60 0 -103.5 -37t-43.5 -99 q0 -51 29.5 -83t85.5 -66q33 -19 47.5 -28.5t41 -30.5t39 -39.5t23 -47t10.5 -61.5q0 -87 -57 -138.5t-142 -51.5q-68 0 -124.5 35t-82.5 92z" />
<glyph unicode="T" horiz-adv-x="424" d="M191 0h-41l140 662h-173l8 38h387l-8 -38h-173z" />
<glyph unicode="U" horiz-adv-x="536" d="M430 228l100 472h41l-101 -478q-49 -232 -222 -232q-78 0 -125.5 45.5t-47.5 129.5q0 29 8 69l99 466h41l-100 -473q-7 -32 -7 -63q0 -68 37 -102t97 -34q137 0 180 200z" />
<glyph unicode="V" d="M212 0h-30l-66 700h40l47 -511l8 -116h2q24 52 51 106l266 521h45z" />
<glyph unicode="W" horiz-adv-x="766" d="M530 0h-30l-26 509l-2 110h-2q-20 -52 -45 -105l-243 -514h-30l-36 700h40l24 -495l3 -125h2q26 63 52 119l233 501h34l25 -495l2 -125h2q25 64 50 118l235 502h44z" />
<glyph unicode="X" horiz-adv-x="465" d="M385 0h-41l-59 218l-24 101h-2q-32 -51 -62 -95l-154 -224h-47l240 350l-92 350h41l64 -241l19 -79h2q22 37 46 72l170 248h47l-241 -350z" />
<glyph unicode="Y" horiz-adv-x="421" d="M192 0h-41l45 214l-90 486h40l62 -335l17 -103h2q29 53 54 95l207 343h47l-298 -487z" />
<glyph unicode="Z" horiz-adv-x="455" d="M383 0h-398v2l432 596q12 17 24.5 32.5t18.5 22.5l7 7v2h-318l8 38h382v-2l-431 -594l-52 -64v-2h335z" />
<glyph unicode="[" horiz-adv-x="184" d="M177 -120h-158l202 950h158l-8 -38h-118l-186 -874h118z" />
<glyph unicode="\" horiz-adv-x="239" d="M147 761l58 -822l-39 1l-59 821h40z" />
<glyph unicode="]" horiz-adv-x="184" d="M97 830h158l-202 -950h-158l8 38h118l186 874h-118z" />
<glyph unicode="^" horiz-adv-x="365" d="M435 791l-30 -24l-27 35l-46 65h-2q-35 -34 -61 -56l-57 -47l-23 30l147 120h2z" />
<glyph unicode="_" horiz-adv-x="377" d="M338 -100l-8 -38h-383l8 38h383z" />
<glyph unicode="`" horiz-adv-x="239" d="M322 736l-212 89l18 39l208 -97z" />
<glyph unicode="a" horiz-adv-x="523" d="M463 35l-8 -39q-6 -1 -18 -1q-105 0 -96 104h-2q-26 -50 -60 -79.5t-89 -29.5q-45 0 -76 24t-43 62t-14.5 86.5t8.5 96.5q24 124 82 195.5t142 71.5q76 0 116.5 -55t23.5 -135l-43 -199q-7 -35 -7 -50q0 -29 15.5 -41t49.5 -12q12 0 19 1zM380 299l9 42q13 61 -14.5 104 t-86.5 43q-65 0 -112 -59t-71 -176q-8 -38 -8.5 -75t7.5 -72t31 -56.5t59 -21.5q67 0 113.5 75t72.5 196z" />
<glyph unicode="b" horiz-adv-x="446" d="M66 242l104 488h41l-46 -214l-21 -86h2q55 96 148 96q132 0 132 -179q0 -90 -28.5 -171.5t-83 -133.5t-122.5 -52q-84 0 -117.5 66t-8.5 186zM117 294l-13 -61q-21 -96 4 -150.5t87 -54.5q55 0 99.5 48t68 119.5t23.5 148.5q0 144 -100 144q-66 0 -109.5 -57.5 t-59.5 -136.5z" />
<glyph unicode="c" horiz-adv-x="430" d="M335 111l31 -23q-64 -98 -160 -98q-75 0 -112.5 57.5t-37.5 147.5q0 78 25 152t78.5 126.5t122.5 52.5q57 0 91.5 -34t48.5 -92l-38 -12q-22 100 -105 100q-80 0 -131.5 -91.5t-51.5 -201.5q0 -78 29 -122.5t83 -44.5q76 0 127 83z" />
<glyph unicode="d" horiz-adv-x="512" d="M463 35l-8 -39q-6 -1 -18 -1q-101 0 -95 105h-2q-50 -110 -150 -110q-68 0 -101 51t-33 131q0 51 14 109t40.5 114.5t73.5 93.5t105 37q95 0 119 -93h2q8 50 14 80l46 217h41l-125 -593q-7 -35 -7 -50q0 -29 15.5 -41t49.5 -12q12 0 19 1zM371 262l17 79q4 17 4 37 q0 48 -27.5 79t-76.5 31q-65 0 -112 -59t-71 -176q-9 -47 -9 -82q0 -62 23 -102.5t75 -40.5q127 0 177 234z" />
<glyph unicode="e" d="M373 103l29 -27q-79 -86 -175 -86q-80 0 -125.5 59t-45.5 156q0 76 26.5 148t82 122.5t126.5 50.5q78 0 119 -58.5t41 -150.5q0 -37 -6 -75h-347q-2 -13 -2 -38q0 -86 37 -131t98 -45q76 0 142 75zM104 280h305q2 24 2 39q0 79 -33 124t-90 45q-68 0 -117 -60t-67 -148z " />
<glyph unicode="f" horiz-adv-x="284" d="M98 0h-40l101 478h-86l8 38h86l19 91q29 133 135 133q50 0 88 -32l-26 -31q-23 25 -62 25q-74 0 -95 -95l-19 -91h114l-8 -38h-114z" />
<glyph unicode="g" horiz-adv-x="461" d="M320 10l24 103h-2q-54 -103 -148 -103q-67 0 -100.5 49t-33.5 127q0 50 13.5 106t39.5 110t72.5 89t104.5 35q49 0 80.5 -25t40.5 -69h2q3 21 10 42t12 32l5 10h41q-19 -31 -31 -87l-90 -425q-23 -110 -72.5 -162t-129.5 -52q-97 0 -153 66l30 30q50 -58 125 -58 q122 0 160 182zM385 313l6 28q4 24 4 37q0 47 -29 78.5t-79 31.5q-47 0 -85 -31.5t-59 -79.5t-32 -97t-11 -92q0 -62 25 -101.5t79 -39.5q61 0 105 61t76 205z" />
<glyph unicode="h" horiz-adv-x="510" d="M465 35l-8 -39q-7 -1 -18 -1q-98 0 -98 91q0 20 7 55l37 172q17 79 -1.5 127t-81.5 48q-66 0 -106.5 -49t-55.5 -123l-67 -316h-41l155 730h41l-44 -209l-20 -84h2q50 89 142 89q82 0 109 -63t7 -157l-36 -169q-7 -35 -7 -50q0 -29 15.5 -41t49.5 -12q12 0 19 1z" />
<glyph unicode="i" horiz-adv-x="244" d="M185 35l-8 -39q-8 -1 -14 -1q-102 0 -102 91q0 20 7 55l55 257q15 72 15 118h41q0 -41 -17 -123l-54 -256q-7 -35 -7 -50q0 -29 15 -41t50 -12q12 0 19 1zM218 646q0 -11 -8 -18.5t-19 -7.5t-18.5 7.5t-7.5 18.5t7.5 19t18.5 8t19 -8t8 -19z" />
<glyph unicode="j" horiz-adv-x="270" d="M84 2l109 514h41l-109 -516q-24 -115 -69 -162.5t-120 -47.5q-31 0 -59 7l8 40q21 -8 51 -8q58 0 93.5 40.5t54.5 132.5zM268 646q0 -11 -8 -18.5t-19 -7.5t-18.5 7.5t-7.5 18.5t7.5 19t18.5 8t19 -8t8 -19z" />
<glyph unicode="k" horiz-adv-x="434" d="M385 40l-9 -40q-16 -4 -38 -4q-70 0 -110 71q-9 16 -23 48t-23 50.5t-26.5 34t-38.5 14.5l-2 -1q-5 -35 -14 -77l-29 -136h-40l155 730h40l-45 -210l-20 -86h2q50 92 140 92q55 0 83.5 -32t28.5 -78q0 -74 -65.5 -137t-164.5 -66l-1 -2q18 -7 35 -34q9 -14 22.5 -44.5 t23 -49t28.5 -34t44 -15.5q19 0 47 6zM137 305l-13 -59q14 -1 41 -1q100 0 155 53t55 115q0 34 -22 54.5t-62 20.5q-60 0 -98 -50.5t-56 -132.5z" />
<glyph unicode="l" horiz-adv-x="269" d="M195 35l-8 -39q-6 -1 -14 -1q-102 0 -102 91q0 20 7 55l125 589h41l-126 -593q-7 -35 -7 -50q0 -29 15 -41t50 -12q12 0 19 1z" />
<glyph unicode="m" horiz-adv-x="752" d="M707 35l-8 -39q-6 -1 -18 -1q-98 0 -98 91q0 20 7 55l42 194q7 31 7 61q0 92 -79 92q-60 0 -100 -49t-56 -123l-67 -316h-41l72 335q7 31 7 61q0 92 -78 92q-64 0 -104.5 -57t-57.5 -137l-62 -294h-41l85 398q15 72 15 111v7h41q0 -21 -11 -84h2q48 94 137 94 q54 0 82 -33t29 -89h2q51 122 151 122q58 0 86 -34t28 -94q0 -30 -8 -70l-41 -191q-7 -35 -7 -50q0 -29 15.5 -41t49.5 -12q12 0 19 1z" />
<glyph unicode="n" horiz-adv-x="510" d="M465 35l-8 -39q-6 -1 -18 -1q-98 0 -98 91q0 20 7 55l37 172q8 38 8 69q0 106 -91 106q-125 0 -167 -194l-62 -294h-41l85 398q15 72 15 111v7h41q-2 -45 -12 -83h2q50 93 145 93q64 0 94 -39.5t30 -104.5q0 -34 -8 -76l-36 -169q-7 -35 -7 -50q0 -29 15.5 -41t49.5 -12 q12 0 19 1z" />
<glyph unicode="o" d="M216 -10q-78 0 -119 58.5t-41 149.5q0 81 26.5 155t82 123.5t127.5 49.5q77 0 118 -58.5t41 -149.5q0 -128 -64.5 -228t-170.5 -100zM218 28q85 0 139 87.5t54 202.5q0 80 -32.5 125t-89.5 45q-85 0 -139 -87.5t-54 -202.5q0 -80 32.5 -125t89.5 -45z" />
<glyph unicode="p" horiz-adv-x="472" d="M35 -200h-41l128 598q8 37 12 66.5t4 40.5l-1 11h41q0 -40 -12 -87h2q58 97 149 97q132 0 132 -179q0 -90 -28.5 -171.5t-83 -133.5t-122.5 -52q-46 0 -77 28.5t-40 77.5h-2q-6 -38 -15 -80zM140 294l-21 -100q-14 -65 14.5 -115.5t84.5 -50.5q55 0 99.5 48t68 119.5 t23.5 148.5q0 144 -100 144q-66 0 -109.5 -57.5t-59.5 -136.5z" />
<glyph unicode="q" horiz-adv-x="457" d="M313 -200h-41l66 310h-2q-57 -100 -146 -100q-67 0 -100.5 49t-33.5 127q0 50 13.5 106t39.5 110t72.5 89t104.5 35q48 0 79 -25.5t42 -67.5h2q4 20 10.5 41t11.5 32l5 10h41q-19 -31 -31 -87zM381 309l6 32q4 24 4 37q0 47 -29 78.5t-79 31.5q-47 0 -85 -31.5t-59 -79.5 t-32 -97t-11 -92q0 -62 25 -101.5t79 -39.5q131 0 181 262z" />
<glyph unicode="r" horiz-adv-x="293" d="M73 0h-41l85 398q15 72 15 111v7h41q0 -35 -11 -81h2q48 91 144 91q14 0 36 -4l-9 -40q-15 4 -34 4q-125 0 -166 -192z" />
<glyph unicode="s" horiz-adv-x="420" d="M434 442l-30 -26q-24 32 -64.5 51t-86.5 19q-52 0 -86.5 -25t-34.5 -70q0 -32 26 -57t63.5 -43t75 -37t63.5 -49.5t26 -71.5q0 -64 -44.5 -103.5t-120.5 -39.5q-62 0 -116.5 25t-82.5 74l34 22q22 -39 68 -61t97 -22q56 0 90.5 29.5t34.5 73.5q0 28 -19 51t-47.5 37 t-61.5 30.5t-61 33t-46.5 44.5t-18.5 64q1 59 46.5 96t115.5 37q113 0 180 -82z" />
<glyph unicode="t" horiz-adv-x="301" d="M245 39l11 -39q-30 -11 -65 -11q-58 0 -88.5 32.5t-30.5 85.5q0 22 7 57l66 314h-73l9 38h72l25 114h40l-24 -114h118l-9 -38h-117l-67 -318q-6 -25 -6 -47q0 -86 78 -86q27 0 54 12z" />
<glyph unicode="u" horiz-adv-x="523" d="M481 36l-8 -39h-14q-59 0 -79 25t-20 70h-2q-25 -47 -58 -74.5t-84 -27.5q-68 0 -101 38t-33 103q0 29 8 66l68 319h41l-70 -326q-6 -28 -6 -55q0 -48 23.5 -77.5t75.5 -29.5q64 0 103 56.5t56 137.5l62 294h40l-79 -378q-7 -35 -7 -50q0 -29 15 -41t50 -12q12 0 19 1z " />
<glyph unicode="v" horiz-adv-x="398" d="M168 0h-36l-67 516h41l43 -346l10 -110h2q23 56 49 107l177 349h45z" />
<glyph unicode="w" horiz-adv-x="664" d="M446 0h-36l-34 338l-7 113h-3q-19 -47 -48 -108l-164 -343h-36l-53 516h41l31 -335l8 -120h2q27 64 52 117l161 338h37l31 -335l8 -120h2q27 62 53 117l162 338h45z" />
<glyph unicode="x" horiz-adv-x="414" d="M348 0h-43l-51 146l-28 91h-2q-29 -45 -59 -86l-112 -151h-50l197 264l-88 252h43l45 -132l31 -98h2q36 51 71 96l103 134h50l-200 -258z" />
<glyph unicode="y" horiz-adv-x="394" d="M89 -68l36 72l-66 512h41l43 -349l11 -114h2q25 59 50 110l177 353h45l-301 -595q-67 -131 -162 -131q-50 0 -91 19l19 36q34 -17 74 -17t68.5 26.5t53.5 77.5z" />
<glyph unicode="z" horiz-adv-x="416" d="M324 0h-334v2l341 415l53 59v2h-259l9 38h329v-2l-329 -398l-69 -76v-2h267z" />
<glyph unicode="{" horiz-adv-x="253" d="M158 -90l-8 -39q-62 0 -99.5 27.5t-37.5 77.5q0 44 23 90t50 77.5t50 70t23 70.5q0 50 -72 50l8 36q102 0 102 99q0 27 -20 85t-20 96q0 86 55 134.5t142 48.5l-8 -39q-63 0 -107.5 -35t-44.5 -109q0 -34 20.5 -90.5t20.5 -88.5q0 -48 -27.5 -79.5t-69.5 -40.5v-2 q58 -17 58 -67q0 -35 -22.5 -76.5t-50 -74t-50 -74t-22.5 -76.5q0 -71 107 -71z" />
<glyph unicode="|" horiz-adv-x="217" d="M265 800l-192 -900h-41l192 900h41z" />
<glyph unicode="}" horiz-adv-x="253" d="M165 794l8 39q62 0 99.5 -27.5t37.5 -77.5q0 -44 -23 -90t-50 -77.5t-50 -70t-23 -70.5q0 -50 72 -50l-8 -36q-102 0 -102 -99q0 -27 20 -85t20 -96q0 -86 -55 -134.5t-142 -48.5l8 39q63 0 107.5 35t44.5 109q0 35 -20.5 91.5t-20.5 87.5q0 48 27.5 79.5t69.5 40.5v2 q-58 17 -58 67q0 35 22.5 76.5t50 74t50 74t22.5 76.5q0 71 -107 71z" />
<glyph unicode="~" horiz-adv-x="417" d="M370 445l38 -5q-12 -55 -35 -81.5t-69 -26.5q-36 0 -78.5 38.5t-64.5 38.5q-48 0 -64 -75l-38 5q23 108 103 108q28 0 53.5 -19.5t47.5 -39t41 -19.5q50 0 66 76z" />
<glyph unicode="&#xa1;" horiz-adv-x="191" d="M77 -1h-40l117 552h40zM228 683q0 -11 -8 -18.5t-19 -7.5t-18.5 7.5t-7.5 18.5t7.5 19t18.5 8t19 -8t8 -19z" />
<glyph unicode="&#xa2;" horiz-adv-x="424" d="M371 269l31 -23q-65 -98 -161 -98q-45 0 -75 13l-53 -100h-45l63 120q-40 31 -53.5 84t-0.5 112q18 85 70.5 136.5t129.5 51.5q27 0 53 -8l48 90h45l-57 -107q48 -33 65 -101l-38 -12q-11 48 -41.5 74t-76.5 26q-59 0 -101 -42.5t-57 -115.5q-16 -74 14.5 -128.5 t110.5 -54.5q76 0 129 83z" />
<glyph unicode="&#xa3;" horiz-adv-x="518" d="M402 63l25 -32q-32 -29 -72.5 -36t-78.5 0t-75.5 15.5t-74.5 5t-65 -26.5l-19 32q2 2 3 2q89 74 107 186q3 23 7 64h-101l8 38h96q11 167 21 218q30 154 130 177q19 4 41 4q72 0 114 -53.5t42 -136.5h-40q0 58 -29 105t-87 47q-30 0 -53.5 -12.5t-38.5 -35t-25 -51.5 t-15.5 -66t-9 -73t-6.5 -78q0 -10 -0.5 -15.5t-1 -14t-1.5 -15.5h191l-8 -38h-186q-2 -27 -8 -64q-20 -110 -86 -165l1 -2q35 8 76.5 4t75.5 -12.5t73 -2.5t70 32z" />
<glyph unicode="&#xa4;" horiz-adv-x="562" d="M417 166l36 -12q-34 -80 -82.5 -122t-120.5 -42q-56 0 -93 28t-50.5 72t-17.5 98t6 105h-52l7 34h50l6 28q2 12 4 18h-50l8 34h50q78 303 264 303q147 0 149 -188l-38 -1q-2 152 -112 152q-154 0 -223 -266h158l-8 -34h-158q-2 -6 -4 -18l-6 -28h158l-7 -34h-156 q-7 -46 -6.5 -87.5t9.5 -84.5t37.5 -68.5t74.5 -25.5q106 0 167 139z" />
<glyph unicode="&#xa5;" horiz-adv-x="433" d="M329 133h-117l-28 -133h-41l28 133h-120l7 34h120l11 50l-7 56h-102l7 34h91l-46 393h40l37 -328l8 -107h2q23 51 50 102l178 333h45l-213 -393h86l-7 -34h-97l-31 -57l-11 -49h117z" />
<glyph unicode="&#xa6;" horiz-adv-x="205" d="M153 313l-88 -413h-41l88 413h41zM257 800l-85 -400h-41l85 400h41z" />
<glyph unicode="&#xa7;" horiz-adv-x="491" d="M406 198v-2q18 -22 18 -62q0 -61 -46.5 -102.5t-126.5 -41.5q-71 0 -126 34.5t-83 92.5l35 20q21 -45 68 -77t109 -32q63 0 96.5 32t33.5 75q0 37 -28.5 64t-68.5 45t-80.5 37t-69 49.5t-28.5 72.5q0 75 77 107v2q-14 23 -14 56q0 61 45 101.5t121 40.5q133 0 184 -125 l-37 -18q-41 105 -147 105q-57 0 -91.5 -29t-34.5 -73q0 -36 27.5 -63t67 -45t78.5 -37t66.5 -51t27.5 -75q0 -67 -73 -101zM385 225q51 27 51 72q0 33 -26.5 59t-61 40.5t-77 37.5t-65.5 47q-57 -23 -57 -76q0 -31 27 -56t62 -39.5t79 -37.5t68 -47z" />
<glyph unicode="&#xa8;" horiz-adv-x="250" d="M210 814q0 -11 -8 -18.5t-19 -7.5t-18.5 7.5t-7.5 18.5t7.5 19t18.5 8t19 -8t8 -19zM350 814q0 -11 -8 -18.5t-19 -7.5t-18.5 7.5t-7.5 18.5t7.5 19t18.5 8t19 -8t8 -19z" />
<glyph unicode="&#xa9;" horiz-adv-x="783" d="M791 350q0 -153 -104 -256.5t-257 -103.5q-154 0 -258 103t-104 257q0 153 104 256.5t258 103.5q153 0 257 -103.5t104 -256.5zM431 28q138 0 229 91.5t91 230.5q0 138 -91 230t-229 92t-230.5 -92.5t-92.5 -229.5q0 -138 92.5 -230t230.5 -92zM490 288l38 -10 q-24 -90 -101 -90q-54 0 -85.5 44.5t-31.5 122.5q0 79 31.5 123.5t85.5 44.5q74 0 99 -85l-37 -11q-16 58 -62 58q-77 0 -77 -130q0 -63 20 -96t57 -33q46 0 63 62z" />
<glyph unicode="&#xaa;" horiz-adv-x="257" d="M291 383h-40l-6 65h-114l-32 -65h-45l171 317h29zM242 481l-7 85l-5 81h-2q-17 -41 -36 -79l-44 -87h94z" />
<glyph unicode="&#xab;" horiz-adv-x="392" d="M231 205l-28 -26l-175 155l7 41l244 155l21 -31l-167 -105l-71 -42v-2q34 -26 63 -52zM401 205l-28 -26l-175 155l7 41l244 155l21 -31l-167 -105l-71 -42v-2q34 -26 63 -52z" />
<glyph unicode="&#xac;" horiz-adv-x="344" d="M305 242l-31 -24l-75 100l-123 -101l-24 30l124 102l-76 102l31 24l75 -101l122 101l24 -30l-123 -102z" />
<glyph unicode="&#xad;" horiz-adv-x="833" />
<glyph unicode="&#xae;" horiz-adv-x="783" d="M791 350q0 -153 -104 -256.5t-257 -103.5q-154 0 -258 103t-104 257q0 153 104 256.5t258 103.5q153 0 257 -103.5t104 -256.5zM431 28q138 0 229 91.5t91 230.5q0 138 -91 230t-229 92t-230.5 -92.5t-92.5 -229.5q0 -138 92.5 -230t230.5 -92zM541 195h-45l-52 109 q-6 -1 -18 -1h-47v-108h-40v322h87q49 0 74.5 -31.5t25.5 -75.5q0 -64 -45 -93zM379 341h47q28 0 44 19.5t16 49.5t-16 49.5t-44 19.5h-47v-138z" />
<glyph unicode="&#xaf;" horiz-adv-x="306" d="M402 810l-8 -38h-258l8 38h258z" />
<glyph unicode="&#xb0;" horiz-adv-x="268" d="M212 510q-46 0 -68.5 25.5t-22.5 62.5q0 46 29.5 79t83.5 33q43 0 65 -26.5t22 -61.5q0 -43 -29 -77.5t-80 -34.5zM212 548q31 0 49.5 23.5t18.5 51.5q0 21 -13 35t-37 14q-31 0 -49.5 -22.5t-18.5 -52.5q0 -21 13 -35t37 -14z" />
<glyph unicode="&#xb1;" horiz-adv-x="370" d="M296 162l8 38h-238l-8 -38h238zM366 390h-121l-27 -126h-40l27 126h-121l8 38h121l27 126h40l-27 -126h121z" />
<glyph unicode="&#xb2;" horiz-adv-x="280" d="M267 385h-193l4 20l156 145q26 24 37.5 41t11.5 37q0 21 -13 32.5t-33 11.5q-49 0 -76 -70l-37 12q40 96 114 96q41 0 63 -23.5t22 -57.5q0 -53 -60 -106l-45 -40l-72 -58v-2h129z" />
<glyph unicode="&#xb3;" horiz-adv-x="259" d="M338 687l-93 -79l-47 -38l1 -2q39 2 64.5 -20.5t25.5 -59.5q0 -48 -29 -80.5t-81 -32.5q-46 0 -74 25.5t-30 63.5l39 7q3 -28 20.5 -43.5t46.5 -15.5q32 0 50.5 20.5t18.5 51.5q0 37 -27.5 50t-55.5 6l-13 28l46 40l66 52v2h-131l8 38h198z" />
<glyph unicode="&#xb4;" horiz-adv-x="256" d="M379 825l-212 -89l-14 31l208 97z" />
<glyph unicode="&#xb6;" horiz-adv-x="466" d="M444 700l-148 -700h-40l41 195h-45q-100 0 -148.5 60.5t-48.5 156.5q0 111 77.5 199.5t207.5 88.5h104zM524 700l-148 -700h-40l148 700h40z" />
<glyph unicode="&#xb7;" horiz-adv-x="165" d="M133 289q0 -11 -8 -18.5t-19 -7.5t-18.5 7.5t-7.5 18.5t7.5 19t18.5 8t19 -8t8 -19z" />
<glyph unicode="&#xb8;" horiz-adv-x="242" d="M-37 -201l33 23q17 -43 63 -43q32 0 52.5 19.5t20.5 47.5q0 20 -13 32t-36 12q-20 0 -39.5 -8.5t-28.5 -17.5l-30 20l59 133h37l-49 -108l2 -1q27 18 58 18q37 0 59.5 -22.5t22.5 -55.5q0 -44 -30.5 -76t-83.5 -32q-33 0 -60.5 17t-36.5 42z" />
<glyph unicode="&#xb9;" horiz-adv-x="179" d="M163 385h-41l59 277h-34l8 38h75z" />
<glyph unicode="&#xba;" horiz-adv-x="282" d="M194 405q40 0 67 59.5t27 125.5q0 36 -14.5 61t-44.5 25q-29 0 -51 -30t-32.5 -71.5t-10.5 -84.5q0 -36 14 -60.5t45 -24.5zM191 371q-47 0 -69.5 37.5t-22.5 92.5q0 78 36.5 143.5t96.5 65.5q48 0 69.5 -37t21.5 -93q0 -79 -36 -144t-96 -65z" />
<glyph unicode="&#xbb;" horiz-adv-x="399" d="M55 500l28 26l175 -155l-7 -41l-244 -155l-21 31l167 105l71 42v2q-34 26 -63 52zM230 500l28 26l175 -155l-7 -41l-244 -155l-21 31l167 105l71 42v2q-34 26 -63 52z" />
<glyph unicode="&#xbc;" horiz-adv-x="477" d="M345 0h-41l14 69h-127l182 247h39l-45 -209h45l-8 -38h-45zM328 103l29 142h-2q-53 -84 -97 -140v-2h70zM173 385h-41l59 277h-34l8 38h75zM45 0l476 700h-49l-475 -700h48z" />
<glyph unicode="&#xbd;" horiz-adv-x="482" d="M173 385h-41l59 277h-34l8 38h75zM45 0l476 700h-49l-475 -700h48zM389 0h-193l4 20l156 145q26 24 37.5 41t11.5 37q0 21 -13 32.5t-33 11.5q-49 0 -76 -70l-37 12q40 96 114 96q41 0 63 -23.5t22 -57.5q0 -53 -60 -106l-45 -40l-72 -58v-2h129z" />
<glyph unicode="&#xbe;" horiz-adv-x="513" d="M384 0h-41l14 69h-127l182 247h39l-45 -209h45l-8 -38h-45zM367 103l29 142h-2q-53 -84 -97 -140v-2h70zM319 687l-93 -79l-47 -38l1 -2q39 2 64.5 -20.5t25.5 -59.5q0 -48 -29 -80.5t-81 -32.5q-46 0 -74 25.5t-30 63.5l39 7q3 -28 20.5 -43.5t46.5 -15.5 q32 0 50.5 20.5t18.5 51.5q0 37 -27.5 50t-55.5 6l-13 28l46 40l66 52v2h-131l8 38h198zM81 0l476 700h-49l-475 -700h48z" />
<glyph unicode="&#xbf;" horiz-adv-x="393" d="M347 196l38 -10q-25 -89 -77.5 -137t-129.5 -48q-72 0 -114.5 43.5t-42.5 106.5q0 43 18 82t45.5 67.5t59 59t59 56t45.5 59t18 67.5q0 10 -2 19t-4 13l-2 4l37 15q11 -20 11 -51q0 -45 -25 -88t-61 -76.5t-72.5 -67t-61.5 -73.5t-25 -82q0 -49 32.5 -82.5t87.5 -33.5 q61 0 104.5 43t61.5 114zM318 683q0 -11 -8 -18.5t-19 -7.5t-18.5 7.5t-7.5 18.5t7.5 19t18.5 8t19 -8t8 -19z" />
<glyph unicode="&#xc0;" horiz-adv-x="480" d="M429 0h-40l-19 190h-256l-99 -190h-45l363 700h30zM366 228l-27 287l-6 105h-2q-25 -59 -47 -101l-150 -291h232zM412 736l-212 89l18 39l208 -97z" />
<glyph unicode="&#xc1;" horiz-adv-x="480" d="M429 0h-40l-19 190h-256l-99 -190h-45l363 700h30zM366 228l-27 287l-6 105h-2q-25 -59 -47 -101l-150 -291h232zM489 825l-212 -89l-14 31l208 97z" />
<glyph unicode="&#xc2;" horiz-adv-x="480" d="M429 0h-40l-19 190h-256l-99 -190h-45l363 700h30zM366 228l-27 287l-6 105h-2q-25 -59 -47 -101l-150 -291h232zM473 791l-30 -24l-27 35l-46 65h-2q-35 -34 -61 -56l-57 -47l-23 30l147 120h2z" />
<glyph unicode="&#xc3;" horiz-adv-x="480" d="M429 0h-40l-19 190h-256l-99 -190h-45l363 700h30zM366 228l-27 287l-6 105h-2q-25 -59 -47 -101l-150 -291h232zM498 885l38 -5q-12 -55 -35 -81.5t-69 -26.5q-36 0 -78.5 38.5t-64.5 38.5q-48 0 -64 -75l-38 5q23 108 103 108q28 0 53.5 -19.5t47.5 -39t41 -19.5 q50 0 66 76z" />
<glyph unicode="&#xc4;" horiz-adv-x="480" d="M429 0h-40l-19 190h-256l-99 -190h-45l363 700h30zM366 228l-27 287l-6 105h-2q-25 -59 -47 -101l-150 -291h232zM320 814q0 -11 -8 -18.5t-19 -7.5t-18.5 7.5t-7.5 18.5t7.5 19t18.5 8t19 -8t8 -19zM460 814q0 -11 -8 -18.5t-19 -7.5t-18.5 7.5t-7.5 18.5t7.5 19t18.5 8 t19 -8t8 -19z" />
<glyph unicode="&#xc5;" horiz-adv-x="480" d="M429 0h-40l-19 190h-256l-99 -190h-45l363 700h30zM366 228l-27 287l-6 105h-2q-25 -59 -47 -101l-150 -291h232zM445 849q0 -30 -20 -52t-57 -22q-31 0 -48 17.5t-17 42.5q0 30 20.5 53t57.5 23q31 0 47.5 -18t16.5 -44zM370 805q20 0 31.5 12.5t11.5 30.5q0 14 -9 23.5 t-25 9.5q-20 0 -32 -13t-12 -31q0 -14 9 -23t26 -9z" />
<glyph unicode="&#xc6;" horiz-adv-x="749" d="M671 0h-353l40 190h-210l-134 -190h-50l502 700h354l-8 -37h-314l-66 -311h273l-8 -38h-273l-58 -276h313zM366 228l60 284l25 106h-2q-34 -51 -64 -94l-210 -296h191z" />
<glyph unicode="&#xc7;" horiz-adv-x="499" d="M103 -201l33 23q17 -43 63 -43q32 0 52.5 19.5t20.5 47.5q0 20 -13 32t-36 12q-20 0 -39.5 -8.5t-28.5 -17.5l-30 20l50 113q-121 34 -121 223q0 55 9 116.5t32 129t56 121t86 88.5t118 35q157 0 174 -187l-39 -3q-15 153 -138 153q-67 0 -120 -47.5t-81.5 -120t-43 -145 t-14.5 -137.5q0 -196 140 -196q118 0 188 139l35 -17q-82 -159 -226 -159q-15 0 -21 1l-37 -82l2 -1q27 18 58 18q37 0 59.5 -22.5t22.5 -55.5q0 -44 -30.5 -76t-83.5 -32q-33 0 -60.5 17t-36.5 42z" />
<glyph unicode="&#xc8;" horiz-adv-x="470" d="M394 0h-353l148 700h354l-8 -37h-314l-66 -311h273l-8 -38h-273l-58 -276h313zM472 736l-212 89l18 39l208 -97z" />
<glyph unicode="&#xc9;" horiz-adv-x="470" d="M394 0h-353l148 700h354l-8 -37h-314l-66 -311h273l-8 -38h-273l-58 -276h313zM490 825l-212 -89l-14 31l208 97z" />
<glyph unicode="&#xca;" horiz-adv-x="470" d="M394 0h-353l148 700h354l-8 -37h-314l-66 -311h273l-8 -38h-273l-58 -276h313zM505 791l-30 -24l-27 35l-46 65h-2q-35 -34 -61 -56l-57 -47l-23 30l147 120h2z" />
<glyph unicode="&#xcb;" horiz-adv-x="470" d="M394 0h-353l148 700h354l-8 -37h-314l-66 -311h273l-8 -38h-273l-58 -276h313zM330 814q0 -11 -8 -18.5t-19 -7.5t-18.5 7.5t-7.5 18.5t7.5 19t18.5 8t19 -8t8 -19zM470 814q0 -11 -8 -18.5t-19 -7.5t-18.5 7.5t-7.5 18.5t7.5 19t18.5 8t19 -8t8 -19z" />
<glyph unicode="&#xcc;" horiz-adv-x="241" d="M102 0h-41l148 700h41zM342 736l-212 89l18 39l208 -97z" />
<glyph unicode="&#xcd;" horiz-adv-x="241" d="M102 0h-41l148 700h41zM358 825l-212 -89l-14 31l208 97z" />
<glyph unicode="&#xce;" horiz-adv-x="241" d="M102 0h-41l148 700h41zM371 791l-30 -24l-27 35l-46 65h-2q-35 -34 -61 -56l-57 -47l-23 30l147 120h2z" />
<glyph unicode="&#xcf;" horiz-adv-x="241" d="M102 0h-41l148 700h41zM204 814q0 -11 -8 -18.5t-19 -7.5t-18.5 7.5t-7.5 18.5t7.5 19t18.5 8t19 -8t8 -19zM344 814q0 -11 -8 -18.5t-19 -7.5t-18.5 7.5t-7.5 18.5t7.5 19t18.5 8t19 -8t8 -19z" />
<glyph unicode="&#xd0;" horiz-adv-x="505" d="M173 0h-152l70 332h-56l8 38h56l70 330h135q102 0 156 -64.5t54 -176.5q0 -56 -11 -116t-37 -122t-64 -110.5t-97.5 -79.5t-131.5 -31zM69 37h111q75 0 134.5 42t92.5 107.5t50 135.5t17 137q0 97 -43 150.5t-128 53.5h-102l-62 -293h132l-8 -38h-132z" />
<glyph unicode="&#xd1;" horiz-adv-x="609" d="M451 0h-36l-170 513l-33 109h-2q-7 -56 -19 -111l-109 -511h-41l148 700h35l171 -514l33 -111h2q7 54 19 111l109 514h41zM552 885l38 -5q-12 -55 -35 -81.5t-69 -26.5q-36 0 -78.5 38.5t-64.5 38.5q-48 0 -64 -75l-38 5q23 108 103 108q28 0 53.5 -19.5t47.5 -39 t41 -19.5q50 0 66 76z" />
<glyph unicode="&#xd2;" horiz-adv-x="524" d="M230 -10q-82 0 -126.5 53t-48 135t12.5 182q30 160 101.5 255t185.5 95q82 0 126.5 -53t48 -135t-12.5 -182q-30 -160 -101.5 -255t-185.5 -95zM233 27q93 0 154.5 85t89.5 228q15 90 14 164t-36.5 121.5t-102.5 47.5q-93 0 -154.5 -85t-89.5 -228q-15 -90 -14 -164 t36.5 -121.5t102.5 -47.5zM482 736l-212 89l18 39l208 -97z" />
<glyph unicode="&#xd3;" horiz-adv-x="524" d="M230 -10q-82 0 -126.5 53t-48 135t12.5 182q30 160 101.5 255t185.5 95q82 0 126.5 -53t48 -135t-12.5 -182q-30 -160 -101.5 -255t-185.5 -95zM233 27q93 0 154.5 85t89.5 228q15 90 14 164t-36.5 121.5t-102.5 47.5q-93 0 -154.5 -85t-89.5 -228q-15 -90 -14 -164 t36.5 -121.5t102.5 -47.5zM509 825l-212 -89l-14 31l208 97z" />
<glyph unicode="&#xd4;" horiz-adv-x="524" d="M230 -10q-82 0 -126.5 53t-48 135t12.5 182q30 160 101.5 255t185.5 95q82 0 126.5 -53t48 -135t-12.5 -182q-30 -160 -101.5 -255t-185.5 -95zM233 27q93 0 154.5 85t89.5 228q15 90 14 164t-36.5 121.5t-102.5 47.5q-93 0 -154.5 -85t-89.5 -228q-15 -90 -14 -164 t36.5 -121.5t102.5 -47.5zM508 791l-30 -24l-27 35l-46 65h-2q-35 -34 -61 -56l-57 -47l-23 30l147 120h2z" />
<glyph unicode="&#xd5;" horiz-adv-x="524" d="M230 -10q-82 0 -126.5 53t-48 135t12.5 182q30 160 101.5 255t185.5 95q82 0 126.5 -53t48 -135t-12.5 -182q-30 -160 -101.5 -255t-185.5 -95zM233 27q93 0 154.5 85t89.5 228q15 90 14 164t-36.5 121.5t-102.5 47.5q-93 0 -154.5 -85t-89.5 -228q-15 -90 -14 -164 t36.5 -121.5t102.5 -47.5zM529 885l38 -5q-12 -55 -35 -81.5t-69 -26.5q-36 0 -78.5 38.5t-64.5 38.5q-48 0 -64 -75l-38 5q23 108 103 108q28 0 53.5 -19.5t47.5 -39t41 -19.5q50 0 66 76z" />
<glyph unicode="&#xd6;" horiz-adv-x="524" d="M230 -10q-82 0 -126.5 53t-48 135t12.5 182q30 160 101.5 255t185.5 95q82 0 126.5 -53t48 -135t-12.5 -182q-30 -160 -101.5 -255t-185.5 -95zM233 27q93 0 154.5 85t89.5 228q15 90 14 164t-36.5 121.5t-102.5 47.5q-93 0 -154.5 -85t-89.5 -228q-15 -90 -14 -164 t36.5 -121.5t102.5 -47.5zM342 814q0 -11 -8 -18.5t-19 -7.5t-18.5 7.5t-7.5 18.5t7.5 19t18.5 8t19 -8t8 -19zM482 814q0 -11 -8 -18.5t-19 -7.5t-18.5 7.5t-7.5 18.5t7.5 19t18.5 8t19 -8t8 -19z" />
<glyph unicode="&#xd7;" horiz-adv-x="344" d="M305 242l-31 -24l-75 100l-123 -101l-24 30l124 102l-76 102l31 24l75 -101l122 101l24 -30l-123 -102z" />
<glyph unicode="&#xd8;" horiz-adv-x="524" d="M230 -10q-82 0 -126.5 53t-48 135t12.5 182q30 160 101.5 255t185.5 95q82 0 126.5 -53t48 -135t-12.5 -182q-30 -160 -101.5 -255t-185.5 -95zM455 624l-299 -575q31 -22 77 -22q93 0 154.5 85t89.5 228q39 201 -22 284zM130 75l298 576q-31 22 -76 22q-93 0 -154.5 -85 t-89.5 -228q-40 -201 22 -285z" />
<glyph unicode="&#xd9;" horiz-adv-x="536" d="M430 228l100 472h41l-101 -478q-49 -232 -222 -232q-78 0 -125.5 45.5t-47.5 129.5q0 29 8 69l99 466h41l-100 -473q-7 -32 -7 -63q0 -68 37 -102t97 -34q137 0 180 200zM488 736l-212 89l18 39l208 -97z" />
<glyph unicode="&#xda;" horiz-adv-x="536" d="M430 228l100 472h41l-101 -478q-49 -232 -222 -232q-78 0 -125.5 45.5t-47.5 129.5q0 29 8 69l99 466h41l-100 -473q-7 -32 -7 -63q0 -68 37 -102t97 -34q137 0 180 200zM489 825l-212 -89l-14 31l208 97z" />
<glyph unicode="&#xdb;" horiz-adv-x="536" d="M430 228l100 472h41l-101 -478q-49 -232 -222 -232q-78 0 -125.5 45.5t-47.5 129.5q0 29 8 69l99 466h41l-100 -473q-7 -32 -7 -63q0 -68 37 -102t97 -34q137 0 180 200zM509 791l-30 -24l-27 35l-46 65h-2q-35 -34 -61 -56l-57 -47l-23 30l147 120h2z" />
<glyph unicode="&#xdc;" horiz-adv-x="536" d="M430 228l100 472h41l-101 -478q-49 -232 -222 -232q-78 0 -125.5 45.5t-47.5 129.5q0 29 8 69l99 466h41l-100 -473q-7 -32 -7 -63q0 -68 37 -102t97 -34q137 0 180 200zM345 814q0 -11 -8 -18.5t-19 -7.5t-18.5 7.5t-7.5 18.5t7.5 19t18.5 8t19 -8t8 -19zM485 814 q0 -11 -8 -18.5t-19 -7.5t-18.5 7.5t-7.5 18.5t7.5 19t18.5 8t19 -8t8 -19z" />
<glyph unicode="&#xdd;" horiz-adv-x="421" d="M192 0h-41l45 214l-90 486h40l62 -335l17 -103h2q29 53 54 95l207 343h47l-298 -487zM437 825l-212 -89l-14 31l208 97z" />
<glyph unicode="&#xde;" horiz-adv-x="452" d="M191 105h-87l-22 -105h-41l149 700h40l-20 -91h88q99 0 135.5 -67.5t15.5 -184.5q-21 -116 -87.5 -184t-170.5 -68zM112 143h87q80 0 134.5 57t75.5 157q21 101 -8 157.5t-111 56.5h-88z" />
<glyph unicode="&#xdf;" horiz-adv-x="526" d="M140 58l29 26q44 -56 131 -56q53 0 87 28.5t34 79.5q0 30 -20.5 52t-49.5 36.5t-57.5 30t-49 41t-20.5 60.5t18.5 59t45 38.5t53 28.5t45 38.5t18.5 59.5q0 42 -25 67t-70 25q-58 0 -84 -39.5t-42 -112.5l-110 -520h-41l110 518q21 98 59 145t110 47q63 0 98 -34.5 t35 -94.5q0 -42 -18.5 -72t-45 -46t-53 -29t-45 -31t-18.5 -44q0 -27 20 -47.5t49 -34.5t58 -30t49 -43t20 -63q0 -64 -43 -107.5t-120 -43.5q-52 0 -93.5 19.5t-63.5 48.5z" />
<glyph unicode="&#xe0;" horiz-adv-x="508" d="M463 35l-8 -39q-6 -1 -18 -1q-105 0 -96 104h-2q-26 -50 -60 -79.5t-89 -29.5q-45 0 -76 24t-43 62t-14.5 86.5t8.5 96.5q24 124 82 195.5t142 71.5q76 0 116.5 -55t23.5 -135l-43 -199q-7 -35 -7 -50q0 -29 15.5 -41t49.5 -12q12 0 19 1zM380 299l9 42q13 61 -14.5 104 t-86.5 43q-65 0 -112 -59t-71 -176q-8 -38 -8.5 -75t7.5 -72t31 -56.5t59 -21.5q67 0 113.5 75t72.5 196zM422 576l-212 89l18 39l208 -97z" />
<glyph unicode="&#xe1;" horiz-adv-x="508" d="M463 35l-8 -39q-6 -1 -18 -1q-105 0 -96 104h-2q-26 -50 -60 -79.5t-89 -29.5q-45 0 -76 24t-43 62t-14.5 86.5t8.5 96.5q24 124 82 195.5t142 71.5q76 0 116.5 -55t23.5 -135l-43 -199q-7 -35 -7 -50q0 -29 15.5 -41t49.5 -12q12 0 19 1zM380 299l9 42q13 61 -14.5 104 t-86.5 43q-65 0 -112 -59t-71 -176q-8 -38 -8.5 -75t7.5 -72t31 -56.5t59 -21.5q67 0 113.5 75t72.5 196zM425 665l-212 -89l-14 31l208 97z" />
<glyph unicode="&#xe2;" horiz-adv-x="508" d="M463 35l-8 -39q-6 -1 -18 -1q-105 0 -96 104h-2q-26 -50 -60 -79.5t-89 -29.5q-45 0 -76 24t-43 62t-14.5 86.5t8.5 96.5q24 124 82 195.5t142 71.5q76 0 116.5 -55t23.5 -135l-43 -199q-7 -35 -7 -50q0 -29 15.5 -41t49.5 -12q12 0 19 1zM380 299l9 42q13 61 -14.5 104 t-86.5 43q-65 0 -112 -59t-71 -176q-8 -38 -8.5 -75t7.5 -72t31 -56.5t59 -21.5q67 0 113.5 75t72.5 196zM435 613l-30 -24l-27 35l-46 65h-2q-35 -34 -61 -56l-57 -47l-23 30l147 120h2z" />
<glyph unicode="&#xe3;" horiz-adv-x="507" d="M463 35l-8 -39q-6 -1 -18 -1q-105 0 -96 104h-2q-26 -50 -60 -79.5t-89 -29.5q-45 0 -76 24t-43 62t-14.5 86.5t8.5 96.5q24 124 82 195.5t142 71.5q76 0 116.5 -55t23.5 -135l-43 -199q-7 -35 -7 -50q0 -29 15.5 -41t49.5 -12q12 0 19 1zM380 299l9 42q13 61 -14.5 104 t-86.5 43q-65 0 -112 -59t-71 -176q-8 -38 -8.5 -75t7.5 -72t31 -56.5t59 -21.5q67 0 113.5 75t72.5 196zM466 719l38 -5q-12 -55 -35 -81.5t-69 -26.5q-36 0 -78.5 38.5t-64.5 38.5q-48 0 -64 -75l-38 5q23 108 103 108q28 0 53.5 -19.5t47.5 -39t41 -19.5q50 0 66 76z" />
<glyph unicode="&#xe4;" horiz-adv-x="508" d="M463 35l-8 -39q-6 -1 -18 -1q-105 0 -96 104h-2q-26 -50 -60 -79.5t-89 -29.5q-45 0 -76 24t-43 62t-14.5 86.5t8.5 96.5q24 124 82 195.5t142 71.5q76 0 116.5 -55t23.5 -135l-43 -199q-7 -35 -7 -50q0 -29 15.5 -41t49.5 -12q12 0 19 1zM380 299l9 42q13 61 -14.5 104 t-86.5 43q-65 0 -112 -59t-71 -176q-8 -38 -8.5 -75t7.5 -72t31 -56.5t59 -21.5q67 0 113.5 75t72.5 196zM271 632q0 -11 -8 -18.5t-19 -7.5t-18.5 7.5t-7.5 18.5t7.5 19t18.5 8t19 -8t8 -19zM411 632q0 -11 -8 -18.5t-19 -7.5t-18.5 7.5t-7.5 18.5t7.5 19t18.5 8t19 -8 t8 -19z" />
<glyph unicode="&#xe5;" horiz-adv-x="508" d="M463 35l-8 -39q-6 -1 -18 -1q-105 0 -96 104h-2q-26 -50 -60 -79.5t-89 -29.5q-45 0 -76 24t-43 62t-14.5 86.5t8.5 96.5q24 124 82 195.5t142 71.5q76 0 116.5 -55t23.5 -135l-43 -199q-7 -35 -7 -50q0 -29 15.5 -41t49.5 -12q12 0 19 1zM380 299l9 42q13 61 -14.5 104 t-86.5 43q-65 0 -112 -59t-71 -176q-8 -38 -8.5 -75t7.5 -72t31 -56.5t59 -21.5q67 0 113.5 75t72.5 196zM388 649q0 -30 -20 -52t-57 -22q-31 0 -48 17.5t-17 42.5q0 30 20.5 53t57.5 23q31 0 47.5 -18t16.5 -44zM313 605q20 0 31.5 12.5t11.5 30.5q0 14 -9 23.5t-25 9.5 q-20 0 -32 -13t-12 -31q0 -14 9 -23t26 -9z" />
<glyph unicode="&#xe6;" horiz-adv-x="855" d="M706 103l29 -27q-79 -86 -175 -86q-81 0 -117.5 57.5t-39.5 144.5h-2q-10 -32 -25 -63t-40 -64.5t-63 -54t-82 -20.5q-57 0 -89.5 33.5t-32.5 84.5q0 99 80.5 145.5t251.5 48.5l10 46q15 71 -7.5 106.5t-72.5 35.5q-78 0 -142 -89l-31 26q76 100 174 100q58 0 86.5 -36.5 t24.5 -103.5h2q30 65 72 102t107 37q78 0 119 -58.5t41 -150.5q0 -26 -3 -53h-348q-4 -27 -4 -60q0 -86 37 -131t98 -45q76 0 142 75zM386 230l7 34h-32q-252 0 -252 -156q0 -38 25 -59t65 -21q68 0 119 60.5t68 141.5zM744 302v17q0 79 -33 124t-90 45q-63 0 -111 -53 t-69 -133h303z" />
<glyph unicode="&#xe7;" horiz-adv-x="430" d="M76 -201l33 23q17 -43 63 -43q32 0 52.5 19.5t20.5 47.5q0 20 -13 32t-36 12q-20 0 -39.5 -8.5t-28.5 -17.5l-30 20l51 116q-93 40 -93 195q0 78 25 152t78.5 126.5t122.5 52.5q57 0 91.5 -34t48.5 -92l-38 -12q-22 100 -105 100q-80 0 -131.5 -91.5t-51.5 -201.5 q0 -78 29 -122.5t83 -44.5q76 0 127 83l31 -23q-64 -98 -160 -98q-8 0 -24 2l-37 -83l2 -1q27 18 58 18q37 0 59.5 -22.5t22.5 -55.5q0 -44 -30.5 -76t-83.5 -32q-33 0 -60.5 17t-36.5 42z" />
<glyph unicode="&#xe8;" d="M373 103l29 -27q-79 -86 -175 -86q-80 0 -125.5 59t-45.5 156q0 76 26.5 148t82 122.5t126.5 50.5q78 0 119 -58.5t41 -150.5q0 -37 -6 -75h-347q-2 -13 -2 -38q0 -86 37 -131t98 -45q76 0 142 75zM104 280h305q2 24 2 39q0 79 -33 124t-90 45q-68 0 -117 -60t-67 -148z M422 576l-212 89l18 39l208 -97z" />
<glyph unicode="&#xe9;" d="M373 103l29 -27q-79 -86 -175 -86q-80 0 -125.5 59t-45.5 156q0 76 26.5 148t82 122.5t126.5 50.5q78 0 119 -58.5t41 -150.5q0 -37 -6 -75h-347q-2 -13 -2 -38q0 -86 37 -131t98 -45q76 0 142 75zM104 280h305q2 24 2 39q0 79 -33 124t-90 45q-68 0 -117 -60t-67 -148z M418 665l-212 -89l-14 31l208 97z" />
<glyph unicode="&#xea;" d="M373 103l29 -27q-79 -86 -175 -86q-80 0 -125.5 59t-45.5 156q0 76 26.5 148t82 122.5t126.5 50.5q78 0 119 -58.5t41 -150.5q0 -37 -6 -75h-347q-2 -13 -2 -38q0 -86 37 -131t98 -45q76 0 142 75zM104 280h305q2 24 2 39q0 79 -33 124t-90 45q-68 0 -117 -60t-67 -148z M435 613l-30 -24l-27 35l-46 65h-2q-35 -34 -61 -56l-57 -47l-23 30l147 120h2z" />
<glyph unicode="&#xeb;" d="M373 103l29 -27q-79 -86 -175 -86q-80 0 -125.5 59t-45.5 156q0 76 26.5 148t82 122.5t126.5 50.5q78 0 119 -58.5t41 -150.5q0 -37 -6 -75h-347q-2 -13 -2 -38q0 -86 37 -131t98 -45q76 0 142 75zM104 280h305q2 24 2 39q0 79 -33 124t-90 45q-68 0 -117 -60t-67 -148z M269 632q0 -11 -8 -18.5t-19 -7.5t-18.5 7.5t-7.5 18.5t7.5 19t18.5 8t19 -8t8 -19zM409 632q0 -11 -8 -18.5t-19 -7.5t-18.5 7.5t-7.5 18.5t7.5 19t18.5 8t19 -8t8 -19z" />
<glyph unicode="&#xec;" horiz-adv-x="261" d="M216 572l-100 82l29 32l93 -89zM185 35l-8 -39q-3 0 -7.5 -0.5t-6.5 -0.5q-102 0 -102 91q0 20 7 55l55 257q15 72 15 111v7h41q0 -41 -17 -123l-54 -256q-7 -35 -7 -50q0 -29 15 -41t50 -12q12 0 19 1z" />
<glyph unicode="&#xed;" horiz-adv-x="261" d="M251 653l-100 -82l-22 25l93 89zM185 35l-8 -39q-3 0 -7.5 -0.5t-6.5 -0.5q-102 0 -102 91q0 20 7 55l55 257q15 72 15 111v7h41q0 -41 -17 -123l-54 -256q-7 -35 -7 -50q0 -29 15 -41t50 -12q12 0 19 1z" />
<glyph unicode="&#xee;" horiz-adv-x="261" d="M185 35l-8 -39q-3 0 -7.5 -0.5t-6.5 -0.5q-102 0 -102 91q0 20 7 55l55 257q15 72 15 111v7h41q0 -41 -17 -123l-54 -256q-7 -35 -7 -50q0 -29 15 -41t50 -12q12 0 19 1zM301 613l-30 -24l-27 35l-46 65h-2q-35 -34 -61 -56l-57 -47l-23 30l147 120h2z" />
<glyph unicode="&#xef;" horiz-adv-x="261" d="M167 646q0 -11 -8 -18.5t-19 -7.5t-18.5 7.5t-7.5 18.5t7.5 19t18.5 8t19 -8t8 -19zM247 646q0 -11 -8 -18.5t-19 -7.5t-18.5 7.5t-7.5 18.5t7.5 19t18.5 8t19 -8t8 -19zM185 35l-8 -39q-3 0 -7.5 -0.5t-6.5 -0.5q-102 0 -102 91q0 20 7 55l55 257q15 72 15 111v7h41 q0 -41 -17 -123l-54 -256q-7 -35 -7 -50q0 -29 15 -41t50 -12q12 0 19 1z" />
<glyph unicode="&#xf0;" horiz-adv-x="506" d="M462 35l-8 -39q-3 0 -7 -0.5t-11 -0.5q-91 0 -93 101h-2q-56 -106 -151 -106q-68 0 -101 51t-33 131q0 44 9 87q24 124 82 195.5t142 71.5q48 0 78 -24.5t41 -66.5h2q6 38 18 96q5 27 5 45q0 28 -10 51l-82 -62l-16 23l80 64q-39 39 -117 39l9 39q89 0 137 -54l90 72 l20 -29l-91 -69q19 -35 19 -80q0 -19 -5 -46l-82 -387q-7 -35 -7 -50q0 -29 15.5 -41t49.5 -12q12 0 19 1zM371 265l18 82q4 24 4 34q0 46 -28.5 76.5t-76.5 30.5q-65 0 -112 -59t-71 -176q-9 -47 -9 -82q0 -62 23 -102.5t75 -40.5q126 0 177 237z" />
<glyph unicode="&#xf1;" horiz-adv-x="511" d="M465 35l-8 -39q-6 -1 -18 -1q-98 0 -98 91q0 20 7 55l37 172q8 38 8 69q0 106 -91 106q-125 0 -167 -194l-62 -294h-41l85 398q15 72 15 111v7h41q-2 -45 -12 -83h2q50 93 145 93q64 0 94 -39.5t30 -104.5q0 -34 -8 -76l-36 -169q-7 -35 -7 -50q0 -29 15.5 -41t49.5 -12 q12 0 19 1zM459 719l38 -5q-12 -55 -35 -81.5t-69 -26.5q-36 0 -78.5 38.5t-64.5 38.5q-48 0 -64 -75l-38 5q23 108 103 108q28 0 53.5 -19.5t47.5 -39t41 -19.5q50 0 66 76z" />
<glyph unicode="&#xf2;" d="M216 -10q-78 0 -119 58.5t-41 149.5q0 81 26.5 155t82 123.5t127.5 49.5q77 0 118 -58.5t41 -149.5q0 -128 -64.5 -228t-170.5 -100zM218 28q85 0 139 87.5t54 202.5q0 80 -32.5 125t-89.5 45q-85 0 -139 -87.5t-54 -202.5q0 -80 32.5 -125t89.5 -45zM412 576l-212 89 l18 39l208 -97z" />
<glyph unicode="&#xf3;" d="M216 -10q-78 0 -119 58.5t-41 149.5q0 81 26.5 155t82 123.5t127.5 49.5q77 0 118 -58.5t41 -149.5q0 -128 -64.5 -228t-170.5 -100zM218 28q85 0 139 87.5t54 202.5q0 80 -32.5 125t-89.5 45q-85 0 -139 -87.5t-54 -202.5q0 -80 32.5 -125t89.5 -45zM421 665l-212 -89 l-14 31l208 97z" />
<glyph unicode="&#xf4;" d="M216 -10q-78 0 -119 58.5t-41 149.5q0 81 26.5 155t82 123.5t127.5 49.5q77 0 118 -58.5t41 -149.5q0 -128 -64.5 -228t-170.5 -100zM218 28q85 0 139 87.5t54 202.5q0 80 -32.5 125t-89.5 45q-85 0 -139 -87.5t-54 -202.5q0 -80 32.5 -125t89.5 -45zM428 613l-30 -24 l-27 35l-46 65h-2q-35 -34 -61 -56l-57 -47l-23 30l147 120h2z" />
<glyph unicode="&#xf5;" d="M216 -10q-78 0 -119 58.5t-41 149.5q0 81 26.5 155t82 123.5t127.5 49.5q77 0 118 -58.5t41 -149.5q0 -128 -64.5 -228t-170.5 -100zM218 28q85 0 139 87.5t54 202.5q0 80 -32.5 125t-89.5 45q-85 0 -139 -87.5t-54 -202.5q0 -80 32.5 -125t89.5 -45zM453 720l38 -5 q-12 -55 -35 -81.5t-69 -26.5q-36 0 -78.5 38.5t-64.5 38.5q-48 0 -64 -75l-38 5q23 108 103 108q28 0 53.5 -19.5t47.5 -39t41 -19.5q50 0 66 76z" />
<glyph unicode="&#xf6;" d="M216 -10q-78 0 -119 58.5t-41 149.5q0 81 26.5 155t82 123.5t127.5 49.5q77 0 118 -58.5t41 -149.5q0 -128 -64.5 -228t-170.5 -100zM218 28q85 0 139 87.5t54 202.5q0 80 -32.5 125t-89.5 45q-85 0 -139 -87.5t-54 -202.5q0 -80 32.5 -125t89.5 -45zM260 654 q0 -11 -8 -18.5t-19 -7.5t-18.5 7.5t-7.5 18.5t7.5 19t18.5 8t19 -8t8 -19zM400 654q0 -11 -8 -18.5t-19 -7.5t-18.5 7.5t-7.5 18.5t7.5 19t18.5 8t19 -8t8 -19z" />
<glyph unicode="&#xf7;" horiz-adv-x="370" d="M224 240q0 -9 -6.5 -15t-15.5 -6q-10 0 -16 6t-6 15q0 10 6 16.5t16 6.5q9 0 15.5 -6.5t6.5 -16.5zM268 453q0 -9 -6.5 -15t-15.5 -6q-10 0 -16 6t-6 15q0 10 6 16.5t16 6.5q9 0 15.5 -6.5t6.5 -16.5zM362 332l8 38h-280l-8 -38h280z" />
<glyph unicode="&#xf8;" d="M216 -10q-78 0 -119 58.5t-41 149.5q0 81 26.5 155t82 123.5t127.5 49.5q77 0 118 -58.5t41 -149.5q0 -128 -64.5 -228t-170.5 -100zM355 466l-175 -432q18 -6 38 -6q85 0 139 87.5t54 202.5q0 105 -56 148zM149 51l174 432q-17 5 -34 5q-85 0 -139 -87.5t-54 -202.5 q0 -103 53 -147z" />
<glyph unicode="&#xf9;" horiz-adv-x="523" d="M481 36l-8 -39h-14q-59 0 -79 25t-20 70h-2q-25 -47 -58 -74.5t-84 -27.5q-68 0 -101 38t-33 103q0 29 8 66l68 319h41l-70 -326q-6 -28 -6 -55q0 -48 23.5 -77.5t75.5 -29.5q64 0 103 56.5t56 137.5l62 294h40l-79 -378q-7 -35 -7 -50q0 -29 15 -41t50 -12q12 0 19 1z M432 576l-212 89l18 39l208 -97z" />
<glyph unicode="&#xfa;" horiz-adv-x="523" d="M481 36l-8 -39h-14q-59 0 -79 25t-20 70h-2q-25 -47 -58 -74.5t-84 -27.5q-68 0 -101 38t-33 103q0 29 8 66l68 319h41l-70 -326q-6 -28 -6 -55q0 -48 23.5 -77.5t75.5 -29.5q64 0 103 56.5t56 137.5l62 294h40l-79 -378q-7 -35 -7 -50q0 -29 15 -41t50 -12q12 0 19 1z M442 665l-212 -89l-14 31l208 97z" />
<glyph unicode="&#xfb;" horiz-adv-x="523" d="M481 36l-8 -39h-14q-59 0 -79 25t-20 70h-2q-25 -47 -58 -74.5t-84 -27.5q-68 0 -101 38t-33 103q0 29 8 66l68 319h41l-70 -326q-6 -28 -6 -55q0 -48 23.5 -77.5t75.5 -29.5q64 0 103 56.5t56 137.5l62 294h40l-79 -378q-7 -35 -7 -50q0 -29 15 -41t50 -12q12 0 19 1z M451 613l-30 -24l-27 35l-46 65h-2q-35 -34 -61 -56l-57 -47l-23 30l147 120h2z" />
<glyph unicode="&#xfc;" horiz-adv-x="523" d="M481 36l-8 -39h-14q-59 0 -79 25t-20 70h-2q-25 -47 -58 -74.5t-84 -27.5q-68 0 -101 38t-33 103q0 29 8 66l68 319h41l-70 -326q-6 -28 -6 -55q0 -48 23.5 -77.5t75.5 -29.5q64 0 103 56.5t56 137.5l62 294h40l-79 -378q-7 -35 -7 -50q0 -29 15 -41t50 -12q12 0 19 1z M289 632q0 -11 -8 -18.5t-19 -7.5t-18.5 7.5t-7.5 18.5t7.5 19t18.5 8t19 -8t8 -19zM429 632q0 -11 -8 -18.5t-19 -7.5t-18.5 7.5t-7.5 18.5t7.5 19t18.5 8t19 -8t8 -19z" />
<glyph unicode="&#xfd;" horiz-adv-x="412" d="M112 -68l36 72l-66 512h41l43 -349l11 -114h2q25 59 50 110l177 353h45l-301 -595q-67 -131 -162 -131q-50 0 -91 19l19 36q34 -17 74 -17t68.5 26.5t53.5 77.5zM392 665l-212 -89l-14 31l208 97z" />
<glyph unicode="&#xfe;" horiz-adv-x="501" d="M32 -200h-41l201 930h40l-46 -212l-19 -79h2q56 87 145 87q132 0 132 -179q0 -90 -28.5 -171.5t-83 -133.5t-122.5 -52q-46 0 -78 28t-39 77h-2q-6 -37 -16 -83zM145 325l-29 -131q-14 -62 14 -114t85 -52q55 0 99.5 48t68 119.5t23.5 148.5q0 144 -100 144 q-60 0 -103 -47.5t-58 -115.5z" />
<glyph unicode="&#xff;" horiz-adv-x="412" d="M112 -68l36 72l-66 512h41l43 -349l11 -114h2q25 59 50 110l177 353h45l-301 -595q-67 -131 -162 -131q-50 0 -91 19l19 36q34 -17 74 -17t68.5 26.5t53.5 77.5zM234 632q0 -11 -8 -18.5t-19 -7.5t-18.5 7.5t-7.5 18.5t7.5 19t18.5 8t19 -8t8 -19zM374 632 q0 -11 -8 -18.5t-19 -7.5t-18.5 7.5t-7.5 18.5t7.5 19t18.5 8t19 -8t8 -19z" />
<glyph unicode="&#x131;" horiz-adv-x="261" d="M185 35l-8 -39q-3 0 -7.5 -0.5t-6.5 -0.5q-102 0 -102 91q0 20 7 55l55 257q15 72 15 111v7h41q0 -41 -17 -123l-54 -256q-7 -35 -7 -50q0 -29 15 -41t50 -12q12 0 19 1z" />
<glyph unicode="&#x141;" horiz-adv-x="367" d="M345 0h-297l57 273l-65 -26l-7 35l81 32l82 386h41l-79 -369l153 61l6 -35l-167 -67l-54 -252h257z" />
<glyph unicode="&#x142;" horiz-adv-x="287" d="M213 35l-8 -39q-3 0 -7.5 -0.5t-6.5 -0.5q-102 0 -102 91q0 20 7 55l30 141l-88 -35l-7 35l103 41l87 407h41l-83 -390l130 52l6 -35l-145 -58l-34 -162q-7 -35 -7 -50q0 -29 15 -41t50 -12q12 0 19 1z" />
<glyph unicode="&#x152;" horiz-adv-x="673" d="M617 0h-409q-65 0 -103 33.5t-47.5 89.5t-6.5 111t16 116q36 168 100.5 259t172.5 91h426l-8 -37h-314l-66 -311h273l-8 -38h-273l-58 -276h313zM272 37l132 626h-65q-166 0 -232 -313t101 -313h64z" />
<glyph unicode="&#x153;" horiz-adv-x="823" d="M722 103l29 -27q-79 -86 -175 -86q-53 0 -89 29.5t-50.5 70.5t-17.5 93h-2q-58 -193 -201 -193q-78 0 -119 58.5t-41 149.5q0 81 26.5 155t82 123.5t127.5 49.5q75 0 109 -54t37 -136h2q58 190 200 190q78 0 119 -58.5t41 -150.5q0 -37 -6 -75h-347q-2 -13 -2 -38 q0 -86 37 -131t98 -45q76 0 142 75zM218 28q85 0 139 87.5t54 202.5q0 80 -32.5 125t-89.5 45q-85 0 -139 -87.5t-54 -202.5q0 -80 32.5 -125t89.5 -45zM453 280h305q2 24 2 39q0 79 -33 124t-90 45q-68 0 -117 -60t-67 -148z" />
<glyph unicode="&#x160;" horiz-adv-x="489" d="M78 137l-35 -20q26 -57 82.5 -92t124.5 -35q85 0 142 51.5t57 138.5q0 33 -10.5 61.5t-23 47t-39 39.5t-41 30.5t-47.5 28.5q-56 34 -85.5 66t-29.5 83q0 62 43.5 99t103.5 37q54 0 95 -31t59 -76l37 18q-22 55 -72 91t-118 36q-80 0 -134 -48.5t-54 -126.5 q0 -34 11 -62.5t34.5 -52t43.5 -38t53 -34.5q34 -20 51 -32.5t40 -33.5t33 -46.5t10 -57.5q0 -66 -45 -108t-112 -42q-57 0 -104.5 31t-69.5 78zM259 889l30 24l27 -35l46 -65h2q35 34 61 56l57 47l23 -30l-147 -120h-2z" />
<glyph unicode="&#x161;" horiz-adv-x="419" d="M434 442l-30 -26q-24 32 -64.5 51t-86.5 19q-52 0 -86.5 -25t-34.5 -70q0 -32 26 -57t63.5 -43t75 -37t63.5 -49.5t26 -71.5q0 -64 -44.5 -103.5t-120.5 -39.5q-62 0 -116.5 25t-82.5 74l34 22q22 -39 68 -61t97 -22q56 0 90.5 29.5t34.5 73.5q0 28 -19 51t-47.5 37 t-61.5 30.5t-61 33t-46.5 44.5t-18.5 64q1 59 46.5 96t115.5 37q113 0 180 -82zM197 709l30 24l27 -35l46 -65h2q35 34 61 56l57 47l23 -30l-147 -120h-2z" />
<glyph unicode="&#x178;" horiz-adv-x="421" d="M192 0h-41l45 214l-90 486h40l62 -335l17 -103h2q29 53 54 95l207 343h47l-298 -487zM292 814q0 -11 -8 -18.5t-19 -7.5t-18.5 7.5t-7.5 18.5t7.5 19t18.5 8t19 -8t8 -19zM432 814q0 -11 -8 -18.5t-19 -7.5t-18.5 7.5t-7.5 18.5t7.5 19t18.5 8t19 -8t8 -19z" />
<glyph unicode="&#x17d;" horiz-adv-x="455" d="M383 0h-398v2l432 596q12 17 24.5 32.5t18.5 22.5l7 7v2h-318l8 38h382v-2l-431 -594l-52 -64v-2h335zM267 889l30 24l27 -35l46 -65h2q35 34 61 56l57 47l23 -30l-147 -120h-2z" />
<glyph unicode="&#x17e;" horiz-adv-x="416" d="M311 0h-334v2l341 415l53 59v2h-259l9 38h329v-2l-329 -398l-69 -76v-2h267zM205 709l30 24l27 -35l46 -65h2q35 34 61 56l57 47l23 -30l-147 -120h-2z" />
<glyph unicode="&#x192;" horiz-adv-x="459" d="M435 370l-8 -38h-130q-13 -63 -23.5 -102t-32 -90t-47 -80t-67.5 -49.5t-96 -20.5v40q44 0 78.5 18t56.5 44t40 69.5t28 80t21 90.5h-146l8 38h146q0 3 2 9q11 53 19.5 87.5t22 77t28.5 69.5t36 51t48.5 35.5t61.5 11.5v-40q-38 0 -67 -22.5t-49.5 -69.5t-32.5 -91.5 t-27 -116.5v-1h130z" />
<glyph unicode="&#x2c6;" horiz-adv-x="365" d="M435 791l-30 -24l-27 35l-46 65h-2q-35 -34 -61 -56l-57 -47l-23 30l147 120h2z" />
<glyph unicode="&#x2c7;" horiz-adv-x="365" d="M287 889l30 24l27 -35l46 -65h2q35 34 61 56l57 47l23 -30l-147 -120h-2z" />
<glyph unicode="&#x2d8;" horiz-adv-x="343" d="M388 847l40 9q0 -52 -37.5 -82.5t-93.5 -30.5q-48 0 -77.5 22.5t-29.5 62.5q0 8 4 28l38 -9q-2 -6 -2 -16q0 -23 19.5 -35.5t46.5 -12.5q83 0 92 64z" />
<glyph unicode="&#x2d9;" horiz-adv-x="250" d="M280 814q0 -11 -8 -18.5t-19 -7.5t-18.5 7.5t-7.5 18.5t7.5 19t18.5 8t19 -8t8 -19z" />
<glyph unicode="&#x2da;" horiz-adv-x="231" d="M317 849q0 -30 -20 -52t-57 -22q-31 0 -48 17.5t-17 42.5q0 30 20.5 53t57.5 23q31 0 47.5 -18t16.5 -44zM242 805q20 0 31.5 12.5t11.5 30.5q0 14 -9 23.5t-25 9.5q-20 0 -32 -13t-12 -31q0 -14 9 -23t26 -9z" />
<glyph unicode="&#x2db;" horiz-adv-x="273" d="M165 -152l14 -36q-21 -12 -45 -12q-44 0 -70 33.5t-26 79.5q0 41 21.5 75t63.5 49l15 -37q-28 -8 -42.5 -31.5t-14.5 -52.5q0 -30 15.5 -52.5t41.5 -22.5q13 0 27 7z" />
<glyph unicode="&#x2dc;" horiz-adv-x="383" d="M441 885l38 -5q-12 -55 -35 -81.5t-69 -26.5q-36 0 -78.5 38.5t-64.5 38.5q-48 0 -64 -75l-38 5q23 108 103 108q28 0 53.5 -19.5t47.5 -39t41 -19.5q50 0 66 76z" />
<glyph unicode="&#x2dd;" horiz-adv-x="262" d="M214 752h-34l40 152h45zM294 752h-34l40 152h45z" />
<glyph unicode="&#x3c0;" horiz-adv-x="783" d="M791 350q0 -153 -104 -256.5t-257 -103.5q-154 0 -258 103t-104 257q0 153 104 256.5t258 103.5q153 0 257 -103.5t104 -256.5zM431 28q138 0 229 91.5t91 230.5q0 138 -91 230t-229 92t-230.5 -92.5t-92.5 -229.5q0 -138 92.5 -230t230.5 -92zM398 195h-40v322h87 q49 0 74.5 -33.5t25.5 -82.5t-25.5 -82.5t-74.5 -33.5h-47v-90zM398 323h47q28 0 44 21.5t16 56.5q0 34 -16 56t-44 22h-47v-156z" />
<glyph unicode="&#x2013;" horiz-adv-x="423" d="M387 370l-8 -38h-280l8 38h280z" />
<glyph unicode="&#x2014;" horiz-adv-x="624" d="M595 370l-8 -38h-480l8 38h480z" />
<glyph unicode="&#x2018;" horiz-adv-x="160" d="M191 710l16 -18q-18 -16 -29 -31t-12 -21l-2 -7l1 -1q5 3 10 3q8 0 14 -6.5t6 -16.5q0 -24 -26 -24q-24 0 -24 31q0 47 46 91z" />
<glyph unicode="&#x2019;" horiz-adv-x="160" d="M161 590l-16 18q18 16 29 31t12 21l2 7l-1 1q-5 -3 -10 -3q-8 0 -14 6.5t-6 16.5q0 24 26 24q24 0 24 -31q0 -47 -46 -91z" />
<glyph unicode="&#x201a;" horiz-adv-x="160" d="M39 -79l-16 18q18 16 29 30.5t12 21.5l2 7l-1 1q-5 -3 -10 -3q-8 0 -14 6.5t-6 16.5q0 24 26 24q24 0 24 -31q0 -47 -46 -91z" />
<glyph unicode="&#x201c;" horiz-adv-x="260" d="M191 712l16 -18q-18 -16 -29 -31t-12 -21l-2 -7l1 -1q5 3 10 3q8 0 14 -6.5t6 -16.5q0 -24 -26 -24q-24 0 -24 31q0 47 46 91zM291 712l16 -18q-18 -16 -29 -31t-12 -21l-2 -7l1 -1q4 3 10 3q8 0 14 -6.5t6 -16.5q0 -24 -26 -24q-24 0 -24 31q0 47 46 91z" />
<glyph unicode="&#x201d;" horiz-adv-x="260" d="M161 588l-16 18q18 16 29 31t12 21l2 7l-1 1q-5 -3 -10 -3q-8 0 -14 6.5t-6 16.5q0 24 26 24q24 0 24 -31q0 -47 -46 -91zM261 588l-16 18q18 16 29 31t12 21l2 7l-1 1q-5 -3 -10 -3q-8 0 -14 6.5t-6 16.5q0 24 26 24q24 0 24 -31q0 -47 -46 -91z" />
<glyph unicode="&#x201e;" horiz-adv-x="260" d="M39 -79l-16 18q18 16 29 30.5t12 21.5l2 7l-1 1q-5 -3 -10 -3q-8 0 -14 6.5t-6 16.5q0 24 26 24q24 0 24 -31q0 -47 -46 -91zM139 -79l-16 18q18 16 29 30.5t12 21.5l2 7l-1 1q-5 -3 -10 -3q-8 0 -14 6.5t-6 16.5q0 24 26 24q24 0 24 -31q0 -47 -46 -91z" />
<glyph unicode="&#x2020;" horiz-adv-x="367" d="M247 401l-107 -501h-38l112 528q-38 34 -59 34q-48 0 -64 -75l-38 5q23 108 103 108q33 0 67 -30l71 330h38l-77 -359q24 -19 43 -19q50 0 66 76l38 -5q-12 -55 -35 -81.5t-69 -26.5q-29 0 -51 16z" />
<glyph unicode="&#x2021;" horiz-adv-x="359" d="M226 306l-86 -406h-38l92 432q-40 36 -61 36q-48 0 -64 -75l-38 5q23 108 103 108q32 0 69 -31l32 152q-38 34 -59 34q-48 0 -64 -75l-38 5q23 108 103 108q33 0 67 -30l50 231h38l-56 -260q24 -19 43 -19q50 0 66 76l38 -5q-12 -55 -35 -81.5t-69 -26.5q-26 0 -51 16 l-33 -154q23 -18 41 -18q50 0 66 76l38 -5q-12 -55 -35 -81.5t-69 -26.5q-27 0 -50 15z" />
<glyph unicode="&#x2022;" horiz-adv-x="220" d="M198 263q0 -19 -13 -31.5t-33 -12.5q-19 0 -32 12.5t-13 31.5q0 20 13 33.5t32 13.5t32.5 -13.5t13.5 -33.5z" />
<glyph unicode="&#x2026;" horiz-adv-x="377" d="M80 16q0 -11 -8 -18.5t-19 -7.5t-18.5 7.5t-7.5 18.5t7.5 19t18.5 8t19 -8t8 -19zM187 16q0 -11 -8 -18.5t-19 -7.5t-18.5 7.5t-7.5 18.5t7.5 19t18.5 8t19 -8t8 -19zM294 16q0 -11 -8 -18.5t-19 -7.5t-18.5 7.5t-7.5 18.5t7.5 19t18.5 8t19 -8t8 -19z" />
<glyph unicode="&#x2030;" horiz-adv-x="993" d="M797 25q50 0 83 55.5t33 119.5q0 46 -18 73t-53 27q-50 0 -83 -55.5t-33 -119.5q0 -46 18 -73t53 -27zM794 -10q-53 0 -80.5 37t-27.5 98q0 79 44 144.5t115 65.5q53 0 80.5 -37t27.5 -98q0 -79 -44 -144.5t-115 -65.5zM141 0l513 700h-42l-513 -700h42zM489 -10 q-53 0 -80.5 37t-27.5 98q0 79 44 144.5t115 65.5q53 0 80.5 -37t27.5 -98q0 -79 -44 -144.5t-115 -65.5zM492 25q50 0 83 55.5t33 119.5q0 46 -18 73t-53 27q-50 0 -83 -55.5t-33 -119.5q0 -46 18 -73t53 -27zM219 365q-53 0 -80.5 37t-27.5 98q0 79 44 144.5t115 65.5 q53 0 80.5 -37t27.5 -98q0 -79 -44 -144.5t-115 -65.5zM222 400q50 0 83 55.5t33 119.5q0 46 -18 73t-53 27q-50 0 -83 -55.5t-33 -119.5q0 -46 18 -73t53 -27z" />
<glyph unicode="&#x2039;" horiz-adv-x="222" d="M236 205l-28 -26l-175 155l7 41l244 155l21 -31l-167 -105l-71 -42v-2q34 -26 63 -52z" />
<glyph unicode="&#x203a;" horiz-adv-x="224" d="M55 500l28 26l175 -155l-7 -41l-244 -155l-21 31l167 105l71 42v2q-34 26 -63 52z" />
<glyph unicode="&#x2044;" horiz-adv-x="415" d="M511 700l-476 -700h-48l475 700h49z" />
<glyph unicode="&#x20ac;" horiz-adv-x="486" d="M404 166l36 -12q-34 -80 -82.5 -122t-120.5 -42q-56 0 -93 28t-50.5 72t-17.5 98t6 105h-52l7 34h50l6 28q2 12 4 18h-50l8 34h50q78 303 264 303q147 0 149 -188l-38 -1q-2 152 -112 152q-154 0 -223 -266h158l-8 -34h-158q-2 -6 -4 -18l-6 -28h158l-7 -34h-156 q-7 -46 -6.5 -87.5t9.5 -84.5t37.5 -68.5t74.5 -25.5q106 0 167 139z" />
<glyph unicode="&#x2116;" horiz-adv-x="994" d="M803 200q-68 0 -102.5 47t-34.5 123q0 65 23 125.5t71 102.5t110 42q67 0 102 -47t35 -123q0 -103 -56 -186.5t-148 -83.5zM466 0h-36l-143 524l-21 87h-2q-7 -44 -16 -87l-78 -369q-18 -86 -48 -125.5t-95 -39.5q-50 0 -88 32l26 31q23 -25 62 -25q46 0 66.5 29t35.5 98 l115 545h35l143 -525l22 -89h2q6 44 16 90l88 414q18 86 48 125.5t95 39.5q50 0 88 -32l-26 -31q-23 25 -62 25q-46 0 -66.5 -29t-35.5 -98zM806 238q69 0 115.5 70.5t46.5 158.5q0 61 -26 98t-74 37q-69 0 -115.5 -71.5t-46.5 -158.5q0 -60 26 -97t74 -37zM922 69l9 38 h-328l-9 -38h328z" />
<glyph unicode="&#x2122;" horiz-adv-x="587" d="M582 385h-41l37 169l21 84h-2q-30 -41 -62 -78l-58 -68h-2l-28 68l-31 78h-2q-6 -42 -15 -84l-36 -169h-40l67 315h39l27 -66l29 -78h2q29 37 58 70l65 74h39zM182 385h-40l59 277h-77l8 38h194l-8 -38h-77z" />
<glyph unicode="&#x2212;" horiz-adv-x="270" d="M274 370l-8 -38h-198l8 38h198z" />
<glyph unicode="&#x2260;" horiz-adv-x="344" d="M310 269h-127l-71 -131h-45l71 131h-70l8 40h84l45 82h-111l8 40h125l73 134h46l-74 -134h72l-8 -40h-86l-45 -82h113z" />
<glyph unicode="&#x25fc;" horiz-adv-x="515" d="M0 515h515v-515h-515v515z" />
<glyph unicode="&#xf8ff;" horiz-adv-x="1417" d="M109 424l16 36q8 -4 14 -4q26 0 26 35v148h40v-145q0 -38 -18 -57t-48 -19q-17 0 -30 6zM189 72h-40v179h-38v38h117v-38h-39v-179zM514 421h-116v218h116v-39h-75v-56h63v-39h-63v-45h75v-39zM456 72h-61v217h60q70 0 70 -59q0 -33 -26 -44v-1q32 -13 32 -48 q0 -65 -75 -65zM436 110h23q34 0 34 29q0 26 -34 26h-23v-55zM436 201h14q34 0 34 27q0 23 -34 23h-14v-50zM320 421h-40v179h-38v39h116v-39h-38v-179zM374 72h-43l-8 34h-50l-7 -34h-42l52 218h46zM317 143l-18 80v8l-1 -8l-17 -80h36zM548 336h-455v39h455v-39zM1257 201 q-6 -3 -13.5 -4t-12 0t-4.5 3q0 1 3 4l6 6q7 5 12.5 10t15 15t16.5 20t15 25.5t13.5 31.5t9 37t3.5 44q0 51 -11 96.5t-37 90t-78 71t-124 26.5q-119 0 -178.5 -51.5t-59.5 -105.5q0 -23 -13 -27q-86 -31 -86 -121q0 -37 15 -70t36 -44q12 -7 5 -8.5t-19 6.5q-58 41 -58 114 q0 45 22 83.5t59 55.5q12 5 12 15q0 69 71 128.5t194 59.5q137 0 217 -81t80 -238q0 -37 -10.5 -69.5t-24 -52.5t-31 -36.5t-27.5 -23t-18 -10.5zM1005 162l-5 23q-2 5 2 11q9 17 9 36q0 10 -7.5 14t-15 0t-8.5 -15q-1 -13 4 -46q0 -9 -1 -11q-8 -20 -20 -38q-3 -5 -4 1 q-8 38 -13 58q0 6 2 10q7 14 7 27q0 16 -9 21.5t-18 -2t-9 -22.5q0 -9 11 -40q2 -6 0 -9q-3 -4 -10 -15t-11 -18q-6 -11 -10 -1q-10 30 -16 43q-3 6 0 12q5 14 5 35q0 20 -13 19.5t-18 -18.5l-1 -10q0 -19 10 -41q3 -6 1 -9l-13 -27q-3 -4 -6 1q-12 22 -25 39q-3 4 -3 10 q1 9 1 23q-1 20 -17 21q-12 1 -14 -12q0 -4 1 -9q1 -7 16 -36q1 -3 1 -10q-17 -90 -8 -121q10 -35 51.5 -50.5t142.5 -15.5q178 0 183 82q0 2 1.5 22.5t3 36.5t5.5 41t9.5 44.5t14.5 40t21 33.5q8 9 -2 11q-6 2 -10 -2q-53 -40 -71 -220q-2 -17 -18 -28t-45.5 -15.5 t-54.5 -6t-61 -1.5q-35 0 -58.5 1.5t-49 6t-39.5 15.5t-16 28q-3 34 7 86q2 7 4 1q11 -22 17 -40q1 -3 0 -8q-2 -12 -2 -21q0 -23 13 -23q15 0 15 22q0 16 -5 32q-3 8 0 14q10 18 13 23q3 4 5 1q11 -25 16 -44q2 -7 0 -14q-4 -15 -4 -24q0 -20 12 -20q16 0 16 26q0 14 -6 29 q-2 5 3 15l23 41q5 -14 15 -58q0 -7 -3 -14q-6 -13 -6 -23q0 -17 13 -18q13 2 14 21q0 16 -4 36q0 5 2 9l19 34q3 4 4 -1l5 -24q1 -4 -1 -10q-6 -17 -6 -30q0 -16 13 -16q15 0 15 25q0 12 -3 33q-1 9 2 14q11 17 24 26q6 4 4.5 6t-8.5 -4q-13 -10 -22 -21q-4 -7 -6 2z M1064 262q48 0 71 33t23 76q0 39 -25.5 67t-66.5 28q-42 0 -71.5 -27.5t-29.5 -68.5q0 -46 25 -77t74 -31zM852 269q-44 0 -71 26t-27 73q0 38 24.5 68t71.5 30q45 0 71.5 -23t26.5 -67q0 -50 -26.5 -78.5t-69.5 -28.5zM772 134q8 5 7 9t-8 5q-91 8 -126 70t-35 165v39v37.5 t-0.5 32.5t-1 32t-2 26.5t-4 27t-6 22.5t-8 22.5t-10.5 19.5q-17 29 -74 49.5t-139 20.5q-65 0 -141.5 -10t-98.5 -22q-38 -19 -59.5 -127t-21.5 -270q0 -64 2.5 -106.5t14.5 -73t19 -46t35 -27.5t43 -15t61 -10q3 -1 5 -1q67 -10 119 -10q56 0 129 10q27 4 38.5 6t28.5 7.5 t24 13t15 20.5t13 32q9 36 44 30q75 -11 137 21zM923 330v80h-15l-16 -32h-1l-17 32h-14v-80h15v51l15 -25h3l15 25v-51h15zM1042 324h-15l-9 29h-2l-9 -29h-15l15 40l-15 40h15l9 -30h2l9 30h15l-15 -40zM1134 324h-15v80h15v-80zM843 330v80h-15l-16 -32h-1l-17 32h-14 v-80h15v51l15 -25h3l15 25v-51h15zM1067 324h-15v80h15v-80zM1100 324h-15v80h15v-80z" />
<glyph unicode="&#xfb01;" horiz-adv-x="531" d="M98 0h-40l101 478h-86l8 38h86l19 91q29 133 135 133q50 0 88 -32l-26 -31q-23 25 -62 25q-74 0 -95 -95l-19 -91h114l-8 -38h-114zM471 35l-8 -39q-3 0 -7.5 -0.5t-6.5 -0.5q-102 0 -102 91q0 20 7 55l55 257q15 72 15 111v7h41q0 -41 -17 -123l-54 -256q-7 -35 -7 -50 q0 -29 15 -41t50 -12q12 0 19 1zM505 646q0 -11 -8 -18.5t-19 -7.5t-18.5 7.5t-7.5 18.5t7.5 19t18.5 8t19 -8t8 -19z" />
<glyph unicode="&#xfb02;" horiz-adv-x="553" d="M98 0h-40l101 478h-86l8 38h86l19 91q29 133 135 133q50 0 88 -32l-26 -31q-23 25 -62 25q-74 0 -95 -95l-19 -91h114l-8 -38h-114zM479 35l-8 -39q-6 -1 -14 -1q-102 0 -102 91q0 20 7 55l125 589h41l-126 -593q-7 -35 -7 -50q0 -29 15 -41t50 -12q12 0 19 1z" />
<glyph horiz-adv-x="476" d="M441 35l-8 -39q-6 -1 -18 -1q-94 0 -94 99h-2q-64 -104 -167 -104q-58 0 -91.5 34t-33.5 86q0 96 88.5 144.5t242.5 45.5l11 48q15 70 -9 106t-73 36q-85 0 -139 -89l-32 25q72 101 172 101q72 0 106 -47t15 -133l-45 -210q-7 -35 -7 -50q0 -29 15.5 -41t49.5 -12 q12 0 19 1zM334 188l16 74q-11 1 -31 1q-119 0 -185.5 -39.5t-66.5 -113.5q0 -39 25 -60.5t65 -21.5q65 0 114.5 50t62.5 110zM422 596l-212 89l18 39l208 -97z" />
<glyph horiz-adv-x="476" d="M441 35l-8 -39q-6 -1 -18 -1q-94 0 -94 99h-2q-64 -104 -167 -104q-58 0 -91.5 34t-33.5 86q0 96 88.5 144.5t242.5 45.5l11 48q15 70 -9 106t-73 36q-85 0 -139 -89l-32 25q72 101 172 101q72 0 106 -47t15 -133l-45 -210q-7 -35 -7 -50q0 -29 15.5 -41t49.5 -12 q12 0 19 1zM334 188l16 74q-11 1 -31 1q-119 0 -185.5 -39.5t-66.5 -113.5q0 -39 25 -60.5t65 -21.5q65 0 114.5 50t62.5 110zM439 685l-212 -89l-14 31l208 97z" />
<glyph horiz-adv-x="476" d="M441 35l-8 -39q-6 -1 -18 -1q-94 0 -94 99h-2q-64 -104 -167 -104q-58 0 -91.5 34t-33.5 86q0 96 88.5 144.5t242.5 45.5l11 48q15 70 -9 106t-73 36q-85 0 -139 -89l-32 25q72 101 172 101q72 0 106 -47t15 -133l-45 -210q-7 -35 -7 -50q0 -29 15.5 -41t49.5 -12 q12 0 19 1zM334 188l16 74q-11 1 -31 1q-119 0 -185.5 -39.5t-66.5 -113.5q0 -39 25 -60.5t65 -21.5q65 0 114.5 50t62.5 110zM435 615l-30 -24l-27 35l-46 65h-2q-35 -34 -61 -56l-57 -47l-23 30l147 120h2z" />
<glyph horiz-adv-x="476" d="M441 35l-8 -39q-6 -1 -18 -1q-94 0 -94 99h-2q-64 -104 -167 -104q-58 0 -91.5 34t-33.5 86q0 96 88.5 144.5t242.5 45.5l11 48q15 70 -9 106t-73 36q-85 0 -139 -89l-32 25q72 101 172 101q72 0 106 -47t15 -133l-45 -210q-7 -35 -7 -50q0 -29 15.5 -41t49.5 -12 q12 0 19 1zM334 188l16 74q-11 1 -31 1q-119 0 -185.5 -39.5t-66.5 -113.5q0 -39 25 -60.5t65 -21.5q65 0 114.5 50t62.5 110zM451 708l38 -5q-12 -55 -35 -81.5t-69 -26.5q-36 0 -78.5 38.5t-64.5 38.5q-48 0 -64 -75l-38 5q23 108 103 108q28 0 53.5 -19.5t47.5 -39 t41 -19.5q50 0 66 76z" />
<glyph horiz-adv-x="476" d="M441 35l-8 -39q-6 -1 -18 -1q-94 0 -94 99h-2q-64 -104 -167 -104q-58 0 -91.5 34t-33.5 86q0 96 88.5 144.5t242.5 45.5l11 48q15 70 -9 106t-73 36q-85 0 -139 -89l-32 25q72 101 172 101q72 0 106 -47t15 -133l-45 -210q-7 -35 -7 -50q0 -29 15.5 -41t49.5 -12 q12 0 19 1zM334 188l16 74q-11 1 -31 1q-119 0 -185.5 -39.5t-66.5 -113.5q0 -39 25 -60.5t65 -21.5q65 0 114.5 50t62.5 110zM280 633q0 -11 -8 -18.5t-19 -7.5t-18.5 7.5t-7.5 18.5t7.5 19t18.5 8t19 -8t8 -19zM420 633q0 -11 -8 -18.5t-19 -7.5t-18.5 7.5t-7.5 18.5 t7.5 19t18.5 8t19 -8t8 -19z" />
<glyph horiz-adv-x="476" d="M441 35l-8 -39q-6 -1 -18 -1q-94 0 -94 99h-2q-64 -104 -167 -104q-58 0 -91.5 34t-33.5 86q0 96 88.5 144.5t242.5 45.5l11 48q15 70 -9 106t-73 36q-85 0 -139 -89l-32 25q72 101 172 101q72 0 106 -47t15 -133l-45 -210q-7 -35 -7 -50q0 -29 15.5 -41t49.5 -12 q12 0 19 1zM334 188l16 74q-11 1 -31 1q-119 0 -185.5 -39.5t-66.5 -113.5q0 -39 25 -60.5t65 -21.5q65 0 114.5 50t62.5 110zM386 650q0 -30 -20 -52t-57 -22q-31 0 -48 17.5t-17 42.5q0 30 20.5 53t57.5 23q31 0 47.5 -18t16.5 -44zM311 606q20 0 31.5 12.5t11.5 30.5 q0 14 -9 23.5t-25 9.5q-20 0 -32 -13t-12 -31q0 -14 9 -23t26 -9z" />
<glyph horiz-adv-x="538" d="M248 -10h2q-93 0 -143.5 59t-50.5 159q0 135 69.5 226.5t185.5 91.5q93 0 143.5 -59t50.5 -159q0 -135 -69.5 -226.5t-187.5 -91.5zM252 28q101 0 157 83.5t56 197.5q0 88 -42.5 133.5t-113.5 45.5q-101 0 -157 -83.5t-56 -197.5q0 -88 42.5 -133.5t113.5 -45.5z" />
<glyph horiz-adv-x="272" d="M125 0h-41l102 478h-78l8 38h119z" />
<glyph horiz-adv-x="479" d="M379 0h-348l8 35l257 197q35 27 53.5 43.5t36.5 47.5t18 64q0 43 -27 72t-79 29q-111 0 -165 -141l-38 14q28 75 81 120t122 45t108 -39.5t39 -99.5q0 -54 -31.5 -98t-96.5 -92l-153 -112l-69 -45v-2h292z" />
<glyph horiz-adv-x="484" d="M491 481l-156 -141l-65 -56l1 -2q77 -4 119.5 -47t42.5 -109q0 -87 -57 -149t-157 -62q-80 0 -131 39t-63 113l41 8q21 -122 150 -122q85 0 131 50.5t46 122.5q0 61 -44.5 94.5t-109.5 28.5l-21 35l141 129l75 63v2h-290l8 38h347z" />
<glyph horiz-adv-x="390" d="M234 -75h-40l34 162h-229l8 36l315 407h40l-86 -405h106l-8 -38h-106zM236 125l53 251l22 88h-2q-27 -40 -54 -75l-154 -202l-51 -60v-2h186z" />
<glyph horiz-adv-x="477" d="M31 34l39 12q9 -43 43 -68t80 -25q83 0 133 55.5t50 137.5q0 55 -32 87.5t-94 32.5q-61 0 -118 -38l-33 17l88 270h256l-8 -41h-221l-39 -116l-31 -87l2 -1q54 34 111 34q76 0 117.5 -45t41.5 -111q0 -100 -60.5 -166.5t-164.5 -66.5q-65 0 -107 33t-53 86z" />
<glyph horiz-adv-x="450" d="M431 477l-39 -11q-24 96 -119 96q-154 0 -193 -271h2q20 47 60 72.5t89 25.5q67 0 115 -41t48 -126q0 -37 -12.5 -76.5t-35.5 -75t-63 -58t-89 -22.5q-86 0 -124 55.5t-38 142.5q0 43 9 102q47 309 235 309q125 0 155 -122zM196 26q72 0 115 61t43 134q0 65 -34.5 97.5 t-90.5 32.5q-67 0 -113 -49t-46 -111q0 -71 30 -118t96 -47z" />
<glyph horiz-adv-x="387" d="M87 -75h-46l325 553h-283l8 38h340z" />
<glyph horiz-adv-x="451" d="M311 325v-2q51 -14 77.5 -52t26.5 -86q0 -85 -56.5 -140t-147.5 -55q-80 0 -125.5 42.5t-45.5 110.5q0 70 45 121t118 65v2q-34 11 -54 39.5t-20 66.5q0 70 49 116.5t120 46.5q63 0 101 -37.5t38 -93.5t-36.5 -95t-89.5 -49zM374 181q0 53 -34 91.5t-97 38.5 q-71 0 -116.5 -49t-45.5 -115q0 -54 33.5 -87t100.5 -33q71 0 115 44t44 110zM396 467q0 42 -28 68.5t-74 26.5q-53 0 -89 -35t-36 -89q0 -41 23 -67.5t72 -26.5q58 0 95 36.5t37 86.5z" />
<glyph horiz-adv-x="450" d="M379 223h-2q-20 -47 -60 -72.5t-89 -25.5q-67 0 -115 41t-48 126q0 37 12.5 76.5t35.5 75t63 58t89 22.5q86 0 124 -55.5t38 -142.5q0 -43 -9 -102q-47 -309 -235 -309q-125 0 -155 122l39 11q24 -96 119 -96q154 0 193 271zM230 163q67 0 113 49t46 111q0 71 -30 118 t-96 47q-72 0 -115 -61t-43 -134q0 -65 34.5 -97.5t90.5 -32.5z" />
<glyph horiz-adv-x="476" d="M441 35l-8 -39q-6 -1 -18 -1q-94 0 -94 99h-2q-64 -104 -167 -104q-58 0 -91.5 34t-33.5 86q0 96 88.5 144.5t242.5 45.5l11 48q15 70 -9 106t-73 36q-85 0 -139 -89l-32 25q72 101 172 101q72 0 106 -47t15 -133l-45 -210q-7 -35 -7 -50q0 -29 15.5 -41t49.5 -12 q12 0 19 1zM334 188l16 74q-11 1 -31 1q-119 0 -185.5 -39.5t-66.5 -113.5q0 -39 25 -60.5t65 -21.5q65 0 114.5 50t62.5 110z" />
<glyph horiz-adv-x="449" d="M134 -100h-38l34 105q-76 25 -108 84l34 22q22 -39 68 -61t97 -22q56 0 90.5 29.5t34.5 73.5q0 28 -19 51t-47.5 37t-61.5 30.5t-61 33t-46.5 44.5t-18.5 64q1 59 46.5 96t115.5 37q15 0 43 -4l33 104h39l-37 -113q62 -21 102 -69l-30 -26q-24 32 -64.5 51t-86.5 19 q-52 0 -86.5 -25t-34.5 -70q0 -32 26 -57t63.5 -43t75 -37t63.5 -49.5t26 -71.5q0 -64 -44.5 -103.5t-120.5 -39.5q-29 0 -56 6z" />
<glyph horiz-adv-x="518" d="M387 53l18 -33q-42 -30 -94 -30q-25 0 -80 10.5t-82 10.5q-46 0 -80 -22l-13 25q83 65 98 139l6 30h-73l8 38h70q1 10 4 43t5 47t6 44.5t9.5 45.5t14.5 39t21 36t28 25.5t37.5 19t47.5 5.5q69 0 104.5 -40t38.5 -98l-40 -4q-7 104 -104 104q-26 0 -46 -7t-33 -24.5 t-21.5 -32.5t-14 -45t-8 -48t-6 -55.5t-5.5 -54.5h150l-8 -38h-147l-6 -30q-16 -82 -73 -117v-2q31 9 53 9q23 0 68 -6.5t67 -6.5q47 0 80 23z" />
<glyph horiz-adv-x="430" d="M335 111l31 -23q-64 -98 -160 -98q-74 0 -111.5 55.5t-38.5 143.5h-50l7 34h44q2 31 7 56h-39l7 34h40q25 92 79 152.5t131 60.5q57 0 91.5 -34t48.5 -92l-38 -12q-22 100 -105 100q-58 0 -101.5 -49.5t-65.5 -125.5h133l-7 -34h-134q-6 -39 -7 -56h129l-7 -34h-123 q1 -76 30 -118.5t82 -42.5q76 0 127 83z" />
<glyph horiz-adv-x="433" d="M331 133h-116l-28 -133h-36l28 133h-126l7 34h126l2 9l-16 57h-98l7 34h81l-68 249h41l56 -212l21 -91h2q27 48 54 89l145 214h49l-175 -249h72l-7 -34h-89l-39 -57l-2 -9h116z" />
</font>
</defs>
</svg>
