<?xml version="1.0" standalone="no"?>
<!DOCTYPE svg PUBLIC "-//W3C//DTD SVG 1.1//EN" "http://www.w3.org/Graphics/SVG/1.1/DTD/svg11.dtd" >
<svg xmlns="http://www.w3.org/2000/svg">
<metadata></metadata>
<defs>
<font id="mission_gothicblack" horiz-adv-x="514" >
<font-face units-per-em="1000" ascent="750" descent="-250" />
<missing-glyph horiz-adv-x="200" />
<glyph horiz-adv-x="1235" />
<glyph horiz-adv-x="1235" />
<glyph unicode="&#xd;" horiz-adv-x="200" />
<glyph unicode=" "  horiz-adv-x="200" />
<glyph unicode="&#x09;" horiz-adv-x="200" />
<glyph unicode="&#xa0;" horiz-adv-x="200" />
<glyph unicode="!" horiz-adv-x="263" d="M214 235h-166v465h166v-465zM132 -10q-40 0 -70 30t-30 70t29.5 69.5t70.5 29.5t70 -29t29 -70t-29 -70.5t-70 -29.5z" />
<glyph unicode="&#x22;" horiz-adv-x="337" d="M148 492h-130l17 208h141zM305 492h-130l17 208h141z" />
<glyph unicode="#" horiz-adv-x="657" d="M596 232h-128l-23 -124h-121l23 124h-91l-23 -124h-121l23 124h-111l8 96h121l22 115h-111l9 96h120l24 126h122l-24 -126h90l24 126h122l-24 -126h119l-10 -96h-127l-22 -115h118zM365 328l22 115h-90l-22 -115h90z" />
<glyph unicode="$" horiz-adv-x="492" d="M243 -14l-9 -88h-93l11 102q-89 32 -139 131l139 84q13 -32 38.5 -52t56.5 -20q25 0 38.5 12.5t13.5 32.5q0 22 -20 43t-50.5 37.5t-65.5 40t-65.5 48.5t-50.5 65.5t-20 88.5q0 84 56 141.5t146 61.5l11 99h93l-13 -112q91 -33 132 -138l-132 -78q-8 35 -30.5 58.5 t-51.5 23.5q-21 0 -34.5 -13t-13.5 -33q0 -27 28.5 -50t69 -44t80.5 -48t68.5 -74t28.5 -109q0 -96 -62.5 -152.5t-159.5 -57.5z" />
<glyph unicode="%" horiz-adv-x="636" d="M168 0l440 700h-142l-438 -700h140zM160 369q-128 0 -128 172q0 173 128 173q129 0 129 -173q0 -172 -129 -172zM160 479q17 0 17 62q0 61 -17 61t-17 -61q0 -62 17 -62zM476 -14q-128 0 -128 172q0 173 128 173q129 0 129 -173q0 -172 -129 -172zM476 96q17 0 17 62 q0 61 -17 61t-17 -61q0 -62 17 -62z" />
<glyph unicode="&#x26;" horiz-adv-x="599" d="M355 168l-107 178q-29 -11 -49 -38t-20 -69q0 -49 27.5 -74.5t68.5 -25.5q42 0 80 29zM563 157l-25 -159q-30 0 -58 21t-47 56h-2q-68 -89 -183 -89q-110 0 -170 65.5t-60 153.5q0 74 41.5 132.5t101.5 73.5v2q-36 16 -56.5 52t-20.5 79q0 68 49 119t141 51q93 0 149 -58 l-105 -125q-18 29 -40 29q-16 0 -25.5 -10.5t-9.5 -26.5q0 -21 18.5 -38t53.5 -20l111 -191h2q2 87 -9 168h148q0 -65 -9 -118t-16.5 -73t-30.5 -81q16 -11 52 -13z" />
<glyph unicode="'" horiz-adv-x="180" d="M148 492h-130l17 208h141z" />
<glyph unicode="(" horiz-adv-x="263" d="M255 -32l-119 -68q-41 67 -74 186t-33 264t33 264t74 186l119 -68q-70 -129 -70 -382t70 -382z" />
<glyph unicode=")" horiz-adv-x="263" d="M127 -100l-119 68q70 129 70 382t-70 382l119 68q41 -67 74 -186t33 -264t-33 -264t-74 -186z" />
<glyph unicode="*" horiz-adv-x="403" d="M366 422l-121 -86q-26 48 -43 158h-2q-21 -118 -42 -158l-123 86q47 52 135 86l-1 2q-99 -11 -159 -4l45 141q47 -20 124 -100l2 2q-49 98 -56 151h150q-7 -58 -57 -151l2 -2q80 80 127 100l46 -141q-50 -11 -160 4l-1 -2q1 0 19.5 -9.5t24.5 -12.5t22.5 -12.5t26 -16 t21.5 -16t20 -19.5z" />
<glyph unicode="+" horiz-adv-x="340" d="M229 190h-118v103h-102v112h102v103h118v-103h102v-112h-102v-103z" />
<glyph unicode="," horiz-adv-x="246" d="M31 -135l9 63q14 -2 21 -2q31 0 53.5 19.5t23.5 53.5l-2 1q-8 -4 -27 -4q-34 0 -59.5 26t-25.5 67q0 42 27.5 71t71.5 29q46 0 74.5 -34t28.5 -98q0 -84 -48.5 -139.5t-120.5 -55.5q-20 2 -26 3z" />
<glyph unicode="-" horiz-adv-x="299" d="M289 233h-279v145h279v-145z" />
<glyph unicode="." horiz-adv-x="246" d="M124 -14q-40 0 -70 30t-30 70t29.5 69.5t70.5 29.5q40 0 69 -29t29 -70t-29 -70.5t-69 -29.5z" />
<glyph unicode="/" horiz-adv-x="345" d="M331 760l-155 -820h-162l154 820h163z" />
<glyph unicode="0" horiz-adv-x="522" d="M261 -14q-237 0 -237 364t237 364q70 0 118.5 -29.5t73.5 -83.5t35 -114.5t10 -136.5t-10 -136.5t-35 -114.5t-73.5 -83.5t-118.5 -29.5zM261 146q40 0 55.5 50.5t15.5 153.5t-15.5 153.5t-55.5 50.5t-55.5 -50.5t-15.5 -153.5q0 -102 16 -153t55 -51z" />
<glyph unicode="1" horiz-adv-x="286" d="M236 0h-166v540h-47v160h213v-700z" />
<glyph unicode="2" horiz-adv-x="483" d="M457 0h-444v3l258 418q26 42 24 79q-1 26 -15.5 40t-36.5 14q-56 0 -80 -89l-140 103q79 146 227 146q100 0 156 -58.5t56 -150.5q0 -98 -81 -222l-33 -51q-25 -38 -52 -71v-2h161v-159z" />
<glyph unicode="3" horiz-adv-x="515" d="M463 542l-142 -123v-2q84 -10 128.5 -67.5t44.5 -133.5q0 -100 -63 -165t-174 -65q-83 0 -144 32.5t-93 92.5l135 108q12 -34 38.5 -53.5t57.5 -19.5q33 0 56 21t23 57q0 38 -25.5 62t-75.5 24q-11 0 -31 -2l-36 124l70 65l58 48v2h-240v153h413v-158z" />
<glyph unicode="4" horiz-adv-x="501" d="M437 0h-166v118h-276v2l276 582h166v-424h50v-160h-50v-118zM287 264v210h-2q-14 -45 -27 -81l-29 -78l-23 -49v-2h81z" />
<glyph unicode="5" horiz-adv-x="519" d="M180 265l-133 70l36 365h363v-153h-236l-5 -44l-14 -80l2 -1q36 30 100 30q92 0 147 -64t55 -161q0 -45 -12 -86t-37 -77t-70 -57t-104 -21q-92 0 -145.5 36t-88.5 102l137 85q22 -65 81 -65q37 0 56.5 25t19.5 59q0 35 -19.5 58t-55.5 23q-51 0 -77 -44z" />
<glyph unicode="6" horiz-adv-x="529" d="M271 136q42 0 63 26.5t21 69.5q0 40 -22 67t-62 27q-37 0 -57 -27t-20 -67q0 -43 19.5 -69.5t57.5 -26.5zM491 621l-125 -105q-24 38 -74 38q-100 0 -113 -167h2q22 32 58.5 52t77.5 20q95 0 147 -63.5t52 -156.5q0 -109 -63 -181t-179 -72q-117 0 -183 97.5t-66 247.5 q0 172 69 277.5t206 105.5q122 0 191 -93z" />
<glyph unicode="7" horiz-adv-x="438" d="M248 0h-174l181 547h-234v153h450z" />
<glyph unicode="8" horiz-adv-x="546" d="M274 445q27 0 42.5 19t15.5 47t-15.5 46.5t-42.5 18.5q-28 0 -43.5 -18.5t-15.5 -46.5t16 -47t43 -19zM362 228q0 36 -24 62t-66 26t-66 -26t-24 -62t24 -62.5t66 -26.5t66 26.5t24 62.5zM410 395v-2q113 -52 113 -185q0 -97 -63.5 -159.5t-186.5 -62.5q-124 0 -187 62.5 t-63 160.5q0 129 113 184v2q-33 22 -51 59t-18 78q0 73 54 127.5t152 54.5t152 -54.5t54 -127.5q0 -41 -18 -78t-51 -59z" />
<glyph unicode="9" horiz-adv-x="536" d="M276 374q37 0 57 27t20 67q0 43 -19.5 69.5t-57.5 26.5q-42 0 -63 -26.5t-21 -69.5q0 -40 22 -67t62 -27zM368 313h-2q-22 -32 -58.5 -52t-77.5 -20q-95 0 -147 63.5t-52 156.5q0 109 63 181t179 72q117 0 183 -97.5t66 -247.5q0 -172 -69 -277.5t-206 -105.5 q-122 0 -191 93l125 105q24 -38 74 -38q100 0 113 167z" />
<glyph unicode=":" horiz-adv-x="264" d="M138 -14q-40 0 -70 30t-30 70t29.5 69.5t70.5 29.5q40 0 69 -29t29 -70t-29 -70.5t-69 -29.5zM138 313q-40 0 -70 29.5t-30 70.5q0 40 29.5 69.5t70.5 29.5q40 0 69 -29t29 -70t-29 -70.5t-69 -29.5z" />
<glyph unicode=";" horiz-adv-x="273" d="M138 313q-40 0 -70 29.5t-30 70.5q0 40 29.5 69.5t70.5 29.5q40 0 69 -29t29 -70t-29 -70.5t-69 -29.5zM44 -135l9 63q14 -2 21 -2q31 0 53.5 19.5t23.5 53.5l-2 1q-8 -4 -27 -4q-34 0 -59.5 26t-25.5 67q0 42 27.5 71t71.5 29q46 0 74.5 -34t28.5 -98 q0 -84 -48.5 -139.5t-120.5 -55.5q-20 2 -26 3z" />
<glyph unicode="&#x3c;" horiz-adv-x="337" d="M256 152l-250 153v100l250 153l75 -119l-72 -40q-19 -11 -45 -21.5t-42 -15.5l-16 -6v-2q60 -17 103 -42l72 -41z" />
<glyph unicode="=" horiz-adv-x="318" d="M308 390h-298v124h298v-124zM308 185h-298v124h298v-124z" />
<glyph unicode="&#x3e;" horiz-adv-x="337" d="M81 558l250 -153v-100l-250 -153l-75 119l72 40q19 11 45 21.5t42 15.5l16 6v2q-60 17 -103 42l-72 41z" />
<glyph unicode="?" horiz-adv-x="465" d="M309 267l-134 -73q-49 52 -49 105q0 39 26 72t57 52t57 43t26 47q0 17 -13 30.5t-38 13.5q-59 0 -86 -91l-135 89q40 73 93.5 114t133.5 41q97 0 153 -52.5t56 -135.5q0 -42 -16.5 -74.5t-40 -52t-47.5 -34.5t-40.5 -30.5t-16.5 -31.5t14 -32zM232 -14q-40 0 -70 30 t-30 70t29.5 69.5t70.5 29.5q40 0 69 -29t29 -70t-29 -70.5t-69 -29.5z" />
<glyph unicode="@" horiz-adv-x="739" d="M515 111l51 -102q-74 -57 -193 -57q-160 0 -252.5 110t-92.5 288t95.5 288t257.5 110q158 0 244 -104t86 -268q0 -100 -42 -153t-120 -53q-89 0 -116 78h-1h-1q-9 -33 -37 -55.5t-64 -22.5q-54 0 -90 44.5t-36 129.5q0 84 36 135t96 51q64 0 84 -46h2l11 35h101 q-5 -26 -5 -58v-128q0 -34 29 -34q15 0 24 14.5t9 38.5q0 135 -57 209.5t-153 74.5q-105 0 -166 -77.5t-61 -208.5q0 -139 67 -211t155 -72q82 0 139 44zM373 295q17 0 27.5 19.5t10.5 46.5q0 47 -32 47q-17 0 -26.5 -16t-9.5 -43q0 -54 30 -54z" />
<glyph unicode="A" horiz-adv-x="502" d="M499 0h-175l-10 78h-129l-8 -78h-174l150 700h196zM291 224l-28 210l-11 97h-2q-6 -57 -12 -97l-28 -210h81z" />
<glyph unicode="B" horiz-adv-x="523" d="M209 413h56q73 0 73 68q0 69 -74 69h-55v-137zM209 150h79q71 0 71 67q0 29 -16.5 48t-55.5 19h-78v-134zM256 0h-206v700h216q107 0 160.5 -53t53.5 -134q0 -131 -82 -152v-3q45 -9 76.5 -50.5t31.5 -98.5q0 -93 -63 -151t-187 -58z" />
<glyph unicode="C" horiz-adv-x="472" d="M325 211l134 -73q-30 -73 -77 -112.5t-129 -39.5q-58 0 -101.5 21.5t-68 55t-39.5 83t-19.5 95t-4.5 101.5q0 75 9 134t33 116.5t73.5 89.5t121.5 32q154 0 210 -162l-139 -65q-12 41 -27.5 58t-40.5 17q-40 0 -57 -48.5t-17 -170.5q0 -110 15.5 -157.5t55.5 -47.5 q23 0 39 16.5t29 56.5z" />
<glyph unicode="D" horiz-adv-x="527" d="M247 0h-197v700h201q70 0 122 -30t80 -81.5t41 -110.5t13 -128t-13 -128t-41.5 -110.5t-81 -81.5t-124.5 -30zM216 152h31q94 0 94 198q0 104 -21.5 151t-68.5 47h-35v-396z" />
<glyph unicode="E" horiz-adv-x="479" d="M439 0h-389v700h389v-152h-223v-134h186v-146h-186v-116h223v-152z" />
<glyph unicode="F" horiz-adv-x="459" d="M216 0h-166v700h389v-152h-223v-175h185v-152h-185v-221z" />
<glyph unicode="G" horiz-adv-x="512" d="M278 391h212q2 -38 2 -54q0 -78 -10 -137t-35 -109.5t-72 -77.5t-115 -27q-69 0 -118.5 31t-74.5 85.5t-36 112.5t-11 127q0 75 9 134t33 116.5t73.5 89.5t121.5 32q154 0 210 -162l-139 -65q-12 41 -27.5 58t-40.5 17q-40 0 -57 -48.5t-17 -170.5q0 -107 19.5 -156 t60.5 -49q71 0 78 121h-66v132z" />
<glyph unicode="H" horiz-adv-x="558" d="M508 0h-166v246h-126v-246h-166v700h166v-294h126v294h166v-700z" />
<glyph unicode="I" horiz-adv-x="266" d="M216 0h-166v700h166v-700z" />
<glyph unicode="J" horiz-adv-x="350" d="M9 1l47 155q12 -6 29 -6q49 0 49 67v483h166v-467q0 -124 -56.5 -183.5t-153.5 -59.5q-42 0 -81 11z" />
<glyph unicode="K" horiz-adv-x="501" d="M496 0h-177l-56 181l-21 79h-2l-24 -63v-197h-166v700h166v-157l-2 -113h2q16 52 37 107l63 163h180l-152 -297z" />
<glyph unicode="L" horiz-adv-x="398" d="M386 0h-336v700h166v-540h170v-160z" />
<glyph unicode="M" horiz-adv-x="655" d="M605 0h-156v356l3 84h-2q-15 -30 -42 -67l-78 -107h-4l-78 107q-12 16 -22 33t-14 26l-5 8h-2q1 -41 1 -84v-356h-156v700h166l62 -89l49 -77h2q21 34 50 77l61 89h165v-700z" />
<glyph unicode="N" horiz-adv-x="584" d="M534 0h-165l-120 268q-10 23 -21 51.5t-16 46.5l-6 17h-2q2 -67 2 -124v-259h-156v700h170l109 -240l48 -120h2q-2 72 -2 131v229h157v-700z" />
<glyph unicode="O" d="M257 -14q-237 0 -237 364t237 364q70 0 118.5 -29.5t73.5 -83.5t35 -114.5t10 -136.5t-10 -136.5t-35 -114.5t-73.5 -83.5t-118.5 -29.5zM257 146q43 0 57 49t14 155q0 107 -14 155.5t-57 48.5t-57 -49t-14 -155t14.5 -155t56.5 -49z" />
<glyph unicode="P" horiz-adv-x="494" d="M216 0h-166v700h208q75 0 128.5 -40t75.5 -94.5t22 -114.5q0 -108 -60.5 -182t-172.5 -74h-35v-195zM216 344h31q36 0 54 30t18 74q0 46 -18 75t-55 29h-30v-208z" />
<glyph unicode="Q" d="M448 -43l-75 -76q-44 45 -76 108q-18 -3 -40 -3q-237 0 -237 364t237 364q70 0 118.5 -29.5t73.5 -83.5t35 -114.5t10 -136.5q0 -241 -102 -322q23 -36 56 -71zM257 146q43 0 57 49t14 155q0 107 -14 155.5t-57 48.5t-57 -49t-14 -155t14.5 -155t56.5 -49z" />
<glyph unicode="R" horiz-adv-x="510" d="M502 0h-175l-66 215h-45v-215h-166v700h208q76 0 129 -37.5t75 -90t22 -111.5q0 -136 -89 -203zM216 364h31q72 0 72 94t-73 94h-30v-188z" />
<glyph unicode="S" horiz-adv-x="478" d="M13 131l139 84q13 -32 38.5 -52t56.5 -20q25 0 38.5 12.5t13.5 32.5q0 22 -20 43t-50.5 37.5t-65.5 40t-65.5 48.5t-50.5 65.5t-20 88.5q0 87 59.5 145t154.5 58q74 0 128.5 -39t82.5 -112l-132 -78q-8 35 -30.5 58.5t-51.5 23.5q-21 0 -34.5 -13t-13.5 -33 q0 -27 28.5 -50t69 -44t80.5 -48t68.5 -74t28.5 -109q0 -96 -63 -153t-161 -57q-155 0 -228 145z" />
<glyph unicode="T" horiz-adv-x="413" d="M290 0h-167v540h-103v160h373v-160h-103v-540z" />
<glyph unicode="U" horiz-adv-x="548" d="M332 228v472h166v-467q0 -123 -61.5 -183t-159.5 -60q-99 0 -163 60.5t-64 183.5v466h166v-473q0 -77 58 -77q35 0 46.5 20.5t11.5 57.5z" />
<glyph unicode="V" horiz-adv-x="480" d="M477 700l-140 -700h-195l-139 700h173l45 -345l19 -185h2q11 126 18 186l42 344h175z" />
<glyph unicode="W" horiz-adv-x="784" d="M781 700l-125 -700h-199l-41 232q-23 128 -23 176h-1h-1q0 -32 -24 -176l-40 -232h-199l-125 700h174l40 -345l16 -185h2q6 101 22 185l65 345h140l66 -345q7 -37 12.5 -83.5t7.5 -73.5l1 -28h2q9 99 18 185l38 345h174z" />
<glyph unicode="X" horiz-adv-x="463" d="M341 350l118 -350h-174l-41 191l-12 84h-2q-5 -50 -12 -84l-42 -191h-172l117 350l-117 350h172l42 -190l12 -84h2q5 51 12 83l41 191h174z" />
<glyph unicode="Y" horiz-adv-x="504" d="M334 191v-191h-165v191l-166 509h177l55 -209q5 -18 9 -46t6 -47l1 -19h2q8 71 18 112l51 209h179z" />
<glyph unicode="Z" horiz-adv-x="456" d="M426 0h-421v2l176 428l51 109v1h-184v160h429v-2l-178 -436q-11 -28 -24 -53t-20 -36l-7 -11v-2h178v-160z" />
<glyph unicode="[" horiz-adv-x="273" d="M258 -162h-228v1034h228v-125h-83v-784h83v-125z" />
<glyph unicode="\" horiz-adv-x="383" d="M201 -60l-155 820h163l154 -820h-162z" />
<glyph unicode="]" horiz-adv-x="263" d="M15 872h228v-1034h-228v125h83v784h-83v125z" />
<glyph unicode="^" horiz-adv-x="377" d="M293 731l-49 52l-53 60h-4q-20 -25 -53 -60l-49 -52l-83 94l142 112h90l142 -112z" />
<glyph unicode="_" horiz-adv-x="372" d="M376 -100v-145h-380v145h380z" />
<glyph unicode="`" horiz-adv-x="215" d="M208 730l-240 102l56 119l232 -118z" />
<glyph unicode="a" horiz-adv-x="517" d="M482 0h-160q-14 38 -18 76h-2q-36 -89 -133 -89q-75 0 -114.5 49.5t-38.5 117.5q1 93 75.5 149t208.5 51v18q0 34 -18 59t-52 25q-64 0 -94 -67l-94 114q91 97 203 97q97 0 159 -62.5t62 -190.5v-264q0 -46 16 -83zM300 213v31q-50 3 -88 -18t-38 -63q0 -47 45 -47 q34 0 57.5 28t23.5 69z" />
<glyph unicode="b" horiz-adv-x="524" d="M172 0h-137q4 18 4 83v647h166v-111l-1 -61h2q19 20 50.5 31t60.5 11q91 0 139 -81.5t48 -216.5q0 -141 -51 -228.5t-143 -87.5q-82 0 -121 71h-2q-4 -25 -15 -57zM205 368v-153q0 -28 12.5 -50.5t45.5 -22.5q26 0 42 14t22.5 42t8 48t1.5 53t-1.5 52.5t-7.5 46.5 t-21.5 40.5t-40.5 13.5q-61 0 -61 -84z" />
<glyph unicode="c" horiz-adv-x="470" d="M332 197l129 -98q-66 -113 -204 -113q-115 0 -176 80.5t-61 222.5q0 140 63.5 225.5t173.5 85.5q133 0 199 -106l-128 -108q-11 58 -63 58q-39 0 -57.5 -37t-18.5 -118q0 -150 76 -150q43 0 67 58z" />
<glyph unicode="d" horiz-adv-x="529" d="M494 0h-142q-12 26 -16 57h-2q-47 -72 -119 -72q-97 0 -146 85.5t-49 225.5q0 136 55 220t149 84q59 0 94 -38h2q-1 39 -1 61v107h166v-650q0 -56 9 -80zM319 192v179q0 83 -59 83q-25 0 -41.5 -15t-22.5 -43.5t-7.5 -48.5t-1.5 -51q0 -27 0.5 -42.5t4.5 -39.5t11 -37.5 t21.5 -23.5t35.5 -10q28 0 43.5 16.5t15.5 32.5z" />
<glyph unicode="e" horiz-adv-x="488" d="M473 252h-289q8 -122 89 -122q28 0 46 14.5t41 48.5l108 -100q-43 -51 -92 -79t-117 -28q-117 0 -178 79.5t-61 220.5q0 144 62.5 229t178.5 85q55 0 95 -21t62 -51.5t35 -76.5t16.5 -84t3.5 -85v-30zM186 351h130q-2 125 -62 125q-61 0 -68 -125z" />
<glyph unicode="f" horiz-adv-x="335" d="M237 0h-166v450h-51v136h51q0 99 59 151t155 52q21 0 44 -3l-17 -134q-13 3 -25 3q-50 0 -50 -59v-10h79v-136h-79v-450z" />
<glyph unicode="g" horiz-adv-x="538" d="M326 110h-2q-19 -42 -49 -64.5t-82 -22.5q-81 0 -127 81t-46 216q0 132 52.5 206t138.5 74q44 0 76.5 -22.5t48.5 -61.5h2q1 16 4 33.5t6 26.5l3 10h152q-18 -45 -18 -79v-461q0 -273 -238 -273q-73 0 -121 26.5t-86 78.5l113 112q11 -28 35.5 -46.5t54.5 -18.5 q78 0 78 100q0 10 0.5 22t1.5 23t1.5 20t1.5 14v6zM319 254v110q0 86 -59 86q-21 0 -35.5 -8.5t-21.5 -19.5t-11 -31t-4.5 -33.5t-0.5 -37.5q0 -34 1 -52t6.5 -43t19.5 -36.5t36 -11.5q38 0 53.5 25t15.5 52z" />
<glyph unicode="h" horiz-adv-x="542" d="M502 0h-166v371q0 31 -16 56t-51 25q-32 0 -47.5 -20.5t-15.5 -48.5v-383h-166v730h166v-135l-1 -37h2q45 38 122 38q87 0 130 -64.5t43 -159.5v-372z" />
<glyph unicode="i" horiz-adv-x="278" d="M222 0h-166v586h166v-586zM140 631q-40 0 -70 29.5t-30 70.5q0 40 29.5 69.5t70.5 29.5q40 0 69 -29t29 -70t-29 -70.5t-69 -29.5z" />
<glyph unicode="j" horiz-adv-x="286" d="M-111 -203l58 151q14 -22 54 -22q34 1 45 22t11 67v571h174v-587q0 -98 -57 -162t-157 -64q-68 0 -128 24zM148 622q-40 0 -70 30t-30 70t29.5 69.5t70.5 29.5q40 0 69 -29t29 -70t-29 -70.5t-69 -29.5z" />
<glyph unicode="k" horiz-adv-x="526" d="M529 0h-187l-93 178l-30 63h-2l-11 -15v-226h-166v730h166v-198l-1 -80h2q27 37 53 67l57 67h192l-179 -216z" />
<glyph unicode="l" horiz-adv-x="246" d="M206 0h-166v730h166v-730z" />
<glyph unicode="m" horiz-adv-x="778" d="M738 0h-159v410q0 30 -15.5 46t-38.5 16q-22 0 -38 -16t-16 -46v-410h-159v410q0 30 -16 46t-39 16t-38.5 -16t-15.5 -46v-410h-159v507q0 50 -9 79h141q14 -30 18 -72h2q36 90 134 90t128 -90h2q43 86 133 86q78 0 111.5 -53t33.5 -164v-383z" />
<glyph unicode="n" horiz-adv-x="541" d="M506 0h-166v384q0 34 -16 57.5t-51 23.5q-31 0 -46 -19.5t-17 -46.5v-399h-166v507q0 24 -2 43.5t-4 27.5l-3 8h143q13 -29 16 -72h2q44 86 135 86q89 0 132 -61t43 -163v-376z" />
<glyph unicode="o" horiz-adv-x="521" d="M260 135q25 0 41 14t22.5 41t8.5 49t2 55q0 31 -2 53t-8.5 49.5t-22.5 42t-41 14.5q-73 0 -73 -159t73 -159zM260 -14q-122 0 -181 82t-59 226q0 143 59 224.5t181 81.5q123 0 182 -81.5t59 -224.5q0 -144 -59 -226t-182 -82z" />
<glyph unicode="p" horiz-adv-x="528" d="M210 -200h-166v707q0 14 -1 27t-2 22t-2.5 16t-2.5 10l-1 4h143q10 -25 13 -72h2q12 39 44.5 62.5t81.5 23.5q91 0 140 -86.5t49 -225.5q0 -137 -47.5 -219.5t-135.5 -82.5q-82 0 -114 51h-2q1 -29 1 -40v-197zM210 386v-207q0 -30 15 -52t44 -22q25 0 41 16t22 47 t7.5 52.5t1.5 56.5q0 34 -1.5 56.5t-7.5 58t-22 55t-42 19.5q-30 0 -44 -24.5t-14 -55.5z" />
<glyph unicode="q" horiz-adv-x="528" d="M484 -200h-166v201l1 40h-2q-35 -55 -114 -55q-88 0 -135.5 82.5t-47.5 219.5q0 139 49 225.5t140 86.5q49 0 81.5 -23.5t44.5 -62.5h2q1 21 4.5 39t6.5 25l2 8h143l-1 -4q-1 -3 -2.5 -10t-2.5 -16t-2 -22t-1 -27v-707zM318 184v207q0 31 -14 55.5t-44 24.5 q-26 0 -42 -19.5t-22 -55t-7.5 -58t-1.5 -56.5q0 -36 1.5 -57t7.5 -52t22 -47t41 -16q29 0 44 22t15 52z" />
<glyph unicode="r" horiz-adv-x="358" d="M210 0h-166v507q0 22 -2 41.5t-4 28.5l-3 9h143q12 -20 21 -72h2q50 82 153 86l-22 -202q-24 8 -50 8q-72 0 -72 -65v-341z" />
<glyph unicode="s" horiz-adv-x="470" d="M445 509l-109 -100q-13 20 -42 37t-57 17q-21 0 -33 -9.5t-12 -24.5q0 -21 27 -36.5t66 -29.5t77.5 -34t65.5 -59.5t27 -95.5q0 -83 -55.5 -135.5t-156.5 -52.5q-139 0 -227 107l107 114q67 -79 129 -79q42 0 42 34q0 21 -27 39t-65.5 34.5t-77 37t-65.5 58.5t-27 89 q0 76 54.5 128.5t156.5 52.5q125 0 202 -92z" />
<glyph unicode="t" horiz-adv-x="367" d="M321 144l26 -143q-29 -15 -91 -15q-183 0 -183 200v260h-53v140h53v144h166v-144h103v-140h-103v-254q0 -53 50 -53q14 0 32 5z" />
<glyph unicode="u" horiz-adv-x="541" d="M506 0h-143q-13 29 -16 72h-2q-44 -86 -135 -86q-89 0 -132 61t-43 163v376h166v-384q0 -34 16 -57.5t51 -23.5q31 0 46 19.5t17 46.5v399h166v-507q0 -24 2.5 -43.5t4.5 -27.5z" />
<glyph unicode="v" horiz-adv-x="499" d="M334 0h-166l-166 586h179l60 -348l9 -55h2q5 30 9 55l58 348h178z" />
<glyph unicode="w" horiz-adv-x="799" d="M656 0h-186l-58 309l-11 75h-2q-6 -50 -11 -75l-57 -309h-185l-144 586h179l49 -328l8 -75h2q6 54 11 75l71 328h156l73 -329l11 -74h2q5 51 8 74l46 329h179z" />
<glyph unicode="x" horiz-adv-x="467" d="M326 294l136 -294h-172l-38 127l-18 74h-2q-12 -53 -19 -74l-37 -127h-171l136 294l-136 292h171l39 -136l18 -68h2q9 43 16 68l39 136h172z" />
<glyph unicode="y" horiz-adv-x="504" d="M193 -13l-188 599h193l47 -295q3 -21 7 -48t6 -43t2 -17h2q1 7 16 108l43 295h180l-153 -596q-25 -100 -73.5 -150t-127.5 -50q-43 0 -81 13.5t-55 26.5l-17 14l82 132q22 -32 59 -32q43 0 58 43z" />
<glyph unicode="z" horiz-adv-x="452" d="M422 0h-417v2l158 344l40 78v2h-158v160h407v-2l-154 -335l-45 -87v-2h169v-160z" />
<glyph unicode="{" horiz-adv-x="269" d="M226 -33v-138q-87 -5 -144 30.5t-57 129.5q0 52 25 129.5t25 109.5q0 26 -11 38t-37 12v148q26 0 37 12t11 38q0 32 -25 109.5t-25 129.5q0 94 57 129.5t144 30.5v-138q-44 4 -44 -38q0 -17 14 -98t14 -127q0 -108 -73 -121v-2v2v-2v2v-2v2v-2q73 -13 73 -121 q0 -46 -14 -127t-14 -98q0 -42 44 -38z" />
<glyph unicode="|" horiz-adv-x="304" d="M242 800v-900h-180v900h180z" />
<glyph unicode="}" horiz-adv-x="269" d="M43 -171v138q44 -4 44 38q0 17 -14 98t-14 127q0 108 73 121v2v-2v2v-2v2v-2v2q-73 13 -73 121q0 46 14 127t14 98q0 42 -44 38v138q87 5 144 -30.5t57 -129.5q0 -52 -25 -129.5t-25 -109.5q0 -26 11 -38t37 -12v-148q-26 0 -37 -12t-11 -38q0 -32 25 -109.5t25 -129.5 q0 -94 -57 -129.5t-144 -30.5z" />
<glyph unicode="~" horiz-adv-x="385" d="M259 450h91q0 -128 -104 -128q-27 0 -62.5 12t-43.5 12q-14 0 -14 -15h-91q0 63 23 96t80 33q28 0 63.5 -12.5t43.5 -12.5q14 0 14 15z" />
<glyph unicode="&#xa1;" horiz-adv-x="263" d="M49 465h166v-465h-166v465zM131 710q41 0 70.5 -30t29.5 -70t-29.5 -69.5t-70.5 -29.5t-70 29t-29 70t29 70.5t70 29.5z" />
<glyph unicode="&#xa2;" horiz-adv-x="440" d="M318 331l93 -123q-36 -30 -71.5 -45.5t-85.5 -15.5q-30 0 -50 4l-28 -90h-39l31 100q-62 22 -96.5 74t-34.5 122q0 89 55.5 149.5t159.5 60.5q22 0 42 -3l32 102h40l-35 -110q17 -5 32 -12.5t21 -11.5l7 -5l-82 -127q-23 21 -51 21q-27 0 -44 -17t-17 -44 q0 -28 17.5 -43.5t45.5 -15.5q34 0 58 30z" />
<glyph unicode="&#xa3;" d="M445 179l49 -147q-5 -5 -13.5 -12.5t-37.5 -20.5t-61 -13q-31 0 -100 10t-86 10q-36 0 -62 -29l-88 123q63 61 63 161q0 12 -1 18h-76v102h60q-16 80 -16 125q0 92 50 148t152 56q78 0 125 -35t75 -106l-144 -76q-11 57 -51 57q-41 0 -41 -60q0 -29 10 -109h108v-102 h-104q-5 -69 -37 -129l1 -1v-1q42 5 78.5 0.5t77.5 1.5t69 29z" />
<glyph unicode="&#xa4;" horiz-adv-x="521" d="M363 211l134 -73q-30 -73 -77 -112.5t-129 -39.5q-220 0 -232 307h-49v34h48v15v31h-48v34h50q18 307 235 307q154 0 210 -162l-139 -65q-12 41 -27.5 58t-40.5 17q-35 0 -52 -35t-21 -120h122v-34h-123v-30v-16h123v-34h-122q3 -83 19 -119t51 -36q23 0 39 16.5t29 56.5 z" />
<glyph unicode="&#xa5;" horiz-adv-x="508" d="M336 163v-163h-165v163h-126v34h124l-15 46h-109v34h98l-138 423h177l55 -209q5 -18 9 -46t6 -47l1 -19h2q8 71 18 112l51 209h179l-139 -423h99v-34h-110l-15 -46h125v-34h-127z" />
<glyph unicode="&#xa6;" horiz-adv-x="264" d="M214 799v-400h-164v400h164zM214 312v-413h-164v413h164z" />
<glyph unicode="&#xa7;" horiz-adv-x="479" d="M424 256v-2q30 -24 30 -87q0 -76 -53 -126.5t-158 -50.5q-75 0 -137.5 27t-96.5 73l111 108q22 -30 58.5 -45.5t70.5 -15.5q49 0 49 31q0 17 -28 28t-67.5 20.5t-79.5 24t-68 46t-28 77.5q0 49 40 97v2q-29 36 -29 85q0 68 52.5 115.5t144.5 47.5q142 0 205 -125 l-126 -74q-37 54 -89 54q-20 0 -32 -7.5t-12 -19.5q0 -17 28 -27.5t67.5 -20t79.5 -23.5t68 -46.5t28 -80.5q0 -54 -28 -85zM334 306q2 23 -16 38.5t-41 22t-62.5 16t-60.5 17.5q-12 -31 15.5 -48t88.5 -29t76 -17z" />
<glyph unicode="&#xa8;" horiz-adv-x="323" d="M145 822q0 -33 -21 -51.5t-55 -18.5t-55 19t-21 51q0 33 21.5 53.5t54.5 20.5q34 0 55 -20t21 -54zM333 822q0 -33 -21 -51.5t-55 -18.5t-55 19t-21 51q0 33 21.5 53.5t54.5 20.5q34 0 55 -20t21 -54z" />
<glyph unicode="&#xa9;" horiz-adv-x="767" d="M745 350q0 -153 -104 -256.5t-257 -103.5q-154 0 -258 103t-104 257q0 153 104 256.5t258 103.5q153 0 257 -103.5t104 -256.5zM384 81q113 0 187 77t74 192t-74 192t-187 77q-115 0 -190 -77t-75 -192t75 -192t190 -77zM503 253l-96 56q-10 -26 -25 -26q-24 0 -24 71 q0 76 25 76q13 0 22 -25l95 53q-35 80 -117 80q-73 0 -107.5 -54t-34.5 -128q0 -46 12.5 -85.5t46.5 -68.5t84 -29q86 0 119 80z" />
<glyph unicode="&#xaa;" horiz-adv-x="271" d="M259 383h-95l-6 44h-45l-6 -44h-95l83 317h81zM119 492h33q-15 119 -15 121h-2q-2 -33 -16 -121z" />
<glyph unicode="&#xab;" horiz-adv-x="427" d="M220 258l-106 -90l-94 132v104l94 132l106 -89l-51 -58l-38 -35v-2q20 -14 38 -36zM414 258l-106 -90l-94 132v104l94 132l106 -89l-51 -58l-38 -35v-2q20 -14 38 -36z" />
<glyph unicode="&#xac;" horiz-adv-x="360" d="M254 174l-74 85l-74 -85l-98 98l90 79l-85 83l88 88l79 -83l79 83l88 -88l-85 -83l90 -79z" />
<glyph unicode="&#xae;" horiz-adv-x="767" d="M745 350q0 -153 -104 -256.5t-257 -103.5q-154 0 -258 103t-104 257q0 153 104 256.5t258 103.5q153 0 257 -103.5t104 -256.5zM384 81q113 0 187 77t74 192t-74 192t-187 77q-115 0 -190 -77t-75 -192t75 -192t190 -77zM517 195h-103l-20 86h-26v-86h-96v322h112 q64 0 99 -29.5t35 -88.5q0 -64 -46 -99zM368 355h19q35 0 35 37t-35 37h-19v-74z" />
<glyph unicode="&#xaf;" horiz-adv-x="299" d="M289 743h-279v145h279v-145z" />
<glyph unicode="&#xb0;" horiz-adv-x="302" d="M292 589q0 -61 -39 -96.5t-102 -35.5t-102 35.5t-39 96.5q0 60 39 97.5t102 37.5t102 -37.5t39 -97.5zM194 589q0 19 -12 30t-31 11t-31 -11t-12 -30t12 -30t31 -11t31 11t12 30z" />
<glyph unicode="&#xb1;" horiz-adv-x="354" d="M312 94h-266v124h266v-124zM246 286h-138v101h-96v124h96v101h138v-101h96v-124h-96v-101z" />
<glyph unicode="&#xb2;" horiz-adv-x="276" d="M230 385h-198v2l109 198q9 15 9 28t-15 13q-21 0 -29 -37l-76 34q15 40 39 63.5t68 23.5q47 0 74 -28t27 -68q0 -37 -31 -90l-34 -52v-1h57v-86z" />
<glyph unicode="&#xb3;" horiz-adv-x="262" d="M113 506l-35 70l46 41h-94v83h195v-79l-55 -43v-2q70 -20 70 -93q0 -48 -29 -78t-83 -30q-77 0 -111 69l75 44q15 -27 35 -27q13 0 20 7.5t7 17.5q0 23 -25 23q-7 0 -16 -3z" />
<glyph unicode="&#xb4;" horiz-adv-x="238" d="M261 832l-240 -102l-48 103l232 118z" />
<glyph unicode="&#xb6;" horiz-adv-x="515" d="M484 700v-700h-40v700h40zM414 700v-700h-152v195h-9q-113 0 -173 74t-60 185q0 123 74 184.5t199 61.5h121z" />
<glyph unicode="&#xb7;" horiz-adv-x="258" d="M130 259q-40 0 -70 29.5t-30 70.5q0 40 29.5 69.5t70.5 29.5q40 0 69 -29t29 -70t-29 -70.5t-69 -29.5z" />
<glyph unicode="&#xb8;" horiz-adv-x="266" d="M45 -250l71 65q15 -18 36 -18q18 0 28.5 10t10.5 26t-10 27t-28 11q-22 0 -39 -20l-74 37l32 139l81 2l-19 -82l2 -1q18 6 37 6q59 0 87.5 -35t28.5 -89q0 -57 -37 -91.5t-96 -34.5q-68 0 -111 48z" />
<glyph unicode="&#xb9;" horiz-adv-x="173" d="M147 385h-96v224h-30v91h126v-315z" />
<glyph unicode="&#xba;" horiz-adv-x="283" d="M141 371q-113 0 -113 170q0 169 113 169q115 0 115 -169q0 -80 -25.5 -125t-89.5 -45zM141 455q26 0 26 86q0 82 -26 82q-25 0 -25 -82q0 -86 25 -86z" />
<glyph unicode="&#xbb;" horiz-adv-x="427" d="M119 168l-106 90l51 58q18 22 38 36v2q-25 21 -38 35l-51 58l106 89l94 -132v-104zM313 168l-106 90l51 58q18 22 38 36v2q-25 21 -38 35l-51 58l106 89l94 -132v-104z" />
<glyph unicode="&#xbc;" horiz-adv-x="485" d="M443 0h-88v42h-112l112 274h88v-181h23v-93h-23v-42zM366 125v76h-2l-24 -74v-2h26zM157 385h-96v224h-30v91h126v-315zM110 0l364 700h-109l-363 -700h108z" />
<glyph unicode="&#xbd;" horiz-adv-x="523" d="M157 385h-96v224h-30v91h126v-315zM110 0l364 700h-109l-363 -700h108zM488 0h-198v2l109 198q9 15 9 28t-15 13q-21 0 -29 -37l-76 34q15 40 39 63.5t68 23.5q47 0 74 -28t27 -68q0 -37 -31 -90l-34 -52v-1h57v-86z" />
<glyph unicode="&#xbe;" horiz-adv-x="531" d="M490 0h-88v42h-112l112 274h88v-181h23v-93h-23v-42zM413 125v76h-2l-24 -74v-2h26zM97 506l-35 70l46 41h-94v83h195v-79l-55 -43v-2q70 -20 70 -93q0 -48 -29 -78t-83 -30q-77 0 -111 69l75 44q15 -27 35 -27q13 0 20 7.5t7 17.5q0 23 -25 23q-7 0 -16 -3zM156 0 l364 700h-109l-363 -700h108z" />
<glyph unicode="&#xbf;" horiz-adv-x="465" d="M310 230l135 -89q-40 -73 -93.5 -114t-133.5 -41q-97 0 -153 52.5t-56 135.5q0 42 16.5 74.5t40 52t47.5 34.5t40.5 30.5t16.5 31.5t-14 32l134 73q49 -52 49 -105q0 -39 -26 -72t-57 -52t-57 -43t-26 -47q0 -17 13.5 -30.5t37.5 -13.5q59 0 86 91zM224 511 q-40 0 -70 29.5t-30 70.5q0 40 29.5 69.5t70.5 29.5q40 0 69 -29t29 -70t-29 -70.5t-69 -29.5z" />
<glyph unicode="&#xc0;" horiz-adv-x="502" d="M499 0h-175l-10 78h-129l-8 -78h-174l150 700h196zM291 224l-28 210l-11 97h-2q-6 -57 -12 -97l-28 -210h81zM360 730l-240 102l56 119l232 -118z" />
<glyph unicode="&#xc1;" horiz-adv-x="502" d="M499 0h-175l-10 78h-129l-8 -78h-174l150 700h196zM291 224l-28 210l-11 97h-2q-6 -57 -12 -97l-28 -210h81zM388 832l-240 -102l-48 103l232 118z" />
<glyph unicode="&#xc2;" horiz-adv-x="502" d="M499 0h-175l-10 78h-129l-8 -78h-174l150 700h196zM291 224l-28 210l-11 97h-2q-6 -57 -12 -97l-28 -210h81zM354 731l-49 52l-53 60h-4q-20 -25 -53 -60l-49 -52l-83 94l142 112h90l142 -112z" />
<glyph unicode="&#xc3;" horiz-adv-x="502" d="M499 0h-175l-10 78h-129l-8 -78h-174l150 700h196zM291 224l-28 210l-11 97h-2q-6 -57 -12 -97l-28 -210h81zM307 890h91q0 -128 -104 -128q-27 0 -62.5 12t-43.5 12q-14 0 -14 -15h-91q0 63 23 96t80 33q28 0 63.5 -12.5t43.5 -12.5q14 0 14 15z" />
<glyph unicode="&#xc4;" horiz-adv-x="502" d="M499 0h-175l-10 78h-129l-8 -78h-174l150 700h196zM291 224l-28 210l-11 97h-2q-6 -57 -12 -97l-28 -210h81zM232 822q0 -33 -21 -51.5t-55 -18.5t-55 19t-21 51q0 33 21.5 53.5t54.5 20.5q34 0 55 -20t21 -54zM420 822q0 -33 -21 -51.5t-55 -18.5t-55 19t-21 51 q0 33 21.5 53.5t54.5 20.5q34 0 55 -20t21 -54z" />
<glyph unicode="&#xc5;" horiz-adv-x="502" d="M499 0h-175l-10 78h-129l-8 -78h-174l150 700h196zM291 224l-28 210l-11 97h-2q-6 -57 -12 -97l-28 -210h81zM380 866q0 -58 -36 -91.5t-95 -33.5t-95.5 33.5t-36.5 91.5q0 55 37 90.5t95 35.5t94.5 -35t36.5 -91zM282 866q0 15 -9.5 24t-23.5 9q-15 0 -24.5 -9t-9.5 -24 t9.5 -24t24.5 -9q14 0 23.5 9t9.5 24z" />
<glyph unicode="&#xc6;" horiz-adv-x="805" d="M739 0h-389v78h-155l-22 -78h-179l262 700h483v-152h-223v-134h186v-146h-186v-116h223v-152zM350 238v336h-2q-9 -45 -43 -163l-50 -173h95z" />
<glyph unicode="&#xc7;" horiz-adv-x="472" d="M162 -250l71 65q15 -18 36 -18q18 0 28.5 10t10.5 26t-10 27t-28 11q-22 0 -39 -20l-74 37l24 108q-49 14 -83 49t-50 85.5t-22 100t-6 111.5q0 75 9 134t33 116.5t73.5 89.5t121.5 32q154 0 210 -162l-139 -65q-12 41 -27.5 58t-40.5 17q-40 0 -57 -48.5t-17 -170.5 q0 -110 15.5 -157.5t55.5 -47.5q23 0 39 16.5t29 56.5l134 -73q-30 -72 -75 -111t-124 -41l-9 -39l2 -1q18 6 37 6q59 0 87.5 -35t28.5 -89q0 -57 -37 -91.5t-96 -34.5q-68 0 -111 48z" />
<glyph unicode="&#xc8;" horiz-adv-x="479" d="M439 0h-389v700h389v-152h-223v-134h186v-146h-186v-116h223v-152zM348 730l-240 102l56 119l232 -118z" />
<glyph unicode="&#xc9;" horiz-adv-x="479" d="M439 0h-389v700h389v-152h-223v-134h186v-146h-186v-116h223v-152zM392 832l-240 -102l-48 103l232 118z" />
<glyph unicode="&#xca;" horiz-adv-x="479" d="M439 0h-389v700h389v-152h-223v-134h186v-146h-186v-116h223v-152zM350 731l-49 52l-53 60h-4q-20 -25 -53 -60l-49 -52l-83 94l142 112h90l142 -112z" />
<glyph unicode="&#xcb;" horiz-adv-x="479" d="M439 0h-389v700h389v-152h-223v-134h186v-146h-186v-116h223v-152zM227 822q0 -33 -21 -51.5t-55 -18.5t-55 19t-21 51q0 33 21.5 53.5t54.5 20.5q34 0 55 -20t21 -54zM415 822q0 -33 -21 -51.5t-55 -18.5t-55 19t-21 51q0 33 21.5 53.5t54.5 20.5q34 0 55 -20t21 -54z " />
<glyph unicode="&#xcc;" horiz-adv-x="266" d="M218 0h-166v700h166v-700zM214 730l-240 102l56 119l232 -118z" />
<glyph unicode="&#xcd;" horiz-adv-x="266" d="M217 0h-166v700h166v-700zM283 832l-240 -102l-48 103l232 118z" />
<glyph unicode="&#xce;" horiz-adv-x="266" d="M219 0h-166v700h166v-700zM240 731l-49 52l-53 60h-4q-20 -25 -53 -60l-49 -52l-83 94l142 112h90l142 -112z" />
<glyph unicode="&#xcf;" horiz-adv-x="266" d="M218 0h-166v700h166v-700zM137 814q0 -32 -21 -51.5t-55 -19.5t-55.5 19t-21.5 52t21.5 53t55.5 20q33 0 54.5 -20t21.5 -53zM297 814q0 -32 -21 -51.5t-55 -19.5t-55.5 19t-21.5 52t21.5 53t55.5 20q33 0 54.5 -20t21.5 -53z" />
<glyph unicode="&#xd0;" horiz-adv-x="547" d="M267 0h-197v300h-58v102h58v298h201q70 0 122 -30t80 -81.5t41 -110.5t13 -128t-13 -128t-41.5 -110.5t-81 -81.5t-124.5 -30zM236 160h31q48 0 71 54t23 136q0 81 -22.5 135.5t-67.5 54.5h-35v-138h64v-102h-64v-140z" />
<glyph unicode="&#xd1;" horiz-adv-x="584" d="M534 0h-165l-120 268q-10 23 -21 51.5t-16 46.5l-6 17h-2q2 -67 2 -124v-259h-156v700h170l109 -240l48 -120h2q-2 72 -2 131v229h157v-700zM354 890h91q0 -128 -104 -128q-27 0 -62.5 12t-43.5 12q-14 0 -14 -15h-91q0 63 23 96t80 33q28 0 63.5 -12.5t43.5 -12.5 q14 0 14 15z" />
<glyph unicode="&#xd2;" d="M257 -14q-237 0 -237 364t237 364q70 0 118.5 -29.5t73.5 -83.5t35 -114.5t10 -136.5t-10 -136.5t-35 -114.5t-73.5 -83.5t-118.5 -29.5zM257 146q43 0 57 49t14 155q0 107 -14 155.5t-57 48.5t-57 -49t-14 -155t14.5 -155t56.5 -49zM355 730l-240 102l56 119l232 -118z " />
<glyph unicode="&#xd3;" d="M257 -14q-237 0 -237 364t237 364q70 0 118.5 -29.5t73.5 -83.5t35 -114.5t10 -136.5t-10 -136.5t-35 -114.5t-73.5 -83.5t-118.5 -29.5zM257 146q43 0 57 49t14 155q0 107 -14 155.5t-57 48.5t-57 -49t-14 -155t14.5 -155t56.5 -49zM396 832l-240 -102l-48 103l232 118z " />
<glyph unicode="&#xd4;" d="M257 -14q-237 0 -237 364t237 364q70 0 118.5 -29.5t73.5 -83.5t35 -114.5t10 -136.5t-10 -136.5t-35 -114.5t-73.5 -83.5t-118.5 -29.5zM257 146q43 0 57 49t14 155q0 107 -14 155.5t-57 48.5t-57 -49t-14 -155t14.5 -155t56.5 -49zM362 731l-49 52l-53 60h-4 q-20 -25 -53 -60l-49 -52l-83 94l142 112h90l142 -112z" />
<glyph unicode="&#xd5;" d="M257 -14q-237 0 -237 364t237 364q70 0 118.5 -29.5t73.5 -83.5t35 -114.5t10 -136.5t-10 -136.5t-35 -114.5t-73.5 -83.5t-118.5 -29.5zM257 146q43 0 57 49t14 155q0 107 -14 155.5t-57 48.5t-57 -49t-14 -155t14.5 -155t56.5 -49zM324 890h91q0 -128 -104 -128 q-27 0 -62.5 12t-43.5 12q-14 0 -14 -15h-91q0 63 23 96t80 33q28 0 63.5 -12.5t43.5 -12.5q14 0 14 15z" />
<glyph unicode="&#xd6;" d="M257 -14q-237 0 -237 364t237 364q70 0 118.5 -29.5t73.5 -83.5t35 -114.5t10 -136.5t-10 -136.5t-35 -114.5t-73.5 -83.5t-118.5 -29.5zM257 146q43 0 57 49t14 155q0 107 -14 155.5t-57 48.5t-57 -49t-14 -155t14.5 -155t56.5 -49zM239 822q0 -33 -21 -51.5t-55 -18.5 t-55 19t-21 51q0 33 21.5 53.5t54.5 20.5q34 0 55 -20t21 -54zM427 822q0 -33 -21 -51.5t-55 -18.5t-55 19t-21 51q0 33 21.5 53.5t54.5 20.5q34 0 55 -20t21 -54z" />
<glyph unicode="&#xd7;" horiz-adv-x="360" d="M254 174l-74 85l-74 -85l-98 98l90 79l-85 83l88 88l79 -83l79 83l88 -88l-85 -83l90 -79z" />
<glyph unicode="&#xd8;" d="M257 -14q-237 0 -237 364t237 364q70 0 118.5 -29.5t73.5 -83.5t35 -114.5t10 -136.5t-10 -136.5t-35 -114.5t-73.5 -83.5t-118.5 -29.5zM190 244l116 279q-16 31 -49 31q-43 0 -57 -49t-14 -155q0 -67 4 -106zM324 454l-115 -279q15 -29 48 -29q43 0 57 49t14 155 q0 65 -4 104z" />
<glyph unicode="&#xd9;" horiz-adv-x="548" d="M332 228v472h166v-467q0 -123 -61.5 -183t-159.5 -60q-99 0 -163 60.5t-64 183.5v466h166v-473q0 -77 58 -77q35 0 46.5 20.5t11.5 57.5zM371 730l-240 102l56 119l232 -118z" />
<glyph unicode="&#xda;" horiz-adv-x="548" d="M332 228v472h166v-467q0 -123 -61.5 -183t-159.5 -60q-99 0 -163 60.5t-64 183.5v466h166v-473q0 -77 58 -77q35 0 46.5 20.5t11.5 57.5zM419 832l-240 -102l-48 103l232 118z" />
<glyph unicode="&#xdb;" horiz-adv-x="548" d="M332 228v472h166v-467q0 -123 -61.5 -183t-159.5 -60q-99 0 -163 60.5t-64 183.5v466h166v-473q0 -77 58 -77q35 0 46.5 20.5t11.5 57.5zM380 731l-49 52l-53 60h-4q-20 -25 -53 -60l-49 -52l-83 94l142 112h90l142 -112z" />
<glyph unicode="&#xdc;" horiz-adv-x="548" d="M332 228v472h166v-467q0 -123 -61.5 -183t-159.5 -60q-99 0 -163 60.5t-64 183.5v466h166v-473q0 -77 58 -77q35 0 46.5 20.5t11.5 57.5zM255 822q0 -33 -21 -51.5t-55 -18.5t-55 19t-21 51q0 33 21.5 53.5t54.5 20.5q34 0 55 -20t21 -54zM443 822q0 -33 -21 -51.5 t-55 -18.5t-55 19t-21 51q0 33 21.5 53.5t54.5 20.5q34 0 55 -20t21 -54z" />
<glyph unicode="&#xdd;" horiz-adv-x="504" d="M334 0v191l167 509h-179l-51 -209q-4 -18 -8.5 -46t-6.5 -47l-3 -19h-2q-5 71 -16 112l-55 209h-177l166 -509v-191h165zM395 832l-240 -102l-48 103l232 118z" />
<glyph unicode="&#xde;" horiz-adv-x="515" d="M216 0h-166v700h166v-90h57q75 0 128.5 -40t75.5 -94.5t22 -114.5q0 -108 -60.5 -182t-172.5 -74h-50v-105zM216 254h46q36 0 54 30t18 74q0 46 -18 75t-55 29h-45v-208z" />
<glyph unicode="&#xdf;" horiz-adv-x="535" d="M232 16l55 135q14 -13 37 -13q42 0 42 38q0 18 -12.5 37t-30.5 37t-36 39.5t-30.5 54t-12.5 71.5q0 35 10.5 64t23.5 45t23.5 35.5t10.5 37.5q0 27 -15.5 40.5t-38.5 13.5q-24 0 -40 -15t-16 -46v-590h-162v578q0 92 54.5 150t153.5 58q89 0 148.5 -48t59.5 -138 q0 -43 -15 -76t-30.5 -56t-15.5 -42t13.5 -38t32.5 -37t37.5 -39.5t32 -55.5t13.5 -75q0 -86 -53.5 -138.5t-136.5 -52.5q-69 0 -102 26z" />
<glyph unicode="&#xe0;" horiz-adv-x="517" d="M482 0h-160q-14 38 -18 76h-2q-36 -89 -133 -89q-75 0 -114.5 49.5t-38.5 117.5q1 93 75.5 149t208.5 51v18q0 34 -18 59t-52 25q-64 0 -94 -67l-94 114q91 97 203 97q97 0 159 -62.5t62 -190.5v-264q0 -46 16 -83zM300 213v31q-50 3 -88 -18t-38 -63q0 -47 45 -47 q34 0 57.5 28t23.5 69zM356 598l-240 102l56 119l232 -118z" />
<glyph unicode="&#xe1;" horiz-adv-x="517" d="M482 0h-160q-14 38 -18 76h-2q-36 -89 -133 -89q-75 0 -114.5 49.5t-38.5 117.5q1 93 75.5 149t208.5 51v18q0 34 -18 59t-52 25q-64 0 -94 -67l-94 114q91 97 203 97q97 0 159 -62.5t62 -190.5v-264q0 -46 16 -83zM300 213v31q-50 3 -88 -18t-38 -63q0 -47 45 -47 q34 0 57.5 28t23.5 69zM389 704l-240 -102l-48 103l232 118z" />
<glyph unicode="&#xe2;" horiz-adv-x="517" d="M482 0h-160q-14 38 -18 76h-2q-36 -89 -133 -89q-75 0 -114.5 49.5t-38.5 117.5q1 93 75.5 149t208.5 51v18q0 34 -18 59t-52 25q-64 0 -94 -67l-94 114q91 97 203 97q97 0 159 -62.5t62 -190.5v-264q0 -46 16 -83zM300 213v31q-50 3 -88 -18t-38 -63q0 -47 45 -47 q34 0 57.5 28t23.5 69zM361 616l-49 52l-53 60h-4q-20 -25 -53 -60l-49 -52l-83 94l142 112h90l142 -112z" />
<glyph unicode="&#xe3;" horiz-adv-x="517" d="M482 0h-160q-14 38 -18 76h-2q-36 -89 -133 -89q-75 0 -114.5 49.5t-38.5 117.5q1 93 75.5 149t208.5 51v18q0 34 -18 59t-52 25q-64 0 -94 -67l-94 114q91 97 203 97q97 0 159 -62.5t62 -190.5v-264q0 -46 16 -83zM300 213v31q-50 3 -88 -18t-38 -63q0 -47 45 -47 q34 0 57.5 28t23.5 69zM323 778h91q0 -128 -104 -128q-27 0 -62.5 12t-43.5 12q-14 0 -14 -15h-91q0 63 23 96t80 33q28 0 63.5 -12.5t43.5 -12.5q14 0 14 15z" />
<glyph unicode="&#xe4;" horiz-adv-x="517" d="M482 0h-160q-14 38 -18 76h-2q-36 -89 -133 -89q-75 0 -114.5 49.5t-38.5 117.5q1 93 75.5 149t208.5 51v18q0 34 -18 59t-52 25q-64 0 -94 -67l-94 114q91 97 203 97q97 0 159 -62.5t62 -190.5v-264q0 -46 16 -83zM300 213v31q-50 3 -88 -18t-38 -63q0 -47 45 -47 q34 0 57.5 28t23.5 69zM240 706q0 -33 -21 -51.5t-55 -18.5t-55 19t-21 51q0 33 21.5 53.5t54.5 20.5q34 0 55 -20t21 -54zM428 706q0 -33 -21 -51.5t-55 -18.5t-55 19t-21 51q0 33 21.5 53.5t54.5 20.5q34 0 55 -20t21 -54z" />
<glyph unicode="&#xe5;" horiz-adv-x="517" d="M482 0h-160q-14 38 -18 76h-2q-36 -89 -133 -89q-75 0 -114.5 49.5t-38.5 117.5q1 93 75.5 149t208.5 51v18q0 34 -18 59t-52 25q-64 0 -94 -67l-94 114q91 97 203 97q97 0 159 -62.5t62 -190.5v-264q0 -46 16 -83zM300 213v31q-50 3 -88 -18t-38 -63q0 -47 45 -47 q34 0 57.5 28t23.5 69zM387 771q0 -58 -36 -91.5t-95 -33.5t-95.5 33.5t-36.5 91.5q0 55 37 90.5t95 35.5t94.5 -35t36.5 -91zM289 771q0 15 -9.5 24t-23.5 9q-15 0 -24.5 -9t-9.5 -24t9.5 -24t24.5 -9q14 0 23.5 9t9.5 24z" />
<glyph unicode="&#xe6;" horiz-adv-x="763" d="M291 215v29h-10q-45 0 -77.5 -19.5t-32.5 -55.5q0 -20 11 -34t33 -14q33 0 54.5 28.5t21.5 65.5zM748 234h-288q3 -43 24.5 -71.5t63.5 -28.5q28 0 46 14.5t41 48.5l112 -104q-45 -53 -89 -78t-108 -25q-117 0 -176 98h-2q-74 -98 -190 -98q-79 0 -123 46t-44 123 q0 91 67 144t209 53v12q0 84 -60 84q-61 0 -94 -74l-94 121q98 97 190 97q95 0 151 -87h2q59 87 162 87q39 0 70.5 -12.5t52 -32t35.5 -50.5t23 -60t12.5 -69t5.5 -69.5t1 -68.5zM461 349h130q0 47 -15 82t-48 35q-31 0 -47.5 -33.5t-19.5 -83.5z" />
<glyph unicode="&#xe7;" horiz-adv-x="470" d="M138 -250l71 65q15 -18 36 -18q18 0 28.5 10t10.5 26t-10 27t-28 11q-22 0 -39 -20l-74 37l27 116q-69 30 -104.5 103.5t-35.5 181.5q0 140 63.5 225.5t173.5 85.5q133 0 199 -106l-128 -108q-11 58 -63 58q-39 0 -57.5 -37t-18.5 -118q0 -150 76 -150q43 0 67 58 l129 -98q-66 -113 -204 -113q-3 0 -10 0.5t-11 0.5l-9 -40l2 -1q18 6 37 6q59 0 87.5 -35t28.5 -89q0 -57 -37 -91.5t-96 -34.5q-68 0 -111 48z" />
<glyph unicode="&#xe8;" horiz-adv-x="488" d="M473 252h-289q8 -122 89 -122q28 0 46 14.5t41 48.5l108 -100q-43 -51 -92 -79t-117 -28q-117 0 -178 79.5t-61 220.5q0 144 62.5 229t178.5 85q55 0 95 -21t62 -51.5t35 -76.5t16.5 -84t3.5 -85v-30zM186 351h130q-2 125 -62 125q-61 0 -68 -125zM357 601l-240 102 l56 119l232 -118z" />
<glyph unicode="&#xe9;" horiz-adv-x="488" d="M473 252h-289q8 -122 89 -122q28 0 46 14.5t41 48.5l108 -100q-43 -51 -92 -79t-117 -28q-117 0 -178 79.5t-61 220.5q0 144 62.5 229t178.5 85q55 0 95 -21t62 -51.5t35 -76.5t16.5 -84t3.5 -85v-30zM186 351h130q-2 125 -62 125q-61 0 -68 -125zM394 700l-240 -102 l-48 103l232 118z" />
<glyph unicode="&#xea;" horiz-adv-x="488" d="M473 252h-289q8 -122 89 -122q28 0 46 14.5t41 48.5l108 -100q-43 -51 -92 -79t-117 -28q-117 0 -178 79.5t-61 220.5q0 144 62.5 229t178.5 85q55 0 95 -21t62 -51.5t35 -76.5t16.5 -84t3.5 -85v-30zM186 351h130q-2 125 -62 125q-61 0 -68 -125zM360 616l-49 52l-53 60 h-4q-20 -25 -53 -60l-49 -52l-83 94l142 112h90l142 -112z" />
<glyph unicode="&#xeb;" horiz-adv-x="488" d="M473 252h-289q8 -122 89 -122q28 0 46 14.5t41 48.5l108 -100q-43 -51 -92 -79t-117 -28q-117 0 -178 79.5t-61 220.5q0 144 62.5 229t178.5 85q55 0 95 -21t62 -51.5t35 -76.5t16.5 -84t3.5 -85v-30zM186 351h130q-2 125 -62 125q-61 0 -68 -125zM238 706 q0 -33 -21 -51.5t-55 -18.5t-55 19t-21 51q0 33 21.5 53.5t54.5 20.5q34 0 55 -20t21 -54zM426 706q0 -33 -21 -51.5t-55 -18.5t-55 19t-21 51q0 33 21.5 53.5t54.5 20.5q34 0 55 -20t21 -54z" />
<glyph unicode="&#xec;" horiz-adv-x="278" d="M217 620l-211 89l49 105l204 -104zM222 0h-166v586h166v-586z" />
<glyph unicode="&#xed;" horiz-adv-x="278" d="M275 709l-211 -89l-42 90l204 104zM224 0h-166v586h166v-586z" />
<glyph unicode="&#xee;" horiz-adv-x="278" d="M225 0h-166v586h166v-586zM216 646l-36 38l-39 45h-3q-15 -19 -39 -45l-36 -38l-61 69l104 83h67l104 -83z" />
<glyph unicode="&#xef;" horiz-adv-x="278" d="M125 723q0 -27 -17.5 -42.5t-46.5 -15.5q-28 0 -45.5 15.5t-17.5 42.5t18 44.5t45 17.5q29 0 46.5 -17t17.5 -45zM281 723q0 -27 -17.5 -42.5t-45.5 -15.5t-45.5 15.5t-17.5 42.5q0 28 17.5 45t45.5 17t45.5 -17t17.5 -45zM224 0h-166v586h166v-586z" />
<glyph unicode="&#xf0;" horiz-adv-x="529" d="M494 0h-142q-12 26 -16 57h-2q-47 -72 -119 -72q-97 0 -146 80t-49 209q0 138 53.5 210t138.5 72q42 0 65 -9t45 -29h2q4 48 -16 76l-22 -25l-36 29l20 25q-36 14 -87 5v150q108 3 182 -36l36 45l43 -34l-35 -41q76 -67 76 -195v-437q0 -52 9 -80zM319 192v165 q0 83 -59 83q-25 0 -41.5 -13t-22.5 -38.5t-7.5 -44t-1.5 -48.5q0 -27 0.5 -42.5t4.5 -39.5t11 -37.5t21.5 -23.5t35.5 -10q28 0 43.5 16.5t15.5 32.5z" />
<glyph unicode="&#xf1;" horiz-adv-x="597" d="M531 0h-166v384q0 34 -16 57.5t-51 23.5q-31 0 -46 -19.5t-17 -46.5v-399h-166v507q0 24 -2.5 43.5t-4.5 27.5l-2 8h143q13 -29 16 -72h2q44 86 135 86q89 0 132 -61t43 -163v-376zM374 778h91q0 -128 -104 -128q-27 0 -62.5 12t-43.5 12q-14 0 -14 -15h-91q0 63 23 96 t80 33q28 0 63.5 -12.5t43.5 -12.5q14 0 14 15z" />
<glyph unicode="&#xf2;" horiz-adv-x="521" d="M260 135q25 0 41 14t22.5 41t8.5 49t2 55q0 31 -2 53t-8.5 49.5t-22.5 42t-41 14.5q-73 0 -73 -159t73 -159zM260 -14q-122 0 -181 82t-59 226q0 143 59 224.5t181 81.5q123 0 182 -81.5t59 -224.5q0 -144 -59 -226t-182 -82zM359 607l-240 102l56 119l232 -118z" />
<glyph unicode="&#xf3;" horiz-adv-x="521" d="M260 135q25 0 41 14t22.5 41t8.5 49t2 55q0 31 -2 53t-8.5 49.5t-22.5 42t-41 14.5q-73 0 -73 -159t73 -159zM260 -14q-122 0 -181 82t-59 226q0 143 59 224.5t181 81.5q123 0 182 -81.5t59 -224.5q0 -144 -59 -226t-182 -82zM402 709l-240 -102l-48 103l232 118z" />
<glyph unicode="&#xf4;" horiz-adv-x="521" d="M260 135q25 0 41 14t22.5 41t8.5 49t2 55q0 31 -2 53t-8.5 49.5t-22.5 42t-41 14.5q-73 0 -73 -159t73 -159zM260 -14q-122 0 -181 82t-59 226q0 143 59 224.5t181 81.5q123 0 182 -81.5t59 -224.5q0 -144 -59 -226t-182 -82zM363 616l-49 52l-53 60h-4q-20 -25 -53 -60 l-49 -52l-83 94l142 112h90l142 -112z" />
<glyph unicode="&#xf5;" horiz-adv-x="521" d="M260 135q25 0 41 14t22.5 41t8.5 49t2 55q0 31 -2 53t-8.5 49.5t-22.5 42t-41 14.5q-73 0 -73 -159t73 -159zM260 -14q-122 0 -181 82t-59 226q0 143 59 224.5t181 81.5q123 0 182 -81.5t59 -224.5q0 -144 -59 -226t-182 -82zM325 774h91q0 -128 -104 -128 q-27 0 -62.5 12t-43.5 12q-14 0 -14 -15h-91q0 63 23 96t80 33q28 0 63.5 -12.5t43.5 -12.5q14 0 14 15z" />
<glyph unicode="&#xf6;" horiz-adv-x="521" d="M260 135q25 0 41 14t22.5 41t8.5 49t2 55q0 31 -2 53t-8.5 49.5t-22.5 42t-41 14.5q-73 0 -73 -159t73 -159zM260 -14q-122 0 -181 82t-59 226q0 143 59 224.5t181 81.5q123 0 182 -81.5t59 -224.5q0 -144 -59 -226t-182 -82zM244 706q0 -33 -21 -51.5t-55 -18.5t-55 19 t-21 51q0 33 21.5 53.5t54.5 20.5q34 0 55 -20t21 -54zM432 706q0 -33 -21 -51.5t-55 -18.5t-55 19t-21 51q0 33 21.5 53.5t54.5 20.5q34 0 55 -20t21 -54z" />
<glyph unicode="&#xf7;" horiz-adv-x="355" d="M345 281h-335v145h335v-145zM182 462q-24 0 -41.5 17.5t-17.5 41.5t17.5 41.5t41.5 17.5t41 -17.5t17 -41.5t-17 -41.5t-41 -17.5zM182 122q-24 0 -41.5 17.5t-17.5 41.5t17.5 41.5t41.5 17.5t41 -17.5t17 -41.5t-17 -41.5t-41 -17.5z" />
<glyph unicode="&#xf8;" horiz-adv-x="521" d="M260 -14q-122 0 -181 82t-59 226q0 143 59 224.5t181 81.5q123 0 182 -81.5t59 -224.5q0 -144 -59 -226t-182 -82zM328 378l-122 -206q18 -37 54 -37q25 0 41 14t22.5 41t8.5 49t2 55q0 52 -6 84zM191 224l119 202q-19 27 -50 27q-73 0 -73 -159q0 -37 4 -70z" />
<glyph unicode="&#xf9;" horiz-adv-x="545" d="M513 0h-143q-13 29 -16 72h-2q-44 -86 -135 -86q-89 0 -132 61t-43 163v376h166v-384q0 -34 16 -57.5t51 -23.5q31 0 46 19.5t17 46.5v399h166v-507q0 -24 2 -43.5t4 -27.5zM370 608l-240 102l56 119l232 -118z" />
<glyph unicode="&#xfa;" horiz-adv-x="545" d="M513 0h-143q-13 29 -16 72h-2q-44 -86 -135 -86q-89 0 -132 61t-43 163v376h166v-384q0 -34 16 -57.5t51 -23.5q31 0 46 19.5t17 46.5v399h166v-507q0 -24 2 -43.5t4 -27.5zM416 710l-240 -102l-48 103l232 118z" />
<glyph unicode="&#xfb;" horiz-adv-x="545" d="M513 0h-143q-13 29 -16 72h-2q-44 -86 -135 -86q-89 0 -132 61t-43 163v376h166v-384q0 -34 16 -57.5t51 -23.5q31 0 46 19.5t17 46.5v399h166v-507q0 -24 2 -43.5t4 -27.5zM376 616l-49 52l-53 60h-4q-20 -25 -53 -60l-49 -52l-83 94l142 112h90l142 -112z" />
<glyph unicode="&#xfc;" horiz-adv-x="545" d="M513 0h-143q-13 29 -16 72h-2q-44 -86 -135 -86q-89 0 -132 61t-43 163v376h166v-384q0 -34 16 -57.5t51 -23.5q31 0 46 19.5t17 46.5v399h166v-507q0 -24 2 -43.5t4 -27.5zM254 706q0 -33 -21 -51.5t-55 -18.5t-55 19t-21 51q0 33 21.5 53.5t54.5 20.5q34 0 55 -20 t21 -54zM442 706q0 -33 -21 -51.5t-55 -18.5t-55 19t-21 51q0 33 21.5 53.5t54.5 20.5q34 0 55 -20t21 -54z" />
<glyph unicode="&#xfd;" horiz-adv-x="549" d="M213 -13l-188 599h193l47 -295q3 -21 7 -48t6 -43t2 -17h2q1 7 16 108l43 295h180l-153 -596q-25 -100 -73.5 -150t-127.5 -50q-43 0 -81 13.5t-55 26.5l-17 14l82 132q22 -32 59 -32q43 0 58 43zM416 719l-240 -102l-48 103l232 118z" />
<glyph unicode="&#xfe;" horiz-adv-x="524" d="M206 -200h-166v930h166v-125l-3 -90h2q25 85 119 85q86 0 133 -84t47 -221q0 -138 -48 -223.5t-135 -85.5q-82 0 -114 51h-2q1 -29 1 -40v-197zM206 384v-205q0 -30 15 -52t44 -22q25 0 41 17.5t22 51.5t7.5 56t1.5 58q0 33 -1.5 54t-7.5 54t-22 50.5t-42 17.5 q-30 0 -44 -24.5t-14 -55.5z" />
<glyph unicode="&#xff;" horiz-adv-x="504" d="M193 -13l-188 599h193l47 -295q3 -21 7 -48t6 -43t2 -17h2q1 7 16 108l43 295h180l-153 -596q-25 -100 -73.5 -150t-127.5 -50q-43 0 -81 13.5t-55 26.5l-17 14l82 132q22 -32 59 -32q43 0 58 43zM244 704q0 -33 -21 -51.5t-55 -18.5t-55 19t-21 51q0 33 21.5 53.5 t54.5 20.5q34 0 55 -20t21 -54zM432 704q0 -33 -21 -51.5t-55 -18.5t-55 19t-21 51q0 33 21.5 53.5t54.5 20.5q34 0 55 -20t21 -54z" />
<glyph unicode="&#x131;" horiz-adv-x="298" d="M232 0h-166v586h166v-586z" />
<glyph unicode="&#x141;" horiz-adv-x="422" d="M410 0h-336v270l-56 -26l-14 35l70 31v390h166v-318l85 38l14 -35l-99 -44v-181h170v-160z" />
<glyph unicode="&#x142;" horiz-adv-x="270" d="M218 0h-166v245l-38 -16l-14 35l52 22v444h166v-372l38 17l14 -35l-52 -23v-317z" />
<glyph unicode="&#x152;" horiz-adv-x="773" d="M707 0h-428q-56 0 -99 19t-68.5 50t-41.5 77.5t-22 95t-6 108.5t6 108.5t22 95t41.5 77.5t68.5 50t99 19h428v-152h-223v-134h186v-146h-186v-116h223v-152zM318 152v396h-30q-44 0 -62 -48.5t-18 -149.5q0 -100 18.5 -149t61.5 -49h30z" />
<glyph unicode="&#x153;" horiz-adv-x="827" d="M798 252h-289q8 -118 89 -118q28 0 46 14.5t41 48.5l108 -100q-89 -107 -180 -107q-131 0 -187 148h-2q-40 -149 -175 -149q-104 0 -162 78.5t-58 225.5q0 139 57.5 221t161.5 82q71 0 114 -40t61 -103h3q19 60 66 101.5t110 41.5q49 0 86 -21.5t57.5 -53.5t33 -77 t16 -82.5t3.5 -79.5v-30zM271 139q24 0 39.5 14t22 40t8.5 47.5t2 52.5t-2 52.5t-8.5 48t-22.5 41t-40 14.5t-40 -14t-23 -39.5t-9 -47.5t-2 -51q0 -158 75 -158zM511 347h130q-2 125 -62 125q-61 0 -68 -125z" />
<glyph unicode="&#x160;" horiz-adv-x="492" d="M152 215l-139 -84q73 -145 228 -145q98 0 161 57t63 153q0 62 -28.5 109t-68.5 74t-80.5 48t-69 44t-28.5 50q0 20 13.5 33t34.5 13q29 0 51.5 -23.5t30.5 -58.5l132 78q-28 73 -82.5 112t-128.5 39q-95 0 -154.5 -58t-59.5 -145q0 -48 20 -88.5t50.5 -65.5t65.5 -48.5 t65.5 -40t50.5 -37.5t20 -43q0 -20 -13.5 -32.5t-38.5 -12.5q-31 0 -56.5 20t-38.5 52zM139 968l49 -52l53 -60h4q20 25 53 60l49 52l83 -94l-142 -112h-90l-142 112z" />
<glyph unicode="&#x161;" horiz-adv-x="470" d="M445 509l-109 -100q-13 20 -42 37t-57 17q-21 0 -33 -9.5t-12 -24.5q0 -21 27 -36.5t66 -29.5t77.5 -34t65.5 -59.5t27 -95.5q0 -83 -55.5 -135.5t-156.5 -52.5q-139 0 -227 107l107 114q67 -79 129 -79q42 0 42 34q0 21 -27 39t-65.5 34.5t-77 37t-65.5 58.5t-27 89 q0 76 54.5 128.5t156.5 52.5q125 0 202 -92zM137 848l49 -52l53 -60h4q20 25 53 60l49 52l83 -94l-142 -112h-90l-142 112z" />
<glyph unicode="&#x178;" horiz-adv-x="504" d="M334 0v191l167 509h-179l-51 -209q-4 -18 -8.5 -46t-6.5 -47l-3 -19h-2q-5 71 -16 112l-55 209h-177l166 -509v-191h165zM234 822q0 -33 -21 -51.5t-55 -18.5t-55 19t-21 51q0 33 21.5 53.5t54.5 20.5q34 0 55 -20t21 -54zM422 822q0 -33 -21 -51.5t-55 -18.5t-55 19 t-21 51q0 33 21.5 53.5t54.5 20.5q34 0 55 -20t21 -54z" />
<glyph unicode="&#x17d;" horiz-adv-x="456" d="M426 0h-421v2l176 428l51 109v1h-184v160h429v-2l-178 -436q-11 -28 -24 -53t-20 -36l-7 -11v-2h178v-160zM164 958l49 -52l53 -60h4q20 25 53 60l49 52l83 -94l-142 -112h-90l-142 112z" />
<glyph unicode="&#x17e;" horiz-adv-x="452" d="M422 0h-417v2l158 344l40 78v2h-158v160h407v-2l-154 -335l-45 -87v-2h169v-160zM145 847l49 -52l53 -60h4q20 25 53 60l49 52l83 -94l-142 -112h-90l-142 112z" />
<glyph unicode="&#x192;" horiz-adv-x="443" d="M408 370v-38h-96q32 -90 32 -145q0 -85 -58.5 -143t-162.5 -58q-27 0 -55.5 4t-43.5 8l-14 5l39 149q19 -13 51 -13q64 0 64 70q0 41 -31 123h-108v38h94q-32 90 -32 155q0 87 52.5 139.5t158.5 52.5q30 0 59.5 -4.5t44.5 -8.5l15 -4l-39 -149q-17 13 -49 13 q-29 0 -45.5 -17.5t-16.5 -50.5q0 -44 31 -126h110z" />
<glyph unicode="&#x2c6;" horiz-adv-x="362" d="M285 731l-49 52l-53 60h-4q-20 -25 -53 -60l-49 -52l-83 94l142 112h90l142 -112z" />
<glyph unicode="&#x2c7;" horiz-adv-x="349" d="M74 958l49 -52l53 -60h4q20 25 53 60l49 52l83 -94l-142 -112h-90l-142 112z" />
<glyph unicode="&#x2d8;" horiz-adv-x="338" d="M204 910l135 9q2 -22 2 -30q0 -71 -43 -109.5t-129 -38.5t-129.5 38t-43.5 108q0 8 2 32l135 -9q-4 -13 -4 -25q0 -40 40 -40q39 0 39 40q0 5 -4 25z" />
<glyph unicode="&#x2d9;" horiz-adv-x="304" d="M227 814q0 -32 -21 -51.5t-55 -19.5t-55.5 19t-21.5 52t21.5 53t55.5 20q33 0 54.5 -20t21.5 -53z" />
<glyph unicode="&#x2da;" horiz-adv-x="251" d="M258 876q0 -58 -36 -91.5t-95 -33.5t-95.5 33.5t-36.5 91.5q0 55 37 90.5t95 35.5t94.5 -35t36.5 -91zM160 876q0 15 -9.5 24t-23.5 9q-15 0 -24.5 -9t-9.5 -24t9.5 -24t24.5 -9q14 0 23.5 9t9.5 24z" />
<glyph unicode="&#x2db;" horiz-adv-x="257" d="M195 -92l33 -155q-35 -10 -73 -10q-78 0 -121.5 45t-43.5 115q0 62 36 111t106 65l28 -79q-48 -15 -48 -54q0 -18 12.5 -30.5t37.5 -12.5q17 0 33 5z" />
<glyph unicode="&#x2dc;" horiz-adv-x="399" d="M266 890h91q0 -128 -104 -128q-27 0 -62.5 12t-43.5 12q-14 0 -14 -15h-91q0 63 23 96t80 33q28 0 63.5 -12.5t43.5 -12.5q14 0 14 15z" />
<glyph unicode="&#x2dd;" horiz-adv-x="327" d="M305 751h-129l8 153h140zM137 751h-129l8 153h140z" />
<glyph unicode="&#x3c0;" horiz-adv-x="764" d="M745 350q0 -153 -104 -256.5t-257 -103.5q-154 0 -258 103t-104 257q0 153 104 256.5t258 103.5q153 0 257 -103.5t104 -256.5zM384 81q113 0 187 77t74 192t-74 192t-187 77q-115 0 -190 -77t-75 -192t75 -192t190 -77zM373 195h-96v322h112q134 0 134 -115 q0 -114 -134 -114h-16v-93zM373 379h19q22 0 28.5 6t6.5 17q0 12 -6.5 18t-28.5 6h-19v-47z" />
<glyph unicode="&#x2013;" horiz-adv-x="355" d="M345 233h-335v145h335v-145z" />
<glyph unicode="&#x2014;" horiz-adv-x="554" d="M544 233h-534v145h534v-145z" />
<glyph unicode="&#x2018;" horiz-adv-x="249" d="M222 711l-9 -63q-14 2 -21 2q-31 0 -53.5 -19.5t-23.5 -53.5l2 -1q8 4 27 4q34 0 59.5 -26t25.5 -67q0 -42 -27.5 -71t-71.5 -29q-46 0 -74.5 34t-28.5 98q0 84 48.5 139.5t120.5 55.5q20 -2 26 -3z" />
<glyph unicode="&#x2019;" horiz-adv-x="249" d="M27 391l9 63q14 -2 21 -2q31 0 53.5 19.5t23.5 53.5l-2 1q-8 -4 -27 -4q-34 0 -59.5 26t-25.5 67q0 42 27.5 71t71.5 29q46 0 74.5 -34t28.5 -98q0 -84 -48.5 -139.5t-120.5 -55.5q-20 2 -26 3z" />
<glyph unicode="&#x201a;" horiz-adv-x="281" d="M40 -135l9 63q14 -2 21 -2q31 0 53.5 19.5t23.5 53.5l-2 1q-8 -4 -27 -4q-34 0 -59.5 26t-25.5 67q0 42 27.5 71t71.5 29q46 0 74.5 -34t28.5 -98q0 -84 -48.5 -139.5t-120.5 -55.5q-20 2 -26 3z" />
<glyph unicode="&#x201c;" horiz-adv-x="480" d="M222 711l-9 -63q-14 2 -21 2q-31 0 -53.5 -19.5t-23.5 -53.5l2 -1q8 4 27 4q34 0 59.5 -26t25.5 -67q0 -42 -27.5 -71t-71.5 -29q-46 0 -74.5 34t-28.5 98q0 84 48.5 139.5t120.5 55.5q20 -2 26 -3zM453 711l-9 -63q-14 2 -21 2q-31 0 -53.5 -19.5t-23.5 -53.5l2 -1 q8 4 27 4q34 0 59.5 -26t25.5 -67q0 -42 -27.5 -71t-71.5 -29q-46 0 -74.5 34t-28.5 98q0 84 48.5 139.5t120.5 55.5q20 -2 26 -3z" />
<glyph unicode="&#x201d;" horiz-adv-x="480" d="M27 390l9 63q14 -2 21 -2q31 0 53.5 19.5t23.5 53.5l-2 1q-8 -4 -27 -4q-34 0 -59.5 26t-25.5 67q0 42 27.5 71t71.5 29q46 0 74.5 -34t28.5 -98q0 -84 -48.5 -139.5t-120.5 -55.5q-20 2 -26 3zM258 390l9 63q14 -2 21 -2q31 0 53.5 19.5t23.5 53.5l-2 1q-8 -4 -27 -4 q-34 0 -59.5 26t-25.5 67q0 42 27.5 71t71.5 29q46 0 74.5 -34t28.5 -98q0 -84 -48.5 -139.5t-120.5 -55.5q-20 2 -26 3z" />
<glyph unicode="&#x201e;" horiz-adv-x="475" d="M31 -135l9 63q14 -2 21 -2q31 0 53.5 19.5t23.5 53.5l-2 1q-8 -4 -27 -4q-34 0 -59.5 26t-25.5 67q0 42 27.5 71t71.5 29q46 0 74.5 -34t28.5 -98q0 -84 -48.5 -139.5t-120.5 -55.5q-20 2 -26 3zM260 -135l9 63q14 -2 21 -2q31 0 53.5 19.5t23.5 53.5l-2 1q-8 -4 -27 -4 q-34 0 -59.5 26t-25.5 67q0 42 27.5 71t71.5 29q46 0 74.5 -34t28.5 -98q0 -84 -48.5 -139.5t-120.5 -55.5q-20 2 -26 3z" />
<glyph unicode="&#x2020;" horiz-adv-x="497" d="M332 384v-484h-167v518q-18 0 -30.5 -11t-16.5 -29h-106q2 76 29.5 113t86.5 37q18 0 37 -3v275h167v-309q18 0 30.5 11t16.5 29h106q-2 -77 -30 -113.5t-87 -36.5q-16 0 -36 3z" />
<glyph unicode="&#x2021;" horiz-adv-x="497" d="M332 274v-374h-167v408q-18 0 -30.5 -11t-16.5 -29h-106q2 76 29.5 113t86.5 37q18 0 37 -3v93q-18 0 -30.5 -11t-16.5 -29h-106q2 76 29.5 113t86.5 37q18 0 37 -3v185h167v-219q18 0 30.5 11t16.5 29h106q-2 -77 -30 -113.5t-87 -36.5q-16 0 -36 3v-93q18 0 30.5 11 t16.5 29h106q-2 -77 -30 -113.5t-87 -36.5q-16 0 -36 3z" />
<glyph unicode="&#x2022;" horiz-adv-x="359" d="M181 212q-69 0 -120 51t-51 120t51 119.5t120 50.5q70 0 119 -50t49 -120q0 -69 -49.5 -120t-118.5 -51z" />
<glyph unicode="&#x2026;" horiz-adv-x="756" d="M138 -14q-40 0 -70 30t-30 70t29.5 69.5t70.5 29.5q40 0 69 -29t29 -70t-29 -70.5t-69 -29.5zM377 -14q-41 0 -70.5 30t-29.5 70t29.5 69.5t70.5 29.5q40 0 69 -29t29 -70t-29 -70.5t-69 -29.5zM618 -14q-40 0 -70 30t-30 70t29.5 69.5t70.5 29.5q40 0 69 -29t29 -70 t-29 -70.5t-69 -29.5z" />
<glyph unicode="&#x2030;" horiz-adv-x="922" d="M766 -14q-128 0 -128 172q0 173 128 173q129 0 129 -173q0 -172 -129 -172zM766 96q17 0 17 62q0 61 -17 61t-17 -61q0 -62 17 -62zM174 0l440 700h-142l-438 -700h140zM166 369q-128 0 -128 172q0 173 128 173q129 0 129 -173q0 -172 -129 -172zM166 479q17 0 17 62 q0 61 -17 61t-17 -61q0 -62 17 -62zM482 -14q-128 0 -128 172q0 173 128 173q129 0 129 -173q0 -172 -129 -172zM482 96q17 0 17 62q0 61 -17 61t-17 -61q0 -62 17 -62z" />
<glyph unicode="&#x2039;" horiz-adv-x="233" d="M220 258l-106 -90l-94 132v104l94 132l106 -89l-51 -58l-38 -35v-2q20 -14 38 -36z" />
<glyph unicode="&#x203a;" horiz-adv-x="233" d="M119 168l-106 90l51 58q18 22 38 36v2q-25 21 -38 35l-51 58l106 89l94 -132v-104z" />
<glyph unicode="&#x2044;" horiz-adv-x="471" d="M470 700l-364 -700h-108l363 700h109z" />
<glyph unicode="&#x20ac;" horiz-adv-x="521" d="M363 211l134 -73q-30 -73 -77 -112.5t-129 -39.5q-220 0 -232 307h-49v34h48v15v31h-48v34h50q18 307 235 307q154 0 210 -162l-139 -65q-12 41 -27.5 58t-40.5 17q-35 0 -52 -35t-21 -120h122v-34h-123v-30v-16h123v-34h-122q3 -83 19 -119t51 -36q23 0 39 16.5t29 56.5 z" />
<glyph unicode="&#x2116;" horiz-adv-x="988" d="M775 189q-88 0 -134.5 61.5t-46.5 165.5t46.5 165.5t134.5 61.5t134 -61.5t46 -165.5t-46 -165.5t-134 -61.5zM775 334q34 0 34 83q0 82 -34 82t-34 -82q0 -83 34 -83zM946 0v125h-346v-125h346zM534 0h-165l-120 268q-10 23 -21 51.5t-16 46.5l-6 17h-2q2 -67 2 -124 v-259h-156v700h170l109 -240l48 -120h2q-2 72 -2 131v229h157v-700z" />
<glyph unicode="&#x2122;" horiz-adv-x="591" d="M170 385h-96v224h-54v91h207v-91h-57v-224zM571 385h-92v114l3 53h-2q-13 -33 -21 -48l-44 -75h-2l-43 75l-24 48h-2q3 -37 3 -53v-114h-92v315h104l38 -70l16 -40h2q5 19 15 39l39 71h102v-315z" />
<glyph unicode="&#x2212;" horiz-adv-x="299" d="M289 233h-279v145h279v-145z" />
<glyph unicode="&#x2260;" horiz-adv-x="318" d="M308 207h-168l-25 -86h-43l24 86h-86v124h122l14 49h-136v124h172l25 87h44l-25 -87h82v-124h-118l-14 -49h132v-124z" />
<glyph unicode="&#xe000;" horiz-adv-x="585" d="M0 585h585v-585h-585v585z" />
<glyph unicode="&#xf8ff;" horiz-adv-x="1412" d="M109 424l16 36q8 -4 14 -4q26 0 26 35v148h40v-145q0 -38 -18 -57t-48 -19q-17 0 -30 6zM189 72h-40v179h-38v38h117v-38h-39v-179zM514 421h-116v218h116v-39h-75v-56h63v-39h-63v-45h75v-39zM456 72h-61v217h60q70 0 70 -59q0 -33 -26 -44v-1q32 -13 32 -48 q0 -65 -75 -65zM436 110h23q34 0 34 29q0 26 -34 26h-23v-55zM436 201h14q34 0 34 27q0 23 -34 23h-14v-50zM320 421h-40v179h-38v39h116v-39h-38v-179zM374 72h-43l-8 34h-50l-7 -34h-42l52 218h46zM317 143l-18 80v8l-1 -8l-17 -80h36zM548 336h-455v39h455v-39zM1257 201 q-6 -3 -13.5 -4t-12 0t-4.5 3q0 1 3 4l6 6q7 5 12.5 10t15 15t16.5 20t15 25.5t13.5 31.5t9 37t3.5 44q0 51 -11 96.5t-37 90t-78 71t-124 26.5q-119 0 -178.5 -51.5t-59.5 -105.5q0 -23 -13 -27q-86 -31 -86 -121q0 -37 15 -70t36 -44q12 -7 5 -8.5t-19 6.5q-58 41 -58 114 q0 45 22 83.5t59 55.5q12 5 12 15q0 69 71 128.5t194 59.5q137 0 217 -81t80 -238q0 -37 -10.5 -69.5t-24 -52.5t-31 -36.5t-27.5 -23t-18 -10.5zM1005 162l-5 23q-2 5 2 11q9 17 9 36q0 10 -7.5 14t-15 0t-8.5 -15q-1 -13 4 -46q0 -9 -1 -11q-8 -20 -20 -38q-3 -5 -4 1 q-8 38 -13 58q0 6 2 10q7 14 7 27q0 16 -9 21.5t-18 -2t-9 -22.5q0 -9 11 -40q2 -6 0 -9q-3 -4 -10 -15t-11 -18q-6 -11 -10 -1q-10 30 -16 43q-3 6 0 12q5 14 5 35q0 20 -13 19.5t-18 -18.5l-1 -10q0 -19 10 -41q3 -6 1 -9l-13 -27q-3 -4 -6 1q-12 22 -25 39q-3 4 -3 10 q1 9 1 23q-1 20 -17 21q-12 1 -14 -12q0 -4 1 -9q1 -7 16 -36q1 -3 1 -10q-17 -90 -8 -121q10 -35 51.5 -50.5t142.5 -15.5q178 0 183 82q0 2 1.5 22.5t3 36.5t5.5 41t9.5 44.5t14.5 40t21 33.5q8 9 -2 11q-6 2 -10 -2q-53 -40 -71 -220q-2 -17 -18 -28t-45.5 -15.5 t-54.5 -6t-61 -1.5q-35 0 -58.5 1.5t-49 6t-39.5 15.5t-16 28q-3 34 7 86q2 7 4 1q11 -22 17 -40q1 -3 0 -8q-2 -12 -2 -21q0 -23 13 -23q15 0 15 22q0 16 -5 32q-3 8 0 14q10 18 13 23q3 4 5 1q11 -25 16 -44q2 -7 0 -14q-4 -15 -4 -24q0 -20 12 -20q16 0 16 26q0 14 -6 29 q-2 5 3 15l23 41q5 -14 15 -58q0 -7 -3 -14q-6 -13 -6 -23q0 -17 13 -18q13 2 14 21q0 16 -4 36q0 5 2 9l19 34q3 4 4 -1l5 -24q1 -4 -1 -10q-6 -17 -6 -30q0 -16 13 -16q15 0 15 25q0 12 -3 33q-1 9 2 14q11 17 24 26q6 4 4.5 6t-8.5 -4q-13 -10 -22 -21q-4 -7 -6 2z M1064 262q48 0 71 33t23 76q0 39 -25.5 67t-66.5 28q-42 0 -71.5 -27.5t-29.5 -68.5q0 -46 25 -77t74 -31zM852 269q-44 0 -71 26t-27 73q0 38 24.5 68t71.5 30q45 0 71.5 -23t26.5 -67q0 -50 -26.5 -78.5t-69.5 -28.5zM772 134q8 5 7 9t-8 5q-91 8 -126 70t-35 165v39v37.5 t-0.5 32.5t-1 32t-2 26.5t-4 27t-6 22.5t-8 22.5t-10.5 19.5q-17 29 -74 49.5t-139 20.5q-65 0 -141.5 -10t-98.5 -22q-38 -19 -59.5 -127t-21.5 -270q0 -64 2.5 -106.5t14.5 -73t19 -46t35 -27.5t43 -15t61 -10q3 -1 5 -1q67 -10 119 -10q56 0 129 10q27 4 38.5 6t28.5 7.5 t24 13t15 20.5t13 32q9 36 44 30q75 -11 137 21zM923 330v80h-15l-16 -32h-1l-17 32h-14v-80h15v51h1l14 -25h3l14 25h1v-51h15zM1042 324h-15l-9 29h-2l-9 -29h-15l15 40l-15 40h15l9 -30h2l9 30h15l-15 -40zM1134 324h-15v80h15v-80zM843 330v80h-15l-16 -32h-1l-17 32 h-14v-80h15v51h1l14 -25h3l14 25h1v-51h15zM1067 324h-15v80h15v-80zM1100 324h-15v80h15v-80z" />
<glyph unicode="&#xfb01;" horiz-adv-x="613" d="M237 0h-166v450h-51v136h51q0 99 59 151t155 52q21 0 44 -3l-17 -134q-13 3 -25 3q-50 0 -50 -59v-10h79v-136h-79v-450zM555 0h-166v586h166v-586zM475 631q-41 0 -70.5 29.5t-29.5 70.5q0 40 29.5 69.5t70.5 29.5q40 0 69 -29t29 -70t-29 -70.5t-69 -29.5z" />
<glyph unicode="&#xfb02;" horiz-adv-x="678" d="M250 0h-166v450h-51v136h51q0 99 59 151t155 52q22 0 44 -3l-17 -134q-14 3 -25 3q-50 0 -50 -59v-10h79v-136h-79v-450zM614 0h-166v730h166v-730z" />
<glyph horiz-adv-x="532" d="M319 192v175q0 83 -59 83q-25 0 -41.5 -14.5t-22.5 -42.5t-7.5 -47.5t-1.5 -49.5q0 -27 0.5 -42.5t4.5 -39.5t11 -37.5t21.5 -23.5t35.5 -10q28 0 43.5 16.5t15.5 32.5zM494 0h-142q-12 26 -16 57h-2q-47 -71 -119 -71q-96 0 -145.5 86.5t-49.5 228.5q0 135 53 216.5 t138 81.5q90 0 125 -83h2q1 16 4 33.5t6 26.5l3 10h146q-12 -34 -12 -89v-417q0 -50 9 -80z" />
<glyph horiz-adv-x="532" d="M319 192v175q0 83 -59 83q-25 0 -41.5 -14.5t-22.5 -42.5t-7.5 -47.5t-1.5 -49.5q0 -27 0.5 -42.5t4.5 -39.5t11 -37.5t21.5 -23.5t35.5 -10q28 0 43.5 16.5t15.5 32.5zM494 0h-142q-12 26 -16 57h-2q-47 -71 -119 -71q-96 0 -145.5 86.5t-49.5 228.5q0 135 53 216.5 t138 81.5q90 0 125 -83h2q1 16 4 33.5t6 26.5l3 10h146q-12 -34 -12 -89v-417q0 -50 9 -80zM356 617l-240 102l56 119l232 -118z" />
<glyph horiz-adv-x="532" d="M319 192v175q0 83 -59 83q-25 0 -41.5 -14.5t-22.5 -42.5t-7.5 -47.5t-1.5 -49.5q0 -27 0.5 -42.5t4.5 -39.5t11 -37.5t21.5 -23.5t35.5 -10q28 0 43.5 16.5t15.5 32.5zM494 0h-142q-12 26 -16 57h-2q-47 -71 -119 -71q-96 0 -145.5 86.5t-49.5 228.5q0 135 53 216.5 t138 81.5q90 0 125 -83h2q1 16 4 33.5t6 26.5l3 10h146q-12 -34 -12 -89v-417q0 -50 9 -80zM399 719l-240 -102l-48 103l232 118z" />
<glyph horiz-adv-x="532" d="M319 192v175q0 83 -59 83q-25 0 -41.5 -14.5t-22.5 -42.5t-7.5 -47.5t-1.5 -49.5q0 -27 0.5 -42.5t4.5 -39.5t11 -37.5t21.5 -23.5t35.5 -10q28 0 43.5 16.5t15.5 32.5zM494 0h-142q-12 26 -16 57h-2q-47 -71 -119 -71q-96 0 -145.5 86.5t-49.5 228.5q0 135 53 216.5 t138 81.5q90 0 125 -83h2q1 16 4 33.5t6 26.5l3 10h146q-12 -34 -12 -89v-417q0 -50 9 -80zM368 623l-49 52l-53 60h-4q-20 -25 -53 -60l-49 -52l-83 94l142 112h90l142 -112z" />
<glyph horiz-adv-x="532" d="M319 192v175q0 83 -59 83q-25 0 -41.5 -14.5t-22.5 -42.5t-7.5 -47.5t-1.5 -49.5q0 -27 0.5 -42.5t4.5 -39.5t11 -37.5t21.5 -23.5t35.5 -10q28 0 43.5 16.5t15.5 32.5zM494 0h-142q-12 26 -16 57h-2q-47 -71 -119 -71q-96 0 -145.5 86.5t-49.5 228.5q0 135 53 216.5 t138 81.5q90 0 125 -83h2q1 16 4 33.5t6 26.5l3 10h146q-12 -34 -12 -89v-417q0 -50 9 -80zM328 780h91q0 -128 -104 -128q-27 0 -62.5 12t-43.5 12q-14 0 -14 -15h-91q0 63 23 96t80 33q28 0 63.5 -12.5t43.5 -12.5q14 0 14 15z" />
<glyph horiz-adv-x="532" d="M319 192v175q0 83 -59 83q-25 0 -41.5 -14.5t-22.5 -42.5t-7.5 -47.5t-1.5 -49.5q0 -27 0.5 -42.5t4.5 -39.5t11 -37.5t21.5 -23.5t35.5 -10q28 0 43.5 16.5t15.5 32.5zM494 0h-142q-12 26 -16 57h-2q-47 -71 -119 -71q-96 0 -145.5 86.5t-49.5 228.5q0 135 53 216.5 t138 81.5q90 0 125 -83h2q1 16 4 33.5t6 26.5l3 10h146q-12 -34 -12 -89v-417q0 -50 9 -80zM247 703q0 -33 -21 -51.5t-55 -18.5t-55 19t-21 51q0 33 21.5 53.5t54.5 20.5q34 0 55 -20t21 -54zM435 703q0 -33 -21 -51.5t-55 -18.5t-55 19t-21 51q0 33 21.5 53.5t54.5 20.5 q34 0 55 -20t21 -54z" />
<glyph horiz-adv-x="532" d="M319 192v175q0 83 -59 83q-25 0 -41.5 -14.5t-22.5 -42.5t-7.5 -47.5t-1.5 -49.5q0 -27 0.5 -42.5t4.5 -39.5t11 -37.5t21.5 -23.5t35.5 -10q28 0 43.5 16.5t15.5 32.5zM494 0h-142q-12 26 -16 57h-2q-47 -71 -119 -71q-96 0 -145.5 86.5t-49.5 228.5q0 135 53 216.5 t138 81.5q90 0 125 -83h2q1 16 4 33.5t6 26.5l3 10h146q-12 -34 -12 -89v-417q0 -50 9 -80zM390 756q0 -58 -36 -91.5t-95 -33.5t-95.5 33.5t-36.5 91.5q0 55 37 90.5t95 35.5t94.5 -35t36.5 -91zM292 756q0 15 -9.5 24t-23.5 9q-15 0 -24.5 -9t-9.5 -24t9.5 -24t24.5 -9 q14 0 23.5 9t9.5 24z" />
<glyph horiz-adv-x="281" d="M230 0h-166v426h-43v160h209v-586z" />
<glyph horiz-adv-x="489" d="M455 0h-468v2l251 310q42 50 42 80q0 20 -14 35t-38 15q-54 0 -75 -68l-146 69q67 153 224 153q98 0 155.5 -57t57.5 -143q0 -78 -51 -150q-20 -28 -46 -55t-33 -31v-2q27 2 76 2h65v-160z" />
<glyph horiz-adv-x="507" d="M445 419l-129 -110v-2q81 -18 122.5 -70.5t41.5 -128.5q0 -94 -63 -157.5t-166 -63.5q-88 0 -141.5 36t-94.5 102l132 103q18 -40 39.5 -60.5t59.5 -20.5q31 0 48.5 19t17.5 48q0 38 -32.5 58t-103.5 4l-37 144l129 102h-223v164h400v-167z" />
<glyph horiz-adv-x="520" d="M432 -103h-166v124h-275v2l275 570h166v-412h50v-160h-50v-124zM279 167v180h-3q-6 -26 -15 -57l-20 -69l-17 -52v-2h55z" />
<glyph horiz-adv-x="518" d="M181 152l-129 64l37 370h353v-162h-215l-11 -91l2 -1q28 17 77 17q95 0 149 -62t54 -157q0 -101 -61 -172t-175 -71q-159 0 -220 146l137 74q27 -60 79 -60q34 0 53.5 21t19.5 52t-19.5 53t-54.5 22q-49 0 -76 -43z" />
<glyph horiz-adv-x="531" d="M269 136q83 0 83 88q0 39 -21.5 62.5t-61.5 23.5q-38 0 -59 -23.5t-21 -62.5q0 -41 20.5 -64.5t59.5 -23.5zM492 592l-131 -95q-24 38 -74 38q-100 0 -113 -167h2q22 32 58.5 52t77.5 20q96 0 147.5 -59t51.5 -150q0 -108 -63 -176.5t-179 -68.5q-118 0 -183.5 90.5 t-65.5 238.5q0 172 69 276t206 104q122 0 197 -103z" />
<glyph horiz-adv-x="455" d="M266 -103h-173l154 529h-230v160h456z" />
<glyph horiz-adv-x="544" d="M272 437q25 0 40 17.5t15 44.5q0 26 -14.5 42.5t-40.5 16.5t-40.5 -16.5t-14.5 -42.5q0 -27 15 -44.5t40 -17.5zM358 220q0 34 -22.5 57t-63.5 23t-63.5 -23t-22.5 -57t22.5 -57.5t63.5 -23.5t63.5 23.5t22.5 57.5zM409 383v-2q113 -52 113 -177q0 -92 -64 -155t-186 -63 q-123 0 -186.5 63t-63.5 156q0 121 113 176v2q-69 45 -69 133q0 73 54 126t152 53t152 -53t54 -126q0 -88 -69 -133z" />
<glyph horiz-adv-x="535" d="M264 276q38 0 59 23.5t21 62.5q0 41 -20.5 64.5t-59.5 23.5q-83 0 -83 -88q0 -39 21.5 -62.5t61.5 -23.5zM359 218h-2q-22 -32 -58.5 -52t-77.5 -20q-96 0 -147.5 59t-51.5 150q0 108 63 176.5t179 68.5q118 0 183.5 -90.5t65.5 -238.5q0 -172 -69 -276t-206 -104 q-122 0 -197 103l131 95q24 -38 74 -38q100 0 113 167z" />
<glyph horiz-adv-x="485" d="M259 -102h-94l11 98q-86 21 -150 97l107 114q67 -79 129 -79q42 0 42 34q0 21 -27 39t-65.5 34.5t-77 37t-65.5 58.5t-27 89q0 73 51.5 125t148.5 56l10 92h93l-12 -103q71 -21 122 -81l-109 -100q-13 20 -42 37t-57 17q-21 0 -33 -9.5t-12 -24.5q0 -21 27 -36.5 t66 -29.5t77.5 -34t65.5 -59.5t27 -95.5q0 -79 -51.5 -131t-144.5 -56z" />
<glyph d="M452 157l55 -130q-15 -19 -50.5 -34.5t-82.5 -15.5q-32 0 -85.5 11.5t-87.5 9.5t-58 -30l-100 116q20 17 30.5 48.5t10.5 55.5q0 57 -3 118.5t-3 74.5q0 107 54.5 163t155.5 56q79 0 126.5 -37t76.5 -120l-147 -60q-10 63 -53 63q-25 0 -39 -19.5t-14 -52.5 q0 -202 -22 -247l2 -1q40 13 77 7t83 -3t74 27zM360 287v-48h-328v48h328z" />
<glyph horiz-adv-x="500" d="M287 347v-34h-277v34h277zM287 267v-34h-277v34h277zM351 197l129 -98q-66 -113 -204 -113q-115 0 -176 80.5t-61 222.5q0 140 63.5 225.5t173.5 85.5q133 0 199 -106l-128 -108q-11 58 -63 58q-39 0 -57.5 -37t-18.5 -118q0 -150 76 -150q43 0 67 58z" />
<glyph horiz-adv-x="513" d="M340 177v-177h-169v177l-170 409h186l48 -170l20 -83h2q9 43 20 83l46 170h189zM453 257v-34h-395v34h395zM453 177v-34h-395v34h395z" />
<glyph horiz-adv-x="541" d="M270 135q84 0 84 159q0 27 -3.5 52t-12 50.5t-26 41t-42.5 15.5q-32 0 -51.5 -28t-25.5 -60.5t-6 -70.5q0 -24 3.5 -49t12 -51t26 -42.5t41.5 -16.5zM270 -14q-123 0 -186.5 82.5t-63.5 225.5q0 141 63.5 223.5t186.5 82.5q124 0 187.5 -82.5t63.5 -223.5 q0 -143 -63.5 -225.5t-187.5 -82.5z" />
</font>
</defs>
</svg>
