<?xml version="1.0" standalone="no"?>
<!DOCTYPE svg PUBLIC "-//W3C//DTD SVG 1.1//EN" "http://www.w3.org/Graphics/SVG/1.1/DTD/svg11.dtd" >
<svg xmlns="http://www.w3.org/2000/svg">
<metadata></metadata>
<defs>
<font id="mission_gothiclight" horiz-adv-x="475" >
<font-face units-per-em="1000" ascent="750" descent="-250" />
<missing-glyph horiz-adv-x="260" />
<glyph horiz-adv-x="547" />
<glyph horiz-adv-x="547" />
<glyph unicode="&#xd;" horiz-adv-x="260" />
<glyph unicode=" "  horiz-adv-x="260" />
<glyph unicode="&#x09;" horiz-adv-x="260" />
<glyph unicode="&#xa0;" horiz-adv-x="260" />
<glyph unicode="!" horiz-adv-x="205" d="M132 161h-60v539h60v-539zM141 28q0 -16 -11.5 -27t-27.5 -11t-27 11t-11 27t11 27.5t27 11.5t27.5 -11.5t11.5 -27.5z" />
<glyph unicode="&#x22;" horiz-adv-x="278" d="M95 492h-47l17 208h58zM202 492h-47l17 208h58z" />
<glyph unicode="#" horiz-adv-x="611" d="M548 275h-152l-35 -167h-60l35 167h-117l-35 -167h-60l35 167h-138l4 49h144l29 136h-140l5 49h145l33 156h59l-32 -156h117l33 156h59l-32 -156h145l-5 -49h-150l-29 -136h146zM346 324l29 136h-117l-29 -136h117z" />
<glyph unicode="$" horiz-adv-x="492" d="M224 -95h-47l9 93q-53 13 -92.5 44.5t-59.5 76.5l53 33q21 -48 64.5 -76t98.5 -28q67 0 103 37t36 91q0 36 -18.5 63.5t-47.5 45.5t-64 34t-70.5 34t-64.5 40t-47.5 57.5t-18.5 81.5q0 77 50.5 127.5t136.5 50.5q12 0 18 -1l12 104h48l-12 -112q90 -26 129 -123l-54 -29 q-16 44 -52.5 73t-90.5 29q-53 0 -88 -34t-35 -83q0 -36 18 -63t47.5 -44.5t64.5 -33t70 -33.5t64.5 -40.5t47.5 -58.5t18 -83q0 -82 -53.5 -135t-146.5 -53q-12 0 -17 1z" />
<glyph unicode="%" horiz-adv-x="614" d="M140 0h-60l393 700h60zM165 366q-63 0 -93 46.5t-30 125.5t30.5 125.5t92.5 46.5q63 0 93 -46.5t30 -125.5t-30 -125.5t-93 -46.5zM165 414q70 0 70 124q0 123 -70 123q-69 0 -69 -123q0 -124 69 -124zM448 -10q-63 0 -93 46.5t-30 125.5t30 125.5t93 46.5t93 -46.5 t30 -125.5t-30 -125.5t-93 -46.5zM448 39q70 0 70 123t-70 123q-69 0 -69 -123t69 -123z" />
<glyph unicode="&#x26;" horiz-adv-x="573" d="M427 84h-2q-60 -98 -175 -98q-93 0 -149.5 63.5t-56.5 152.5q0 74 40.5 133t110.5 77q-45 20 -69.5 58t-24.5 84q0 63 43.5 109.5t117.5 46.5q78 0 137 -61l-42 -48q-35 50 -94 50q-47 0 -74 -28.5t-27 -71.5q0 -46 32 -80.5t94 -35.5l133 -243h2q25 85 25 211 q0 7 -0.5 20t-0.5 19h60q0 -190 -49 -309q38 -72 79 -77q-1 -10 -4 -29t-4 -29q-31 1 -58.5 25.5t-43.5 60.5zM395 136l-136 247q-72 -5 -112.5 -57.5t-40.5 -120.5t40.5 -114.5t107.5 -46.5q93 0 141 92z" />
<glyph unicode="'" horiz-adv-x="156" d="M89 492h-47l17 208h58z" />
<glyph unicode="(" horiz-adv-x="219" d="M187 -61l-46 -31q-98 149 -98 443q0 292 98 441l46 -31q-86 -123 -86 -410q0 -289 86 -412z" />
<glyph unicode=")" horiz-adv-x="217" d="M70 -92l-46 31q86 123 86 412q0 287 -86 410l46 31q98 -149 98 -441q0 -294 -98 -443z" />
<glyph unicode="*" horiz-adv-x="391" d="M324 396l-47 -35q-42 61 -82 145q-1 -2 -31.5 -57.5t-51.5 -87.5l-47 35q37 50 109 119q0 1 -30.5 7t-70 14t-57.5 14l18 55q55 -19 147 -67l2 1q-17 106 -18 161h58q-1 -71 -18 -161l2 -2q96 50 148 68l18 -55q-34 -10 -93.5 -21.5t-65.5 -13.5q61 -56 110 -119z" />
<glyph unicode="+" horiz-adv-x="369" d="M212 185h-56v138h-133v52h133v138h56v-138h133v-52h-133v-138z" />
<glyph unicode="," horiz-adv-x="182" d="M51 -62q38 24 46 61q-1 1 -2 1q-4 -4 -11 -4q-13 0 -22.5 9t-9.5 24q0 14 9.5 23.5t24.5 9.5q18 0 28.5 -13.5t10.5 -37.5q0 -32 -16 -60t-42 -36q-3 4 -8.5 12t-7.5 11z" />
<glyph unicode="-" horiz-adv-x="291" d="M252 316h-213v55h213v-55z" />
<glyph unicode="." horiz-adv-x="183" d="M130 28q0 -16 -11.5 -27t-27.5 -11t-27 11t-11 27t11 27.5t27 11.5q17 0 28 -11.5t11 -27.5z" />
<glyph unicode="/" horiz-adv-x="302" d="M101 -60h-60l159 820h61z" />
<glyph unicode="0" horiz-adv-x="496" d="M248 -10q-196 0 -196 360t196 360t196 -360t-196 -360zM248 47q136 0 136 303t-136 303t-136 -303t136 -303z" />
<glyph unicode="1" horiz-adv-x="270" d="M174 0h-61v642h-64v58h125v-700z" />
<glyph unicode="2" horiz-adv-x="471" d="M413 0h-379l267 366q61 83 61 153q0 51 -31.5 91.5t-94.5 40.5q-53 0 -87.5 -36t-42.5 -104l-58 19q9 80 60.5 130t127.5 50q91 0 139 -55t48 -134q0 -93 -71 -188l-165 -224l-37 -49h263v-60z" />
<glyph unicode="3" horiz-adv-x="464" d="M180 365l-27 49l129 170q28 38 45 55v2h-266v59h353v-36l-192 -247l1 -2l26 -2q84 -6 129.5 -64.5t45.5 -139.5q0 -90 -52.5 -154.5t-144.5 -64.5q-76 0 -126 46t-68 117q11 4 30 13.5t26 12.5q14 -65 51 -98t89 -33q65 0 100 47t35 112q0 70 -39.5 115.5t-110.5 45.5 q-16 0 -34 -3z" />
<glyph unicode="4" horiz-adv-x="446" d="M323 0h-61v164h-253l253 536h61v-478h97v-58h-97v-164zM264 220v362h-2l-4 -10q-3 -9 -9.5 -25t-13.5 -30l-103 -220l-37 -75v-2h169z" />
<glyph unicode="5" horiz-adv-x="483" d="M47 153l57 26q13 -65 49 -98t88 -33q63 0 97.5 48t34.5 113q0 67 -34.5 113t-103.5 46q-60 0 -104 -38l-53 24l31 346h274v-62h-221l-24 -239l1 -1h1q46 28 100 28q100 0 147.5 -63t47.5 -153q0 -89 -52.5 -154.5t-142.5 -65.5q-76 0 -125.5 46t-67.5 117z" />
<glyph unicode="6" horiz-adv-x="500" d="M256 47q56 0 92 55.5t36 122.5q0 61 -32.5 102.5t-91.5 41.5q-63 0 -98.5 -42.5t-35.5 -114.5q0 -73 36.5 -119t93.5 -46zM427 576l-54 -28q-36 104 -117 104q-75 0 -113 -89.5t-31 -244.5h2q19 48 57.5 77t93.5 29q87 0 134 -58t47 -140q0 -92 -53 -164t-136 -72 q-58 0 -99.5 27.5t-63.5 79t-31.5 113t-9.5 141.5q0 162 48.5 260.5t153.5 98.5q124 0 172 -134z" />
<glyph unicode="7" horiz-adv-x="380" d="M164 0h-64l204 642h-289v58h372z" />
<glyph unicode="8" horiz-adv-x="484" d="M242 46q65 0 102 46.5t37 110.5q0 59 -37.5 107t-101.5 48t-101.5 -48t-37.5 -107q0 -64 37 -110.5t102 -46.5zM242 413q51 0 79.5 35.5t28.5 84.5q0 53 -28 86.5t-80 33.5t-80.5 -33.5t-28.5 -86.5q0 -48 29 -84t80 -36zM317 388v-2q58 -20 91 -71t33 -112 q0 -87 -53 -150t-146 -63t-146 63t-53 150q0 61 32.5 112t90.5 71v2q-43 19 -67.5 59.5t-24.5 87.5q0 74 45 124.5t123 50.5q77 0 122.5 -50.5t45.5 -124.5q0 -47 -25 -87.5t-68 -59.5z" />
<glyph unicode="9" horiz-adv-x="499" d="M387 379h-2q-20 -47 -58.5 -75.5t-92.5 -28.5q-91 0 -140 61t-49 147q0 91 53 159t144 68q204 0 204 -362q0 -78 -11 -140.5t-34 -112.5t-63 -77.5t-95 -27.5q-123 0 -171 133q18 10 54 28q36 -104 117 -104q78 0 110 83.5t34 248.5zM239 330q63 0 98.5 42.5t35.5 114.5 q0 73 -36.5 118.5t-94.5 45.5q-63 0 -99 -49t-36 -115q0 -65 34.5 -111t97.5 -46z" />
<glyph unicode=":" horiz-adv-x="183" d="M130 28q0 -16 -11.5 -27t-27.5 -11t-27 11t-11 27t11 27.5t27 11.5q17 0 28 -11.5t11 -27.5zM130 355q0 -16 -11.5 -27t-27.5 -11t-27 11t-11 27t11 27.5t27 11.5q17 0 28 -11t11 -28z" />
<glyph unicode=";" horiz-adv-x="182" d="M52 -62q38 24 46 61q-1 1 -2 1q-4 -4 -11 -4q-13 0 -22.5 9t-9.5 24q0 14 9.5 23.5t24.5 9.5q18 0 28.5 -13.5t10.5 -37.5q0 -32 -16 -60t-42 -36q-3 4 -8.5 12t-7.5 11zM130 355q0 -16 -11.5 -27t-27.5 -11t-27 11t-11 27t11 27.5t27 11.5q17 0 28 -11t11 -28z" />
<glyph unicode="&#x3c;" horiz-adv-x="315" d="M230 157l-203 187v21l203 187l37 -44l-115 -105q-45 -40 -56 -47v-2q20 -15 56 -48l115 -105z" />
<glyph unicode="=" horiz-adv-x="329" d="M290 255h-251v54h251v-54zM290 391h-251v54h251v-54z" />
<glyph unicode="&#x3e;" horiz-adv-x="315" d="M77 553l203 -187v-21l-203 -187l-37 44l115 105q45 40 56 47v2q-20 15 -56 48l-115 105z" />
<glyph unicode="?" horiz-adv-x="407" d="M233 160l-50 -33q-28 32 -28 86q0 44 26 88.5t57 75t57 71.5t26 81q0 57 -31 89.5t-86 32.5q-50 0 -86 -39t-40 -101l-57 20q9 80 59.5 129.5t122.5 49.5q85 0 132.5 -48.5t47.5 -133.5q0 -41 -17 -78.5t-41.5 -66t-49 -55t-41.5 -56t-17 -58.5q0 -33 16 -54zM202 -10 q-17 0 -28 11t-11 27t11.5 27t27.5 11t27 -11t11 -27t-11 -27t-27 -11z" />
<glyph unicode="@" horiz-adv-x="786" d="M494 258h-2q-16 -43 -46 -65.5t-67 -22.5q-59 0 -97 45.5t-38 134.5q0 79 40.5 129.5t106.5 50.5q67 0 96 -57h2l10 43h47q-10 -40 -10 -76v-108q0 -50 19.5 -78.5t51.5 -28.5q72 0 72 134q0 86 -30 160.5t-96.5 124.5t-157.5 50q-125 0 -206.5 -94.5t-81.5 -249.5 q0 -152 81 -247.5t207 -95.5q88 0 166 57q3 -8 7 -16.5t9 -18.5l8 -16q-79 -61 -190 -61q-152 0 -248 111.5t-96 286.5t96 286.5t248 111.5q85 0 152.5 -36t107 -93.5t59.5 -123.5t20 -133q0 -90 -32.5 -141t-97.5 -51q-83 0 -110 88zM385 224q39 0 66.5 35t27.5 103 q0 52 -24.5 82.5t-60.5 30.5q-42 0 -67 -32.5t-25 -92.5q0 -64 23.5 -95t59.5 -31z" />
<glyph unicode="A" horiz-adv-x="477" d="M463 0h-64l-48 171h-226l-48 -171h-63l196 700h57zM338 227l-80 294l-19 76h-2q-9 -44 -18 -76l-80 -294h199z" />
<glyph unicode="B" horiz-adv-x="529" d="M266 0h-182v700h151q208 0 208 -177q0 -111 -104 -146v-2q68 -13 104 -58t36 -116q0 -93 -53.5 -147t-159.5 -54zM145 58h124q75 0 113 37.5t38 105.5t-37.5 105t-113.5 37h-124v-285zM145 398h86q76 0 113.5 32.5t37.5 91.5q0 65 -36 92.5t-115 27.5h-86v-244z" />
<glyph unicode="C" horiz-adv-x="504" d="M416 171l54 -26q-54 -155 -196 -155q-116 0 -171 99t-55 261t55 261t171 99q146 0 200 -165l-55 -25q-41 133 -145 133q-85 0 -125.5 -82t-40.5 -221t40.5 -221t125.5 -82q101 0 142 124z" />
<glyph unicode="D" horiz-adv-x="528" d="M235 0h-151v700h143q133 0 194.5 -94.5t61.5 -255.5q0 -160 -60 -255t-188 -95zM145 57h90q95 0 141 77.5t46 215.5q0 293 -195 293h-82v-586z" />
<glyph unicode="E" horiz-adv-x="493" d="M422 0h-339v700h339v-59h-278v-292h239v-58h-239v-233h278v-58z" />
<glyph unicode="F" horiz-adv-x="465" d="M144 0h-61v700h339v-59h-278v-315h238v-58h-238v-268z" />
<glyph unicode="G" horiz-adv-x="546" d="M433 287h-126v58h189q0 -162 -52.5 -258.5t-164.5 -96.5q-59 0 -103.5 27.5t-71 77.5t-39 113.5t-12.5 141.5q0 77 12.5 141t39 114t71 77.5t103.5 27.5q150 0 203 -172l-56 -24q-39 138 -147 138q-84 0 -124.5 -81.5t-40.5 -220.5q0 -140 40.5 -221.5t124.5 -81.5 q75 0 112 64.5t42 175.5z" />
<glyph unicode="H" horiz-adv-x="561" d="M478 0h-61v295h-272v-295h-61v700h61v-347h272v347h61v-700z" />
<glyph unicode="I" horiz-adv-x="228" d="M145 0h-61v700h61v-700z" />
<glyph unicode="J" horiz-adv-x="342" d="M9 4l22 56q24 -12 56 -12q63 0 92 44.5t29 134.5v473h61v-466q0 -244 -182 -244q-46 0 -78 14z" />
<glyph unicode="K" horiz-adv-x="506" d="M482 0h-68l-154 290q-33 61 -34 66h-3q-8 -15 -34 -50l-45 -62v-244h-61v700h61v-285v-31t-0.5 -30.5t-0.5 -13.5h2q13 20 61 88l193 272h73l-209 -290z" />
<glyph unicode="L" horiz-adv-x="438" d="M414 0h-330v700h61v-642h269v-58z" />
<glyph unicode="M" horiz-adv-x="663" d="M579 0h-60v509l1 74h-2q-15 -34 -31 -63l-150 -288h-12l-149 287l-30 64h-2q1 -40 1 -74v-509h-61v700h64l150 -292l32 -66h2q18 38 33 67l151 291h63v-700z" />
<glyph unicode="N" horiz-adv-x="583" d="M499 0h-56l-270 506l-33 71h-2q3 -40 3 -82v-495h-58v700h56l269 -505l34 -73h2l-1 14q-1 15 -1.5 34.5t-0.5 32.5v497h58v-700z" />
<glyph unicode="O" horiz-adv-x="546" d="M273 -10q-115 0 -170 98.5t-55 261.5t55 261.5t170 98.5q78 0 129.5 -48.5t73.5 -127t22 -184.5t-22 -184.5t-73.5 -127t-129.5 -48.5zM273 47q83 0 123.5 81t40.5 222t-40.5 222t-123.5 81q-84 0 -124.5 -81t-40.5 -222t40.5 -222t124.5 -81z" />
<glyph unicode="P" horiz-adv-x="503" d="M145 0h-61v700h166q113 0 168.5 -69t55.5 -183q0 -113 -56.5 -182.5t-171.5 -69.5h-101v-196zM145 254h102q84 0 125.5 51.5t41.5 142.5t-41.5 142.5t-126.5 51.5h-101v-388z" />
<glyph unicode="Q" horiz-adv-x="547" d="M441 -59l-32 -34q-45 41 -70 93q-40 -10 -66 -10q-115 0 -170 98.5t-55 261.5t55 261.5t170 98.5q78 0 129.5 -49t73.5 -127.5t22 -183.5q0 -249 -118 -330q17 -40 61 -79zM264 164l35 27q12 -15 26.5 -44.5t23.5 -51t10 -21.5q79 69 79 276q0 140 -41 221t-124 81 q-84 0 -124 -80.5t-40 -221.5t40.5 -222t123.5 -81q25 0 45 7q-26 68 -54 110z" />
<glyph unicode="R" horiz-adv-x="535" d="M471 0h-66l-108 235q-21 -4 -51 -4h-101v-231h-61v700h166q112 0 168 -64t56 -170q0 -161 -121 -213zM145 289h102q82 0 124.5 47t42.5 130t-42.5 129.5t-125.5 46.5h-101v-353z" />
<glyph unicode="S" horiz-adv-x="492" d="M34 119l53 33q21 -48 64.5 -76t98.5 -28q67 0 103 37t36 91q0 36 -18.5 63.5t-47.5 45.5t-64 34t-70.5 34t-64.5 40t-47.5 57.5t-18.5 81.5q0 77 50.5 127.5t136.5 50.5q143 0 195 -132l-54 -29q-16 44 -52.5 73t-90.5 29q-53 0 -88 -34t-35 -83q0 -36 18 -63t47.5 -44.5 t64.5 -33t70 -33.5t64.5 -40.5t47.5 -58.5t18 -83q0 -82 -53.5 -135t-146.5 -53q-74 0 -132 35.5t-84 93.5z" />
<glyph unicode="T" horiz-adv-x="437" d="M249 0h-61v641h-162v59h384v-59h-161v-641z" />
<glyph unicode="U" horiz-adv-x="547" d="M410 245v455h61v-467q0 -119 -52.5 -181t-145.5 -62t-145.5 62t-52.5 182v466h61v-455q0 -197 137 -197t137 197z" />
<glyph unicode="V" horiz-adv-x="476" d="M266 0h-57l-203 700h64l148 -519l18 -81h2q10 48 19 81l147 519h64z" />
<glyph unicode="W" horiz-adv-x="745" d="M567 0h-58l-121 501l-14 80h-2q-6 -38 -16 -80l-120 -501h-58l-172 700h63l123 -521l15 -79h2q0 14 15 79l121 521h54l121 -521q6 -25 11.5 -52t4.5 -27h2q7 35 17 78l119 522h65z" />
<glyph unicode="X" horiz-adv-x="469" d="M443 0h-66l-112 235l-30 72h-2l-5 -12q-4 -12 -12 -31t-14 -32l-110 -232h-67l169 350l-168 350h66l110 -235l31 -75h2q16 41 32 75l109 235h67l-169 -350z" />
<glyph unicode="Y" horiz-adv-x="444" d="M252 0h-61v209l-177 491h66l117 -332l25 -91h2q11 54 24 91l115 332h67l-178 -493v-207z" />
<glyph unicode="Z" d="M428 0h-403v2l300 591l26 49l-1 2q-28 -3 -62 -3h-235v59h390v-2l-289 -574l-38 -67q1 -1 1 -2q28 3 62 3h249v-58z" />
<glyph unicode="[" horiz-adv-x="261" d="M251 -127h-169v964h169v-52h-112v-860h112v-52z" />
<glyph unicode="\" horiz-adv-x="240" d="M229 -60h-60l-160 820h61z" />
<glyph unicode="]" horiz-adv-x="261" d="M10 837h169v-964h-169v52h112v860h-112v52z" />
<glyph unicode="^" horiz-adv-x="319" d="M257 759l-48 49l-48 55h-2l-3 -3q-2 -3 -6 -8t-9.5 -11.5t-13.5 -15.5t-16 -17l-48 -49l-40 40l127 122h21l125 -122z" />
<glyph unicode="_" horiz-adv-x="389" d="M390 -157h-391v57h391v-57z" />
<glyph unicode="`" horiz-adv-x="263" d="M232 735l-217 91l24 52l212 -100z" />
<glyph unicode="a" d="M417 0h-61q-10 16 -15 87q-46 -97 -141 -97q-70 0 -110.5 41t-40.5 109q0 81 72.5 125t218.5 44v42q0 65 -27.5 98.5t-75.5 33.5q-78 0 -118 -82l-45 36q61 101 171 101q70 0 113 -49t43 -142v-261q0 -54 16 -86zM340 215v44h-27q-99 0 -152 -30.5t-53 -88.5 q0 -46 28.5 -71.5t69.5 -25.5q63 0 98.5 49.5t35.5 122.5z" />
<glyph unicode="b" horiz-adv-x="481" d="M117 0h-57q15 38 15 86v644h60v-196l-1 -78h2q43 81 123 81q85 0 129 -71.5t44 -201.5q0 -128 -46 -201t-128 -73q-84 0 -125 83h-2q-3 -56 -14 -73zM135 330v-107q0 -80 28 -128t86 -48q121 0 121 217q0 218 -121 218q-55 0 -84.5 -43t-29.5 -109z" />
<glyph unicode="c" horiz-adv-x="438" d="M352 152l52 -28q-42 -134 -167 -134q-90 0 -139 72t-49 201t49 201.5t139 72.5q122 0 166 -131l-53 -29q-27 103 -112 103q-63 0 -95 -57.5t-32 -159.5t31.5 -159t95.5 -57q83 0 114 105z" />
<glyph unicode="d" horiz-adv-x="482" d="M421 0h-58q-12 50 -13 73h-2q-42 -83 -127 -83q-82 0 -127 73t-45 201t45.5 200.5t130.5 72.5q80 0 119 -77h2q-1 39 -1 74v196h61v-645q0 -47 15 -85zM345 208v103q0 74 -27.5 122t-86.5 48q-121 0 -121 -217q0 -218 121 -218q55 0 84.5 44.5t29.5 117.5z" />
<glyph unicode="e" horiz-adv-x="468" d="M369 150l50 -28q-26 -67 -69 -99.5t-112 -32.5q-90 0 -139.5 72t-49.5 201q0 128 50 201t139 73q185 0 185 -276v-19h-313q2 -93 35.5 -145t96.5 -52q91 0 127 105zM110 293h252q-5 191 -122 191q-59 0 -92 -50.5t-38 -140.5z" />
<glyph unicode="f" horiz-adv-x="297" d="M168 0h-61v473h-80v54h80v69q0 148 122 148q51 0 88 -25l-24 -51q-28 20 -60 20q-65 0 -65 -86v-75h108v-54h-108v-473z" />
<glyph unicode="g" horiz-adv-x="484" d="M346 -18v48l1 67h-2q-37 -85 -123 -85q-83 0 -128 69.5t-45 194.5q0 126 45.5 193.5t131.5 67.5q81 0 122 -80h2q1 17 4.5 34.5t6.5 26.5l3 9h59q-17 -50 -16 -86v-453q0 -95 -44 -149t-124 -54q-119 0 -165 114l52 32q29 -87 111 -87q55 0 82 37t27 101zM346 228v92 q0 69 -28.5 115t-85.5 46q-121 0 -121 -205q0 -207 119 -207q55 0 85.5 43.5t30.5 115.5z" />
<glyph unicode="h" horiz-adv-x="491" d="M426 0h-60v324q0 73 -27.5 115.5t-80.5 42.5q-56 0 -92 -43.5t-36 -114.5v-324h-60v730h60v-212l-1 -74h2q45 93 137 93q158 0 158 -212v-325z" />
<glyph unicode="i" horiz-adv-x="208" d="M134 0h-61v527h61v-527zM142 647q0 -16 -11.5 -27t-27.5 -11t-27 11t-11 27t11 27.5t27 11.5q17 0 28 -11t11 -28z" />
<glyph unicode="j" horiz-adv-x="240" d="M-72 -200l20 55q21 -10 54 -10q53 0 78 35.5t25 120.5v526h62v-523q0 -217 -164 -217q-36 0 -75 13zM174 647q0 -16 -11.5 -27t-27.5 -11t-27 11t-11 27t11 27.5t27 11.5q17 0 28 -11t11 -28z" />
<glyph unicode="k" horiz-adv-x="464" d="M436 0h-71q-112 186 -158 273h-2q-16 -23 -39 -51l-36 -43v-179h-60v730h60v-389l-1 -77h2q26 36 48 63l162 200h75l-170 -208q164 -276 190 -319z" />
<glyph unicode="l" horiz-adv-x="201" d="M131 0h-61v730h61v-730z" />
<glyph unicode="m" horiz-adv-x="732" d="M668 0h-61v330q0 78 -21 113.5t-68 35.5q-54 0 -85 -40.5t-31 -120.5v-318h-61v330q0 78 -21 113.5t-68 35.5q-53 0 -84.5 -39t-31.5 -115v-325h-61v441q0 56 -15 86h58q12 -36 14 -80h2q39 88 127 88q104 0 129 -102h2q37 104 135 104q81 0 111 -54t30 -151v-332z" />
<glyph unicode="n" horiz-adv-x="499" d="M432 0h-61v310q0 84 -24.5 128t-83.5 44q-62 0 -94.5 -50t-32.5 -128v-304h-61v441q0 56 -15 86h58q13 -41 14 -87h2q45 97 140 97q158 0 158 -212v-325z" />
<glyph unicode="o" d="M237 46q64 0 95.5 57.5t31.5 160.5q0 102 -32 160t-95 58t-94.5 -58t-31.5 -160t31.5 -160t94.5 -58zM237 -10q-91 0 -139.5 72t-48.5 202q0 129 48.5 201t139.5 72q92 0 140.5 -72t48.5 -201q0 -130 -48.5 -202t-140.5 -72z" />
<glyph unicode="p" horiz-adv-x="482" d="M136 -200h-61v641q0 56 -15 86h58q11 -35 14 -72h2q42 82 125 82q82 0 127.5 -73.5t45.5 -202.5q0 -127 -43.5 -199t-125.5 -72q-84 0 -126 80h-2q1 -35 1 -74v-196zM136 314v-101q0 -73 28 -120.5t86 -47.5q121 0 121 217q0 218 -120 218q-57 0 -86 -45.5t-29 -120.5z " />
<glyph unicode="q" horiz-adv-x="485" d="M409 -200h-61v202l2 76h-2q-17 -39 -49.5 -63.5t-76.5 -24.5q-85 0 -129 71.5t-44 200.5q0 128 45.5 201.5t128.5 73.5q88 0 127 -88h2q1 19 4.5 38.5t6.5 29.5l3 10h58q-15 -45 -15 -86v-641zM348 211v99q0 76 -30 123t-87 47q-121 0 -121 -218q0 -217 121 -217 q59 0 88 47t29 119z" />
<glyph unicode="r" horiz-adv-x="327" d="M136 0h-61v441q0 56 -15 86h58q14 -44 15 -93h2q41 102 147 102q16 0 33 -3l-12 -65q-18 6 -36 6q-58 0 -94.5 -44t-36.5 -116v-314z" />
<glyph unicode="s" horiz-adv-x="456" d="M400 451l-43 -38q-27 37 -56.5 53t-73.5 16q-43 0 -71.5 -22.5t-28.5 -60.5q0 -32 30 -54t72.5 -36.5t85 -32t72.5 -51t30 -83.5q0 -73 -47 -112.5t-129 -39.5q-62 0 -114.5 26t-81.5 75q41 33 47 38q22 -39 63.5 -61.5t88.5 -22.5q51 0 81 24.5t30 69.5q0 36 -30 60.5 t-72.5 39t-85 31t-72.5 48.5t-30 79q0 59 45.5 98.5t118.5 39.5q57 0 96.5 -20.5t74.5 -63.5z" />
<glyph unicode="t" horiz-adv-x="331" d="M289 69l20 -52q-42 -27 -89 -27q-123 0 -123 142v341h-71v54h71v126h60v-126h121v-54h-121v-338q0 -88 69 -88q36 0 63 22z" />
<glyph unicode="u" horiz-adv-x="496" d="M435 0h-58q-13 41 -14 87h-2q-42 -97 -140 -97q-158 0 -158 212v325h61v-311q0 -84 24 -127.5t84 -43.5q59 0 93 48.5t34 123.5v310h61v-442q0 -47 15 -85z" />
<glyph unicode="v" horiz-adv-x="434" d="M245 0h-56l-167 527h65l107 -356l22 -86h2q12 56 21 86l107 356h65z" />
<glyph unicode="w" horiz-adv-x="735" d="M551 0h-56l-105 356q-10 35 -22 83h-2q-7 -36 -21 -82l-106 -357h-55l-162 527h65l103 -351l21 -86h2q12 55 21 86l106 351h54l107 -352l21 -85h2q14 64 20 85l103 352h65z" />
<glyph unicode="x" horiz-adv-x="431" d="M396 0h-65l-85 160l-31 67h-2q-14 -32 -33 -68l-84 -159h-65l141 263l-141 264h65l84 -161q27 -50 33 -66h2q5 14 32 67l84 160h65l-141 -264z" />
<glyph unicode="y" horiz-adv-x="439" d="M197 1l-172 526h67l111 -355q21 -67 21 -76h2q10 38 21 75l103 356h63l-169 -568q-26 -86 -61 -127t-94 -41q-49 0 -89 24l28 52q25 -17 57 -17q18 0 33.5 8t25.5 20t19.5 31.5t15.5 36t13 39.5q3 11 5 16z" />
<glyph unicode="z" horiz-adv-x="428" d="M379 0h-353v2l229 401l39 64v2h-242v58h341v-2l-222 -389q-10 -18 -22.5 -37t-19.5 -29l-7 -10v-2h257v-58z" />
<glyph unicode="{" horiz-adv-x="258" d="M206 -80v-55q-79 0 -123.5 35t-44.5 107q0 55 40 137.5t40 114.5q0 65 -78 65v55q78 0 78 65q0 32 -40 114.5t-40 137.5q0 72 45 107.5t123 35.5v-55q-110 0 -110 -91q0 -43 39 -123t39 -125q0 -35 -20.5 -59.5t-52.5 -34.5q32 -8 52.5 -33t20.5 -60q0 -45 -39 -125 t-39 -123q0 -42 31 -66t79 -24z" />
<glyph unicode="|" horiz-adv-x="211" d="M137 -100h-63v900h63v-900z" />
<glyph unicode="}" horiz-adv-x="258" d="M43 -135v55q48 0 79 24t31 66q0 43 -39 123t-39 125q0 35 20.5 60t52.5 33q-32 10 -52.5 34.5t-20.5 59.5q0 45 39 125t39 123q0 91 -110 91v55q78 0 123 -35.5t45 -107.5q0 -55 -40 -137.5t-40 -114.5q0 -65 78 -65v-55q-78 0 -78 -65q0 -32 40 -114.5t40 -137.5 q0 -72 -44.5 -107t-123.5 -35z" />
<glyph unicode="~" horiz-adv-x="414" d="M313 444h47q0 -114 -89 -114q-34 0 -73 33.5t-57 33.5q-41 0 -41 -61h-48q0 113 89 113q34 0 73 -34t57 -34q42 0 42 63z" />
<glyph unicode="&#xa1;" horiz-adv-x="205" d="M72 539h60v-539h-60v539zM63 672q0 16 11.5 27t27.5 11t27 -11t11 -27t-11 -27.5t-27 -11.5t-27.5 11.5t-11.5 27.5z" />
<glyph unicode="&#xa2;" horiz-adv-x="429" d="M146 61l-40 3l34 107q-47 25 -71 75t-24 112q0 89 48 148.5t136 59.5q19 0 35 -3l29 88h40l-32 -100q51 -24 79 -89l-44 -35q-33 81 -107 81q-59 0 -91 -42.5t-32 -107.5q0 -66 32.5 -108t91.5 -42q76 0 108 84l48 -34q-46 -108 -156 -108q-35 0 -54 6z" />
<glyph unicode="&#xa3;" horiz-adv-x="503" d="M411 81l33 -52q-40 -40 -102 -40q-31 0 -91 11.5t-86 11.5q-52 0 -79 -26l-35 46q76 73 76 188q0 24 -3 53h-95v49h91q-16 157 -16 172q0 100 40.5 158t127.5 58q136 0 167 -170l-56 -23q-19 134 -111 134q-106 0 -106 -157q0 -20 2.5 -47.5t6 -65.5t5.5 -59h177v-49 h-173q2 -36 2 -49q0 -94 -52 -162v-1l1 -1q16 5 40 5t73 -9t74 -9q55 0 89 34z" />
<glyph unicode="&#xa4;" horiz-adv-x="484" d="M395 172l55 -24q-46 -158 -185 -158q-104 0 -151.5 80t-54.5 223h-47v34h46v46h-46v34h47q14 303 206 303q144 0 187 -169l-55 -23q-31 134 -132 134q-133 0 -145 -245h162v-34h-163v-46h163v-34h-162q12 -246 145 -246q98 0 130 125z" />
<glyph unicode="&#xa5;" horiz-adv-x="444" d="M252 0h-61v139h-120v34h120v41l-20 52h-100v34h87l-144 400h66l118 -334q14 -43 23 -85h2q11 49 24 85l116 334h67l-145 -400h87v-34h-99l-20 -52v-41h119v-34h-120v-139z" />
<glyph unicode="&#xa6;" horiz-adv-x="206" d="M133 -98h-59v413h59v-413zM133 402h-59v400h59v-400z" />
<glyph unicode="&#xa7;" horiz-adv-x="496" d="M386 226v-2q34 -34 34 -83q0 -65 -47.5 -108t-131.5 -43q-132 0 -198 107l46 38q60 -89 156 -89q56 0 84 27t28 64q0 18 -8 33t-18 24t-33.5 18.5t-38.5 14t-49 14.5l-10 3q-35 10 -57.5 19t-47 24.5t-36.5 39.5t-12 57q0 64 53 99v2q-28 33 -28 79q0 67 45 106.5 t122 39.5q131 0 183 -127l-54 -30q-39 100 -133 100q-43 0 -74.5 -24.5t-31.5 -63.5q0 -34 22.5 -56.5t56 -32t73 -21.5t73 -24.5t56 -41.5t22.5 -72q0 -59 -46 -91zM136 453q-35 -23 -35 -67q0 -42 38.5 -63.5t107 -37.5t99.5 -33q33 24 33 62q0 34 -27 55.5t-61.5 30 t-81.5 22.5t-73 31z" />
<glyph unicode="&#xa8;" horiz-adv-x="317" d="M84 764q-15 0 -24.5 9.5t-9.5 24.5t9.5 24.5t24.5 9.5t25 -9.5t10 -24.5t-10 -24.5t-25 -9.5zM229 764q-15 0 -24.5 9.5t-9.5 24.5t9.5 24.5t24.5 9.5t25 -9.5t10 -24.5t-10 -24.5t-25 -9.5z" />
<glyph unicode="&#xa9;" horiz-adv-x="791" d="M757 350q0 -153 -104 -256.5t-257 -103.5q-154 0 -258 103t-104 257q0 153 104 256.5t258 103.5q153 0 257 -103.5t104 -256.5zM397 37q134 0 222 89t88 224q0 134 -88.5 223.5t-221.5 89.5q-134 0 -224 -89.5t-90 -223.5q0 -135 89.5 -224t224.5 -89zM451 292l44 -17 q-26 -87 -102 -87q-55 0 -86.5 45.5t-31.5 121.5q0 77 31 122.5t87 45.5q74 0 100 -82l-43 -18q-15 53 -57 53q-69 0 -69 -121q0 -120 69 -120q43 0 58 57z" />
<glyph unicode="&#xaa;" horiz-adv-x="262" d="M242 383h-50l-15 61h-90l-15 -61h-49l88 317h42zM168 482l-18 77q-9 38 -13.5 61t-3.5 22h-2q-4 -35 -16 -83l-19 -77h72z" />
<glyph unicode="&#xab;" horiz-adv-x="480" d="M215 177l-181 151v52l181 151l38 -42l-113 -89l-62 -45v-2l9 -7q9 -6 24.5 -17t28.5 -21l113 -88zM397 177l-181 151v52l181 151l38 -42l-113 -89l-62 -45v-2l9 -7q9 -6 24.5 -17t28.5 -21l113 -88z" />
<glyph unicode="&#xac;" horiz-adv-x="349" d="M271 210l-98 97l-96 -96l-38 38l97 96l-98 97l40 40l97 -98l97 97l38 -38l-98 -96l98 -98z" />
<glyph unicode="&#xad;" horiz-adv-x="833" />
<glyph unicode="&#xae;" horiz-adv-x="791" d="M756 350q0 -153 -104 -256.5t-257 -103.5q-154 0 -258 103t-104 257q0 153 104 256.5t258 103.5q153 0 257 -103.5t104 -256.5zM396 36q134 0 222 89.5t88 224.5q0 133 -88 223t-222 90t-223.5 -90t-89.5 -223q0 -135 89.5 -224.5t223.5 -89.5zM510 195h-55l-48 105 q-4 -1 -15 -1h-42v-104h-49v322h91q51 0 78.5 -31t27.5 -78q0 -64 -45 -94zM350 346h43q27 0 41 17t14 45q0 27 -14 44.5t-41 17.5h-43v-124z" />
<glyph unicode="&#xaf;" horiz-adv-x="291" d="M252 826h-213v55h213v-55z" />
<glyph unicode="&#xb0;" horiz-adv-x="316" d="M282 606q0 -53 -34.5 -84.5t-89.5 -31.5t-89 31.5t-34 84.5t34.5 85.5t88.5 32.5t89 -32.5t35 -85.5zM225 606q0 30 -19 48t-48 18q-30 0 -49 -18t-19 -48t19 -48t49 -18q29 0 48 18t19 48z" />
<glyph unicode="&#xb1;" horiz-adv-x="343" d="M199 293h-56v130h-125v52h125v130h56v-130h126v-52h-126v-130zM300 156h-260v55h260v-55z" />
<glyph unicode="&#xb2;" horiz-adv-x="265" d="M224 385h-197v2l123 165q27 36 27 65q0 21 -11.5 33.5t-31.5 12.5q-24 0 -39 -19t-18 -46l-47 18q26 94 105 94q43 0 68 -27t25 -66q0 -40 -33 -84l-80 -100v-3h109v-45z" />
<glyph unicode="&#xb3;" horiz-adv-x="256" d="M102 534l-22 35l34 36q19 20 48 47v2h-127v46h195v-30l-94 -98v-2q42 0 70.5 -24t28.5 -69q0 -43 -26 -72.5t-75 -29.5q-86 0 -110 83l45 19q5 -24 21.5 -40.5t41.5 -16.5t40.5 15.5t15.5 41.5q0 29 -19.5 44t-45.5 15q-9 0 -21 -2z" />
<glyph unicode="&#xb4;" horiz-adv-x="267" d="M250 826l-216 -91l-20 43l212 100z" />
<glyph unicode="&#xb6;" horiz-adv-x="480" d="M411 0h-40v700h40v-700zM341 0h-58v195h-3q-116 0 -181 76t-65 179q0 102 57 176t168 74h82v-700z" />
<glyph unicode="&#xb7;" horiz-adv-x="180" d="M129 301q0 -16 -11.5 -27t-27.5 -11t-27 11t-11 27t11 27.5t27 11.5t27.5 -11t11.5 -28z" />
<glyph unicode="&#xb8;" horiz-adv-x="271" d="M35 -208l40 32q19 -40 64 -40q27 0 42 15t15 38q0 21 -16.5 35.5t-42.5 14.5q-38 0 -56 -23l-41 23l32 138l46 -4l-25 -103l2 -1q30 15 54 15q44 0 71 -27t27 -69q0 -44 -29 -72t-78 -28q-35 0 -64 15.5t-41 40.5z" />
<glyph unicode="&#xb9;" horiz-adv-x="168" d="M118 385h-49v268h-34v47h83v-315z" />
<glyph unicode="&#xba;" horiz-adv-x="272" d="M135 370q-112 0 -112 170t112 170q58 0 85.5 -45.5t27.5 -124.5t-27.5 -124.5t-85.5 -45.5zM135 413q64 0 64 127q0 126 -64 126q-63 0 -63 -126q0 -127 63 -127z" />
<glyph unicode="&#xbb;" horiz-adv-x="480" d="M255 328l-181 -151l-38 43l113 88q13 10 28.5 21t24.5 17l9 7v2q-31 21 -62 45l-113 89l38 42l181 -151v-52zM438 328l-181 -151l-38 43l113 88q13 10 28.5 21t24.5 17l9 7v2q-31 21 -62 45l-113 89l38 42l181 -151v-52z" />
<glyph unicode="&#xbc;" horiz-adv-x="476" d="M396 0h-49v64h-124l127 252h46v-205h41v-47h-41v-64zM352 107v134h-3q-29 -81 -65 -132v-2h68zM74 0h-54l363 700h55zM139 385h-49v268h-34v47h83v-315z" />
<glyph unicode="&#xbd;" horiz-adv-x="503" d="M71 0h-54l363 700h55zM137 385h-49v268h-34v47h83v-315zM448 0h-197v2l123 165q27 36 27 65q0 21 -11.5 33.5t-31.5 12.5q-24 0 -39 -19t-18 -46l-47 18q26 94 105 94q43 0 68 -27t25 -66q0 -40 -33 -84l-80 -100v-3h109v-45z" />
<glyph unicode="&#xbe;" horiz-adv-x="503" d="M421 0h-49v64h-124l127 252h46v-205h41v-47h-41v-64zM377 107v134h-3q-30 -82 -65 -132v-2h68zM104 0h-54l363 700h55zM113 534l-22 35l34 36q19 20 48 47v2h-127v46h195v-30l-94 -98v-2q42 0 70.5 -24t28.5 -69q0 -43 -26 -72.5t-75 -29.5q-86 0 -110 83l45 19 q5 -24 21.5 -40.5t41.5 -16.5t40.5 15.5t15.5 41.5q0 29 -19.5 44t-45.5 15q-9 0 -21 -2z" />
<glyph unicode="&#xbf;" horiz-adv-x="407" d="M165 540l50 33q28 -32 28 -86q0 -44 -26 -88.5t-57 -75t-57 -71.5t-26 -81q0 -57 31 -89.5t86 -32.5q50 0 86 39t40 101l57 -20q-9 -80 -59.5 -129.5t-122.5 -49.5q-85 0 -132.5 48.5t-47.5 133.5q0 41 17 78.5t41.5 66t49 55t41.5 56t17 58.5q0 33 -16 54zM196 710 q17 0 28 -11t11 -27t-11.5 -27t-27.5 -11t-27 11t-11 27t11 27t27 11z" />
<glyph unicode="&#xc0;" horiz-adv-x="477" d="M463 0h-64l-48 171h-226l-48 -171h-63l196 700h57zM338 227l-80 294l-19 76h-2q-9 -44 -18 -76l-80 -294h199zM321 735l-217 91l24 52l212 -100z" />
<glyph unicode="&#xc1;" horiz-adv-x="477" d="M463 0h-64l-48 171h-226l-48 -171h-63l196 700h57zM338 227l-80 294l-19 76h-2q-9 -44 -18 -76l-80 -294h199zM357 826l-216 -91l-20 43l212 100z" />
<glyph unicode="&#xc2;" horiz-adv-x="477" d="M463 0h-64l-48 171h-226l-48 -171h-63l196 700h57zM338 227l-80 294l-19 76h-2q-9 -44 -18 -76l-80 -294h199zM340 759l-48 49l-48 55h-2l-2 -3q-3 -3 -7 -8t-9.5 -11.5t-13.5 -15.5t-16 -17l-48 -49l-40 40l127 122h21l125 -122z" />
<glyph unicode="&#xc3;" horiz-adv-x="477" d="M463 0h-64l-48 171h-226l-48 -171h-63l196 700h57zM338 227l-80 294l-19 76h-2q-9 -44 -18 -76l-80 -294h199zM340 884h47q0 -114 -89 -114q-34 0 -73 33.5t-57 33.5q-41 0 -41 -61h-48q0 113 89 113q34 0 73 -34t57 -34q42 0 42 63z" />
<glyph unicode="&#xc4;" horiz-adv-x="477" d="M463 0h-64l-48 171h-226l-48 -171h-63l196 700h57zM338 227l-80 294l-19 76h-2q-9 -44 -18 -76l-80 -294h199zM169 764q-15 0 -24.5 9.5t-9.5 24.5t9.5 24.5t24.5 9.5t25 -9.5t10 -24.5t-10 -24.5t-25 -9.5zM314 764q-15 0 -24.5 9.5t-9.5 24.5t9.5 24.5t24.5 9.5 t25 -9.5t10 -24.5t-10 -24.5t-25 -9.5z" />
<glyph unicode="&#xc5;" horiz-adv-x="477" d="M463 0h-64l-48 171h-226l-48 -171h-63l196 700h57zM338 227l-80 294l-19 76h-2q-9 -44 -18 -76l-80 -294h199zM323 848q0 -35 -22.5 -56t-58.5 -21t-59 21t-23 56t23 56.5t59 21.5t58.5 -21.5t22.5 -56.5zM281 848q0 16 -11 27t-28 11t-28 -11t-11 -27t11 -26.5t28 -10.5 t28 10.5t11 26.5z" />
<glyph unicode="&#xc6;" horiz-adv-x="752" d="M681 0h-339v171h-192l-82 -171h-64l331 700h346v-59h-278v-292h239v-58h-239v-233h278v-58zM342 229v360h-3q-15 -39 -52 -118l-112 -242h167z" />
<glyph unicode="&#xc7;" horiz-adv-x="504" d="M165 -208l40 32q19 -40 64 -40q28 0 43 15t15 38q0 22 -17 36t-43 14q-38 0 -56 -23l-40 23q6 30 26 116q-77 31 -113 123t-36 224q0 162 55 261t171 99q147 0 200 -165l-54 -26q-40 133 -146 133q-84 0 -124.5 -81.5t-40.5 -220.5q0 -140 40.5 -221.5t124.5 -81.5 q103 0 143 123q9 -5 28 -13.5t26 -12.5q-56 -154 -197 -154q-12 0 -32 4q-5 -19 -19 -76q1 0 1 -0.5t1 -0.5q30 15 55 15q43 0 70 -27t27 -69t-28.5 -71t-77.5 -29q-35 0 -64.5 15.5t-41.5 40.5z" />
<glyph unicode="&#xc8;" horiz-adv-x="493" d="M422 0h-339v700h339v-59h-278v-292h239v-58h-239v-233h278v-58zM346 735l-217 91l24 52l212 -100z" />
<glyph unicode="&#xc9;" horiz-adv-x="493" d="M422 0h-339v700h339v-59h-278v-292h239v-58h-239v-233h278v-58zM378 826l-216 -91l-20 43l212 100z" />
<glyph unicode="&#xca;" horiz-adv-x="493" d="M422 0h-339v700h339v-59h-278v-292h239v-58h-239v-233h278v-58zM346 759l-48 49l-48 55h-2l-2 -3q-3 -3 -7 -8t-9.5 -11.5t-13.5 -15.5t-16 -17l-48 -49l-40 40l127 122h21l125 -122z" />
<glyph unicode="&#xcb;" horiz-adv-x="493" d="M422 0h-339v700h339v-59h-278v-292h239v-58h-239v-233h278v-58zM180 764q-15 0 -24.5 9.5t-9.5 24.5t9.5 24.5t24.5 9.5t25 -9.5t10 -24.5t-10 -24.5t-25 -9.5zM325 764q-15 0 -24.5 9.5t-9.5 24.5t9.5 24.5t24.5 9.5t25 -9.5t10 -24.5t-10 -24.5t-25 -9.5z" />
<glyph unicode="&#xcc;" horiz-adv-x="228" d="M146 0h-61v700h61v-700zM200 735l-217 91l24 52l212 -100z" />
<glyph unicode="&#xcd;" horiz-adv-x="228" d="M147 0h-61v700h61v-700zM242 826l-216 -91l-20 43l212 100z" />
<glyph unicode="&#xce;" horiz-adv-x="228" d="M145 0h-61v700h61v-700zM214 759l-48 49l-48 55h-2l-2 -3q-3 -3 -7 -8t-9.5 -11.5t-13.5 -15.5t-16 -17l-48 -49l-40 40l127 122h21l125 -122z" />
<glyph unicode="&#xcf;" horiz-adv-x="228" d="M145 0h-61v700h61v-700zM99 798q0 -15 -10 -24.5t-25 -9.5t-24.5 9.5t-9.5 24.5t9.5 24.5t24.5 9.5t25 -9.5t10 -24.5zM204 798q0 -15 -10 -24.5t-25 -9.5t-24.5 9.5t-9.5 24.5t9.5 24.5t24.5 9.5t25 -9.5t10 -24.5z" />
<glyph unicode="&#xd0;" horiz-adv-x="527" d="M234 0h-151v325h-57v52h57v323h143q133 0 194.5 -94.5t61.5 -255.5q0 -160 -60 -255t-188 -95zM144 57h90q95 0 141 77.5t46 215.5q0 293 -195 293h-82v-266h121v-52h-121v-268z" />
<glyph unicode="&#xd1;" horiz-adv-x="539" d="M479 0h-56l-270 506l-33 71h-2q3 -40 3 -82v-495h-58v700h56l269 -505l34 -73h2l-1 14q-1 15 -1.5 34.5t-0.5 32.5v497h58v-700zM377 884h47q0 -114 -89 -114q-34 0 -73 33.5t-57 33.5q-41 0 -41 -61h-48q0 113 89 113q34 0 73 -34t57 -34q42 0 42 63z" />
<glyph unicode="&#xd2;" horiz-adv-x="547" d="M273 -10q-115 0 -170 98.5t-55 261.5t55 261.5t170 98.5q78 0 129.5 -48.5t73.5 -127t22 -184.5t-22 -184.5t-73.5 -127t-129.5 -48.5zM273 47q83 0 123.5 81t40.5 222t-40.5 222t-123.5 81q-84 0 -124.5 -81t-40.5 -222t40.5 -222t124.5 -81zM367 735l-217 91l24 52 l212 -100z" />
<glyph unicode="&#xd3;" horiz-adv-x="547" d="M273 -10q-115 0 -170 98.5t-55 261.5t55 261.5t170 98.5q78 0 129.5 -48.5t73.5 -127t22 -184.5t-22 -184.5t-73.5 -127t-129.5 -48.5zM273 47q83 0 123.5 81t40.5 222t-40.5 222t-123.5 81q-84 0 -124.5 -81t-40.5 -222t40.5 -222t124.5 -81zM388 826l-216 -91l-20 43 l212 100z" />
<glyph unicode="&#xd4;" horiz-adv-x="547" d="M273 -10q-115 0 -170 98.5t-55 261.5t55 261.5t170 98.5q78 0 129.5 -48.5t73.5 -127t22 -184.5t-22 -184.5t-73.5 -127t-129.5 -48.5zM273 47q83 0 123.5 81t40.5 222t-40.5 222t-123.5 81q-84 0 -124.5 -81t-40.5 -222t40.5 -222t124.5 -81zM371 759l-48 49l-48 55h-2 l-3 -3q-2 -3 -6 -8t-9.5 -11.5t-13.5 -15.5t-16 -17l-48 -49l-40 40l127 122h21l125 -122z" />
<glyph unicode="&#xd5;" horiz-adv-x="547" d="M273 -10q-115 0 -170 98.5t-55 261.5t55 261.5t170 98.5q78 0 129.5 -48.5t73.5 -127t22 -184.5t-22 -184.5t-73.5 -127t-129.5 -48.5zM273 47q83 0 123.5 81t40.5 222t-40.5 222t-123.5 81q-84 0 -124.5 -81t-40.5 -222t40.5 -222t124.5 -81zM380 884h47 q0 -114 -89 -114q-34 0 -73 33.5t-57 33.5q-41 0 -41 -61h-48q0 113 89 113q34 0 73 -34t57 -34q42 0 42 63z" />
<glyph unicode="&#xd6;" horiz-adv-x="546" d="M273 -10q-115 0 -170 98.5t-55 261.5t55 261.5t170 98.5q78 0 129.5 -48.5t73.5 -127t22 -184.5t-22 -184.5t-73.5 -127t-129.5 -48.5zM273 47q83 0 123.5 81t40.5 222t-40.5 222t-123.5 81q-84 0 -124.5 -81t-40.5 -222t40.5 -222t124.5 -81zM196 764q-15 0 -24.5 9.5 t-9.5 24.5t9.5 24.5t24.5 9.5t25 -9.5t10 -24.5t-10 -24.5t-25 -9.5zM341 764q-15 0 -24.5 9.5t-9.5 24.5t9.5 24.5t24.5 9.5t25 -9.5t10 -24.5t-10 -24.5t-25 -9.5z" />
<glyph unicode="&#xd7;" horiz-adv-x="349" d="M269 212l-96 95l-94 -94l-37 38l94 94l-95 95l39 40l95 -96l94 95l38 -38l-95 -94l96 -95z" />
<glyph unicode="&#xd8;" horiz-adv-x="547" d="M273 -10q-78 0 -129.5 48.5t-73.5 127t-22 184.5t22 184.5t73.5 127t129.5 48.5q115 0 170.5 -98.5t55.5 -261.5t-55.5 -261.5t-170.5 -98.5zM376 598l-177 -525q33 -26 74 -26q83 0 124 81t41 222q0 176 -62 248zM170 103l176 526q-32 24 -73 24q-83 0 -123.5 -81 t-40.5 -222q0 -174 61 -247z" />
<glyph unicode="&#xd9;" horiz-adv-x="547" d="M410 245v455h61v-467q0 -119 -52.5 -181t-145.5 -62t-145.5 62t-52.5 182v466h61v-455q0 -197 137 -197t137 197zM369 735l-217 91l24 52l212 -100z" />
<glyph unicode="&#xda;" horiz-adv-x="547" d="M410 245v455h61v-467q0 -119 -52.5 -181t-145.5 -62t-145.5 62t-52.5 182v466h61v-455q0 -197 137 -197t137 197zM398 826l-216 -91l-20 43l212 100z" />
<glyph unicode="&#xdb;" horiz-adv-x="547" d="M410 245v455h61v-467q0 -119 -52.5 -181t-145.5 -62t-145.5 62t-52.5 182v466h61v-455q0 -197 137 -197t137 197zM372 759l-48 49l-48 55h-2l-2 -3q-3 -3 -7 -8t-9.5 -11.5t-13.5 -15.5t-16 -17l-48 -49l-40 40l127 122h21l125 -122z" />
<glyph unicode="&#xdc;" horiz-adv-x="547" d="M410 245v455h61v-467q0 -119 -52.5 -181t-145.5 -62t-145.5 62t-52.5 182v466h61v-455q0 -197 137 -197t137 197zM196 764q-15 0 -24.5 9.5t-9.5 24.5t9.5 24.5t24.5 9.5t25 -9.5t10 -24.5t-10 -24.5t-25 -9.5zM341 764q-15 0 -24.5 9.5t-9.5 24.5t9.5 24.5t24.5 9.5 t25 -9.5t10 -24.5t-10 -24.5t-25 -9.5z" />
<glyph unicode="&#xdd;" horiz-adv-x="444" d="M252 0h-61v209l-177 491h66l117 -332l25 -91h2q11 54 24 91l115 332h67l-178 -493v-207zM338 826l-216 -91l-20 43l212 100z" />
<glyph unicode="&#xde;" horiz-adv-x="483" d="M145 0h-61v700h61v-90h90q103 0 156 -69.5t53 -182.5t-54.5 -182.5t-159.5 -69.5h-85v-106zM145 164h86q74 0 113 52.5t39 141.5t-39 141.5t-113 52.5h-86v-388z" />
<glyph unicode="&#xdf;" horiz-adv-x="507" d="M131 0h-61v523q0 98 49 148.5t131 50.5q72 0 114.5 -36.5t42.5 -104.5q0 -39 -15.5 -67.5t-37.5 -44t-44.5 -29t-38 -30.5t-15.5 -40t16 -40.5t40 -27t52 -23.5t52 -29t40 -43.5t16 -67.5q0 -63 -39 -106t-121 -43q-91 0 -139 56l37 47q33 -47 102 -47q48 0 75 24t27 64 q0 34 -22.5 57.5t-54.5 37.5t-64 29t-54.5 42.5t-22.5 68.5q0 40 24 68.5t52 43t52 40.5t24 61q0 41 -28 63t-71 22q-57 0 -87.5 -36.5t-30.5 -103.5v-527z" />
<glyph unicode="&#xe0;" d="M417 0h-61q-10 16 -15 87q-46 -97 -141 -97q-70 0 -110.5 41t-40.5 109q0 81 72.5 125t218.5 44v42q0 65 -27.5 98.5t-75.5 33.5q-78 0 -118 -82l-45 36q61 101 171 101q70 0 113 -49t43 -142v-261q0 -54 16 -86zM340 215v44h-27q-99 0 -152 -30.5t-53 -88.5 q0 -46 28.5 -71.5t69.5 -25.5q63 0 98.5 49.5t35.5 122.5zM337 580l-217 91l24 52l212 -100z" />
<glyph unicode="&#xe1;" d="M417 0h-61q-10 16 -15 87q-46 -97 -141 -97q-70 0 -110.5 41t-40.5 109q0 81 72.5 125t218.5 44v42q0 65 -27.5 98.5t-75.5 33.5q-78 0 -118 -82l-45 36q61 101 171 101q70 0 113 -49t43 -142v-261q0 -54 16 -86zM340 215v44h-27q-99 0 -152 -30.5t-53 -88.5 q0 -46 28.5 -71.5t69.5 -25.5q63 0 98.5 49.5t35.5 122.5zM352 672l-216 -91l-20 43l212 100z" />
<glyph unicode="&#xe2;" d="M417 0h-61q-10 16 -15 87q-46 -97 -141 -97q-70 0 -110.5 41t-40.5 109q0 81 72.5 125t218.5 44v42q0 65 -27.5 98.5t-75.5 33.5q-78 0 -118 -82l-45 36q61 101 171 101q70 0 113 -49t43 -142v-261q0 -54 16 -86zM340 215v44h-27q-99 0 -152 -30.5t-53 -88.5 q0 -46 28.5 -71.5t69.5 -25.5q63 0 98.5 49.5t35.5 122.5zM334 589l-48 49l-48 55h-2l-2 -3q-3 -3 -7 -8t-9.5 -11.5t-13.5 -15.5t-16 -17l-48 -49l-40 40l127 122h21l125 -122z" />
<glyph unicode="&#xe3;" d="M417 0h-61q-10 16 -15 87q-46 -97 -141 -97q-70 0 -110.5 41t-40.5 109q0 81 72.5 125t218.5 44v42q0 65 -27.5 98.5t-75.5 33.5q-78 0 -118 -82l-45 36q61 101 171 101q70 0 113 -49t43 -142v-261q0 -54 16 -86zM340 215v44h-27q-99 0 -152 -30.5t-53 -88.5 q0 -46 28.5 -71.5t69.5 -25.5q63 0 98.5 49.5t35.5 122.5zM338 698h47q0 -114 -89 -114q-34 0 -73 33.5t-57 33.5q-41 0 -41 -61h-48q0 113 89 113q34 0 73 -34t57 -34q42 0 42 63z" />
<glyph unicode="&#xe4;" d="M417 0h-61q-10 16 -15 87q-46 -97 -141 -97q-70 0 -110.5 41t-40.5 109q0 81 72.5 125t218.5 44v42q0 65 -27.5 98.5t-75.5 33.5q-78 0 -118 -82l-45 36q61 101 171 101q70 0 113 -49t43 -142v-261q0 -54 16 -86zM340 215v44h-27q-99 0 -152 -30.5t-53 -88.5 q0 -46 28.5 -71.5t69.5 -25.5q63 0 98.5 49.5t35.5 122.5zM160 610q-15 0 -24.5 9.5t-9.5 24.5t9.5 24.5t24.5 9.5t25 -9.5t10 -24.5t-10 -24.5t-25 -9.5zM305 610q-15 0 -24.5 9.5t-9.5 24.5t9.5 24.5t24.5 9.5t25 -9.5t10 -24.5t-10 -24.5t-25 -9.5z" />
<glyph unicode="&#xe5;" d="M417 0h-61q-10 16 -15 87q-46 -97 -141 -97q-70 0 -110.5 41t-40.5 109q0 81 72.5 125t218.5 44v42q0 65 -27.5 98.5t-75.5 33.5q-78 0 -118 -82l-45 36q61 101 171 101q70 0 113 -49t43 -142v-261q0 -54 16 -86zM340 215v44h-27q-99 0 -152 -30.5t-53 -88.5 q0 -46 28.5 -71.5t69.5 -25.5q63 0 98.5 49.5t35.5 122.5zM318 665q0 -35 -22.5 -56t-58.5 -21t-59 21t-23 56t23 56.5t59 21.5t58.5 -21.5t22.5 -56.5zM276 665q0 16 -11 27t-28 11t-28 -11t-11 -27t11 -26.5t28 -10.5t28 10.5t11 26.5z" />
<glyph unicode="&#xe6;" horiz-adv-x="756" d="M657 150l50 -28q-26 -67 -66.5 -99.5t-106.5 -32.5q-125 0 -165 160q-15 -73 -56 -116.5t-111 -43.5t-111.5 41t-41.5 109q0 81 72.5 125t218.5 44v42q0 64 -27 98t-76 34q-78 0 -118 -82l-45 36q62 101 168 101q56 0 90 -37.5t42 -108.5h2q39 145 157 145 q178 0 178 -279h-313v-3q0 -98 35 -154t97 -56q91 0 127 105zM340 215v44h-27q-99 0 -152 -30.5t-53 -88.5q0 -46 28.5 -71.5t69.5 -25.5q64 0 99 49.5t35 122.5zM399 308h251q-8 176 -122 176q-57 0 -89.5 -46.5t-39.5 -129.5z" />
<glyph unicode="&#xe7;" horiz-adv-x="438" d="M140 -208l41 32q19 -40 64 -40q27 0 42 15t15 38q0 21 -17.5 35.5t-42.5 14.5q-37 0 -55 -23q-4 2 -19 10t-22 13q4 17 12.5 55.5t13.5 58.5q-60 22 -91.5 89.5t-31.5 172.5q0 128 49 201t138 73q123 0 167 -132q-9 -5 -27 -14t-27 -14q-26 103 -111 103q-64 0 -95.5 -57 t-31.5 -160q0 -217 127 -217q83 0 113 105l53 -28q-42 -133 -168 -133q-4 0 -10 0.5t-9 0.5q-12 -48 -19 -72l2 -2q30 15 55 15q43 0 70.5 -28t27.5 -68q0 -44 -29 -72t-78 -28q-35 0 -64 15.5t-42 40.5z" />
<glyph unicode="&#xe8;" horiz-adv-x="468" d="M369 150l50 -28q-26 -67 -69 -99.5t-112 -32.5q-90 0 -139.5 72t-49.5 201q0 128 50 201t139 73q185 0 185 -276v-19h-313q2 -93 35.5 -145t96.5 -52q91 0 127 105zM110 293h252q-5 191 -122 191q-59 0 -92 -50.5t-38 -140.5zM334 580l-217 91l24 52l212 -100z" />
<glyph unicode="&#xe9;" horiz-adv-x="468" d="M369 150l50 -28q-26 -67 -69 -99.5t-112 -32.5q-90 0 -139.5 72t-49.5 201q0 128 50 201t139 73q185 0 185 -276v-19h-313q2 -93 35.5 -145t96.5 -52q91 0 127 105zM110 293h252q-5 191 -122 191q-59 0 -92 -50.5t-38 -140.5zM357 671l-216 -91l-20 43l212 100z" />
<glyph unicode="&#xea;" horiz-adv-x="468" d="M369 150l50 -28q-26 -67 -69 -99.5t-112 -32.5q-90 0 -139.5 72t-49.5 201q0 128 50 201t139 73q185 0 185 -276v-19h-313q2 -93 35.5 -145t96.5 -52q91 0 127 105zM110 293h252q-5 191 -122 191q-59 0 -92 -50.5t-38 -140.5zM335 605l-48 49l-48 55h-2l-3 -3 q-2 -3 -6 -8t-9.5 -11.5t-13.5 -15.5t-16 -17l-48 -49l-40 40l127 122h21l125 -122z" />
<glyph unicode="&#xeb;" horiz-adv-x="468" d="M369 150l50 -28q-26 -67 -69 -99.5t-112 -32.5q-90 0 -139.5 72t-49.5 201q0 128 50 201t139 73q185 0 185 -276v-19h-313q2 -93 35.5 -145t96.5 -52q91 0 127 105zM110 293h252q-5 191 -122 191q-59 0 -92 -50.5t-38 -140.5zM160 611q-15 0 -24.5 9.5t-9.5 24.5 t9.5 24.5t24.5 9.5t25 -9.5t10 -24.5t-10 -24.5t-25 -9.5zM305 611q-15 0 -24.5 9.5t-9.5 24.5t9.5 24.5t24.5 9.5t25 -9.5t10 -24.5t-10 -24.5t-25 -9.5z" />
<glyph unicode="&#xec;" horiz-adv-x="244" d="M187 590l-158 66l24 52l153 -75zM151 0h-60v527h60v-527z" />
<glyph unicode="&#xed;" horiz-adv-x="244" d="M216 656l-158 -66l-19 43l153 75zM158 0h-60v527h60v-527z" />
<glyph unicode="&#xee;" horiz-adv-x="260" d="M202 608l-25 25l-46 52h-1l-6 -7q-6 -7 -17 -19.5t-23 -25.5l-25 -26l-39 38l101 96h20l99 -95zM158 0h-60v527h60v-527z" />
<glyph unicode="&#xef;" horiz-adv-x="224" d="M95 645q0 -15 -10 -24.5t-25 -9.5t-24.5 9.5t-9.5 24.5t9.5 24.5t24.5 9.5t25 -9.5t10 -24.5zM200 645q0 -15 -10 -24.5t-25 -9.5t-24.5 9.5t-9.5 24.5t9.5 24.5t24.5 9.5t25 -9.5t10 -24.5zM140 0h-60v527h60v-527z" />
<glyph unicode="&#xf0;" horiz-adv-x="481" d="M420 0h-57q-12 49 -13 73h-2q-38 -83 -127 -83q-82 0 -127 71.5t-45 199.5q0 129 45.5 200t130.5 71q79 0 119 -77h2v81q0 60 -20 92l-59 -54l-23 25l57 57q-29 24 -81 24h-12v57q85 0 133 -39l65 64l30 -32l-67 -62q36 -51 36 -140v-443q0 -47 15 -85zM345 203v104 q0 73 -27.5 121.5t-86.5 48.5q-121 0 -121 -216q0 -215 121 -215q54 0 84 43t30 114z" />
<glyph unicode="&#xf1;" horiz-adv-x="499" d="M432 0h-61v310q0 84 -24.5 128t-83.5 44q-62 0 -94.5 -50t-32.5 -128v-304h-61v441q0 56 -15 86h58q13 -41 14 -87h2q45 97 140 97q158 0 158 -212v-325zM366 729h47q0 -114 -89 -114q-34 0 -73 33.5t-57 33.5q-41 0 -41 -61h-48q0 113 89 113q34 0 73 -34t57 -34 q42 0 42 63z" />
<glyph unicode="&#xf2;" d="M237 46q64 0 95.5 57.5t31.5 160.5q0 102 -32 160t-95 58t-94.5 -58t-31.5 -160t31.5 -160t94.5 -58zM237 -10q-91 0 -139.5 72t-48.5 202q0 129 48.5 201t139.5 72q92 0 140.5 -72t48.5 -201q0 -130 -48.5 -202t-140.5 -72zM338 580l-217 91l24 52l212 -100z" />
<glyph unicode="&#xf3;" d="M237 46q64 0 95.5 57.5t31.5 160.5q0 102 -32 160t-95 58t-94.5 -58t-31.5 -160t31.5 -160t94.5 -58zM237 -10q-91 0 -139.5 72t-48.5 202q0 129 48.5 201t139.5 72q92 0 140.5 -72t48.5 -201q0 -130 -48.5 -202t-140.5 -72zM349 678l-216 -91l-20 43l212 100z" />
<glyph unicode="&#xf4;" d="M237 46q64 0 95.5 57.5t31.5 160.5q0 102 -32 160t-95 58t-94.5 -58t-31.5 -160t31.5 -160t94.5 -58zM237 -10q-91 0 -139.5 72t-48.5 202q0 129 48.5 201t139.5 72q92 0 140.5 -72t48.5 -201q0 -130 -48.5 -202t-140.5 -72zM336 605l-48 49l-48 55h-2l-2 -3q-3 -3 -7 -8 t-9.5 -11.5t-13.5 -15.5t-16 -17l-48 -49l-40 40l127 122h21l125 -122z" />
<glyph unicode="&#xf5;" d="M237 46q64 0 95.5 57.5t31.5 160.5q0 102 -32 160t-95 58t-94.5 -58t-31.5 -160t31.5 -160t94.5 -58zM237 -10q-91 0 -139.5 72t-48.5 202q0 129 48.5 201t139.5 72q92 0 140.5 -72t48.5 -201q0 -130 -48.5 -202t-140.5 -72zM337 729h47q0 -114 -89 -114q-34 0 -73 33.5 t-57 33.5q-41 0 -41 -61h-48q0 113 89 113q34 0 73 -34t57 -34q42 0 42 63z" />
<glyph unicode="&#xf6;" d="M237 46q64 0 95.5 57.5t31.5 160.5q0 102 -32 160t-95 58t-94.5 -58t-31.5 -160t31.5 -160t94.5 -58zM237 -10q-91 0 -139.5 72t-48.5 202q0 129 48.5 201t139.5 72q92 0 140.5 -72t48.5 -201q0 -130 -48.5 -202t-140.5 -72zM165 611q-15 0 -24.5 9.5t-9.5 24.5t9.5 24.5 t24.5 9.5t25 -9.5t10 -24.5t-10 -24.5t-25 -9.5zM310 611q-15 0 -24.5 9.5t-9.5 24.5t9.5 24.5t24.5 9.5t25 -9.5t10 -24.5t-10 -24.5t-25 -9.5z" />
<glyph unicode="&#xf7;" horiz-adv-x="411" d="M372 316h-333v55h333v-55zM245 214q0 -15 -11 -26t-27 -11q-15 0 -26 11t-11 26q0 16 11 27t26 11q17 0 27.5 -11t10.5 -27zM245 466q0 -15 -11 -26t-27 -11q-15 0 -26 11t-11 26q0 16 11 27t26 11q17 0 27.5 -11t10.5 -27z" />
<glyph unicode="&#xf8;" horiz-adv-x="533" d="M266 -10q-91 0 -139.5 72t-48.5 202q0 129 48.5 201t139.5 72t139.5 -72t48.5 -201q0 -130 -48.5 -202t-139.5 -72zM358 427l-159 -358q28 -23 67 -23q63 0 94.5 57.5t31.5 160.5q0 107 -34 163zM173 102l158 357q-28 23 -65 23q-63 0 -95 -58t-32 -160q0 -106 34 -162z " />
<glyph unicode="&#xf9;" horiz-adv-x="496" d="M435 0h-58q-13 41 -14 87h-2q-42 -97 -140 -97q-158 0 -158 212v325h61v-311q0 -84 24 -127.5t84 -43.5q59 0 93 48.5t34 123.5v310h61v-442q0 -47 15 -85zM334 580l-217 91l24 52l212 -100z" />
<glyph unicode="&#xfa;" horiz-adv-x="496" d="M435 0h-58q-13 41 -14 87h-2q-42 -97 -140 -97q-158 0 -158 212v325h61v-311q0 -84 24 -127.5t84 -43.5q59 0 93 48.5t34 123.5v310h61v-442q0 -47 15 -85zM357 671l-216 -91l-20 43l212 100z" />
<glyph unicode="&#xfb;" horiz-adv-x="496" d="M435 0h-58q-13 41 -14 87h-2q-42 -97 -140 -97q-158 0 -158 212v325h61v-311q0 -84 24 -127.5t84 -43.5q59 0 93 48.5t34 123.5v310h61v-442q0 -47 15 -85zM336 605l-48 49l-48 55h-2l-2 -3q-3 -3 -7 -8t-9.5 -11.5t-13.5 -15.5t-16 -17l-48 -49l-40 40l127 122h21 l125 -122z" />
<glyph unicode="&#xfc;" horiz-adv-x="496" d="M435 0h-58q-13 41 -14 87h-2q-42 -97 -140 -97q-158 0 -158 212v325h61v-311q0 -84 24 -127.5t84 -43.5q59 0 93 48.5t34 123.5v310h61v-442q0 -47 15 -85zM169 611q-15 0 -24.5 9.5t-9.5 24.5t9.5 24.5t24.5 9.5t25 -9.5t10 -24.5t-10 -24.5t-25 -9.5zM314 611 q-15 0 -24.5 9.5t-9.5 24.5t9.5 24.5t24.5 9.5t25 -9.5t10 -24.5t-10 -24.5t-25 -9.5z" />
<glyph unicode="&#xfd;" horiz-adv-x="439" d="M197 1l-172 526h67l111 -355q21 -67 21 -76h2q10 38 21 75l103 356h63l-169 -568q-26 -86 -61 -127t-94 -41q-49 0 -89 24l28 52q25 -17 57 -17q18 0 33.5 8t25.5 20t19.5 31.5t15.5 36t13 39.5q3 11 5 16zM332 671l-216 -91l-20 43l212 100z" />
<glyph unicode="&#xfe;" horiz-adv-x="478" d="M131 -200h-60v930h60v-203l-1 -74h2q39 84 122 84t128.5 -73.5t45.5 -201.5q0 -129 -44 -200.5t-129 -71.5q-83 0 -123 78h-2q1 -31 1 -71v-197zM131 312v-100q0 -72 28 -119.5t87 -47.5q120 0 120 217q0 218 -120 218q-56 0 -85.5 -46.5t-29.5 -121.5z" />
<glyph unicode="&#xff;" horiz-adv-x="439" d="M197 1l-172 526h67l111 -355q21 -67 21 -76h2q10 38 21 75l103 356h63l-169 -568q-26 -86 -61 -127t-94 -41q-49 0 -89 24l28 52q25 -17 57 -17q18 0 33.5 8t25.5 20t19.5 31.5t15.5 36t13 39.5q3 11 5 16zM152 611q-15 0 -24.5 9.5t-9.5 24.5t9.5 24.5t24.5 9.5t25 -9.5 t10 -24.5t-10 -24.5t-25 -9.5zM297 611q-15 0 -24.5 9.5t-9.5 24.5t9.5 24.5t24.5 9.5t25 -9.5t10 -24.5t-10 -24.5t-25 -9.5z" />
<glyph unicode="&#x131;" horiz-adv-x="210" d="M135 0h-60v527h60v-527z" />
<glyph unicode="&#x141;" horiz-adv-x="437" d="M411 0h-330v253l-50 -21l-14 35l64 27v406h61v-380l161 71l14 -35l-175 -77v-221h269v-58z" />
<glyph unicode="&#x142;" horiz-adv-x="251" d="M156 0h-61v268l-68 -30l-14 35l82 36v421h61v-395l67 29l14 -35l-81 -35v-294z" />
<glyph unicode="&#x152;" horiz-adv-x="700" d="M652 0h-384q-217 0 -217 350t217 350h384v-59h-279v-292h239v-58h-239v-233h279v-58zM313 57v585h-45q-156 0 -156 -292q0 -293 156 -293h45z" />
<glyph unicode="&#x153;" horiz-adv-x="783" d="M683 150l51 -28q-26 -68 -66.5 -100t-106.5 -32q-67 0 -109 48.5t-57 134.5h-2q-29 -183 -161 -183q-87 0 -135 72.5t-48 200.5q0 129 48 201.5t135 72.5q67 0 107.5 -47.5t54.5 -133.5h2q14 87 55.5 134t109.5 47q177 0 177 -279h-313v-3q0 -92 36 -149.5t94 -57.5 q96 0 128 102zM237 46q63 0 95 57.5t32 159.5t-32 160t-95 58t-95 -58t-32 -160q0 -101 32 -159t95 -58zM426 308h251q-5 87 -34 131.5t-88 44.5q-57 0 -90 -46.5t-39 -129.5z" />
<glyph unicode="&#x160;" horiz-adv-x="492" d="M34 119l53 33q21 -48 64.5 -76t98.5 -28q67 0 103 37t36 91q0 36 -18.5 63.5t-47.5 45.5t-64 34t-70.5 34t-64.5 40t-47.5 57.5t-18.5 81.5q0 77 50.5 127.5t136.5 50.5q143 0 195 -132l-54 -29q-16 44 -52.5 73t-90.5 29q-53 0 -88 -34t-35 -83q0 -36 18 -63t47.5 -44.5 t64.5 -33t70 -33.5t64.5 -40.5t47.5 -58.5t18 -83q0 -82 -53.5 -135t-146.5 -53q-74 0 -132 35.5t-84 93.5zM154 930l48 -49l48 -55h2l2 3q3 3 7 8t9.5 11.5t13.5 15.5t16 17l48 49l40 -40l-127 -122h-21l-125 122z" />
<glyph unicode="&#x161;" horiz-adv-x="456" d="M400 451l-43 -38q-27 37 -56.5 53t-73.5 16q-43 0 -71.5 -22.5t-28.5 -60.5q0 -32 30 -54t72.5 -36.5t85 -32t72.5 -51t30 -83.5q0 -73 -47 -112.5t-129 -39.5q-62 0 -114.5 26t-81.5 75q41 33 47 38q22 -39 63.5 -61.5t88.5 -22.5q51 0 81 24.5t30 69.5q0 36 -30 60.5 t-72.5 39t-85 31t-72.5 48.5t-30 79q0 59 45.5 98.5t118.5 39.5q57 0 96.5 -20.5t74.5 -63.5zM139 753l48 -49l48 -55h2l3 3q2 3 6 8t9.5 11.5t13.5 15.5t16 17l48 49l40 -40l-127 -122h-21l-125 122z" />
<glyph unicode="&#x178;" horiz-adv-x="444" d="M252 0h-61v209l-177 491h66l117 -332l25 -91h2q11 54 24 91l115 332h67l-178 -493v-207zM150 764q-15 0 -24.5 9.5t-9.5 24.5t9.5 24.5t24.5 9.5t25 -9.5t10 -24.5t-10 -24.5t-25 -9.5zM295 764q-15 0 -24.5 9.5t-9.5 24.5t9.5 24.5t24.5 9.5t25 -9.5t10 -24.5t-10 -24.5 t-25 -9.5z" />
<glyph unicode="&#x17d;" d="M428 0h-403v2l300 591l26 49l-1 2q-28 -3 -62 -3h-235v59h390v-2l-289 -574l-38 -67q1 -1 1 -2q28 3 62 3h249v-58zM146 930l48 -49l48 -55h2l2 3q3 3 7 8t9.5 11.5t13.5 15.5t16 17l48 49l40 -40l-127 -122h-21l-125 122z" />
<glyph unicode="&#x17e;" horiz-adv-x="428" d="M379 0h-353v2l229 401l39 64v2h-242v58h341v-2l-222 -389q-10 -18 -22.5 -37t-19.5 -29l-7 -10v-2h257v-58zM123 754l48 -49l48 -55h2l3 3q2 3 6 8t9.5 11.5t13.5 15.5t16 17l48 49l40 -40l-127 -122h-21l-125 122z" />
<glyph unicode="&#x192;" horiz-adv-x="467" d="M412 332h-135q-10 -69 -20 -115.5t-29.5 -92.5t-46.5 -72.5t-69 -43t-99 -16.5l4 57q29 0 52.5 5.5t42 18t32 25t24.5 36t18 41t13.5 49t10 51.5t8.5 57h-133v38h138q10 83 24.5 140.5t40 104.5t66 70t97.5 23l-4 -58q-78 0 -111.5 -66t-52.5 -214h129v-38z" />
<glyph unicode="&#x2c6;" horiz-adv-x="350" d="M272 759l-48 49l-48 55h-2l-2 -3q-3 -3 -7 -8t-9.5 -11.5t-13.5 -15.5t-16 -17l-48 -49l-40 40l127 122h21l125 -122z" />
<glyph unicode="&#x2c7;" horiz-adv-x="373" d="M104 930l48 -49l48 -55h2l2 3q3 3 7 8t9.5 11.5t13.5 15.5t16 17l48 49l40 -40l-127 -122h-21l-125 122z" />
<glyph unicode="&#x2d8;" horiz-adv-x="351" d="M244 856l55 10q2 -14 2 -24q0 -45 -32.5 -72t-94.5 -27t-94.5 27t-32.5 72q0 10 2 24l55 -10q-1 -5 -1 -10q0 -48 71 -48t71 48z" />
<glyph unicode="&#x2d9;" horiz-adv-x="187" d="M128 814q0 -15 -10 -24t-25 -9t-24.5 9t-9.5 24t10 25t24 10q15 0 25 -10t10 -25z" />
<glyph unicode="&#x2da;" horiz-adv-x="277" d="M220 848q0 -35 -22.5 -56t-58.5 -21t-59 21t-23 56t23 56.5t59 21.5t58.5 -21.5t22.5 -56.5zM178 848q0 16 -11 27t-28 11t-28 -11t-11 -27t11 -26.5t28 -10.5t28 10.5t11 26.5z" />
<glyph unicode="&#x2db;" horiz-adv-x="281" d="M200 -142l17 -56q-22 -11 -49 -11q-50 0 -79 35.5t-29 85.5q0 44 24.5 80.5t70.5 51.5l17 -44q-27 -8 -41.5 -32t-14.5 -52t15 -46.5t42 -18.5q14 0 27 7z" />
<glyph unicode="&#x2dc;" horiz-adv-x="388" d="M300 884h47q0 -114 -89 -114q-34 0 -73 33.5t-57 33.5q-41 0 -41 -61h-48q0 113 89 113q34 0 73 -34t57 -34q42 0 42 63z" />
<glyph unicode="&#x2dd;" horiz-adv-x="275" d="M107 752h-50l35 152h60zM200 752h-49l34 152h61z" />
<glyph unicode="&#x3c0;" horiz-adv-x="790" d="M757 350q0 -153 -104 -256.5t-257 -103.5q-154 0 -258 103t-104 257q0 153 104 256.5t258 103.5q153 0 257 -103.5t104 -256.5zM397 37q134 0 222 89t88 224q0 134 -88.5 223.5t-221.5 89.5q-134 0 -224 -89.5t-90 -223.5q0 -135 89.5 -224t224.5 -89zM367 195h-49v322 h91q52 0 79 -33t27 -83q0 -49 -26 -82.5t-80 -33.5h-42v-90zM367 332h43q27 0 41.5 19t14.5 50t-14.5 50t-41.5 19h-43v-138z" />
<glyph unicode="&#x2013;" horiz-adv-x="411" d="M372 316h-333v55h333v-55z" />
<glyph unicode="&#x2014;" horiz-adv-x="612" d="M573 316h-534v55h534v-55z" />
<glyph unicode="&#x2018;" horiz-adv-x="171" d="M116 687q-38 -24 -46 -61q1 -1 2 -1q4 4 11 4q13 0 22.5 -9t9.5 -24q0 -14 -9.5 -23.5t-24.5 -9.5q-18 0 -28.5 13.5t-10.5 37.5q0 32 16 60t42 36q3 -4 8.5 -12t7.5 -11z" />
<glyph unicode="&#x2019;" horiz-adv-x="171" d="M46 585q38 24 46 61q-1 1 -2 1q-4 -4 -11 -4q-13 0 -22.5 9t-9.5 24q0 14 9.5 23.5t24.5 9.5q18 0 28.5 -13.5t10.5 -37.5q0 -32 -16 -60t-42 -36q-3 4 -8.5 12t-7.5 11z" />
<glyph unicode="&#x201a;" horiz-adv-x="182" d="M51 -62q38 24 46 61q-1 1 -2 1q-4 -4 -11 -4q-13 0 -22.5 9t-9.5 24q0 14 9.5 23.5t24.5 9.5q18 0 28.5 -13.5t10.5 -37.5q0 -32 -16 -60t-42 -36q-3 4 -8.5 12t-7.5 11z" />
<glyph unicode="&#x201c;" horiz-adv-x="287" d="M116 688q-38 -24 -46 -61q1 -1 2 -1q4 4 11 4q13 0 22.5 -9t9.5 -24q0 -14 -9.5 -23.5t-24.5 -9.5q-18 0 -28.5 13.5t-10.5 37.5q0 32 16 60t42 36q3 -4 8.5 -12t7.5 -11zM233 688q-38 -24 -46 -61q1 -1 2 -1q4 4 11 4q13 0 22.5 -9t9.5 -24q0 -14 -9.5 -23.5t-24.5 -9.5 q-18 0 -28.5 13.5t-10.5 37.5q0 32 16 60t42 36q3 -4 8.5 -12t7.5 -11z" />
<glyph unicode="&#x201d;" horiz-adv-x="286" d="M46 585q38 24 46 61q-1 1 -2 1q-4 -4 -11 -4q-13 0 -22.5 9t-9.5 24q0 14 9.5 23.5t24.5 9.5q18 0 28.5 -13.5t10.5 -37.5q0 -32 -16 -60t-42 -36q-3 4 -8.5 12t-7.5 11zM161 585q38 24 46 61q-1 1 -2 1q-4 -4 -11 -4q-13 0 -22.5 9t-9.5 24q0 14 9.5 23.5t24.5 9.5 q18 0 28.5 -13.5t10.5 -37.5q0 -32 -16 -60t-42 -36q-3 4 -8.5 12t-7.5 11z" />
<glyph unicode="&#x201e;" horiz-adv-x="296" d="M51 -62q38 24 46 61q-1 1 -2 1q-4 -4 -11 -4q-13 0 -22.5 9t-9.5 24q0 14 9.5 23.5t24.5 9.5q18 0 28.5 -13.5t10.5 -37.5q0 -32 -16 -60t-42 -36q-3 4 -8.5 12t-7.5 11zM167 -62q38 24 46 61q-1 1 -2 1q-4 -4 -11 -4q-13 0 -22.5 9t-9.5 24q0 14 9.5 23.5t24.5 9.5 q18 0 28.5 -13.5t10.5 -37.5q0 -32 -16 -60t-42 -36q-3 4 -8.5 12t-7.5 11z" />
<glyph unicode="&#x2020;" horiz-adv-x="420" d="M240 -100h-59v534q-21 16 -41 16q-45 0 -45 -62h-51q0 117 88 117q26 0 49 -14v309h59v-341q21 -16 41 -16q45 0 45 62h51q0 -117 -88 -117q-26 0 -49 14v-502z" />
<glyph unicode="&#x2021;" horiz-adv-x="420" d="M241 -100h-60v452q-21 16 -41 16q-45 0 -45 -62h-51q0 117 88 117q26 0 49 -14v93q-21 16 -41 16q-45 0 -45 -62h-51q0 117 88 117q26 0 49 -14v241h60v-274q18 -15 40 -15q45 0 45 62h51q0 -117 -88 -117q-24 0 -48 13v-93q18 -15 40 -15q45 0 45 62h51q0 -117 -88 -117 q-24 0 -48 13v-419z" />
<glyph unicode="&#x2022;" horiz-adv-x="250" d="M194 284q0 -27 -19.5 -46t-47.5 -19q-27 0 -46 19t-19 46q0 28 19 47.5t46 19.5q29 0 48 -19.5t19 -47.5z" />
<glyph unicode="&#x2026;" horiz-adv-x="429" d="M130 28q0 -16 -11.5 -27t-27.5 -11t-27 11t-11 27t11 27.5t27 11.5q17 0 28 -11.5t11 -27.5zM255 28q0 -16 -11.5 -27t-27.5 -11t-27 11t-11 27t11 27.5t27 11.5t27.5 -11.5t11.5 -27.5zM375 28q0 -16 -11.5 -27t-27.5 -11t-27 11t-11 27t11 27.5t27 11.5t27.5 -11.5 t11.5 -27.5z" />
<glyph unicode="&#x2030;" horiz-adv-x="896" d="M732 -10q-63 0 -93 46.5t-30 125.5t30 125.5t93 46.5t93 -46.5t30 -125.5t-30 -125.5t-93 -46.5zM732 39q69 0 69 123t-69 123t-69 -123t69 -123zM140 0h-60l393 700h60zM165 366q-63 0 -93 46.5t-30 125.5t30.5 125.5t92.5 46.5q63 0 93 -46.5t30 -125.5t-30 -125.5 t-93 -46.5zM165 414q70 0 70 124q0 123 -70 123q-69 0 -69 -123q0 -124 69 -124zM448 -10q-63 0 -93 46.5t-30 125.5t30 125.5t93 46.5t93 -46.5t30 -125.5t-30 -125.5t-93 -46.5zM448 39q70 0 70 123t-70 123q-69 0 -69 -123t69 -123z" />
<glyph unicode="&#x2039;" horiz-adv-x="298" d="M215 177l-181 151v52l181 151l38 -42l-113 -89l-62 -45v-2l9 -7q9 -6 24.5 -17t28.5 -21l113 -88z" />
<glyph unicode="&#x203a;" horiz-adv-x="305" d="M255 328l-181 -151l-38 43l113 88q13 10 28.5 21t24.5 17l9 7v2q-31 21 -62 45l-113 89l38 42l181 -151v-52z" />
<glyph unicode="&#x2044;" horiz-adv-x="445" d="M64 0h-54l363 700h55z" />
<glyph unicode="&#x20ac;" horiz-adv-x="493" d="M395 172l55 -24q-46 -158 -185 -158q-104 0 -151.5 80t-54.5 223h-47v34h46v46h-46v34h47q14 303 206 303q144 0 187 -169q-36 -16 -55 -23q-31 134 -132 134q-133 0 -145 -245h162v-34h-163v-46h163v-34h-162q12 -246 145 -246q98 0 130 125z" />
<glyph unicode="&#x2116;" horiz-adv-x="938" d="M724 199q-78 0 -118.5 59.5t-40.5 160.5q0 102 40.5 161.5t118.5 59.5q79 0 119.5 -59.5t40.5 -161.5t-40.5 -161t-119.5 -59zM724 258q103 0 103 161q0 162 -103 162q-102 0 -102 -162q0 -161 102 -161zM888 53h-328v52h328v-52zM478 0h-56l-270 506l-33 71h-2 q3 -40 3 -82v-495h-58v700h56l269 -505l34 -73h2l-1 14q0 15 -1 34.5t-1 32.5v497h58v-700z" />
<glyph unicode="&#x2122;" horiz-adv-x="588" d="M144 385h-49v268h-74v47h196v-47h-73v-268zM544 385h-50v154l2 79h-2l-38 -64l-45 -74h-4l-41 67l-40 70h-2q1 -36 1 -78v-154h-49v315h49l44 -70q8 -13 17.5 -29t15 -26.5t6.5 -11.5h2q1 1 6.5 11t15.5 26.5t18 29.5l44 70h50v-315z" />
<glyph unicode="&#x2212;" horiz-adv-x="291" d="M252 316h-213v55h213v-55z" />
<glyph unicode="&#x2260;" horiz-adv-x="330" d="M290 255h-145l-36 -75h-44l37 75h-63v54h86l39 82h-125v54h148l35 70h42l-33 -70h59v-54h-83l-39 -82h122v-54z" />
<glyph unicode="&#x25fc;" horiz-adv-x="525" d="M0 525h525v-525h-525v525z" />
<glyph unicode="&#xf8ff;" horiz-adv-x="1412" d="M205 494v145h-40v-148q0 -35 -26 -35q-6 0 -14 4l-16 -36q14 -6 30 -6q30 0 48 19t18 57zM189 72v179h39v38h-117v-38h38v-179h40zM514 421v39h-75v45h63v39h-63v56h75v39h-116v-218h116zM395 72h61q75 0 75 65q0 35 -32 48q26 14 26 45q0 59 -70 59h-60v-217zM459 110 h-23v55h23q34 0 34 -26q0 -29 -34 -29zM450 201h-14v50h14q34 0 34 -23q0 -27 -34 -27zM320 421v179h38v39h-116v-39h38v-179h40zM374 72l-52 218h-46l-52 -218h42l7 34h50l8 -34h43zM317 143h-36l17 80q0 2 0.5 4.5t0.5 3.5v-8v-3zM548 336v39h-455v-39h455zM1257 201 q-12 -5 -21 -5t-9 4q0 1 3 4l6 6q7 5 12.5 10t15 15t16.5 20t15 25.5t13.5 31.5t9 37t3.5 44q0 51 -11 96.5t-37 90t-78 71t-124 26.5q-119 0 -178.5 -51.5t-59.5 -105.5q0 -23 -13 -27q-86 -31 -86 -121q0 -37 15 -70t36 -44q7 -4 7 -7q0 -2 -4 -2q-7 0 -17 7 q-58 41 -58 114q0 45 22 83.5t59 55.5q12 5 12 15q0 69 71 128.5t194 59.5q137 0 217 -81t80 -238q0 -37 -10.5 -69.5t-24 -52.5t-31 -36.5t-27.5 -23t-18 -10.5zM993 137l-5 24l-2 3l-2 -2l-19 -34q-2 -4 -2 -7q0 -9 2 -22t2 -16q0 -21 -14 -21q-13 0 -13 18q0 4 4.5 19 t4.5 16q0 15 -15 60l-23 -41q-4 -8 -4 -11q0 -5 3.5 -17.5t3.5 -15.5q0 -26 -16 -26q-12 0 -12 20q0 9 4 24v2q1 3 1 5t-0.5 4t-0.5 3q-11 46 -18 46q2 0 -2 -2.5t-10 -11t-6 -19.5q0 -9 3.5 -21.5t3.5 -17.5q0 -22 -15 -22q-13 0 -13 23q0 5 1.5 14.5t1.5 10.5q0 5 -9 25.5 t-11 20.5q-3 0 -6.5 -27t-3.5 -43q0 -24 11 -38.5t36 -21t49.5 -8.5t67.5 -2q36 0 61 1.5t54.5 6t45.5 15.5t18 28q18 180 71 220q2 2 7 2q8 0 8 -5q0 -3 -3 -6q-44 -49 -55 -218q-1 -15 -7 -26.5t-23 -25.5t-56 -22t-97 -8q-119 0 -158.5 22t-39.5 75q0 25 12 90v1q1 1 1 2 q0 6 -9.5 23t-9.5 27q0 14 13 14q7 0 12 -5.5t6 -15.5q0 -3 -1 -12t-1 -14l11 -18q19 -32 21 -32q1 0 3 3l13 27q0 1 1 3q0 7 -6 23t-6 24q0 13 6 21t13 8q13 0 13 -20q0 -7 -3.5 -21t-3.5 -20l5 -13q12 -41 17 -41q1 0 7.5 9t13.5 19.5t7 14.5l-1 2v3q-11 31 -11 40 q0 12 6 19t14 7q16 0 16 -23q0 -4 -4.5 -17.5t-4.5 -17.5q0 -6 4 -22t7.5 -29t2.5 -13q1 0 7 8.5t11.5 20.5t5.5 18q0 10 -2 25t-2 20q0 23 16 23q6 0 10.5 -4.5t4.5 -11.5q0 -6 -6 -21.5t-6 -22.5l1 -1v-2l5 -23q0 -5 3 -5q1 0 15.5 14t16.5 14q1 0 1 -1t-15.5 -17 t-15.5 -24q0 -9 2 -21t2 -16q0 -25 -15 -25q-13 0 -13 16q0 4 3.5 17t3.5 19v4zM1064 262q-49 0 -74 31t-25 77q0 41 29.5 68.5t71.5 27.5q41 0 66.5 -28t25.5 -67q0 -43 -23 -76t-71 -33zM852 269q-44 0 -71 26t-27 73q0 38 24.5 68t71.5 30q45 0 71.5 -23t26.5 -67 q0 -50 -26.5 -78.5t-69.5 -28.5zM771 148q8 -2 8 -6q0 -14 -41.5 -23t-64.5 -9q-9 0 -26 2t-24 2q-24 0 -32 -31q-5 -19 -13 -32t-15 -20.5t-24 -13t-28.5 -7.5t-38.5 -6q-73 -10 -129 -10q-52 0 -119 10q-88 13 -115 29q-45 26 -58 111q-7 51 -7 139q0 162 21.5 270 t59.5 127q22 12 98.5 22t141.5 10q82 0 139 -20.5t74 -49.5q20 -33 26 -76.5t6 -119.5v-63q0 -103 35 -165t126 -70zM923 330v80h-15l-16 -32h-1l-17 32h-14v-80h15v51l15 -25h3l14 25h1v-51h15zM1042 324l-15 40l15 40h-15l-9 -30h-2l-9 30h-15l15 -40l-15 -40h15l9 29h2 l9 -29h15zM1134 324v80h-15v-80h15zM843 330v80h-15l-16 -32h-1l-17 32h-14v-80h15v51l15 -25h3l14 25h1v-51h15zM1067 324v80h-15v-80h15zM1100 324v80h-15v-80h15z" />
<glyph unicode="&#xfb01;" horiz-adv-x="496" d="M168 0h-61v473h-80v54h80v69q0 148 122 148q51 0 88 -25l-24 -51q-28 20 -60 20q-65 0 -65 -86v-75h108v-54h-108v-473zM431 638q0 -16 -11.5 -27t-27.5 -11t-27 11t-11 27t11 27.5t27 11.5t27.5 -11.5t11.5 -27.5zM422 0h-60v527h60v-527z" />
<glyph unicode="&#xfb02;" horiz-adv-x="515" d="M168 0h-61v473h-80v54h80v69q0 148 122 148q51 0 88 -25l-24 -51q-28 20 -60 20q-65 0 -65 -86v-75h108v-54h-108v-473zM445 0h-61v730h61v-730z" />
<glyph horiz-adv-x="480" d="M418 0h-57q-12 25 -15 74h-2q-36 -83 -126 -83q-84 0 -128 71.5t-44 201.5q0 127 46.5 200t129.5 73q84 0 123 -81h2q3 48 14 71h57q-15 -45 -15 -86v-356q0 -47 15 -85zM343 214v101q0 75 -29 120.5t-86 45.5q-120 0 -120 -217q0 -218 120 -218q59 0 87 48t28 120z" />
<glyph horiz-adv-x="480" d="M418 0h-57q-12 25 -15 74h-2q-36 -83 -126 -83q-84 0 -128 71.5t-44 201.5q0 127 46.5 200t129.5 73q84 0 123 -81h2q3 48 14 71h57q-15 -45 -15 -86v-356q0 -47 15 -85zM343 214v101q0 75 -29 120.5t-86 45.5q-120 0 -120 -217q0 -218 120 -218q59 0 87 48t28 120z M334 580l-217 91l24 52l212 -100z" />
<glyph horiz-adv-x="480" d="M418 0h-57q-12 25 -15 74h-2q-36 -83 -126 -83q-84 0 -128 71.5t-44 201.5q0 127 46.5 200t129.5 73q84 0 123 -81h2q3 48 14 71h57q-15 -45 -15 -86v-356q0 -47 15 -85zM343 214v101q0 75 -29 120.5t-86 45.5q-120 0 -120 -217q0 -218 120 -218q59 0 87 48t28 120z M349 671l-216 -91l-20 43l212 100z" />
<glyph horiz-adv-x="480" d="M418 0h-57q-12 25 -15 74h-2q-36 -83 -126 -83q-84 0 -128 71.5t-44 201.5q0 127 46.5 200t129.5 73q84 0 123 -81h2q3 48 14 71h57q-15 -45 -15 -86v-356q0 -47 15 -85zM343 214v101q0 75 -29 120.5t-86 45.5q-120 0 -120 -217q0 -218 120 -218q59 0 87 48t28 120z M327 605l-48 49l-48 55h-2l-3 -3q-2 -3 -6 -8t-9.5 -11.5t-13.5 -15.5t-16 -17l-48 -49l-40 40l127 122h21l125 -122z" />
<glyph horiz-adv-x="480" d="M418 0h-57q-12 25 -15 74h-2q-36 -83 -126 -83q-84 0 -128 71.5t-44 201.5q0 127 46.5 200t129.5 73q84 0 123 -81h2q3 48 14 71h57q-15 -45 -15 -86v-356q0 -47 15 -85zM343 214v101q0 75 -29 120.5t-86 45.5q-120 0 -120 -217q0 -218 120 -218q59 0 87 48t28 120z M334 729h47q0 -114 -89 -114q-34 0 -73 33.5t-57 33.5q-41 0 -41 -61h-48q0 113 89 113q34 0 73 -34t57 -34q42 0 42 63z" />
<glyph horiz-adv-x="480" d="M418 0h-57q-12 25 -15 74h-2q-36 -83 -126 -83q-84 0 -128 71.5t-44 201.5q0 127 46.5 200t129.5 73q84 0 123 -81h2q3 48 14 71h57q-15 -45 -15 -86v-356q0 -47 15 -85zM343 214v101q0 75 -29 120.5t-86 45.5q-120 0 -120 -217q0 -218 120 -218q59 0 87 48t28 120z M155 611q-15 0 -24.5 9.5t-9.5 24.5t9.5 24.5t24.5 9.5t25 -9.5t10 -24.5t-10 -24.5t-25 -9.5zM300 611q-15 0 -24.5 9.5t-9.5 24.5t9.5 24.5t24.5 9.5t25 -9.5t10 -24.5t-10 -24.5t-25 -9.5z" />
<glyph horiz-adv-x="480" d="M312 680q0 -35 -22.5 -56t-58.5 -21t-59 21t-23 56t23 56.5t59 21.5t58.5 -21.5t22.5 -56.5zM270 680q0 16 -11 27t-28 11t-28 -11t-11 -27t11 -26.5t28 -10.5t28 10.5t11 26.5zM418 0h-57q-12 25 -15 74h-2q-36 -83 -126 -83q-84 0 -128 71.5t-44 201.5q0 127 46.5 200 t129.5 73q84 0 123 -81h2q3 48 14 71h57q-15 -45 -15 -86v-356q0 -47 15 -85zM343 214v101q0 75 -29 120.5t-86 45.5q-120 0 -120 -217q0 -218 120 -218q59 0 87 48t28 120z" />
<glyph horiz-adv-x="246" d="M161 0h-62v469h-72v58h134v-527z" />
<glyph horiz-adv-x="468" d="M417 0h-398v2l255 240q67 63 67 126q0 45 -27.5 78.5t-83.5 33.5q-51 0 -84 -33.5t-47 -93.5l-56 19q19 77 67 121t121 44q83 0 127 -48.5t44 -117.5q0 -92 -83 -166q-148 -134 -170 -147v-2q77 2 154 2h114v-58z" />
<glyph horiz-adv-x="476" d="M21 60l56 27q15 -62 57.5 -90t95.5 -28q68 0 105 38t37 98q0 61 -43.5 97t-107.5 36q-16 0 -24 -1l-28 50l117 129q33 37 52 51v1h-285v59h380v-35l-196 -204l2 -2q89 -3 141 -50.5t52 -127.5q0 -86 -55 -141.5t-149 -55.5q-79 0 -134.5 41.5t-72.5 107.5z" />
<glyph horiz-adv-x="450" d="M332 -80h-61v156h-253v1l253 463h61v-406h97v-58h-97v-156zM273 132v311h-2q-16 -39 -32 -70l-92 -175l-38 -64v-2h164z" />
<glyph horiz-adv-x="466" d="M42 33l54 32q37 -96 132 -96q63 0 97 40t34 103t-36 102t-101 39q-57 0 -106 -40l-53 27l32 286h274v-61h-222l-22 -178q1 0 1 -0.5t1 -0.5q44 25 102 25q93 0 142.5 -56.5t49.5 -140.5q0 -87 -52 -145t-141 -58q-67 0 -114.5 33.5t-71.5 88.5z" />
<glyph horiz-adv-x="495" d="M427 538l-40 -45q-44 63 -118 63q-45 0 -77.5 -25.5t-48.5 -69t-22.5 -88.5t-5.5 -95h2q15 52 54.5 83.5t98.5 31.5q87 0 133 -56.5t46 -142.5t-49.5 -145t-142.5 -59q-103 0 -151.5 83.5t-48.5 231.5q0 144 56 226.5t157 82.5q87 0 157 -76zM258 46q62 0 96 41.5 t34 106.5q0 63 -34 103t-91 40q-62 0 -97.5 -42.5t-35.5 -101.5q0 -68 37 -107.5t91 -39.5z" />
<glyph horiz-adv-x="395" d="M163 -80h-64l200 549h-276v58h359z" />
<glyph horiz-adv-x="499" d="M384 176q0 55 -36 95.5t-98 40.5t-98 -40.5t-36 -95.5q0 -57 35 -93.5t99 -36.5t99 36.5t35 93.5zM250 361q48 0 73.5 29t25.5 73q0 43 -27.5 71t-71.5 28q-45 0 -72.5 -28t-27.5 -71q0 -44 26 -73t74 -29zM314 341v-2q62 -16 96.5 -61t34.5 -105q0 -79 -52 -131 t-143 -52t-143 52t-52 131q0 60 34.5 105t95.5 61v2q-45 13 -69 47t-24 78q0 64 43 106.5t115 42.5q71 0 114.5 -42.5t43.5 -106.5q0 -44 -24.5 -78t-69.5 -47z" />
<glyph horiz-adv-x="495" d="M238 189q65 0 97 41t32 101q0 69 -37.5 109t-90.5 40q-61 0 -95.5 -41.5t-34.5 -106.5q0 -63 34.5 -103t94.5 -40zM382 245h-2q-32 -112 -148 -112q-88 0 -136 57t-48 142q0 86 50 145.5t142 59.5q103 0 151.5 -84t48.5 -232q0 -146 -53 -227.5t-156 -81.5q-52 0 -89 19 t-72 57l40 45q44 -63 124 -63q148 0 148 275z" />
<glyph horiz-adv-x="490" d="M224 -95h-48l9 91q-96 19 -140 95l47 38q22 -39 63.5 -61.5t88.5 -22.5q51 0 81 24.5t30 69.5q0 36 -30 60.5t-72.5 39t-85 31t-72.5 48.5t-30 79q0 59 45.5 98.5t118.5 39.5h15l11 100h49l-12 -107q57 -15 108 -77l-43 -38q-27 37 -56.5 53t-73.5 16q-43 0 -71.5 -22.5 t-28.5 -60.5q0 -32 30 -54t72.5 -36.5t85 -32t72.5 -51t30 -83.5q0 -73 -47 -112.5t-129 -39.5h-8z" />
<glyph horiz-adv-x="503" d="M390 75l28 -52q-39 -33 -93 -33q-25 0 -82.5 10.5t-84.5 10.5q-47 0 -75 -23l-30 41q70 53 60 161h-68v49h65q-10 78 -10 129q0 75 39.5 122t117.5 47q126 0 157 -139l-56 -22q-16 104 -102 104q-49 0 -73 -32t-24 -89q0 -30 9 -120h151v-49h-149q0 -91 -40 -134l2 -2 q22 6 48 6q20 0 62 -5t62 -5q53 0 86 25z" />
<glyph horiz-adv-x="438" d="M351 151l53 -28q-42 -133 -168 -133q-78 0 -125 53.5t-58 152.5h-40v34h37q-1 17 -1 54h-36v34h38q10 104 58 161.5t127 57.5q123 0 167 -132l-54 -28q-26 103 -111 103q-55 0 -86.5 -42.5t-38.5 -119.5h125v-34h-127v-54h127v-34h-124q18 -150 124 -150q83 0 113 105z " />
<glyph horiz-adv-x="413" d="M238 0h-57v134h-125v34h127l-29 62h-98v34h82l-124 263h68l97 -221l30 -78h2q13 42 29 78l98 221h67l-125 -263h75v-34h-90l-29 -62h119v-34h-117v-134z" />
<glyph horiz-adv-x="495" d="M247 46q65 0 101 58.5t36 159.5q0 100 -36 159t-101 59q-64 0 -100 -59t-36 -159t36 -159t100 -59zM247 -10q-92 0 -145 73t-53 201q0 127 53 200t145 73q93 0 146 -72.5t53 -200.5t-53 -201t-146 -73z" />
</font>
</defs>
</svg>
