<?xml version="1.0" standalone="no"?>
<!DOCTYPE svg PUBLIC "-//W3C//DTD SVG 1.1//EN" "http://www.w3.org/Graphics/SVG/1.1/DTD/svg11.dtd" >
<svg xmlns="http://www.w3.org/2000/svg">
<metadata></metadata>
<defs>
<font id="mission_gothicregular_italic" horiz-adv-x="546" >
<font-face units-per-em="1000" ascent="750" descent="-250" />
<missing-glyph horiz-adv-x="260" />
<glyph horiz-adv-x="1000" />
<glyph horiz-adv-x="1000" />
<glyph unicode="&#xd;" horiz-adv-x="260" />
<glyph unicode=" "  horiz-adv-x="260" />
<glyph unicode="&#x09;" horiz-adv-x="260" />
<glyph unicode="&#xa0;" horiz-adv-x="260" />
<glyph unicode="!" horiz-adv-x="225" d="M160 184h-93l110 516h92zM83 -10q-23 0 -39.5 16t-16.5 41q0 24 16.5 40t39.5 16q24 0 40.5 -16t16.5 -40t-16.5 -40.5t-40.5 -16.5z" />
<glyph unicode="&#x22;" horiz-adv-x="329" d="M193 492h-72l53 208h84zM316 492h-72l53 208h84z" />
<glyph unicode="#" horiz-adv-x="578" d="M579 258h-143l-32 -150h-87l32 150h-100l-32 -150h-87l31 150h-123l7 72h132l26 120h-127l7 73h135l31 142h86l-30 -142h101l30 142h87l-30 -142h131l-7 -73h-140l-25 -120h133zM364 330l26 120h-100l-26 -120h100z" />
<glyph unicode="$" horiz-adv-x="495" d="M167 -100h-63l35 108l3 -1q-92 37 -116 119l80 47q15 -41 53.5 -68t84.5 -27q52 0 87.5 31t35.5 85q0 35 -25.5 65t-61.5 53t-72.5 49t-62 65.5t-25.5 89.5q0 84 58 139t147 55q20 0 38 -3l35 106h64l-40 -123h-2q80 -36 101 -121l-86 -46q-8 44 -39.5 71.5t-77.5 27.5 q-43 0 -73.5 -27.5t-30.5 -72.5q0 -29 18.5 -54.5t45.5 -43t59.5 -40t59.5 -44.5t45.5 -57.5t18.5 -78.5q0 -100 -65 -157t-160 -57q-20 0 -40 3z" />
<glyph unicode="%" horiz-adv-x="600" d="M120 0h-81q448 632 496 700h81zM432 -10q-54 0 -81 34.5t-27 90.5q0 52 16.5 101t54 84t88.5 35q54 0 81 -35t27 -91q0 -53 -16.5 -101t-54 -83t-88.5 -35zM441 59q32 0 54.5 45.5t22.5 96.5q0 64 -43 64q-31 0 -54 -43t-23 -90q0 -73 43 -73zM173 365q-54 0 -81 34.5 t-27 90.5q0 52 16.5 101t54 84t88.5 35q54 0 81 -35t27 -91q0 -53 -16.5 -101t-54 -83t-88.5 -35zM182 434q32 0 54.5 45.5t22.5 96.5q0 64 -43 64q-31 0 -54 -43t-23 -90q0 -73 43 -73z" />
<glyph unicode="&#x26;" horiz-adv-x="585" d="M416 70h-2q-68 -84 -182 -84q-90 0 -140.5 54.5t-50.5 135.5q0 89 57 156.5t145 85.5v2q-62 45 -62 120q0 68 50 119t128 51q89 0 145 -71l-77 -74q-9 16 -16 25t-22.5 17.5t-35.5 8.5q-40 0 -61 -26t-21 -59q0 -34 22 -59t69 -26l42 -123q1 -4 29 -98h2q31 71 62 217h90 q-43 -199 -111 -306q7 -17 26 -33t38 -17q-6 -17 -16.5 -47t-14.5 -41q-67 2 -93 72zM381 144l-81 225q-71 -6 -120 -57.5t-49 -122.5q0 -54 30.5 -87t83.5 -33q79 0 136 75z" />
<glyph unicode="'" horiz-adv-x="196" d="M193 492h-72l53 208h84z" />
<glyph unicode="(" horiz-adv-x="222" d="M170 -63l-69 -25q-34 91 -34 239q0 188 62 363.5t158 277.5l56 -45q-89 -97 -145.5 -262.5t-56.5 -341.5q0 -111 29 -206z" />
<glyph unicode=")" horiz-adv-x="222" d="M114 769l69 25q34 -91 34 -239q0 -188 -62 -363.5t-158 -277.5l-56 45q89 97 145.5 262.5t56.5 341.5q0 111 -29 206z" />
<glyph unicode="*" horiz-adv-x="362" d="M431 602l21 -80q-42 -6 -104 -6q-41 0 -55 1l-1 -2q69 -69 100 -124q-11 -6 -77 -44q-38 81 -48 157h-2q-6 -8 -22.5 -35.5t-35.5 -56t-37 -48.5l-57 56q38 38 132 96l-1 2q-123 21 -154 32q22 56 34 83q50 -22 133 -89l2 1q0 6 -3 28.5t-4.5 45t-1.5 44.5q0 12 2 40 q54 -7 85 -13q-12 -57 -54 -149l2 -1q70 38 146 62z" />
<glyph unicode="+" horiz-adv-x="338" d="M356 312h-121l-27 -126h-80l27 126h-121l16 74h120l27 126h81l-27 -126h121z" />
<glyph unicode="," horiz-adv-x="215" d="M14 -96l-5 31q32 8 53 25.5t23 37.5l-1 2q-10 -2 -13 -2q-19 0 -31.5 12.5t-12.5 32.5q0 21 14.5 35t35.5 14q55 0 55 -68q0 -43 -33 -76.5t-85 -43.5z" />
<glyph unicode="-" horiz-adv-x="311" d="M290 291h-237l18 82h236z" />
<glyph unicode="." horiz-adv-x="213" d="M80 -10q-24 0 -40 16t-16 41q0 24 16.5 40t39.5 16q24 0 40.5 -16t16.5 -40t-16.5 -40.5t-40.5 -16.5z" />
<glyph unicode="/" horiz-adv-x="323" d="M80 -60h-97l330 820h98z" />
<glyph unicode="0" horiz-adv-x="510" d="M223 -10q-168 0 -168 238q0 79 18.5 161t53 155t93 119.5t129.5 46.5q166 0 166 -244q0 -76 -17 -155.5t-50 -153.5t-91.5 -120.5t-133.5 -46.5zM231 78q60 0 106 72t66.5 161t20.5 167q0 143 -82 143q-45 0 -84 -43t-62.5 -106.5t-36.5 -130.5t-13 -122q0 -141 85 -141z " />
<glyph unicode="1" horiz-adv-x="277" d="M155 0h-95l130 612h-60l19 88h154z" />
<glyph unicode="2" horiz-adv-x="484" d="M388 0h-399v1l352 390q74 82 74 148q0 36 -22 59.5t-62 23.5q-46 0 -82 -37.5t-54 -96.5l-78 53q73 169 221 169q83 0 127 -46t44 -116q0 -107 -104 -221l-155 -171q-39 -43 -65 -64v-2h221z" />
<glyph unicode="3" horiz-adv-x="486" d="M525 625l-223 -210l1 -2q76 -5 115.5 -53t39.5 -118q0 -107 -65 -179.5t-173 -72.5q-80 0 -132.5 44t-60.5 110l88 46q2 -51 33 -81.5t79 -30.5q62 0 99.5 47t37.5 105q0 46 -27 80t-76 34q-19 0 -38 -3l-25 81l197 188h-245l20 90h371z" />
<glyph unicode="4" horiz-adv-x="478" d="M325 0h-95l32 150h-252v2l366 548h97l-98 -461h83l-19 -89h-83zM287 233l67 310h-2l-5 -9q-5 -9 -14 -26t-18 -32l-93 -152q-6 -10 -12.5 -20t-12.5 -19t-11.5 -17t-10.5 -14t-8.5 -11t-5.5 -7l-2 -2v-1h128z" />
<glyph unicode="5" horiz-adv-x="514" d="M51 144l88 46q3 -51 33 -81t78 -30q59 0 95.5 49t36.5 110q0 47 -25 79t-70 32q-53 0 -106 -42l-70 40l109 353h300l-19 -92h-222l-62 -193l2 -1q27 20 81 20q83 0 130 -53.5t47 -132.5q0 -105 -59.5 -181.5t-168.5 -76.5q-82 0 -136 44t-62 110z" />
<glyph unicode="6" horiz-adv-x="517" d="M532 582l-83 -42q-25 81 -93 81q-130 0 -188 -271h2q22 37 63 61.5t85 24.5q74 0 115.5 -47t41.5 -131q0 -103 -62 -185.5t-170 -82.5q-91 0 -135 63t-44 161q0 87 18.5 172t53.5 159t94 119.5t132 45.5q68 0 112 -35.5t58 -92.5zM252 78q59 0 95 53t36 121q0 48 -22 78 t-67 30q-54 0 -95 -46.5t-41 -110.5q0 -53 23 -89t71 -36z" />
<glyph unicode="7" horiz-adv-x="400" d="M144 0h-106l324 612h-254l18 88h389z" />
<glyph unicode="8" horiz-adv-x="508" d="M392 386v-2q44 -17 68 -55t24 -86q0 -104 -67.5 -178.5t-184.5 -74.5q-91 0 -142 51t-51 128q0 79 45 140t123 82v2q-63 33 -63 111q0 85 56 145.5t151 60.5q77 0 118 -44t41 -104q0 -57 -33 -106.5t-85 -69.5zM241 76q67 0 109.5 47.5t42.5 113.5q0 45 -28 75.5 t-80 30.5q-67 0 -109.5 -47t-42.5 -113q0 -47 28 -77t80 -30zM311 429q47 0 77 38t30 83q0 32 -19.5 53t-56.5 21q-47 0 -78 -33.5t-31 -85.5q0 -33 20.5 -54.5t57.5 -21.5z" />
<glyph unicode="9" horiz-adv-x="515" d="M419 349h-2q-22 -37 -63 -61.5t-85 -24.5q-74 0 -115 47t-41 131q0 103 61.5 186t169.5 83q94 0 136.5 -66.5t42.5 -171.5q0 -84 -19 -167.5t-55 -154.5t-94 -115.5t-129 -44.5q-69 0 -112.5 35t-57.5 92l82 42q25 -81 93 -81q130 0 188 271zM293 339q54 0 95 46.5 t41 110.5q0 53 -23 89t-71 36q-59 0 -95 -53t-36 -121q0 -48 22.5 -78t66.5 -30z" />
<glyph unicode=":" horiz-adv-x="213" d="M80 -10q-24 0 -40 16t-16 41q0 24 16.5 40t39.5 16q24 0 40.5 -16t16.5 -40t-16.5 -40.5t-40.5 -16.5zM149 317q-23 0 -39.5 16.5t-16.5 40.5t16.5 40t39.5 16q24 0 40.5 -16t16.5 -40t-16.5 -40.5t-40.5 -16.5z" />
<glyph unicode=";" horiz-adv-x="212" d="M12 -96l-5 31q32 8 53 25.5t23 37.5l-1 2q-10 -2 -13 -2q-19 0 -31.5 12.5t-12.5 32.5q0 21 14.5 35t35.5 14q55 0 55 -68q0 -43 -33 -76.5t-85 -43.5zM147 317q-23 0 -39.5 16.5t-16.5 40.5t16.5 40t39.5 16q24 0 40.5 -16t16.5 -40t-16.5 -40.5t-40.5 -16.5z" />
<glyph unicode="&#x3c;" horiz-adv-x="294" d="M263 156l-197 173l10 51l269 171l36 -65l-135 -83q-85 -51 -98 -56v-2q39 -27 83 -65l78 -66z" />
<glyph unicode="=" horiz-adv-x="344" d="M315 234h-265l16 75h265zM348 390h-265l16 75h265z" />
<glyph unicode="&#x3e;" horiz-adv-x="294" d="M148 554l197 -173l-10 -51l-269 -171l-36 65l135 83q85 51 98 56v2q-39 27 -83 65l-78 66z" />
<glyph unicode="?" horiz-adv-x="428" d="M255 174l-79 -27q-18 23 -18 63q0 45 23.5 85t57 69.5t67.5 56.5t57.5 58.5t23.5 64.5q0 31 -22.5 54t-61.5 23q-48 0 -84 -36t-53 -95l-79 54q34 77 90 121.5t129 44.5q84 0 130 -45t46 -114q0 -50 -24 -92.5t-58.5 -72.5t-69 -57t-58.5 -58t-24 -64q0 -17 7 -33z M183 -10q-23 0 -39.5 16t-16.5 41q0 24 16.5 40t39.5 16q24 0 40.5 -16t16.5 -40t-16.5 -40.5t-40.5 -16.5z" />
<glyph unicode="@" horiz-adv-x="776" d="M534 85l33 -71q-94 -62 -198 -62q-144 0 -221 90.5t-77 229.5q0 118 47.5 225t143 179t218.5 72q74 0 132.5 -27t93 -72.5t52.5 -101t18 -117.5q0 -106 -48 -183t-133 -77q-43 0 -73.5 23t-32.5 67h-2q-20 -42 -52.5 -66t-69.5 -24q-51 0 -75.5 39t-24.5 97q0 84 50 154 t135 70q61 0 97 -37t36 -96q0 -22 -4 -39l-7 -37q-3 -15 -3 -26q0 -43 38 -43q40 0 62.5 53.5t22.5 123.5q0 110 -55.5 175.5t-159.5 65.5q-96 0 -171.5 -59t-113.5 -148t-38 -188q0 -115 58 -180t162 -65q87 0 160 55zM398 250q34 0 62 36.5t34 85.5q1 6 1 18 q0 31 -14.5 46.5t-38.5 15.5q-35 0 -63 -38.5t-28 -95.5q0 -68 47 -68z" />
<glyph unicode="A" horiz-adv-x="492" d="M441 0h-94q-2 47 -8 143h-201q-8 -17 -31.5 -66.5t-36.5 -76.5h-100l334 700h99zM338 232l-8 211q-3 84 -3 121h-2q-17 -53 -43 -108l-106 -224h162z" />
<glyph unicode="B" d="M241 0h-201l148 700h169q89 0 136 -42t47 -115q0 -66 -38 -114t-99 -66v-2q45 -16 72.5 -51.5t27.5 -86.5q0 -100 -71.5 -161.5t-190.5 -61.5zM151 88h102q76 0 116.5 35t40.5 100q0 47 -27 73.5t-81 26.5h-101zM218 405h71q77 0 117 33t40 92q0 82 -110 82h-73z" />
<glyph unicode="C" horiz-adv-x="503" d="M394 193l74 -54q-80 -149 -221 -149q-95 0 -140.5 63t-45.5 165q0 59 9 121.5t31.5 130t55.5 120t86 86.5t118 34q81 0 126 -46.5t56 -126.5l-88 -40q-8 125 -101 125q-50 0 -90.5 -42t-63.5 -106t-35 -128.5t-12 -119.5q0 -148 102 -148q84 0 139 115z" />
<glyph unicode="D" horiz-adv-x="539" d="M207 0h-175l148 700h150q107 0 160 -71.5t53 -180.5q0 -63 -16 -135q-32 -142 -112.5 -227.5t-207.5 -85.5zM142 88h76q96 0 164 102t68 252q0 76 -31.5 122.5t-92.5 46.5h-73z" />
<glyph unicode="E" horiz-adv-x="501" d="M404 0h-364l148 700h364l-18 -89h-271l-49 -234h231l-19 -88h-231l-43 -201h270z" />
<glyph unicode="F" horiz-adv-x="470" d="M414 252h-227l-53 -252h-94l148 700h360l-18 -89h-267l-57 -271h227z" />
<glyph unicode="G" d="M423 276h-117l19 89h206q-56 -375 -276 -375q-97 0 -145.5 64t-48.5 168q0 86 18.5 170t53.5 156.5t94.5 117t133.5 44.5q80 0 125 -46t57 -124l-89 -42q-8 123 -102 123q-57 0 -104 -61.5t-71 -148.5t-24 -174q0 -159 104 -159q113 0 166 198z" />
<glyph unicode="H" horiz-adv-x="579" d="M459 0h-94l59 279h-231l-58 -279h-95l148 700h95l-71 -333h231l70 333h94z" />
<glyph unicode="I" horiz-adv-x="269" d="M143 0h-95l148 700h95z" />
<glyph unicode="J" horiz-adv-x="382" d="M214 228l100 472h94l-104 -487q-25 -116 -80 -169.5t-143 -53.5q-36 0 -89 20l37 80q19 -10 52 -10q101 0 133 148z" />
<glyph unicode="K" horiz-adv-x="505" d="M450 0h-101l-85 318h-2q-26 -35 -83 -101l-46 -217h-95l148 700h95l-50 -235q-20 -94 -22 -94h2q18 21 75 91l194 238h112l-251 -299z" />
<glyph unicode="L" horiz-adv-x="410" d="M359 0h-319l148 700h95l-130 -612h224z" />
<glyph unicode="M" horiz-adv-x="689" d="M565 0h-95l93 440l25 102h-2q-32 -47 -66 -91l-162 -213h-8l-68 209l-28 95h-2q-8 -47 -19 -98l-93 -444h-95l148 700h97l67 -214l25 -89h2q33 47 60 81l168 222h101z" />
<glyph unicode="N" horiz-adv-x="606" d="M470 0h-79l-106 345q-35 113 -47 162h-2q1 0 -2 -16.5t-7.5 -43t-9.5 -49.5l-84 -398h-93l148 700h80l105 -341q48 -157 48 -161h2q10 70 20 116l82 386h93z" />
<glyph unicode="O" d="M247 -10q-95 0 -141 62.5t-46 165.5q0 87 18 171.5t53.5 157.5t95 118t134.5 45q95 0 140.5 -63.5t45.5 -165.5q0 -87 -18 -171.5t-53 -157t-94.5 -117.5t-134.5 -45zM255 78q57 0 104 61t71.5 150t24.5 180q0 152 -102 152q-58 0 -105 -61.5t-71 -150t-24 -179.5 q0 -152 102 -152z" />
<glyph unicode="P" horiz-adv-x="506" d="M133 0h-94l149 700h163q91 0 140 -55t49 -141q0 -79 -29.5 -147.5t-96 -115t-158.5 -46.5h-82zM193 284h73q79 0 130.5 63t51.5 151q0 54 -28.5 84t-84.5 30h-72z" />
<glyph unicode="Q" d="M441 -55l-41 -44q-52 48 -77 105q-44 -16 -84 -16q-96 0 -141.5 63.5t-45.5 168.5q0 86 18.5 170.5t54 156.5t94.5 116.5t133 44.5q96 0 141.5 -64t45.5 -169q0 -129 -43.5 -256t-119.5 -186q24 -52 65 -90zM245 187l45 34q17 -22 52 -95q45 50 74 150t29 190 q0 155 -100 155q-58 0 -105 -60t-71 -148.5t-24 -179.5q0 -155 101 -155q25 0 49 11q-18 52 -50 98z" />
<glyph unicode="R" horiz-adv-x="537" d="M449 0h-95l-58 222q-26 -3 -54 -3h-63l-46 -219h-94l148 700h163q91 0 141.5 -53t50.5 -135q0 -84 -41.5 -159t-117.5 -109zM198 308h69q80 0 130.5 52t50.5 142q0 51 -28.5 80.5t-85.5 29.5h-72z" />
<glyph unicode="S" horiz-adv-x="495" d="M521 569l-86 -46q-8 44 -39.5 71.5t-77.5 27.5q-43 0 -73.5 -27.5t-30.5 -72.5q0 -29 18.5 -54.5t45.5 -43t59.5 -40t59.5 -44.5t45.5 -57.5t18.5 -78.5q0 -100 -65 -157t-160 -57q-76 0 -133.5 37.5t-76.5 98.5l80 47q15 -41 53.5 -68t84.5 -27q52 0 87.5 31t35.5 85 q0 35 -25.5 65t-61.5 53t-72.5 49t-62 65.5t-25.5 89.5q0 84 58 139t147 55q77 0 128.5 -39.5t67.5 -101.5z" />
<glyph unicode="T" horiz-adv-x="432" d="M223 0h-96l130 612h-143l19 88h381l-19 -88h-143z" />
<glyph unicode="U" horiz-adv-x="567" d="M403 228l100 472h95l-101 -478q-26 -122 -83 -177t-147 -55q-81 0 -134.5 48t-53.5 133q0 32 7 63l99 466h95l-100 -473q-6 -27 -6 -49q0 -49 26 -74.5t72 -25.5q54 0 84.5 36.5t46.5 113.5z" />
<glyph unicode="V" horiz-adv-x="486" d="M252 0h-99l-35 700h93l14 -393q4 -142 3 -173h2q52 128 67 160l186 406h100z" />
<glyph unicode="W" horiz-adv-x="776" d="M566 0h-100l-13 430l1 75h-2q-12 -34 -28 -70l-196 -435h-100l-11 700h94l3 -421l-4 -126h2q26 66 52 125l187 422h82l11 -422l-1 -125h2q25 66 50 125l178 422h100z" />
<glyph unicode="X" horiz-adv-x="471" d="M405 0h-99l-35 170l-19 109h-2q-58 -101 -64 -110l-105 -169h-95l221 350l-74 350h94l30 -151q23 -121 23 -131h2q1 1 5.5 9t11.5 20.5t16 28t20.5 35t22.5 37.5l93 152h102l-223 -350z" />
<glyph unicode="Y" horiz-adv-x="460" d="M238 0h-93l42 204l-73 496h99l28 -238l15 -139h2q30 65 70 138l131 239h107l-286 -500z" />
<glyph unicode="Z" horiz-adv-x="475" d="M391 0h-408v2l364 544l47 64v2h-250l19 88h397v-3l-362 -539q-11 -16 -24 -33t-21 -25l-8 -9v-3h264z" />
<glyph unicode="[" horiz-adv-x="247" d="M203 -137h-187l208 984h187l-15 -74h-104l-177 -836h103z" />
<glyph unicode="\" horiz-adv-x="239" d="M229 -61l-90 1l-59 821h91z" />
<glyph unicode="]" horiz-adv-x="247" d="M116 847h187l-208 -984h-187l15 74h104l177 836h-103z" />
<glyph unicode="^" horiz-adv-x="365" d="M473 804l-60 -54l-41 56q-29 40 -36 54h-2q-37 -38 -65 -62l-58 -50l-45 62l151 118h51z" />
<glyph unicode="_" horiz-adv-x="379" d="M337 -183h-383l17 83h383z" />
<glyph unicode="`" horiz-adv-x="239" d="M321 734l-224 94l34 72l218 -106z" />
<glyph unicode="a" horiz-adv-x="541" d="M489 85l-21 -91q-67 0 -95.5 23t-31.5 69h-2q-25 -44 -59 -70t-88 -26q-70 0 -105.5 52t-35.5 139q0 93 30 177t91 140.5t140 56.5q77 0 120.5 -46t43.5 -114q0 -25 -8 -63l-38 -178q-4 -22 -4 -30q0 -42 44 -42q8 0 19 3zM221 75q33 0 60.5 24t45 64.5t27.5 75.5t17 73 q11 63 11 72q0 37 -20.5 62.5t-57.5 25.5q-67 0 -114 -86t-47 -201q0 -110 78 -110z" />
<glyph unicode="b" horiz-adv-x="499" d="M70 254l102 476h92l-34 -160l-20 -84h2q47 69 125 69q67 0 104.5 -48t37.5 -139q0 -156 -72.5 -267t-186.5 -111q-72 0 -116 46.5t-44 133.5q0 40 10 84zM180 336l-23 -106q-6 -30 -6 -55q0 -47 21 -73t60 -26q47 0 84 50t54 114.5t17 124.5q0 108 -79 108q-50 0 -83 -41 t-45 -96z" />
<glyph unicode="c" horiz-adv-x="454" d="M344 157l61 -60q-36 -54 -76 -80.5t-100 -26.5q-84 0 -131 55.5t-47 150.5q0 61 15 122t44.5 115.5t80 88t114.5 33.5q122 0 160 -123l-80 -52q-5 42 -27.5 65t-59.5 23q-46 0 -82.5 -42t-54 -100t-17.5 -117q0 -133 93 -133q57 0 107 81z" />
<glyph unicode="d" horiz-adv-x="540" d="M487 85l-20 -91q-111 0 -127 88h-2q-54 -92 -146 -92q-69 0 -105.5 51.5t-36.5 137.5q0 89 29.5 174t87.5 143t129 58q85 0 110 -73h3q7 48 14 81l36 168h92l-117 -552q-11 -54 2.5 -75t36.5 -21q7 0 14 3zM221 75q44 0 77.5 42t49.5 105q33 119 33 163q0 38 -20 62.5 t-58 24.5q-66 0 -113.5 -86.5t-47.5 -202.5q0 -108 79 -108z" />
<glyph unicode="e" horiz-adv-x="505" d="M375 149l61 -63q-93 -96 -190 -96q-96 0 -146 60.5t-50 159.5q0 81 30 159t90 132t136 54q88 0 132 -55.5t44 -143.5q0 -36 -8 -79l-6 -35h-322q-2 -12 -2 -33q0 -65 28 -101t79 -36q35 0 68 21t56 56zM159 311h232q2 24 2 37q0 58 -23 94t-66 36q-51 0 -89 -47.5 t-56 -119.5z" />
<glyph unicode="f" horiz-adv-x="321" d="M139 0h-92l99 466h-72l17 79h71l10 46q35 161 172 161q41 0 84 -16l-37 -81q-19 15 -49 15q-61 0 -76 -74q-8 -34 -11 -51h99l-17 -79h-99z" />
<glyph unicode="g" horiz-adv-x="499" d="M319 85h-2q-46 -70 -125 -70q-69 0 -105.5 51t-36.5 136q0 88 28 167.5t84.5 132t128.5 52.5q89 0 115 -83h2q4 17 11 35.5t12 28.5l5 10h83q-18 -30 -29 -84l-95 -445q-24 -117 -79 -175t-149 -58q-59 0 -103 25.5t-67 67.5l72 59q36 -66 110 -66q32 0 55.5 15t39 47 t25 65.5t20.5 88.5zM223 100q45 0 81 42.5t52 119.5q22 104 22 122q0 38 -21 63t-59 25q-54 0 -91.5 -49t-51 -106t-13.5 -110q0 -107 81 -107z" />
<glyph unicode="h" horiz-adv-x="552" d="M499 85l-20 -91q-137 0 -137 109q0 22 7 55l40 189q6 27 6 51q0 78 -70 78q-45 0 -78.5 -28t-45.5 -84l-79 -364h-93l155 730h93l-31 -147q-16 -75 -24 -100h2q55 72 136 72q63 0 95 -38t32 -105q0 -41 -8 -77l-39 -181q-4 -22 -4 -30q0 -42 43 -42q9 0 20 3z" />
<glyph unicode="i" horiz-adv-x="270" d="M209 83l-20 -91q-137 0 -137 110q0 20 7 55l61 291q13 61 9 97h87q1 -9 1 -24q0 -39 -8 -75l-59 -293q-4 -24 -4 -31q0 -42 44 -42zM201 620q-23 0 -39.5 16t-16.5 41q0 24 16.5 40t39.5 16q24 0 40.5 -16t16.5 -40t-16.5 -40.5t-40.5 -16.5z" />
<glyph unicode="j" horiz-adv-x="300" d="M68 7l115 538h96l-119 -559q-22 -105 -72.5 -154.5t-132.5 -49.5q-54 0 -93 25l41 80q23 -17 52 -17q46 0 71.5 31.5t41.5 105.5zM257 620q-23 0 -39.5 16t-16.5 41q0 24 16.5 40t39.5 16q24 0 40.5 -16t16.5 -40t-16.5 -40.5t-40.5 -16.5z" />
<glyph unicode="k" horiz-adv-x="493" d="M441 83l-19 -84q-2 0 -15 -1.5t-23 -1.5q-87 0 -133 77q-12 20 -27 54.5t-27.5 54t-31.5 25.5h-2q-9 -52 -13 -73l-29 -134h-92l155 730h92l-32 -151q-13 -63 -23 -95h2q52 71 130 71q60 0 92 -35t32 -90q0 -74 -57.5 -140t-157.5 -79q0 -1 -0.5 -1t-0.5 -1 q16 -10 30.5 -33.5t24.5 -44t31.5 -37t51.5 -16.5q19 0 42 5zM194 342l-16 -76q99 0 153 44.5t54 104.5q0 29 -17.5 46.5t-48.5 17.5q-45 0 -78.5 -37.5t-46.5 -99.5z" />
<glyph unicode="l" horiz-adv-x="279" d="M216 83l-20 -91q-137 0 -137 110q0 20 7 55l121 573h93l-122 -577q-5 -20 -5 -34q0 -39 44 -39q9 0 19 3z" />
<glyph unicode="m" horiz-adv-x="784" d="M742 85l-20 -91q-136 0 -136 111q0 25 6 53l43 199q5 25 5 43q0 72 -67 72q-48 0 -75.5 -38.5t-44.5 -117.5l-67 -316h-92l77 363q5 25 5 41q0 68 -63 68q-30 0 -53.5 -16.5t-38.5 -47.5t-23.5 -58.5t-16.5 -66.5l-60 -283h-92l100 470q6 26 6 61q0 10 -1 14h83v-17v-16 l-4 -39h2q50 80 132 80q48 0 77 -26t37 -70h2q48 98 148 98q60 0 91 -37t31 -98q0 -29 -9 -76l-40 -190q-4 -22 -4 -32q0 -40 43 -40q13 0 19 3z" />
<glyph unicode="n" horiz-adv-x="547" d="M498 84l-20 -91q-136 0 -136 110q0 25 6 55l41 189q6 27 6 52q0 80 -70 80q-56 0 -87.5 -45t-50.5 -128q-23 -102 -65 -306h-93l100 470q6 26 6 61q0 10 -1 14h84v-13q0 -26 -4 -57h2q51 78 138 78q133 0 133 -141q0 -38 -7 -72l-40 -186q-4 -16 -4 -31q0 -42 39 -42 q11 0 23 3z" />
<glyph unicode="o" horiz-adv-x="500" d="M231 74q44 0 81 41t56.5 101t19.5 121q0 63 -24.5 99t-70.5 36q-65 0 -110.5 -83t-45.5 -180q0 -62 25 -98.5t69 -36.5zM222 -10q-87 0 -131 59t-44 151q0 91 27.5 170t87.5 132t141 53q87 0 131 -59t44 -151q0 -91 -26.5 -169.5t-86.5 -132t-143 -53.5z" />
<glyph unicode="p" horiz-adv-x="511" d="M78 -200h-92q14 66 62.5 295t75.5 353q10 46 10 80v17h83q1 -6 1 -13q0 -20 -6 -51h2q56 74 133 74q68 0 105.5 -49t37.5 -141q0 -59 -16 -123t-45 -121.5t-77.5 -94t-105.5 -36.5q-85 0 -112 74h-2q-8 -43 -16 -81zM186 306l-24 -110q-4 -22 -4 -31q0 -41 20.5 -67 t59.5 -26q49 0 87 47.5t55.5 112t17.5 130.5q0 112 -78 112q-99 0 -134 -168z" />
<glyph unicode="q" horiz-adv-x="502" d="M355 -200h-92l31 148l10 46t10 42t6 25h-2q-53 -71 -137 -71q-66 0 -99.5 46.5t-33.5 125.5q0 95 31.5 184.5t91 149t130.5 59.5q42 0 71.5 -21.5t42.5 -54.5h2q4 16 10.5 32.5t10.5 24.5l4 9h83q-18 -30 -29 -84zM223 71q46 0 78 42.5t43.5 83t29.5 127.5q3 12 4 18 q6 24 6 40q0 37 -21.5 61.5t-59.5 24.5q-51 0 -89 -48.5t-54.5 -108t-16.5 -113.5q0 -62 16 -94.5t64 -32.5z" />
<glyph unicode="r" horiz-adv-x="341" d="M122 0h-93l100 470q6 26 6 61q0 10 -1 14h84v-15q0 -27 -4 -60h2q51 83 138 83q18 0 41 -7l-28 -89q-12 6 -34 6q-59 0 -95.5 -41.5t-50.5 -111.5z" />
<glyph unicode="s" horiz-adv-x="452" d="M466 466l-72 -56q-16 31 -49.5 48.5t-72.5 17.5q-40 0 -67 -19.5t-27 -55.5q0 -25 24.5 -44.5t60 -35t71 -34t60 -50.5t24.5 -76q0 -76 -52.5 -123.5t-139.5 -47.5q-68 0 -125.5 30t-83.5 78l67 52q21 -35 62.5 -56t88.5 -21q42 0 67.5 21t25.5 56q0 28 -24.5 49 t-59.5 36t-70.5 32.5t-60 50t-24.5 77.5q0 70 51.5 114t136.5 44q58 0 109.5 -23t79.5 -64z" />
<glyph unicode="t" horiz-adv-x="334" d="M271 87l1 -88q-38 -10 -68 -10q-64 0 -99 36.5t-35 97.5q0 27 6 56l61 286h-65l18 80h64l31 143h92l-30 -143h113l-18 -80h-113l-62 -296q-4 -16 -4 -30q0 -63 60 -63q26 0 48 11z" />
<glyph unicode="u" horiz-adv-x="547" d="M498 85l-20 -91q-66 0 -94.5 21.5t-35.5 66.5h-2q-50 -92 -139 -92q-72 0 -109.5 43t-37.5 112q0 30 7 59l73 341h92l-74 -349q-5 -22 -5 -38q0 -92 82 -92q47 0 79 41.5t44 98.5l73 339h92l-83 -390q-4 -24 -4 -31q0 -42 43 -42q9 0 19 3z" />
<glyph unicode="v" horiz-adv-x="446" d="M221 1h-97l-51 544h98l21 -303l3 -126h2q27 69 51 121l145 308h100z" />
<glyph unicode="w" horiz-adv-x="731" d="M518 1h-97l-19 291l-3 118h-3q-22 -55 -49 -115l-137 -294h-97l-40 544h99l11 -294l1 -135h2q30 73 55 128l141 301h86l19 -294l5 -135h2q28 73 52 129l133 300h100z" />
<glyph unicode="x" horiz-adv-x="437" d="M372 0h-96l-36 146q-17 73 -16 73h-2q-5 -16 -36 -62l-106 -157h-98l189 275l-75 270h97l33 -131l18 -84h2q26 40 52 79l91 136h99l-191 -272z" />
<glyph unicode="y" horiz-adv-x="447" d="M129 0l-59 545h104l15 -234q2 -32 4 -77t3.5 -72t2.5 -31h2q1 2 12 28t28.5 66.5t32.5 72.5l117 247h100l-273 -555q-51 -104 -100 -151t-115 -47q-65 0 -106 35l55 74q29 -21 51 -21q39 0 64.5 26t61.5 94z" />
<glyph unicode="z" horiz-adv-x="448" d="M350 0h-368v2l243 326q19 26 44.5 56.5t42 50t17.5 19.5v2h-218l20 89h363v-3l-247 -326q-20 -26 -45.5 -57t-42 -49.5t-17.5 -19.5v-2h226z" />
<glyph unicode="{" horiz-adv-x="252" d="M171 -66l-16 -80q-67 0 -106.5 29t-39.5 89q0 39 19.5 83.5t43.5 77t43.5 69t19.5 61.5q0 23 -15.5 35t-40.5 12l18 83q39 0 61.5 24t22.5 66q0 22 -13 78.5t-13 91.5q0 103 57.5 150t153.5 47l-18 -87h-6q-45 0 -72 -25.5t-27 -80.5q0 -24 12 -74t12 -79 q0 -63 -29.5 -103t-74.5 -49v-2q26 -5 41 -25.5t15 -49.5q0 -46 -31 -100.5t-62 -104.5t-31 -86q0 -29 19.5 -39.5t56.5 -10.5z" />
<glyph unicode="|" horiz-adv-x="217" d="M100 -100h-98l192 900h98z" />
<glyph unicode="}" horiz-adv-x="252" d="M198 770l16 80q67 0 106.5 -29t39.5 -89q0 -39 -19.5 -83.5t-43.5 -77t-43.5 -69t-19.5 -61.5q0 -23 15.5 -35t40.5 -12l-18 -83q-39 0 -61.5 -24t-22.5 -66q0 -23 13 -79.5t13 -90.5q0 -103 -57.5 -150t-153.5 -47l18 87h6q45 0 72 25.5t27 80.5q0 24 -12 74t-12 79 q0 63 29.5 103t74.5 49v2q-26 5 -41 25.5t-15 49.5q0 46 31 100.5t62 104.5t31 86q0 29 -19.5 39.5t-56.5 10.5z" />
<glyph unicode="~" horiz-adv-x="409" d="M352 452l67 -2q-5 -52 -34 -84.5t-77 -32.5q-37 0 -80 25.5t-57 25.5q-30 0 -41 -45l-66 2q5 56 35.5 86.5t75.5 30.5q37 0 79.5 -26t56.5 -26q17 0 27.5 13.5t13.5 32.5z" />
<glyph unicode="&#xa1;" horiz-adv-x="225" d="M119 0h-92l110 515h92zM211 596q-23 0 -39.5 16t-16.5 41q0 24 16.5 40t39.5 16q24 0 40.5 -16t16.5 -40t-16.5 -40.5t-40.5 -16.5z" />
<glyph unicode="&#xa2;" horiz-adv-x="436" d="M133 61h-42l60 114q-78 48 -78 152q0 96 61.5 167.5t158.5 71.5q33 0 60 -9l57 106h42l-65 -121q46 -28 63 -71l-70 -58q-23 65 -92 65q-53 0 -87.5 -41t-34.5 -99q0 -44 25 -73t73 -29q56 0 101 57l52 -66q-74 -79 -163 -79q-42 0 -69 11z" />
<glyph unicode="&#xa3;" horiz-adv-x="518" d="M418 109l20 -82q-53 -41 -107 -41q-32 0 -92 11t-87 11q-48 0 -80 -27l-36 69q88 67 103 225h-81l8 36h78q2 18 5.5 55.5t5.5 57.5t6.5 54t9.5 53.5t13.5 47.5t19 44t26 35t33.5 29t43 16.5t54 6.5q73 0 120 -46t51 -122l-87 -40q0 52 -22.5 85.5t-63.5 33.5 q-23 0 -40.5 -9t-29 -28t-19.5 -39.5t-13 -52.5t-8 -56.5t-7 -63t-7 -61.5h160l-8 -36h-157q-22 -130 -77 -185q1 -1 1 -2q8 1 23 1q20 0 65.5 -6t72.5 -6q68 0 104 32z" />
<glyph unicode="&#xa4;" horiz-adv-x="549" d="M411 193l75 -53q-78 -150 -211 -150q-94 0 -137 62.5t-43 162.5q0 41 4 78h-59l8 34h55l9 46h-55l8 34h54q21 88 54 152.5t89.5 107.5t128.5 43q80 0 121.5 -47.5t50.5 -126.5l-88 -39q-4 124 -90 124q-112 0 -171 -214h175l-8 -34h-175l-9 -46h174l-7 -34h-172 q-5 -40 -5 -70q0 -145 94 -145q78 0 130 115z" />
<glyph unicode="&#xa5;" horiz-adv-x="465" d="M235 0h-94q18 82 32 150h-125l8 34h124l5 21l-7 50h-108l8 34h96l-49 411h99l23 -258l6 -118h2q13 32 56 117l131 259h106l-223 -411h89l-8 -34h-100l-29 -54l-4 -17h119l-8 -34h-118z" />
<glyph unicode="&#xa6;" horiz-adv-x="205" d="M90 -100h-92l88 413h92zM197 400h-92l85 400h92z" />
<glyph unicode="&#xa7;" horiz-adv-x="503" d="M428 224v-2q24 -19 24 -66q0 -67 -56 -116.5t-152 -49.5q-77 0 -133.5 33t-78.5 87l76 48q14 -37 56.5 -62t94.5 -25q49 0 77 23t28 54q0 28 -27 47t-66 32.5t-77.5 28.5t-65.5 44.5t-27 72.5q0 39 21 71.5t56 48.5v2q-19 22 -19 61q0 65 50.5 110t134.5 45 q74 0 123.5 -35t64.5 -91l-77 -44q-10 41 -38.5 65.5t-72.5 24.5q-41 0 -66.5 -20.5t-25.5 -50.5q0 -27 24.5 -47t60 -34t71 -30.5t60 -45.5t24.5 -69q0 -71 -64 -110zM218 454q-39 -24 -39 -62q0 -30 30.5 -50.5t86 -41.5t82.5 -38q31 19 31 54q0 30 -29.5 50.5t-81.5 43 t-80 44.5z" />
<glyph unicode="&#xa8;" horiz-adv-x="296" d="M259 814q0 -20 -13.5 -32.5t-34.5 -12.5q-20 0 -33 12.5t-13 32.5t13 33t33 13q21 0 34.5 -13t13.5 -33zM410 814q0 -20 -13.5 -32.5t-33.5 -12.5t-33.5 12.5t-13.5 32.5t13.5 33t33.5 13t33.5 -13t13.5 -33z" />
<glyph unicode="&#xa9;" horiz-adv-x="783" d="M769 350q0 -153 -104 -256.5t-257 -103.5q-154 0 -258 103t-104 257q0 153 104 256.5t258 103.5q153 0 257 -103.5t104 -256.5zM408 50q128 0 212 85.5t84 214.5q0 128 -84 214t-212 86t-213 -86t-85 -214q0 -129 85 -214.5t213 -85.5zM456 297l52 -28q-26 -81 -102 -81 q-59 0 -90 47t-31 121t31 120.5t90 46.5q74 0 100 -79l-51 -26q-13 45 -49 45q-28 0 -43 -28t-15 -79q0 -108 58 -108q35 0 50 49z" />
<glyph unicode="&#xaa;" horiz-adv-x="269" d="M295 383h-64l-1 56h-80l-25 -56h-67l160 317h51q7 -97 26 -317zM229 485l-1 71q0 15 0.5 33t0.5 24v9h-2q-12 -33 -27 -68l-30 -69h59z" />
<glyph unicode="&#xab;" horiz-adv-x="390" d="M216 224l-63 -50l-129 146l14 67l191 145l49 -58l-96 -68q-11 -8 -25 -17t-25.5 -16t-21 -13t-15.5 -10t-7 -4v-2q24 -18 63 -56zM397 224l-63 -50l-129 146l14 67l191 145l49 -58l-96 -68q-11 -8 -25 -17t-25.5 -16t-21 -13t-15.5 -10t-7 -4v-2q24 -18 63 -56z" />
<glyph unicode="&#xac;" horiz-adv-x="344" d="M319 255l-61 -48l-64 88l-109 -89l-46 62l114 86l-67 87l60 47l63 -88l110 89l46 -61l-114 -87z" />
<glyph unicode="&#xae;" horiz-adv-x="783" d="M768 350q0 -153 -104 -256.5t-257 -103.5q-154 0 -258 103t-104 257q0 153 104 256.5t258 103.5q153 0 257 -103.5t104 -256.5zM408 50q128 0 212 85.5t84 214.5q0 128 -84 213.5t-212 85.5t-213.5 -85.5t-85.5 -213.5q0 -129 85.5 -214.5t213.5 -85.5zM528 195h-70 l-43 99q-5 -1 -16 -1h-28v-98h-63v322h97q55 0 84.5 -30.5t29.5 -81.5q0 -64 -43 -94zM371 353h35q50 0 50 52q0 51 -50 51h-35v-103z" />
<glyph unicode="&#xaf;" horiz-adv-x="306" d="M400 772h-258l16 74h258z" />
<glyph unicode="&#xb0;" horiz-adv-x="268" d="M215 486q-52 0 -81 30.5t-29 71.5q0 53 36 91.5t97 38.5q50 0 78 -30.5t28 -69.5q0 -53 -35.5 -92.5t-93.5 -39.5zM216 551q25 0 41.5 19.5t16.5 43.5q0 17 -10 27.5t-29 10.5q-26 0 -42 -19.5t-16 -43.5q0 -38 39 -38z" />
<glyph unicode="&#xb1;" horiz-adv-x="370" d="M379 401h-112l-25 -117h-81l25 117h-112l16 74h112l25 117h81l-25 -117h112zM301 150h-253l17 82h253z" />
<glyph unicode="&#xb2;" horiz-adv-x="280" d="M270 385h-195l2 10l157 176q29 32 29 53q0 29 -30 29q-34 0 -57 -60l-53 26q40 91 114 91q42 0 65.5 -22.5t23.5 -56.5q0 -52 -47 -97l-29 -28q-55 -53 -64 -61v-2h97z" />
<glyph unicode="&#xb3;" horiz-adv-x="264" d="M330 655l-62 -52l-40 -30l1 -2q32 -5 51 -26t19 -55q0 -46 -32 -80.5t-87 -34.5q-43 0 -71 22t-33 58l58 27q7 -49 53 -49q23 0 37 15t14 36q0 20 -12.5 31.5t-32.5 12.5q-6 0 -18 -2l-16 45l46 39l43 31v2h-117l12 57h196z" />
<glyph unicode="&#xb4;" horiz-adv-x="256" d="M392 828l-224 -94l-28 60l218 106z" />
<glyph unicode="&#xb6;" horiz-adv-x="513" d="M344 0h-89l41 195h-45q-100 0 -148.5 60.5t-48.5 156.5q0 71 31.5 135t98.5 108.5t155 44.5h153zM424 0h-40l148 700h40z" />
<glyph unicode="&#xb7;" horiz-adv-x="208" d="M131 263q-23 0 -39.5 16.5t-16.5 40.5t16.5 40t39.5 16q24 0 40.5 -16t16.5 -40t-16.5 -40.5t-40.5 -16.5z" />
<glyph unicode="&#xb8;" horiz-adv-x="242" d="M-43 -216l51 39q16 -31 57 -31q24 0 41 15.5t17 39.5q0 17 -11 28t-31 11q-31 0 -54 -23l-48 27l59 136h58l-44 -95l2 -1q19 9 40 9q41 0 68 -24.5t27 -63.5q0 -55 -36.5 -88.5t-92.5 -33.5q-33 0 -61 15t-42 40z" />
<glyph unicode="&#xb9;" horiz-adv-x="179" d="M174 385h-64l55 255h-32l12 60h96z" />
<glyph unicode="&#xba;" horiz-adv-x="285" d="M190 371q-47 0 -69.5 34.5t-22.5 87.5q0 84 38.5 150.5t103.5 66.5q47 0 69.5 -34t22.5 -86q0 -86 -38.5 -152.5t-103.5 -66.5zM196 426q30 0 53.5 52t23.5 117q0 59 -41 59q-31 0 -53.5 -51.5t-22.5 -117.5q0 -59 40 -59z" />
<glyph unicode="&#xbb;" horiz-adv-x="393" d="M56 481l63 50l129 -146l-14 -67l-191 -145l-49 58l96 68q11 8 25 17t25.5 16t21 13t15.5 10t7 4v2q-24 18 -63 56zM240 481l63 50l129 -146l-14 -67l-191 -145l-49 58l96 68q11 8 25 17t25.5 16t21 13t15.5 10t7 4v2q-24 18 -63 56z" />
<glyph unicode="&#xbc;" horiz-adv-x="499" d="M350 0h-63l12 57h-118l168 259h68l-42 -198h35l-12 -61h-36zM318 114l24 115h-2q-34 -63 -69 -113v-2h47zM53 0h-76l475 700h77zM178 385h-64l55 255h-32l12 60h96z" />
<glyph unicode="&#xbd;" horiz-adv-x="501" d="M53 0h-76l475 700h77zM178 385h-64l55 255h-32l12 60h96zM409 0h-195l2 10l157 176q29 32 29 53q0 29 -30 29q-34 0 -57 -60l-53 26q40 91 114 91q42 0 65.5 -22.5t23.5 -56.5q0 -52 -47 -97l-29 -28q-55 -53 -64 -61v-2h97z" />
<glyph unicode="&#xbe;" horiz-adv-x="527" d="M382 0h-63l12 57h-118l168 259h68l-42 -198h35l-12 -61h-36zM350 114l24 115h-2q-34 -63 -69 -113v-2h47zM81 0h-76l475 700h77zM289 655l-62 -52l-40 -30l1 -2q32 -5 51 -26t19 -55q0 -46 -32 -80.5t-87 -34.5q-43 0 -71 22t-33 58l58 27q7 -49 53 -49q23 0 37 15t14 36 q0 20 -12.5 31.5t-32.5 12.5q-6 0 -18 -2l-16 45l46 39l43 31v2h-117l12 57h196z" />
<glyph unicode="&#xbf;" horiz-adv-x="428" d="M328 213l79 -53q-33 -77 -89.5 -121t-130.5 -44q-83 0 -129.5 44.5t-46.5 113.5q0 50 24 92.5t58.5 72.5t69.5 57t59 58t24 63q0 13 -8 34l80 27q18 -25 18 -64q0 -45 -23.5 -85t-57 -69t-67.5 -56t-57.5 -58.5t-23.5 -64.5q0 -31 22 -54t61 -23q48 0 84.5 36t53.5 94z M313 596q-23 0 -39.5 16t-16.5 41q0 24 16.5 40t39.5 16q24 0 40.5 -16t16.5 -40t-16.5 -40.5t-40.5 -16.5z" />
<glyph unicode="&#xc0;" horiz-adv-x="492" d="M441 0h-94q-2 47 -8 143h-201q-8 -17 -31.5 -66.5t-36.5 -76.5h-100l334 700h99zM338 232l-8 211q-3 84 -3 121h-2q-17 -53 -43 -108l-106 -224h162zM411 734l-224 94l34 72l218 -106z" />
<glyph unicode="&#xc1;" horiz-adv-x="492" d="M441 0h-94q-2 47 -8 143h-201q-8 -17 -31.5 -66.5t-36.5 -76.5h-100l334 700h99zM338 232l-8 211q-3 84 -3 121h-2q-17 -53 -43 -108l-106 -224h162zM484 828l-224 -94l-28 60l218 106z" />
<glyph unicode="&#xc2;" horiz-adv-x="492" d="M441 0h-94q-2 47 -8 143h-201q-8 -17 -31.5 -66.5t-36.5 -76.5h-100l334 700h99zM338 232l-8 211q-3 84 -3 121h-2q-17 -53 -43 -108l-106 -224h162zM512 804l-60 -54l-41 56q-29 40 -36 54h-2q-37 -38 -65 -62l-58 -50l-45 62l151 118h51z" />
<glyph unicode="&#xc3;" horiz-adv-x="492" d="M441 0h-94q-2 47 -8 143h-201q-8 -17 -31.5 -66.5t-36.5 -76.5h-100l334 700h99zM338 232l-8 211q-3 84 -3 121h-2q-17 -53 -43 -108l-106 -224h162zM476 892l67 -2q-5 -52 -34 -84.5t-77 -32.5q-37 0 -80 25.5t-57 25.5q-30 0 -41 -45l-66 2q5 56 35.5 86.5t75.5 30.5 q37 0 79.5 -26t56.5 -26q17 0 27.5 13.5t13.5 32.5z" />
<glyph unicode="&#xc4;" horiz-adv-x="492" d="M441 0h-94q-2 47 -8 143h-201q-8 -17 -31.5 -66.5t-36.5 -76.5h-100l334 700h99zM338 232l-8 211q-3 84 -3 121h-2q-17 -53 -43 -108l-106 -224h162zM338 814q0 -20 -13.5 -32.5t-34.5 -12.5q-20 0 -33 12.5t-13 32.5t13 33t33 13q21 0 34.5 -13t13.5 -33zM489 814 q0 -20 -13.5 -32.5t-33.5 -12.5t-33.5 12.5t-13.5 32.5t13.5 33t33.5 13t33.5 -13t13.5 -33z" />
<glyph unicode="&#xc5;" horiz-adv-x="492" d="M441 0h-94q-2 47 -8 143h-201q-8 -17 -31.5 -66.5t-36.5 -76.5h-100l334 700h99zM338 232l-8 211q-3 84 -3 121h-2q-17 -53 -43 -108l-106 -224h162zM368 767q-42 0 -65.5 24.5t-23.5 57.5q0 43 28.5 74t77.5 31q42 0 65 -24.5t23 -56.5q0 -43 -29 -74.5t-76 -31.5z M369 823q19 0 31.5 13.5t12.5 31.5q0 13 -8 21.5t-22 8.5q-19 0 -31.5 -14t-12.5 -32q0 -29 30 -29z" />
<glyph unicode="&#xc6;" horiz-adv-x="762" d="M664 0h-361l30 143h-186q-62 -96 -94 -143h-104l474 700h389q-17 -83 -18 -89h-272l-50 -234h233l-19 -88h-233l-42 -201h271q-16 -78 -18 -88zM352 232l38 182q7 33 15.5 70t16 68.5t8.5 35.5h-2q-58 -97 -81 -133l-145 -223h150z" />
<glyph unicode="&#xc7;" horiz-adv-x="503" d="M97 -216l51 39q16 -31 57 -31q24 0 41 15.5t17 39.5q0 17 -11 28t-31 11q-31 0 -54 -23l-48 27l49 114q-107 46 -107 214q0 59 9 121.5t31.5 130t55.5 120t86 86.5t118 34q81 0 126 -46.5t56 -126.5l-88 -40q-8 125 -101 125q-50 0 -90.5 -42t-63.5 -106t-35 -128.5 t-12 -119.5q0 -148 102 -148q84 0 139 115l74 -54q-80 -149 -221 -149q-11 0 -27 2l-28 -61l2 -1q20 9 40 9q41 0 68 -24.5t27 -63.5q0 -55 -36.5 -88.5t-92.5 -33.5q-33 0 -61 15t-42 40z" />
<glyph unicode="&#xc8;" horiz-adv-x="501" d="M404 0h-364l148 700h364l-18 -89h-271l-49 -234h231l-19 -88h-231l-43 -201h270zM476 734l-224 94l34 72l218 -106z" />
<glyph unicode="&#xc9;" horiz-adv-x="501" d="M404 0h-364l148 700h364l-18 -89h-271l-49 -234h231l-19 -88h-231l-43 -201h270zM508 828l-224 -94l-28 60l218 106z" />
<glyph unicode="&#xca;" horiz-adv-x="501" d="M404 0h-364l148 700h364l-18 -89h-271l-49 -234h231l-19 -88h-231l-43 -201h270zM540 804l-60 -54l-41 56q-29 40 -36 54h-2q-37 -38 -65 -62l-58 -50l-45 62l151 118h51z" />
<glyph unicode="&#xcb;" horiz-adv-x="501" d="M404 0h-364l148 700h364l-18 -89h-271l-49 -234h231l-19 -88h-231l-43 -201h270zM352 814q0 -20 -13.5 -32.5t-34.5 -12.5q-20 0 -33 12.5t-13 32.5t13 33t33 13q21 0 34.5 -13t13.5 -33zM503 814q0 -20 -13.5 -32.5t-33.5 -12.5t-33.5 12.5t-13.5 32.5t13.5 33t33.5 13 t33.5 -13t13.5 -33z" />
<glyph unicode="&#xcc;" horiz-adv-x="269" d="M143 0h-95l148 700h95zM364 734l-224 94l34 72l218 -106z" />
<glyph unicode="&#xcd;" horiz-adv-x="269" d="M143 0h-95l148 700h95zM383 828l-224 -94l-28 60l218 106z" />
<glyph unicode="&#xce;" horiz-adv-x="269" d="M143 0h-95l148 700h95zM415 804l-60 -54l-41 56q-29 40 -36 54h-2q-37 -38 -65 -62l-58 -50l-45 62l151 118h51z" />
<glyph unicode="&#xcf;" horiz-adv-x="269" d="M143 0h-95l148 700h95zM233 814q0 -20 -13.5 -32.5t-34.5 -12.5q-20 0 -33 12.5t-13 32.5t13 33t33 13q21 0 34.5 -13t13.5 -33zM384 814q0 -20 -13.5 -32.5t-33.5 -12.5t-33.5 12.5t-13.5 32.5t13.5 33t33.5 13t33.5 -13t13.5 -33z" />
<glyph unicode="&#xd0;" horiz-adv-x="540" d="M207 0h-175l65 314h-57l16 73h57l67 313h150q106 0 160 -70t54 -179q0 -121 -38.5 -222.5t-116.5 -165t-182 -63.5zM142 88h76q95 0 163 99t68 249q0 79 -30 127t-93 48h-73l-48 -224h108l-16 -73h-107z" />
<glyph unicode="&#xd1;" horiz-adv-x="606" d="M470 0h-79l-106 345q-35 113 -47 162h-2q1 0 -2 -16.5t-7.5 -43t-9.5 -49.5l-84 -398h-93l148 700h80l105 -341q48 -157 48 -161h2q10 70 20 116l82 386h93zM533 892l67 -2q-5 -52 -34 -84.5t-77 -32.5q-37 0 -80 25.5t-57 25.5q-30 0 -41 -45l-66 2q5 56 35.5 86.5 t75.5 30.5q37 0 79.5 -26t56.5 -26q17 0 27.5 13.5t13.5 32.5z" />
<glyph unicode="&#xd2;" d="M247 -10q-95 0 -141 62.5t-46 165.5q0 87 18 171.5t53.5 157.5t95 118t134.5 45q95 0 140.5 -63.5t45.5 -165.5q0 -87 -18 -171.5t-53 -157t-94.5 -117.5t-134.5 -45zM255 78q57 0 104 61t71.5 150t24.5 180q0 152 -102 152q-58 0 -105 -61.5t-71 -150t-24 -179.5 q0 -152 102 -152zM493 734l-224 94l34 72l218 -106z" />
<glyph unicode="&#xd3;" d="M247 -10q-95 0 -141 62.5t-46 165.5q0 87 18 171.5t53.5 157.5t95 118t134.5 45q95 0 140.5 -63.5t45.5 -165.5q0 -87 -18 -171.5t-53 -157t-94.5 -117.5t-134.5 -45zM255 78q57 0 104 61t71.5 150t24.5 180q0 152 -102 152q-58 0 -105 -61.5t-71 -150t-24 -179.5 q0 -152 102 -152zM522 828l-224 -94l-28 60l218 106z" />
<glyph unicode="&#xd4;" d="M247 -10q-95 0 -141 62.5t-46 165.5q0 87 18 171.5t53.5 157.5t95 118t134.5 45q95 0 140.5 -63.5t45.5 -165.5q0 -87 -18 -171.5t-53 -157t-94.5 -117.5t-134.5 -45zM255 78q57 0 104 61t71.5 150t24.5 180q0 152 -102 152q-58 0 -105 -61.5t-71 -150t-24 -179.5 q0 -152 102 -152zM544 804l-60 -54l-41 56q-29 40 -36 54h-2q-37 -38 -65 -62l-58 -50l-45 62l151 118h51z" />
<glyph unicode="&#xd5;" d="M247 -10q-95 0 -141 62.5t-46 165.5q0 87 18 171.5t53.5 157.5t95 118t134.5 45q95 0 140.5 -63.5t45.5 -165.5q0 -87 -18 -171.5t-53 -157t-94.5 -117.5t-134.5 -45zM255 78q57 0 104 61t71.5 150t24.5 180q0 152 -102 152q-58 0 -105 -61.5t-71 -150t-24 -179.5 q0 -152 102 -152zM506 892l67 -2q-5 -52 -34 -84.5t-77 -32.5q-37 0 -80 25.5t-57 25.5q-30 0 -41 -45l-66 2q5 56 35.5 86.5t75.5 30.5q37 0 79.5 -26t56.5 -26q17 0 27.5 13.5t13.5 32.5z" />
<glyph unicode="&#xd6;" d="M247 -10q-95 0 -141 62.5t-46 165.5q0 87 18 171.5t53.5 157.5t95 118t134.5 45q95 0 140.5 -63.5t45.5 -165.5q0 -87 -18 -171.5t-53 -157t-94.5 -117.5t-134.5 -45zM255 78q57 0 104 61t71.5 150t24.5 180q0 152 -102 152q-58 0 -105 -61.5t-71 -150t-24 -179.5 q0 -152 102 -152zM366 814q0 -20 -13.5 -32.5t-34.5 -12.5q-20 0 -33 12.5t-13 32.5t13 33t33 13q21 0 34.5 -13t13.5 -33zM517 814q0 -20 -13.5 -32.5t-33.5 -12.5t-33.5 12.5t-13.5 32.5t13.5 33t33.5 13t33.5 -13t13.5 -33z" />
<glyph unicode="&#xd7;" horiz-adv-x="344" d="M319 255l-61 -48l-64 88l-109 -89l-46 62l114 86l-67 87l60 47l63 -88l110 89l46 -61l-114 -87z" />
<glyph unicode="&#xd8;" d="M247 -10q-95 0 -141 62.5t-46 165.5q0 87 18 171.5t53.5 157.5t95 118t134.5 45q95 0 140.5 -63.5t45.5 -165.5q0 -87 -18 -171.5t-53 -157t-94.5 -117.5t-134.5 -45zM445 550l-266 -436q25 -36 76 -36q57 0 104 61t71.5 150t24.5 180q0 48 -10 81zM162 151l266 435 q-25 35 -75 35q-58 0 -105 -61.5t-71 -150t-24 -179.5q0 -44 9 -79z" />
<glyph unicode="&#xd9;" horiz-adv-x="567" d="M403 228l100 472h95l-101 -478q-26 -122 -83 -177t-147 -55q-81 0 -134.5 48t-53.5 133q0 32 7 63l99 466h95l-100 -473q-6 -27 -6 -49q0 -49 26 -74.5t72 -25.5q54 0 84.5 36.5t46.5 113.5zM495 734l-224 94l34 72l218 -106z" />
<glyph unicode="&#xda;" horiz-adv-x="567" d="M403 228l100 472h95l-101 -478q-26 -122 -83 -177t-147 -55q-81 0 -134.5 48t-53.5 133q0 32 7 63l99 466h95l-100 -473q-6 -27 -6 -49q0 -49 26 -74.5t72 -25.5q54 0 84.5 36.5t46.5 113.5zM527 828l-224 -94l-28 60l218 106z" />
<glyph unicode="&#xdb;" horiz-adv-x="567" d="M403 228l100 472h95l-101 -478q-26 -122 -83 -177t-147 -55q-81 0 -134.5 48t-53.5 133q0 32 7 63l99 466h95l-100 -473q-6 -27 -6 -49q0 -49 26 -74.5t72 -25.5q54 0 84.5 36.5t46.5 113.5zM570 804l-60 -54l-41 56q-29 40 -36 54h-2q-37 -38 -65 -62l-58 -50l-45 62 l151 118h51z" />
<glyph unicode="&#xdc;" horiz-adv-x="567" d="M403 228l100 472h95l-101 -478q-26 -122 -83 -177t-147 -55q-81 0 -134.5 48t-53.5 133q0 32 7 63l99 466h95l-100 -473q-6 -27 -6 -49q0 -49 26 -74.5t72 -25.5q54 0 84.5 36.5t46.5 113.5zM376 814q0 -20 -13.5 -32.5t-34.5 -12.5q-20 0 -33 12.5t-13 32.5t13 33t33 13 q21 0 34.5 -13t13.5 -33zM527 814q0 -20 -13.5 -32.5t-33.5 -12.5t-33.5 12.5t-13.5 32.5t13.5 33t33.5 13t33.5 -13t13.5 -33z" />
<glyph unicode="&#xdd;" horiz-adv-x="460" d="M238 0h-93l42 204l-73 496h99l28 -238l15 -139h2q30 65 70 138l131 239h107l-286 -500zM485 828l-224 -94l-28 60l218 106z" />
<glyph unicode="&#xde;" horiz-adv-x="502" d="M133 0h-93l149 700h92l-19 -90h62q87 0 133.5 -54.5t46.5 -139.5q0 -58 -17 -112t-49.5 -99.5t-86.5 -72.5t-122 -27h-74zM173 193h65q77 0 125.5 64t48.5 154q0 52 -26 81.5t-78 29.5h-65z" />
<glyph unicode="&#xdf;" horiz-adv-x="534" d="M171 36l48 75q32 -38 89 -38q37 0 61 25.5t24 56.5q0 26 -14.5 49t-34.5 40.5t-40.5 35t-35 42t-14.5 53.5q0 38 23.5 67.5t51.5 46t51.5 43t23.5 59.5q0 32 -19 50.5t-52 18.5q-24 0 -42 -11.5t-29.5 -35.5t-18 -46t-14.5 -58l-107 -509h-93l117 549q40 192 194 192 q66 0 108.5 -36.5t42.5 -101.5q0 -41 -15 -72t-36.5 -48.5t-43 -31.5t-36.5 -30.5t-15 -37.5t15 -39t36 -33.5t42 -33.5t36 -47t15 -66q0 -77 -49 -125t-137 -48q-43 0 -82 15.5t-50 29.5z" />
<glyph unicode="&#xe0;" horiz-adv-x="535" d="M489 85l-21 -91q-67 0 -95.5 23t-31.5 69h-2q-25 -44 -59 -70t-88 -26q-70 0 -105.5 52t-35.5 139q0 93 30 177t91 140.5t140 56.5q77 0 120.5 -46t43.5 -114q0 -25 -8 -63l-38 -178q-4 -22 -4 -30q0 -42 44 -42q8 0 19 3zM221 75q33 0 60.5 24t45 64.5t27.5 75.5t17 73 q11 63 11 72q0 37 -20.5 62.5t-57.5 25.5q-67 0 -114 -86t-47 -201q0 -110 78 -110zM439 586l-224 94l34 72l218 -106z" />
<glyph unicode="&#xe1;" horiz-adv-x="535" d="M489 85l-21 -91q-67 0 -95.5 23t-31.5 69h-2q-25 -44 -59 -70t-88 -26q-70 0 -105.5 52t-35.5 139q0 93 30 177t91 140.5t140 56.5q77 0 120.5 -46t43.5 -114q0 -25 -8 -63l-38 -178q-4 -22 -4 -30q0 -42 44 -42q8 0 19 3zM221 75q33 0 60.5 24t45 64.5t27.5 75.5t17 73 q11 63 11 72q0 37 -20.5 62.5t-57.5 25.5q-67 0 -114 -86t-47 -201q0 -110 78 -110zM469 680l-224 -94l-28 60l218 106z" />
<glyph unicode="&#xe2;" horiz-adv-x="535" d="M489 85l-21 -91q-67 0 -95.5 23t-31.5 69h-2q-25 -44 -59 -70t-88 -26q-70 0 -105.5 52t-35.5 139q0 93 30 177t91 140.5t140 56.5q77 0 120.5 -46t43.5 -114q0 -25 -8 -63l-38 -178q-4 -22 -4 -30q0 -42 44 -42q8 0 19 3zM221 75q33 0 60.5 24t45 64.5t27.5 75.5t17 73 q11 63 11 72q0 37 -20.5 62.5t-57.5 25.5q-67 0 -114 -86t-47 -201q0 -110 78 -110zM491 649l-60 -54l-41 56q-29 40 -36 54h-2q-37 -38 -65 -62l-58 -50l-45 62l151 118h51z" />
<glyph unicode="&#xe3;" horiz-adv-x="535" d="M489 85l-21 -91q-67 0 -95.5 23t-31.5 69h-2q-25 -44 -59 -70t-88 -26q-70 0 -105.5 52t-35.5 139q0 93 30 177t91 140.5t140 56.5q77 0 120.5 -46t43.5 -114q0 -25 -8 -63l-38 -178q-4 -22 -4 -30q0 -42 44 -42q8 0 19 3zM221 75q33 0 60.5 24t45 64.5t27.5 75.5t17 73 q11 63 11 72q0 37 -20.5 62.5t-57.5 25.5q-67 0 -114 -86t-47 -201q0 -110 78 -110zM461 742l67 -2q-5 -52 -34 -84.5t-77 -32.5q-37 0 -80 25.5t-57 25.5q-30 0 -41 -45l-66 2q5 56 35.5 86.5t75.5 30.5q37 0 79.5 -26t56.5 -26q17 0 27.5 13.5t13.5 32.5z" />
<glyph unicode="&#xe4;" horiz-adv-x="535" d="M489 85l-21 -91q-67 0 -95.5 23t-31.5 69h-2q-25 -44 -59 -70t-88 -26q-70 0 -105.5 52t-35.5 139q0 93 30 177t91 140.5t140 56.5q77 0 120.5 -46t43.5 -114q0 -25 -8 -63l-38 -178q-4 -22 -4 -30q0 -42 44 -42q8 0 19 3zM221 75q33 0 60.5 24t45 64.5t27.5 75.5t17 73 q11 63 11 72q0 37 -20.5 62.5t-57.5 25.5q-67 0 -114 -86t-47 -201q0 -110 78 -110zM307 663q0 -20 -13.5 -32.5t-34.5 -12.5q-20 0 -33 12.5t-13 32.5t13 33t33 13q21 0 34.5 -13t13.5 -33zM458 663q0 -20 -13.5 -32.5t-33.5 -12.5t-33.5 12.5t-13.5 32.5t13.5 33t33.5 13 t33.5 -13t13.5 -33z" />
<glyph unicode="&#xe5;" horiz-adv-x="535" d="M489 85l-21 -91q-67 0 -95.5 23t-31.5 69h-2q-25 -44 -59 -70t-88 -26q-70 0 -105.5 52t-35.5 139q0 93 30 177t91 140.5t140 56.5q77 0 120.5 -46t43.5 -114q0 -25 -8 -63l-38 -178q-4 -22 -4 -30q0 -42 44 -42q8 0 19 3zM221 75q33 0 60.5 24t45 64.5t27.5 75.5t17 73 q11 63 11 72q0 37 -20.5 62.5t-57.5 25.5q-67 0 -114 -86t-47 -201q0 -110 78 -110zM334 605q-42 0 -65.5 24.5t-23.5 57.5q0 43 28.5 74t77.5 31q42 0 65 -24.5t23 -56.5q0 -43 -29 -74.5t-76 -31.5zM335 661q19 0 31.5 13.5t12.5 31.5q0 13 -8 21.5t-22 8.5 q-19 0 -31.5 -14t-12.5 -32q0 -29 30 -29z" />
<glyph unicode="&#xe6;" horiz-adv-x="855" d="M689 149l61 -63q-47 -48 -91 -72t-101 -24q-140 0 -162 157h-2q-26 -65 -76.5 -111t-126.5 -46q-71 0 -105 37t-34 92q0 96 84.5 148.5t241.5 53.5q0 2 6.5 33t6.5 45q0 75 -70 75q-69 0 -127 -82l-59 64q92 99 188 99q57 0 89 -30.5t38 -84.5h2q70 115 177 115 q79 0 123 -56.5t44 -143.5q0 -35 -13 -104h-323q-3 -19 -3 -39q0 -65 27.5 -102.5t78.5 -37.5q72 0 126 77zM358 226l6 25q-222 0 -222 -124q0 -30 17.5 -45.5t47.5 -15.5q55 0 95.5 48t55.5 112zM474 321h231q1 5 1 35q0 52 -24 87t-64 35q-49 0 -87 -44.5t-57 -112.5z" />
<glyph unicode="&#xe7;" horiz-adv-x="454" d="M87 -216l51 39q16 -31 57 -31q24 0 41 15.5t17 39.5q0 17 -11 28t-31 11q-31 0 -54 -23l-48 27l49 112q-107 43 -107 194q0 61 15 122t44.5 115.5t80 88t114.5 33.5q122 0 160 -123l-80 -52q-5 42 -27.5 65t-59.5 23q-46 0 -82.5 -42t-54 -100t-17.5 -117q0 -133 93 -133 q57 0 107 81l61 -60q-36 -54 -76 -80.5t-100 -26.5q-3 0 -10 0.5t-10 0.5l-27 -60l2 -1q20 9 40 9q41 0 68 -24.5t27 -63.5q0 -55 -36.5 -88.5t-92.5 -33.5q-33 0 -61 15t-42 40z" />
<glyph unicode="&#xe8;" horiz-adv-x="505" d="M375 149l61 -63q-93 -96 -190 -96q-96 0 -146 60.5t-50 159.5q0 81 30 159t90 132t136 54q88 0 132 -55.5t44 -143.5q0 -36 -8 -79l-6 -35h-322q-2 -12 -2 -33q0 -65 28 -101t79 -36q35 0 68 21t56 56zM159 311h232q2 24 2 37q0 58 -23 94t-66 36q-51 0 -89 -47.5 t-56 -119.5zM450 587l-224 94l34 72l218 -106z" />
<glyph unicode="&#xe9;" horiz-adv-x="505" d="M375 149l61 -63q-93 -96 -190 -96q-96 0 -146 60.5t-50 159.5q0 81 30 159t90 132t136 54q88 0 132 -55.5t44 -143.5q0 -36 -8 -79l-6 -35h-322q-2 -12 -2 -33q0 -65 28 -101t79 -36q35 0 68 21t56 56zM159 311h232q2 24 2 37q0 58 -23 94t-66 36q-51 0 -89 -47.5 t-56 -119.5zM460 680l-224 -94l-28 60l218 106z" />
<glyph unicode="&#xea;" horiz-adv-x="505" d="M375 149l61 -63q-93 -96 -190 -96q-96 0 -146 60.5t-50 159.5q0 81 30 159t90 132t136 54q88 0 132 -55.5t44 -143.5q0 -36 -8 -79l-6 -35h-322q-2 -12 -2 -33q0 -65 28 -101t79 -36q35 0 68 21t56 56zM159 311h232q2 24 2 37q0 58 -23 94t-66 36q-51 0 -89 -47.5 t-56 -119.5zM490 649l-60 -54l-41 56q-29 40 -36 54h-2q-37 -38 -65 -62l-58 -50l-45 62l151 118h51z" />
<glyph unicode="&#xeb;" horiz-adv-x="505" d="M375 149l61 -63q-93 -96 -190 -96q-96 0 -146 60.5t-50 159.5q0 81 30 159t90 132t136 54q88 0 132 -55.5t44 -143.5q0 -36 -8 -79l-6 -35h-322q-2 -12 -2 -33q0 -65 28 -101t79 -36q35 0 68 21t56 56zM159 311h232q2 24 2 37q0 58 -23 94t-66 36q-51 0 -89 -47.5 t-56 -119.5zM306 668q0 -20 -13.5 -32.5t-34.5 -12.5q-20 0 -33 12.5t-13 32.5t13 33t33 13q21 0 34.5 -13t13.5 -33zM457 668q0 -20 -13.5 -32.5t-33.5 -12.5t-33.5 12.5t-13.5 32.5t13.5 33t33.5 13t33.5 -13t13.5 -33z" />
<glyph unicode="&#xec;" horiz-adv-x="275" d="M258 584l-176 91l38 69l170 -102zM209 89l-20 -91q-137 0 -137 110q0 20 7 55l61 285q10 49 10 82q0 11 -1 15h87q1 -5 1 -16q2 -46 -18 -139l-49 -231q-4 -19 -4 -31q0 -42 40 -42q11 0 23 3z" />
<glyph unicode="&#xed;" horiz-adv-x="275" d="M311 674l-177 -91l-31 58l169 103zM209 89l-20 -91q-137 0 -137 110q0 20 7 55l61 285q10 49 10 82q0 11 -1 15h87q1 -5 1 -16q2 -46 -18 -139l-49 -231q-4 -19 -4 -31q0 -42 40 -42q11 0 23 3z" />
<glyph unicode="&#xee;" horiz-adv-x="275" d="M209 89l-20 -91q-137 0 -137 110q0 20 7 55l61 285q10 49 10 82q0 11 -1 15h87q1 -5 1 -16q2 -46 -18 -139l-49 -231q-4 -19 -4 -31q0 -42 40 -42q11 0 23 3zM326 647l-52 -47l-36 49q-26 36 -32 47h-1q-33 -33 -57 -54l-51 -44l-39 54l132 103h44z" />
<glyph unicode="&#xef;" horiz-adv-x="275" d="M179 668q0 -20 -13.5 -32.5t-33.5 -12.5t-33.5 12.5t-13.5 32.5t13.5 33t33.5 13t33.5 -13t13.5 -33zM306 668q0 -20 -13.5 -32.5t-34.5 -12.5q-20 0 -33.5 12.5t-13.5 32.5t13.5 33t33.5 13t34 -13t14 -33zM209 89l-20 -91q-137 0 -137 110q0 20 7 55l61 285 q10 49 10 82q0 11 -1 15h87q1 -5 1 -16q2 -46 -18 -139l-49 -231q-4 -19 -4 -31q0 -42 40 -42q11 0 23 3z" />
<glyph unicode="&#xf0;" horiz-adv-x="538" d="M487 85l-20 -91q-66 0 -93 22.5t-34 69.5h-2q-52 -96 -146 -96q-69 0 -105 51.5t-36 136.5q0 155 70.5 259t172.5 104q43 0 71.5 -21t37.5 -55h2q14 42 14 96q0 25 -8 46q-9 -7 -28 -22t-28 -22l-24 30l54 46q-33 25 -103 25l18 85q92 -5 146 -53l71 63q22 -28 34 -41 l-72 -57q28 -45 28 -108q0 -37 -13 -98l-62 -283q-20 -89 41 -89zM360 270l16 72q3 11 3 31q0 37 -20.5 61.5t-57.5 24.5q-67 0 -112.5 -80t-45.5 -193q0 -111 78 -111q94 0 139 195z" />
<glyph unicode="&#xf1;" horiz-adv-x="548" d="M498 84l-20 -91q-136 0 -136 110q0 25 6 55l41 189q6 27 6 52q0 80 -70 80q-56 0 -87.5 -45t-50.5 -128q-23 -102 -65 -306h-93l100 470q6 26 6 61q0 10 -1 14h84v-13q0 -26 -4 -57h2q51 78 138 78q133 0 133 -141q0 -38 -7 -72l-40 -186q-4 -16 -4 -31q0 -42 39 -42 q11 0 23 3zM465 742l67 -2q-5 -52 -34 -84.5t-77 -32.5q-37 0 -80 25.5t-57 25.5q-30 0 -41 -45l-66 2q5 56 35.5 86.5t75.5 30.5q37 0 79.5 -26t56.5 -26q17 0 27.5 13.5t13.5 32.5z" />
<glyph unicode="&#xf2;" horiz-adv-x="500" d="M231 74q44 0 81 41t56.5 101t19.5 121q0 63 -24.5 99t-70.5 36q-65 0 -110.5 -83t-45.5 -180q0 -62 25 -98.5t69 -36.5zM222 -10q-87 0 -131 59t-44 151q0 91 27.5 170t87.5 132t141 53q87 0 131 -59t44 -151q0 -91 -26.5 -169.5t-86.5 -132t-143 -53.5zM428 586l-224 94 l34 72l218 -106z" />
<glyph unicode="&#xf3;" horiz-adv-x="500" d="M231 74q44 0 81 41t56.5 101t19.5 121q0 63 -24.5 99t-70.5 36q-65 0 -110.5 -83t-45.5 -180q0 -62 25 -98.5t69 -36.5zM222 -10q-87 0 -131 59t-44 151q0 91 27.5 170t87.5 132t141 53q87 0 131 -59t44 -151q0 -91 -26.5 -169.5t-86.5 -132t-143 -53.5zM456 680 l-224 -94l-28 60l218 106z" />
<glyph unicode="&#xf4;" horiz-adv-x="500" d="M231 74q44 0 81 41t56.5 101t19.5 121q0 63 -24.5 99t-70.5 36q-65 0 -110.5 -83t-45.5 -180q0 -62 25 -98.5t69 -36.5zM222 -10q-87 0 -131 59t-44 151q0 91 27.5 170t87.5 132t141 53q87 0 131 -59t44 -151q0 -91 -26.5 -169.5t-86.5 -132t-143 -53.5zM481 649l-60 -54 l-41 56q-29 40 -36 54h-2q-37 -38 -65 -62l-58 -50l-45 62l151 118h51z" />
<glyph unicode="&#xf5;" horiz-adv-x="500" d="M231 74q44 0 81 41t56.5 101t19.5 121q0 63 -24.5 99t-70.5 36q-65 0 -110.5 -83t-45.5 -180q0 -62 25 -98.5t69 -36.5zM222 -10q-87 0 -131 59t-44 151q0 91 27.5 170t87.5 132t141 53q87 0 131 -59t44 -151q0 -91 -26.5 -169.5t-86.5 -132t-143 -53.5zM445 737l67 -2 q-5 -52 -34 -84.5t-77 -32.5q-37 0 -80 25.5t-57 25.5q-30 0 -41 -45l-66 2q5 56 35.5 86.5t75.5 30.5q37 0 79.5 -26t56.5 -26q17 0 27.5 13.5t13.5 32.5z" />
<glyph unicode="&#xf6;" horiz-adv-x="500" d="M231 74q44 0 81 41t56.5 101t19.5 121q0 63 -24.5 99t-70.5 36q-65 0 -110.5 -83t-45.5 -180q0 -62 25 -98.5t69 -36.5zM222 -10q-87 0 -131 59t-44 151q0 91 27.5 170t87.5 132t141 53q87 0 131 -59t44 -151q0 -91 -26.5 -169.5t-86.5 -132t-143 -53.5zM291 672 q0 -20 -13.5 -32.5t-34.5 -12.5q-20 0 -33 12.5t-13 32.5t13 33t33 13q21 0 34.5 -13t13.5 -33zM442 672q0 -20 -13.5 -32.5t-33.5 -12.5t-33.5 12.5t-13.5 32.5t13.5 33t33.5 13t33.5 -13t13.5 -33z" />
<glyph unicode="&#xf7;" horiz-adv-x="370" d="M375 291h-317l17 82h317zM195 144q-19 0 -32.5 13.5t-13.5 33.5q0 19 13.5 32.5t32.5 13.5q20 0 33.5 -13.5t13.5 -32.5q0 -20 -13.5 -33.5t-33.5 -13.5zM254 425q-19 0 -32.5 13.5t-13.5 33.5q0 19 13.5 32.5t32.5 13.5q20 0 33.5 -13.5t13.5 -32.5q0 -20 -13.5 -33.5 t-33.5 -13.5z" />
<glyph unicode="&#xf8;" horiz-adv-x="500" d="M222 -10q-87 0 -131 59t-44 151q0 91 27.5 170t87.5 132t141 53q87 0 131 -59t44 -151q0 -91 -26.5 -169.5t-86.5 -132t-143 -53.5zM351 450l-149 -372q12 -4 29 -4q44 0 81 41t56.5 101t19.5 121q0 79 -37 113zM173 96l148 372q-11 4 -28 4q-65 0 -110.5 -83t-45.5 -180 q0 -77 36 -113z" />
<glyph unicode="&#xf9;" horiz-adv-x="547" d="M498 85l-20 -91q-66 0 -94.5 21.5t-35.5 66.5h-2q-50 -92 -139 -92q-72 0 -109.5 43t-37.5 112q0 30 7 59l73 341h92l-74 -349q-5 -22 -5 -38q0 -92 82 -92q47 0 79 41.5t44 98.5l73 339h92l-83 -390q-4 -24 -4 -31q0 -42 43 -42q9 0 19 3zM436 586l-224 94l34 72 l218 -106z" />
<glyph unicode="&#xfa;" horiz-adv-x="547" d="M498 85l-20 -91q-66 0 -94.5 21.5t-35.5 66.5h-2q-50 -92 -139 -92q-72 0 -109.5 43t-37.5 112q0 30 7 59l73 341h92l-74 -349q-5 -22 -5 -38q0 -92 82 -92q47 0 79 41.5t44 98.5l73 339h92l-83 -390q-4 -24 -4 -31q0 -42 43 -42q9 0 19 3zM464 680l-224 -94l-28 60 l218 106z" />
<glyph unicode="&#xfb;" horiz-adv-x="547" d="M498 85l-20 -91q-66 0 -94.5 21.5t-35.5 66.5h-2q-50 -92 -139 -92q-72 0 -109.5 43t-37.5 112q0 30 7 59l73 341h92l-74 -349q-5 -22 -5 -38q0 -92 82 -92q47 0 79 41.5t44 98.5l73 339h92l-83 -390q-4 -24 -4 -31q0 -42 43 -42q9 0 19 3zM502 649l-60 -54l-41 56 q-29 40 -36 54h-2q-37 -38 -65 -62l-58 -50l-45 62l151 118h51z" />
<glyph unicode="&#xfc;" horiz-adv-x="547" d="M498 85l-20 -91q-66 0 -94.5 21.5t-35.5 66.5h-2q-50 -92 -139 -92q-72 0 -109.5 43t-37.5 112q0 30 7 59l73 341h92l-74 -349q-5 -22 -5 -38q0 -92 82 -92q47 0 79 41.5t44 98.5l73 339h92l-83 -390q-4 -24 -4 -31q0 -42 43 -42q9 0 19 3zM316 663q0 -20 -13.5 -32.5 t-34.5 -12.5q-20 0 -33 12.5t-13 32.5t13 33t33 13q21 0 34.5 -13t13.5 -33zM467 663q0 -20 -13.5 -32.5t-33.5 -12.5t-33.5 12.5t-13.5 32.5t13.5 33t33.5 13t33.5 -13t13.5 -33z" />
<glyph unicode="&#xfd;" horiz-adv-x="447" d="M129 0l-59 545h104l15 -234q2 -32 4 -77t3.5 -72t2.5 -31h2q1 2 12 28t28.5 66.5t32.5 72.5l117 247h100l-273 -555q-51 -104 -100 -151t-115 -47q-65 0 -106 35l55 74q29 -21 51 -21q39 0 64.5 26t61.5 94zM417 680l-224 -94l-28 60l218 106z" />
<glyph unicode="&#xfe;" horiz-adv-x="510" d="M77 -200h-92l198 930h93l-22 -101q-30 -136 -33 -138h2q46 64 123 64q68 0 105.5 -49t37.5 -141q0 -155 -72.5 -265t-171.5 -110q-43 0 -72.5 19.5t-40.5 53.5h-2q-7 -43 -17 -92zM237 72q49 0 86.5 47.5t55.5 113t18 131.5q0 110 -78 110q-47 0 -81 -39.5t-47 -92.5 q-32 -130 -32 -175q0 -41 19 -68t59 -27z" />
<glyph unicode="&#xff;" horiz-adv-x="447" d="M129 0l-59 545h104l15 -234q2 -32 4 -77t3.5 -72t2.5 -31h2q1 2 12 28t28.5 66.5t32.5 72.5l117 247h100l-273 -555q-51 -104 -100 -151t-115 -47q-65 0 -106 35l55 74q29 -21 51 -21q39 0 64.5 26t61.5 94zM266 663q0 -20 -13.5 -32.5t-34.5 -12.5q-20 0 -33 12.5 t-13 32.5t13 33t33 13q21 0 34.5 -13t13.5 -33zM417 663q0 -20 -13.5 -32.5t-33.5 -12.5t-33.5 12.5t-13.5 32.5t13.5 33t33.5 13t33.5 -13t13.5 -33z" />
<glyph unicode="&#x131;" horiz-adv-x="275" d="M209 89l-20 -91q-137 0 -137 110q0 20 7 55l61 285q10 49 10 82q0 11 -1 15h87q1 -5 1 -16q2 -46 -18 -139l-49 -231q-4 -19 -4 -31q0 -42 40 -42q11 0 23 3z" />
<glyph unicode="&#x141;" horiz-adv-x="406" d="M362 0h-319l56 267l-72 -29l-7 35l88 35l83 392h95l-75 -351l134 53l6 -35l-149 -59l-46 -220h224z" />
<glyph unicode="&#x142;" horiz-adv-x="287" d="M224 83l-21 -91q-136 0 -136 110q0 19 7 54l24 114l-60 -23l-7 35l75 29l89 419h93l-81 -379l102 41l6 -35l-116 -47l-34 -157q-4 -24 -4 -31q0 -42 44 -42q9 0 19 3z" />
<glyph unicode="&#x152;" horiz-adv-x="723" d="M635 0h-397q-85 0 -132 57t-47 153q0 123 32.5 232t103 183.5t164.5 74.5h424l-18 -89h-272l-50 -234h233l-19 -88h-233l-42 -201h272zM289 88l112 523h-53q-59 0 -105 -69t-67 -157t-21 -169q0 -128 89 -128h45z" />
<glyph unicode="&#x153;" horiz-adv-x="833" d="M703 149l61 -63q-93 -96 -191 -96q-69 0 -109 44.5t-51 112.5h-2q-30 -72 -78.5 -114.5t-111.5 -42.5q-86 0 -130 58.5t-44 150.5q0 89 27 168.5t85.5 133.5t136.5 54q69 0 105.5 -44t44.5 -116h2q28 70 79.5 114.5t119.5 44.5q80 0 121.5 -56.5t41.5 -141.5 q0 -33 -14 -114h-323q-1 -12 -1 -33q0 -65 27.5 -101t78.5 -36q72 0 125 77zM231 73q65 0 110.5 83.5t45.5 180.5q0 63 -24 98.5t-70 35.5q-65 0 -110.5 -83t-45.5 -179q0 -63 24.5 -99.5t69.5 -36.5zM486 311h232q3 18 3 37q0 58 -23.5 94t-66.5 36q-50 0 -88.5 -47.5 t-56.5 -119.5z" />
<glyph unicode="&#x160;" horiz-adv-x="495" d="M521 569l-86 -46q-8 44 -39.5 71.5t-77.5 27.5q-43 0 -73.5 -27.5t-30.5 -72.5q0 -29 18.5 -54.5t45.5 -43t59.5 -40t59.5 -44.5t45.5 -57.5t18.5 -78.5q0 -100 -65 -157t-160 -57q-76 0 -133.5 37.5t-76.5 98.5l80 47q15 -41 53.5 -68t84.5 -27q52 0 87.5 31t35.5 85 q0 35 -25.5 65t-61.5 53t-72.5 49t-62 65.5t-25.5 89.5q0 84 58 139t147 55q77 0 128.5 -39.5t67.5 -101.5zM232 882l60 54l41 -56q29 -40 36 -54h2q37 38 65 62l58 50l45 -62l-151 -118h-51z" />
<glyph unicode="&#x161;" horiz-adv-x="451" d="M466 466l-72 -56q-16 31 -49.5 48.5t-72.5 17.5q-40 0 -67 -19.5t-27 -55.5q0 -25 24.5 -44.5t60 -35t71 -34t60 -50.5t24.5 -76q0 -76 -52.5 -123.5t-139.5 -47.5q-68 0 -125.5 30t-83.5 78l67 52q21 -35 62.5 -56t88.5 -21q42 0 67.5 21t25.5 56q0 28 -24.5 49 t-59.5 36t-70.5 32.5t-60 50t-24.5 77.5q0 70 51.5 114t136.5 44q58 0 109.5 -23t79.5 -64zM180 737l60 54l41 -56q29 -40 36 -54h2q37 38 65 62l58 50l45 -62l-151 -118h-51z" />
<glyph unicode="&#x178;" horiz-adv-x="460" />
<glyph unicode="&#x17d;" horiz-adv-x="475" d="M391 0h-408v2l364 544l47 64v2h-250l19 88h397v-3l-362 -539q-11 -16 -24 -33t-21 -25l-8 -9v-3h264zM246 882l60 54l41 -56q29 -40 36 -54h2q37 38 65 62l58 50l45 -62l-151 -118h-51z" />
<glyph unicode="&#x17e;" horiz-adv-x="448" d="M345 0h-368v2l243 326q19 26 44.5 56.5t42 50t17.5 19.5v2h-218l20 89h363v-3l-247 -326q-20 -26 -45.5 -57t-42 -49.5t-17.5 -19.5v-2h226zM198 741l60 54l41 -56q29 -40 36 -54h2q37 38 65 62l58 50l45 -62l-151 -118h-51z" />
<glyph unicode="&#x192;" horiz-adv-x="425" d="M418 332h-123v-34q0 -60 -11 -112t-35.5 -97t-69.5 -71t-107 -26q-11 0 -26 1.5t-17 1.5l11 84q17 -1 28 -1q136 0 136 220v34h-127l7 38h118q0 11 -0.5 33t-0.5 32q0 127 56.5 199t160.5 72l32 -1l-12 -86q-1 0 -9.5 0.5t-14.5 0.5q-56 0 -89.5 -54t-31.5 -136 q0 -4 0.5 -25t0.5 -35h131z" />
<glyph unicode="&#x2c6;" horiz-adv-x="365" d="M473 804l-60 -54l-41 56q-29 40 -36 54h-2q-37 -38 -65 -62l-58 -50l-45 62l151 118h51z" />
<glyph unicode="&#x2c7;" horiz-adv-x="365" d="M249 882l60 54l41 -56q29 -40 36 -54h2q37 38 65 62l58 50l45 -62l-151 -118h-51z" />
<glyph unicode="&#x2d8;" horiz-adv-x="343" d="M367 871l87 11q-4 -66 -43 -102.5t-114 -36.5q-58 0 -91 25.5t-33 71.5q0 21 7 42l77 -11q-4 -11 -4 -21q0 -18 13 -28.5t33 -10.5q28 0 47 15t21 45z" />
<glyph unicode="&#x2d9;" horiz-adv-x="250" d="M276 774q-18 0 -31 13t-13 32t13 31.5t31 12.5t31.5 -13t13.5 -31q0 -19 -13.5 -32t-31.5 -13z" />
<glyph unicode="&#x2da;" horiz-adv-x="252" d="M258 767q-42 0 -65.5 24.5t-23.5 57.5q0 43 28.5 74t77.5 31q42 0 65 -24.5t23 -56.5q0 -43 -29 -74.5t-76 -31.5zM259 823q19 0 31.5 13.5t12.5 31.5q0 13 -8 21.5t-22 8.5q-19 0 -31.5 -14t-12.5 -32q0 -29 30 -29z" />
<glyph unicode="&#x2db;" horiz-adv-x="273" d="M168 -127l22 -85q-30 -12 -57 -12q-57 0 -90.5 40t-33.5 94q0 49 28 89t81 55l20 -54q-27 -8 -41 -28t-14 -44q0 -25 15 -43t41 -18q14 0 29 6z" />
<glyph unicode="&#x2dc;" horiz-adv-x="395" d="M435 892l67 -2q-5 -52 -34 -84.5t-77 -32.5q-37 0 -80 25.5t-57 25.5q-30 0 -41 -45l-66 2q5 56 35.5 86.5t75.5 30.5q37 0 79.5 -26t56.5 -26q17 0 27.5 13.5t13.5 32.5z" />
<glyph unicode="&#x2dd;" horiz-adv-x="334" d="M220 751h-73l52 184h85zM335 751h-73l52 184h84z" />
<glyph unicode="&#x3c0;" horiz-adv-x="782" d="M768 350q0 -153 -104 -256.5t-257 -103.5q-154 0 -258 103t-104 257q0 153 104 256.5t258 103.5q153 0 257 -103.5t104 -256.5zM408 50q128 0 212 85.5t84 214.5q0 128 -84 213.5t-212 85.5t-213.5 -85.5t-85.5 -213.5q0 -129 85.5 -214.5t213.5 -85.5zM384 195h-63v322 h97q56 0 85 -31.5t29 -84.5q0 -49 -26.5 -82t-87.5 -33h-34v-91zM384 346h36q49 0 49 55t-49 55h-36v-110z" />
<glyph unicode="&#x2013;" horiz-adv-x="407" d="M382 291h-317l17 82h317z" />
<glyph unicode="&#x2014;" horiz-adv-x="607" d="M585 291h-517l17 82h518z" />
<glyph unicode="&#x2018;" horiz-adv-x="160" d="M223 709l5 -31q-32 -8 -53 -25.5t-23 -37.5l1 -2q10 2 13 2q19 0 31.5 -12.5t12.5 -32.5q0 -21 -14.5 -35t-35.5 -14q-55 0 -55 68q0 43 33 76.5t85 43.5z" />
<glyph unicode="&#x2019;" horiz-adv-x="160" d="M115 521l-5 31q32 8 53 25.5t23 37.5l-1 2q-10 -2 -13 -2q-19 0 -31.5 12.5t-12.5 32.5q0 21 14.5 35t35.5 14q55 0 55 -68q0 -43 -33 -76.5t-85 -43.5z" />
<glyph unicode="&#x201a;" horiz-adv-x="215" d="M14 -96l-5 31q32 8 53 25.5t23 37.5l-1 2q-10 -2 -13 -2q-19 0 -31.5 12.5t-12.5 32.5q0 21 14.5 35t35.5 14q55 0 55 -68q0 -43 -33 -76.5t-85 -43.5z" />
<glyph unicode="&#x201c;" horiz-adv-x="295" d="M223 710l5 -31q-32 -8 -53 -25.5t-23 -37.5l1 -2q10 2 13 2q19 0 31.5 -12.5t12.5 -32.5q0 -21 -14.5 -35t-35.5 -14q-55 0 -55 68q0 43 33 76.5t85 43.5zM358 710l5 -31q-32 -8 -53 -25.5t-23 -37.5l1 -2q10 2 13 2q19 0 31.5 -12.5t12.5 -32.5q0 -21 -14.5 -35 t-35.5 -14q-55 0 -55 68q0 43 33 76.5t85 43.5z" />
<glyph unicode="&#x201d;" horiz-adv-x="295" d="M115 521l-5 31q32 8 53 25.5t23 37.5l-1 2q-10 -2 -13 -2q-19 0 -31.5 12.5t-12.5 32.5q0 21 14.5 35t35.5 14q55 0 55 -68q0 -43 -33 -76.5t-85 -43.5zM250 521l-5 31q32 8 53 25.5t23 37.5l-1 2q-10 -2 -13 -2q-19 0 -31.5 12.5t-12.5 32.5q0 21 14.5 35t35.5 14 q55 0 55 -68q0 -43 -33 -76.5t-85 -43.5z" />
<glyph unicode="&#x201e;" horiz-adv-x="351" d="M14 -96l-5 31q32 8 53 25.5t23 37.5l-1 2q-10 -2 -13 -2q-19 0 -31.5 12.5t-12.5 32.5q0 21 14.5 35t35.5 14q55 0 55 -68q0 -43 -33 -76.5t-85 -43.5zM154 -96l-5 31q32 8 53 25.5t23 37.5l-1 2q-10 -2 -13 -2q-19 0 -31.5 12.5t-12.5 32.5q0 21 14.5 35t35.5 14 q55 0 55 -68q0 -43 -33 -76.5t-85 -43.5z" />
<glyph unicode="&#x2020;" horiz-adv-x="394" d="M178 -100h-92l112 523q-15 11 -34 11q-23 0 -38.5 -14.5t-19.5 -36.5l-67 2q18 121 111 121q27 0 61 -18l67 312h92l-73 -339q14 -8 27 -8q23 0 38.5 14.5t20.5 36.5q22 0 66 -2q-19 -122 -111 -122q-26 0 -55 13z" />
<glyph unicode="&#x2021;" horiz-adv-x="391" d="M182 -100h-91q64 299 92 429q-15 11 -35 11q-23 0 -39 -14.5t-21 -37.5l-66 3q18 120 110 120q29 0 64 -19q20 95 27 129q-15 11 -34 11q-23 0 -38.5 -15t-19.5 -37q-46 2 -67 2q18 122 111 122q27 0 62 -19l46 215h91l-53 -244q12 -6 27 -6q24 0 39.5 14.5t20.5 37.5 l66 -2q-19 -122 -107 -122q-24 0 -58 15l-28 -130q14 -7 25 -7q23 0 38.5 15.5t20.5 38.5l67 -2q-21 -122 -106 -122q-34 0 -58 15q-14 -66 -43 -200.5t-43 -200.5z" />
<glyph unicode="&#x2022;" horiz-adv-x="295" d="M167 219q-40 0 -68 28t-28 70q0 40 28 67.5t68 27.5t69 -27.5t29 -67.5q0 -42 -29 -70t-69 -28z" />
<glyph unicode="&#x2026;" horiz-adv-x="536" d="M80 -10q-24 0 -40 16t-16 41q0 24 16.5 40t39.5 16q24 0 40.5 -16t16.5 -40t-16.5 -40.5t-40.5 -16.5zM240 -10q-24 0 -40 16t-16 41q0 24 16.5 40t39.5 16q24 0 40.5 -16t16.5 -40t-16.5 -40.5t-40.5 -16.5zM401 -10q-23 0 -39.5 16t-16.5 41q0 24 16.5 40t39.5 16 q24 0 40.5 -16t16.5 -40t-16.5 -40.5t-40.5 -16.5z" />
<glyph unicode="&#x2030;" horiz-adv-x="951" d="M778 59q32 0 55 45.5t23 96.5q0 64 -44 64q-32 0 -55 -46t-23 -97q0 -63 44 -63zM770 -10q-54 0 -81 34.5t-27 90.5q0 84 42 152t117 68q54 0 80.5 -34.5t26.5 -91.5q0 -83 -41.5 -151t-116.5 -68zM165 0h-81q448 632 496 700h81zM477 -10q-54 0 -81 34.5t-27 90.5 q0 52 16.5 101t54 84t88.5 35q54 0 81 -35t27 -91q0 -53 -16.5 -101t-54 -83t-88.5 -35zM486 59q32 0 54.5 45.5t22.5 96.5q0 64 -43 64q-31 0 -54 -43t-23 -90q0 -73 43 -73zM218 365q-54 0 -81 34.5t-27 90.5q0 52 16.5 101t54 84t88.5 35q54 0 81 -35t27 -91 q0 -53 -16.5 -101t-54 -83t-88.5 -35zM227 434q32 0 54.5 45.5t22.5 96.5q0 64 -43 64q-31 0 -54 -43t-23 -90q0 -73 43 -73z" />
<glyph unicode="&#x2039;" horiz-adv-x="222" d="M218 224l-63 -50l-129 146l14 67l191 145l49 -58l-96 -68q-11 -8 -25 -17t-25.5 -16t-21 -13t-15.5 -10t-7 -4v-2q24 -18 63 -56z" />
<glyph unicode="&#x203a;" horiz-adv-x="224" d="M73 481l63 50l129 -146l-14 -67l-191 -145l-49 58l96 68q11 8 25 17t25.5 16t21 13t15.5 10t7 4v2q-24 18 -63 56z" />
<glyph unicode="&#x2044;" horiz-adv-x="403" d="M24 0h-76l475 700h77z" />
<glyph unicode="&#x20ac;" horiz-adv-x="517" d="M406 193l75 -53q-78 -150 -211 -150q-94 0 -137 62.5t-43 162.5q0 41 4 78h-59l8 34h55l9 46h-55l8 34h54q21 88 54 152.5t89.5 107.5t128.5 43q80 0 121.5 -47.5t50.5 -126.5l-88 -39q-4 124 -90 124q-112 0 -171 -214h175l-8 -34h-175l-9 -46h174l-7 -34h-172 q-5 -40 -5 -70q0 -145 94 -145q78 0 130 115z" />
<glyph unicode="&#x2116;" horiz-adv-x="994" d="M807 200q-70 0 -108 44.5t-38 118.5q0 64 22.5 125.5t71.5 106.5t115 45q68 0 104.5 -44.5t36.5 -117.5q0 -63 -21 -124.5t-69.5 -107.5t-113.5 -46zM474 0h-88l-92 417l-14 71h-2q-5 -36 -12 -70l-55 -257q-37 -171 -156 -171q-52 0 -93 28l46 76q19 -15 43 -15 q34 0 49.5 22t26.5 72l111 527h90l91 -414l14 -74h2q6 39 13 73l63 298q37 172 156 172q48 0 94 -29l-47 -76q-17 19 -44 19q-32 0 -48 -23.5t-27 -74.5zM812 283q47 0 80 59t33 129q0 39 -16.5 62t-48.5 23q-47 0 -79.5 -60t-32.5 -129q0 -39 16.5 -61.5t47.5 -22.5z M921 63h-328l14 61h328z" />
<glyph unicode="&#x2122;" horiz-adv-x="587" d="M593 385h-64l37 164l13 52h-2q-18 -25 -40 -52l-66 -82h-2l-29 78l-20 56h-2q-7 -40 -13 -68l-31 -148h-63l67 315h65l23 -65l22 -63h2q22 30 49 63l53 65h68zM193 385h-63l54 254h-67l12 61h199l-12 -61h-69z" />
<glyph unicode="&#x2212;" horiz-adv-x="270" d="M277 291h-237l18 82h236z" />
<glyph unicode="&#x2260;" horiz-adv-x="332" d="M309 234h-150l-53 -96h-44l52 96h-70l15 75h96l44 81h-122l16 75h147l55 100h45l-55 -100h73l-16 -75h-98l-44 -81h124z" />
<glyph unicode="&#x25fc;" horiz-adv-x="545" d="M0 545h545v-545h-545v545z" />
<glyph unicode="&#xf8ff;" horiz-adv-x="1412" d="M205 494v145h-40v-148q0 -35 -26 -35q-6 0 -14 4l-16 -36q14 -6 30 -6q30 0 48 19t18 57zM189 72v179h39v38h-117v-38h38v-179h40zM514 421v39h-75v45h63v39h-63v56h75v39h-116v-218h116zM395 72h61q75 0 75 65q0 35 -32 48q26 14 26 45q0 59 -70 59h-60v-217zM459 110 h-23v55h23q15 0 24.5 -8t9.5 -18q0 -29 -34 -29zM450 201h-14v50h14q34 0 34 -23q0 -27 -34 -27zM320 421v179h38v39h-116v-39h38v-179h40zM374 72l-52 218h-46l-52 -218h42l7 34h50l8 -34h43zM317 143h-36l17 80q0 2 0.5 4.5t0.5 3.5v-8q0 -2 0.5 -4.5t0.5 -3.5zM548 336 v39h-455v-39h455zM1257 201q-12 -5 -21 -5t-9 4q0 1 3 4l6 6q7 5 12.5 10t15 15t16.5 20t15 25.5t13.5 31.5t9 37t3.5 44q0 51 -11 96.5t-37 90t-78 71t-124 26.5q-119 0 -178.5 -51.5t-59.5 -105.5q0 -23 -13 -27q-86 -31 -86 -121q0 -37 15 -70t36 -44q7 -4 7 -7 q0 -2 -4 -2q-7 0 -17 7q-58 41 -58 114q0 45 22 83.5t59 55.5q12 5 12 15q0 69 71 128.5t194 59.5q137 0 217 -81t80 -238q0 -37 -10.5 -69.5t-24 -52.5t-31 -36.5t-27.5 -23t-18 -10.5zM993 137l-5 24l-2 3l-2 -2l-19 -34q-2 -4 -2 -7q0 -9 2 -22t2 -16q0 -21 -14 -21 q-13 0 -13 18q0 4 4.5 19t4.5 16q0 15 -15 60l-23 -41q-4 -8 -4 -11q0 -5 3.5 -17.5t3.5 -15.5q0 -26 -16 -26q-12 0 -12 20q0 9 4 24v2q1 3 1 5t-0.5 4t-0.5 3q-11 46 -18 46q2 0 -2 -2.5t-10 -11t-6 -19.5q0 -9 3.5 -21.5t3.5 -17.5q0 -22 -15 -22q-13 0 -13 23 q0 5 1.5 14.5t1.5 10.5q0 5 -9 25.5t-11 20.5q-3 0 -6.5 -27t-3.5 -43q0 -24 11 -38.5t36 -21t49.5 -8.5t67.5 -2q36 0 61 1.5t54.5 6t45.5 15.5t18 28q18 180 71 220q2 2 7 2q8 0 8 -5q0 -3 -3 -6q-44 -49 -55 -218q-1 -15 -7 -26.5t-23 -25.5t-56 -22t-97 -8 q-119 0 -158.5 22t-39.5 75q0 25 12 90v1q1 1 1 2q0 6 -9.5 23t-9.5 27q0 14 13 14q7 0 12 -5.5t6 -15.5q0 -3 -1 -12t-1 -14l11 -18q19 -32 21 -32q1 0 3 3l13 27q0 1 1 3q0 7 -6 23t-6 24q0 13 6 21t13 8q13 0 13 -20q0 -7 -3.5 -21t-3.5 -20l5 -13q12 -41 17 -41 q1 0 7.5 9t13.5 19.5t7 14.5l-1 2v3q-11 31 -11 40q0 12 6 19t14 7q16 0 16 -23q0 -4 -4.5 -17.5t-4.5 -17.5q0 -6 4 -22t7.5 -29t2.5 -13q1 0 7 8.5t11.5 20.5t5.5 18q0 10 -2 25t-2 20q0 23 16 23q6 0 10.5 -4.5t4.5 -11.5q0 -6 -6 -21.5t-6 -22.5l1 -1v-2l5 -23 q0 -5 3 -5q1 0 15.5 14t16.5 14q1 0 1 -1t-15.5 -17t-15.5 -24q0 -9 2 -21t2 -16q0 -25 -15 -25q-13 0 -13 16q0 4 3.5 17t3.5 19v4zM1064 262q-49 0 -74 31t-25 77q0 41 29.5 68.5t71.5 27.5q41 0 66.5 -28t25.5 -67q0 -43 -23 -76t-71 -33zM852 269q-44 0 -71 26t-27 73 q0 38 24.5 68t71.5 30q45 0 71.5 -23t26.5 -67q0 -50 -26.5 -78.5t-69.5 -28.5zM771 148q8 -2 8 -6q0 -14 -41.5 -23t-64.5 -9q-9 0 -26 2t-24 2q-24 0 -32 -31q-5 -19 -13 -32t-15 -20.5t-24 -13t-28.5 -7.5t-38.5 -6q-73 -10 -129 -10q-52 0 -119 10q-88 13 -115 29 q-45 26 -58 111q-7 51 -7 139q0 162 21.5 270t59.5 127q22 12 98.5 22t141.5 10q82 0 139 -20.5t74 -49.5q20 -33 26 -76.5t6 -119.5v-63q0 -103 35 -165t126 -70zM923 330v80h-15l-16 -32h-1l-17 32h-14v-80h15v51l15 -25h3l14 25h1v-51h15zM1042 324l-15 40l15 40h-15 l-9 -30h-2l-9 30h-15l15 -40l-15 -40h15l9 29h2l9 -29h15zM1134 324v80h-15v-80h15zM843 330v80h-15l-16 -32h-1l-17 32h-14v-80h15v51l15 -25h3l14 25h1v-51h15zM1067 324v80h-15v-80h15zM1100 324v80h-15v-80h15z" />
<glyph unicode="&#xfb01;" horiz-adv-x="584" d="M139 0h-92l99 466h-72l17 79h71l10 46q35 161 172 161q41 0 84 -16l-37 -81q-19 15 -49 15q-61 0 -76 -74q-8 -34 -11 -51h99l-17 -79h-99zM534 83l-20 -91q-137 0 -137 110q0 20 7 55l61 291q13 61 9 97h87q1 -9 1 -24q0 -39 -8 -75l-59 -293q-4 -24 -4 -31 q0 -42 44 -42zM526 620q-24 0 -40 16t-16 41q0 24 16.5 40t39.5 16q24 0 40.5 -16t16.5 -40t-16.5 -40.5t-40.5 -16.5z" />
<glyph unicode="&#xfb02;" horiz-adv-x="600" d="M139 0h-92l99 466h-72l17 79h71l10 46q35 161 172 161q41 0 84 -16l-37 -81q-19 15 -49 15q-61 0 -76 -74q-8 -34 -11 -51h99l-17 -79h-99zM536 83l-20 -91q-137 0 -137 110q0 20 7 55l121 573h93l-122 -577q-5 -20 -5 -34q0 -39 44 -39q9 0 19 3z" />
<glyph horiz-adv-x="509" d="M468 85l-20 -91q-65 0 -95 24.5t-35 73.5h-2q-60 -102 -160 -102q-61 0 -96 37t-35 95q0 95 86.5 148t241.5 53q11 57 11 71q0 37 -17.5 58.5t-50.5 21.5q-72 0 -124 -82l-54 68q89 95 184 95q69 0 109.5 -41t40.5 -116q0 -17 -1 -26q-1 -28 -8 -64t-17.5 -83.5 t-15.5 -70.5q-4 -15 -4 -30q0 -24 11.5 -33t36.5 -9zM326 196l12 58q-7 1 -20 1q-91 0 -146.5 -33t-55.5 -94q0 -30 17.5 -46t47.5 -16q51 0 92.5 39t52.5 91zM429 594l-224 94l34 72l218 -106z" />
<glyph horiz-adv-x="509" d="M468 85l-20 -91q-65 0 -95 24.5t-35 73.5h-2q-60 -102 -160 -102q-61 0 -96 37t-35 95q0 95 86.5 148t241.5 53q11 57 11 71q0 37 -17.5 58.5t-50.5 21.5q-72 0 -124 -82l-54 68q89 95 184 95q69 0 109.5 -41t40.5 -116q0 -17 -1 -26q-1 -28 -8 -64t-17.5 -83.5 t-15.5 -70.5q-4 -15 -4 -30q0 -24 11.5 -33t36.5 -9zM326 196l12 58q-7 1 -20 1q-91 0 -146.5 -33t-55.5 -94q0 -30 17.5 -46t47.5 -16q51 0 92.5 39t52.5 91zM459 688l-224 -94l-28 60l218 106z" />
<glyph horiz-adv-x="509" d="M468 85l-20 -91q-65 0 -95 24.5t-35 73.5h-2q-60 -102 -160 -102q-61 0 -96 37t-35 95q0 95 86.5 148t241.5 53q11 57 11 71q0 37 -17.5 58.5t-50.5 21.5q-72 0 -124 -82l-54 68q89 95 184 95q69 0 109.5 -41t40.5 -116q0 -17 -1 -26q-1 -28 -8 -64t-17.5 -83.5 t-15.5 -70.5q-4 -15 -4 -30q0 -24 11.5 -33t36.5 -9zM326 196l12 58q-7 1 -20 1q-91 0 -146.5 -33t-55.5 -94q0 -30 17.5 -46t47.5 -16q51 0 92.5 39t52.5 91zM480 652l-60 -54l-41 56q-29 40 -36 54h-2q-37 -38 -65 -62l-58 -50l-45 62l151 118h51z" />
<glyph horiz-adv-x="509" d="M468 85l-20 -91q-65 0 -95 24.5t-35 73.5h-2q-60 -102 -160 -102q-61 0 -96 37t-35 95q0 95 86.5 148t241.5 53q11 57 11 71q0 37 -17.5 58.5t-50.5 21.5q-72 0 -124 -82l-54 68q89 95 184 95q69 0 109.5 -41t40.5 -116q0 -17 -1 -26q-1 -28 -8 -64t-17.5 -83.5 t-15.5 -70.5q-4 -15 -4 -30q0 -24 11.5 -33t36.5 -9zM326 196l12 58q-7 1 -20 1q-91 0 -146.5 -33t-55.5 -94q0 -30 17.5 -46t47.5 -16q51 0 92.5 39t52.5 91zM441 731l67 -2q-5 -52 -34 -84.5t-77 -32.5q-37 0 -80 25.5t-57 25.5q-30 0 -41 -45l-66 2q5 56 35.5 86.5 t75.5 30.5q37 0 79.5 -26t56.5 -26q17 0 27.5 13.5t13.5 32.5z" />
<glyph horiz-adv-x="509" d="M468 85l-20 -91q-65 0 -95 24.5t-35 73.5h-2q-60 -102 -160 -102q-61 0 -96 37t-35 95q0 95 86.5 148t241.5 53q11 57 11 71q0 37 -17.5 58.5t-50.5 21.5q-72 0 -124 -82l-54 68q89 95 184 95q69 0 109.5 -41t40.5 -116q0 -17 -1 -26q-1 -28 -8 -64t-17.5 -83.5 t-15.5 -70.5q-4 -15 -4 -30q0 -24 11.5 -33t36.5 -9zM326 196l12 58q-7 1 -20 1q-91 0 -146.5 -33t-55.5 -94q0 -30 17.5 -46t47.5 -16q51 0 92.5 39t52.5 91zM308 663q0 -20 -13.5 -32.5t-34.5 -12.5q-20 0 -33 12.5t-13 32.5t13 33t33 13q21 0 34.5 -13t13.5 -33zM459 663 q0 -20 -13.5 -32.5t-33.5 -12.5t-33.5 12.5t-13.5 32.5t13.5 33t33.5 13t33.5 -13t13.5 -33z" />
<glyph horiz-adv-x="509" d="M333 604q-42 0 -65.5 24.5t-23.5 57.5q0 43 28.5 74t77.5 31q42 0 65 -24.5t23 -56.5q0 -43 -29 -74.5t-76 -31.5zM334 660q19 0 31.5 13.5t12.5 31.5q0 13 -8 21.5t-22 8.5q-19 0 -31.5 -14t-12.5 -32q0 -29 30 -29zM468 85l-20 -91q-65 0 -95 24.5t-35 73.5h-2 q-60 -102 -160 -102q-61 0 -96 37t-35 95q0 95 86.5 148t241.5 53q11 57 11 71q0 37 -17.5 58.5t-50.5 21.5q-72 0 -124 -82l-54 68q89 95 184 95q69 0 109.5 -41t40.5 -116q0 -17 -1 -26q-1 -28 -8 -64t-17.5 -83.5t-15.5 -70.5q-4 -15 -4 -30q0 -24 11.5 -33t36.5 -9z M326 196l12 58q-7 1 -20 1q-91 0 -146.5 -33t-55.5 -94q0 -30 17.5 -46t47.5 -16q51 0 92.5 39t52.5 91z" />
<glyph horiz-adv-x="540" d="M248 -10q-88 0 -140 61.5t-52 160.5q0 149 77 246t202 97q94 0 144.5 -58t50.5 -160q0 -65 -17 -125.5t-50.5 -111t-89 -80.5t-125.5 -30zM258 73q81 0 130 75t49 186q0 66 -28.5 101.5t-82.5 35.5q-81 0 -129.5 -76t-48.5 -184q0 -65 28.5 -101.5t81.5 -36.5z" />
<glyph horiz-adv-x="278" d="M151 0h-96l97 457h-64l19 88h160z" />
<glyph horiz-adv-x="476" d="M394 0h-403q2 5 4 15l288 249q27 24 42 39t29 40.5t14 51.5q0 30 -20.5 51.5t-58.5 21.5q-77 0 -126 -113l-82 39q32 76 87.5 118.5t129.5 42.5q75 0 118.5 -44.5t43.5 -108.5q0 -89 -84 -167q-32 -31 -102.5 -85t-86.5 -59v-3h226z" />
<glyph horiz-adv-x="496" d="M492 445l-139 -113q-46 -37 -52 -42l1 -2q70 -8 108.5 -50t38.5 -112q0 -94 -62 -158t-168 -64q-86 0 -142 42.5t-69 110.5l87 35q6 -50 39 -75t84 -25q64 0 99.5 37t35.5 91q0 47 -33.5 73t-91.5 26q-2 0 -7 -0.5t-8 -0.5l-15 85l178 151h-255l19 91h374z" />
<glyph horiz-adv-x="464" d="M296 -86h-93l34 157h-259v2l362 483h92l-84 -397h83l-19 -88h-83zM260 154l40 188l15 65h-2q-19 -37 -75 -111l-50 -66q-48 -63 -60 -74v-2h132z" />
<glyph horiz-adv-x="496" d="M461 453h-223q-37 -116 -53 -154q1 0 1 -0.5t1 -0.5q46 23 89 23q82 0 125.5 -48.5t43.5 -122.5q0 -101 -63 -173.5t-172 -72.5q-73 0 -125.5 36t-64.5 93l91 52q5 -41 32.5 -67t68.5 -26q63 0 99.5 44t36.5 105q0 40 -24.5 64t-71.5 24q-56 0 -103 -38l-69 41l100 312 h300q-11 -56 -19 -91z" />
<glyph horiz-adv-x="490" d="M497 548l-68 -64q-38 63 -108 63q-128 0 -175 -209h2q46 67 136 67q68 0 116.5 -40t48.5 -120q0 -61 -24 -117.5t-77 -97t-125 -40.5q-93 0 -136.5 60.5t-43.5 152.5q0 68 15 139t46.5 139.5t89 112t131.5 43.5q107 0 172 -89zM232 78q56 0 90.5 46.5t34.5 102.5 q0 46 -25.5 72t-69.5 26q-55 0 -90 -40t-35 -91q0 -49 23.5 -82.5t71.5 -33.5z" />
<glyph horiz-adv-x="411" d="M124 -87h-98l301 544h-261l19 88h388z" />
<glyph horiz-adv-x="490" d="M373 355v-2q94 -39 94 -141q0 -91 -65 -156.5t-172 -65.5q-93 0 -143.5 47.5t-50.5 121.5q0 71 44.5 126t121.5 75v2q-29 15 -45 44t-16 62q0 70 52.5 120t136.5 50q73 0 114 -38.5t41 -95.5q0 -50 -31.5 -91t-80.5 -58zM377 213q0 42 -27.5 71t-78.5 29 q-63 0 -102 -43.5t-39 -97.5q0 -43 27 -70t81 -27q61 0 100 40.5t39 97.5zM298 388q45 0 72.5 31t27.5 71q0 31 -18.5 51t-53.5 20q-42 0 -70 -29.5t-28 -73.5q0 -31 17 -50.5t53 -19.5z" />
<glyph horiz-adv-x="490" d="M359 206h-2q-46 -67 -136 -67q-68 0 -116.5 40.5t-48.5 120.5q0 60 24 116.5t77 97t125 40.5q95 0 137.5 -62t42.5 -161q0 -65 -15 -134t-45.5 -136.5t-87 -110.5t-130.5 -43q-111 0 -175 89l68 64q38 -63 108 -63q127 0 174 209zM243 219q55 0 90 40t35 91 q0 49 -23.5 83t-71.5 34q-56 0 -90.5 -47t-34.5 -103q0 -46 25.5 -72t69.5 -26z" />
<glyph horiz-adv-x="509" d="M468 85l-20 -91q-65 0 -95 24.5t-35 73.5h-2q-60 -102 -160 -102q-61 0 -96 37t-35 95q0 95 86.5 148t241.5 53q11 57 11 71q0 37 -17.5 58.5t-50.5 21.5q-72 0 -124 -82l-54 68q89 95 184 95q69 0 109.5 -41t40.5 -116q0 -17 -1 -26q-1 -28 -8 -64t-17.5 -83.5 t-15.5 -70.5q-4 -15 -4 -30q0 -24 11.5 -33t36.5 -9zM326 196l12 58q-7 1 -20 1q-91 0 -146.5 -33t-55.5 -94q0 -30 17.5 -46t47.5 -16q51 0 92.5 39t52.5 91z" />
<glyph horiz-adv-x="464" d="M157 -100h-64l35 107q-77 30 -111 91l67 52q21 -35 62.5 -56t88.5 -21q42 0 67.5 21t25.5 56q0 28 -24.5 49t-59.5 36t-70.5 32.5t-60 50t-24.5 77.5q0 70 51.5 114t136.5 44q3 0 10 -0.5t11 -0.5l32 99h64l-36 -111q73 -23 108 -74l-72 -56q-16 31 -49.5 48.5 t-72.5 17.5q-40 0 -67 -19.5t-27 -55.5q0 -25 24.5 -44.5t60 -35t71 -34t60 -50.5t24.5 -76q0 -76 -52.5 -123.5t-139.5 -47.5q-20 0 -40 3z" />
<glyph horiz-adv-x="518" d="M410 104l27 -84q-45 -31 -115 -31q-26 0 -82 10t-83 10q-50 0 -82 -24l-33 62q67 49 87 155h-66l13 65h63q1 5 4 33t5.5 43.5t9.5 46t15.5 49.5t24 43t34.5 38t47 24t62 10q75 0 117 -44.5t49 -110.5l-91 -21q-8 91 -79 91q-51 0 -73.5 -46.5t-38.5 -155.5h150l-14 -65 h-147q-16 -87 -61 -123q1 -1 1 -2q23 8 66 8q17 0 50.5 -4.5t49.5 -4.5q52 0 90 28z" />
<glyph horiz-adv-x="465" d="M382 137h-118l-28 -137h-91l28 137h-121l7 34h121l-11 54h-98l7 34h82l-68 286h99l39 -209l11 -75h2q19 41 40 75l127 209h110l-192 -286h79l-7 -34h-94l-35 -54h118z" />
<glyph horiz-adv-x="454" d="M344 157l61 -60q-36 -54 -76 -80.5t-100 -26.5q-84 0 -131 55.5t-47 150.5v17h-56l8 34h50q4 30 7 46h-48l8 34h48q26 99 86 163.5t151 64.5q122 0 160 -123l-80 -52q-5 42 -27.5 65t-59.5 23q-46 0 -81.5 -39.5t-54.5 -101.5h120l-8 -34h-121q-6 -30 -7 -46h118l-7 -34 h-113v-4q0 -133 93 -133q57 0 107 81z" />
</font>
</defs>
</svg>
