<?xml version="1.0" standalone="no"?>
<!DOCTYPE svg PUBLIC "-//W3C//DTD SVG 1.1//EN" "http://www.w3.org/Graphics/SVG/1.1/DTD/svg11.dtd" >
<svg xmlns="http://www.w3.org/2000/svg">
<metadata></metadata>
<defs>
<font id="mission_gothicblack_italic" horiz-adv-x="517" >
<font-face units-per-em="1000" ascent="750" descent="-250" />
<missing-glyph horiz-adv-x="200" />
<glyph horiz-adv-x="1000" />
<glyph horiz-adv-x="1000" />
<glyph unicode="&#xd;" horiz-adv-x="200" />
<glyph unicode=" "  horiz-adv-x="200" />
<glyph unicode="&#x09;" horiz-adv-x="200" />
<glyph unicode="&#xa0;" horiz-adv-x="200" />
<glyph unicode="!" horiz-adv-x="286" d="M227 235h-166l99 465h166zM115 -14q-41 0 -70.5 29t-29.5 71t29.5 70.5t70.5 28.5t69.5 -28.5t28.5 -70.5t-28.5 -71t-69.5 -29z" />
<glyph unicode="&#x22;" horiz-adv-x="328" d="M186 492h-130l68 208h141zM342 492h-130l68 208h141z" />
<glyph unicode="#" horiz-adv-x="547" d="M581 217h-120l-23 -109h-151l23 109h-61l-23 -109h-151l23 109h-90l12 126h106l18 85h-96l13 126h109l24 111h152l-24 -111h60l24 111h152l-24 -111h99l-12 -126h-114l-18 -85h103zM338 343l18 85h-61l-18 -85h61z" />
<glyph unicode="$" horiz-adv-x="474" d="M206 -12l-27 -88h-100l35 111q-88 41 -117 127l145 86q14 -33 41.5 -53.5t61.5 -20.5q30 0 45.5 15.5t15.5 36.5q0 23 -23.5 46t-56.5 45t-66 47.5t-56.5 66.5t-23.5 90q0 89 65 153t163 64q10 0 30 -2l33 101h99l-42 -133q66 -41 99 -129l-143 -75q-28 78 -85 78 q-26 0 -39.5 -14.5t-13.5 -33.5q0 -23 23.5 -43.5t56.5 -40.5t66 -45t56.5 -68t23.5 -98q0 -99 -67 -162t-171 -63q-10 0 -28 2z" />
<glyph unicode="%" horiz-adv-x="608" d="M163 0l472 700h-141l-471 -700h140zM162 365q-105 0 -105 125q0 36 8.5 72t26.5 70.5t51 56t76 21.5q104 0 104 -125q0 -36 -8.5 -72t-26 -70.5t-50.5 -56t-76 -21.5zM174 471q16 0 31 66q14 65 -2 65q-17 0 -32 -65q-15 -66 3 -66zM436 -14q-105 0 -105 125q0 36 8.5 72 t26.5 70.5t51 56t76 21.5q104 0 104 -125q0 -36 -8.5 -72t-26 -70.5t-50.5 -56t-76 -21.5zM448 92q16 0 31 66q14 65 -2 65q-17 0 -32 -65q-15 -66 3 -66z" />
<glyph unicode="&#x26;" horiz-adv-x="611" d="M352 173l-62 169q-39 -11 -69 -46.5t-30 -82.5q0 -38 20.5 -59t56.5 -21q46 0 84 40zM586 158l-60 -160q-87 2 -108 70h-2q-84 -82 -184 -82q-97 0 -149 59t-52 132q0 84 52.5 157.5t142.5 88.5v2q-53 53 -53 118q0 70 47.5 120.5t136.5 50.5q100 0 164 -87l-111 -91 q-14 31 -46 31q-22 0 -34.5 -12.5t-12.5 -31.5q0 -22 18 -36t50 -8l27 -67q12 -29 20.5 -61t11.5 -49l2 -18h2q14 38 23 77.5t11 60.5l2 21h144q-35 -160 -103 -268q9 -6 24.5 -10t26.5 -5z" />
<glyph unicode="'" horiz-adv-x="172" d="M186 492h-130l68 208h141z" />
<glyph unicode="(" horiz-adv-x="242" d="M201 -61l-118 -32q-38 111 -38 256q0 184 61.5 360.5t169.5 277.5l99 -70q-90 -106 -140 -274t-50 -340q0 -98 16 -178z" />
<glyph unicode=")" horiz-adv-x="242" d="M102 755l118 32q38 -111 38 -256q0 -184 -61.5 -360.5t-169.5 -277.5l-99 70q90 106 140 274t50 340q0 98 -16 178z" />
<glyph unicode="*" horiz-adv-x="329" d="M388 406l-137 -81q-25 75 -23 159h-2q-29 -94 -71 -155l-100 94q21 19 44 32.5t60 29.5t40 17l-1 3q-23 -7 -67 -8t-89 5l55 142q58 -29 118 -106l2 1q-23 67 -31 159l143 -16q-35 -95 -80 -148l2 -2q71 63 134 95l38 -129q-87 -9 -161 6l-1 -2q80 -44 127 -96z" />
<glyph unicode="+" horiz-adv-x="291" d="M326 287h-92l-22 -97h-138l22 97h-92l26 124h92l21 97h138l-21 -97h92z" />
<glyph unicode="," horiz-adv-x="293" d="M135 1l-3 2q-13 -6 -34 -6q-41 0 -65.5 28t-24.5 66q0 40 27 69t75 29q46 0 77 -29.5t31 -89.5q0 -94 -57.5 -152t-138.5 -58q-23 0 -40 5l14 64q14 -3 30 -3q82 0 109 75z" />
<glyph unicode="-" horiz-adv-x="295" d="M296 233h-291l31 145h290z" />
<glyph unicode="." horiz-adv-x="281" d="M115 -14q-41 0 -70.5 29t-29.5 71t29.5 70.5t70.5 28.5t69.5 -28.5t28.5 -70.5t-28.5 -71t-69.5 -29z" />
<glyph unicode="/" horiz-adv-x="319" d="M453 760l-331 -820h-173l330 820h174z" />
<glyph unicode="0" horiz-adv-x="501" d="M245 145q36 0 64 72.5t38.5 144.5t10.5 112q0 81 -42 81q-36 0 -64.5 -70t-39.5 -141t-11 -113q0 -86 44 -86zM225 -14q-184 0 -184 245q0 41 5.5 88t17.5 103.5t35 106.5t54 92.5t78 67.5t104 25q95 0 140 -66.5t45 -182.5q0 -42 -5.5 -88.5t-17.5 -102.5t-35 -105.5 t-54 -91.5t-78.5 -66.5t-104.5 -24.5z" />
<glyph unicode="1" horiz-adv-x="289" d="M192 0h-171l115 540h-47l33 160h218z" />
<glyph unicode="2" horiz-adv-x="486" d="M397 0h-443v3l382 454q27 32 17 63t-47 31q-27 0 -48.5 -25t-43.5 -73l-132 111q49 74 101 112t128 38q102 0 155 -57.5t53 -139.5q0 -87 -67 -170l-76 -93q-15 -19 -36.5 -42t-35.5 -37l-13 -14v-2h139z" />
<glyph unicode="3" horiz-adv-x="479" d="M505 542l-166 -129v-2q138 -42 138 -181q0 -101 -70.5 -172.5t-183.5 -71.5q-89 0 -149 40t-84 102l131 93q13 -35 41 -54t60 -19q35 0 60 21t25 59q0 36 -31 58t-88 14l-23 132l140 105h-214l36 163h413z" />
<glyph unicode="4" horiz-adv-x="504" d="M379 0h-171l24 118h-258v2l380 580h173l-89 -422h50l-34 -160h-50zM281 264l43 204h-2q-18 -43 -28 -64l-41 -89q-15 -34 -25 -49v-2h53z" />
<glyph unicode="5" horiz-adv-x="496" d="M499 537h-226l-32 -97l2 -1q33 7 61 7q81 0 135 -49t54 -146q0 -51 -15 -97.5t-44 -84.5t-78 -60.5t-111 -22.5q-81 0 -142 40t-85 99l145 90q5 -29 28.5 -49.5t55.5 -20.5q37 0 57.5 27.5t20.5 59.5q0 30 -18.5 51t-52.5 21q-53 0 -84 -49l-116 74l116 371h364z" />
<glyph unicode="6" horiz-adv-x="521" d="M561 597l-131 -84q-24 47 -75 47q-91 0 -139 -164h2q19 28 53.5 47.5t75.5 19.5q79 0 120 -52.5t41 -134.5q0 -116 -72.5 -201t-191.5 -85q-104 0 -157 66t-53 183q0 207 91.5 341t234.5 134q139 0 201 -117zM258 142q36 0 61 39.5t25 86.5q0 31 -12.5 50t-38.5 19 q-35 0 -59.5 -41.5t-24.5 -86.5q0 -29 12 -48t37 -19z" />
<glyph unicode="7" horiz-adv-x="434" d="M175 0h-184l285 540h-218l33 160h455z" />
<glyph unicode="8" horiz-adv-x="531" d="M269 137q50 0 74 32.5t24 67.5q0 32 -22 54.5t-63 22.5q-50 0 -74 -32.5t-24 -67.5q0 -32 22 -54.5t63 -22.5zM325 445q32 0 49 24.5t17 54.5q0 52 -47 52q-31 0 -49 -24t-18 -54q0 -24 12 -38.5t36 -14.5zM436 388v-2q89 -54 89 -150q0 -46 -16.5 -89t-49 -80t-86.5 -59 t-122 -22q-108 0 -171 56t-63 140q0 78 47 138t125 79v2q-60 49 -60 127q0 76 57.5 131t164.5 55q99 0 147.5 -48t48.5 -117q0 -60 -33.5 -100t-77.5 -61z" />
<glyph unicode="9" horiz-adv-x="519" d="M27 107l131 84q24 -47 75 -47q91 0 139 164h-2q-19 -28 -53.5 -47.5t-75.5 -19.5q-79 0 -120 52.5t-41 134.5q0 116 72.5 201t191.5 85q104 0 157 -66t53 -183q0 -207 -91.5 -341t-234.5 -134q-139 0 -201 117zM330 562q-36 0 -61 -39.5t-25 -86.5q0 -31 12.5 -50 t38.5 -19q35 0 59.5 41.5t24.5 86.5q0 29 -12 48t-37 19z" />
<glyph unicode=":" horiz-adv-x="285" d="M119 -18q-41 0 -70.5 29t-29.5 71t29.5 70.5t70.5 28.5t69.5 -28.5t28.5 -70.5t-28.5 -71t-69.5 -29zM188 313q-41 0 -70.5 29t-29.5 71t29.5 70.5t70.5 28.5t69.5 -28.5t28.5 -70.5t-28.5 -71t-69.5 -29z" />
<glyph unicode=";" horiz-adv-x="286" d="M188 313q-41 0 -70.5 29t-29.5 71t29.5 70.5t70.5 28.5t69.5 -28.5t28.5 -70.5t-28.5 -71t-69.5 -29zM135 1l-3 2q-13 -6 -34 -6q-41 0 -65.5 28t-24.5 66q0 40 27 69t75 29q46 0 77 -29.5t31 -89.5q0 -94 -57.5 -152t-138.5 -58q-23 0 -40 5l14 64q14 -3 30 -3 q82 0 109 75z" />
<glyph unicode="&#x3c;" horiz-adv-x="274" d="M209 152l-203 143l25 120l260 143l55 -113l-128 -62l-76 -31v-2q43 -21 64 -35l79 -55z" />
<glyph unicode="=" horiz-adv-x="318" d="M350 390h-298l27 124h298zM307 185h-298l26 124h298z" />
<glyph unicode="&#x3e;" horiz-adv-x="274" d="M128 558l203 -143l-25 -120l-260 -143l-55 113l128 62l76 31v2q-43 22 -64 35l-79 55z" />
<glyph unicode="?" horiz-adv-x="417" d="M280 243l-139 -43q-28 38 -28 81q0 45 22 81t53.5 58t62.5 39t53 33.5t22 32.5q0 17 -12.5 26.5t-34.5 9.5q-53 0 -105 -93l-122 103q43 71 99.5 107t137.5 36q94 0 148.5 -50t54.5 -125q0 -50 -22.5 -88t-55 -60t-64.5 -39.5t-54.5 -36.5t-22.5 -41q0 -12 7 -31z M181 -14q-41 0 -70.5 29t-29.5 71t29.5 70.5t70.5 28.5t69.5 -28.5t28.5 -70.5t-28.5 -71t-69.5 -29z" />
<glyph unicode="@" horiz-adv-x="751" d="M539 119l53 -106q-89 -61 -205 -61q-146 0 -231 94t-85 242q0 85 27.5 166t77.5 147t130 106.5t177 40.5q102 0 171 -45t98 -112.5t29 -150.5q0 -114 -53.5 -192t-145.5 -78q-48 0 -79.5 22t-39.5 61h-2q-39 -83 -104 -83q-46 0 -70.5 36.5t-24.5 92.5q0 53 20.5 104.5 t65.5 89t104 37.5t99 -34.5t40 -98.5q0 -18 -4.5 -42t-4.5 -34q0 -22 16 -22q26 0 44.5 40.5t18.5 94.5q0 82 -46 142t-141 60q-86 0 -151 -54t-95.5 -131t-30.5 -160q0 -105 56.5 -165t151.5 -60q73 0 134 53zM411 295q20 0 36 27.5t16 54.5q0 31 -25 31q-20 0 -34.5 -23.5 t-14.5 -54.5q0 -35 22 -35z" />
<glyph unicode="A" horiz-adv-x="488" d="M448 0h-168l7 78h-124l-24 -78h-179l294 700h196zM294 238l12 159l13 139h-2q-22 -78 -41 -136l-54 -162h72z" />
<glyph unicode="B" horiz-adv-x="543" d="M242 0h-227l148 700h194q94 0 153.5 -50.5t59.5 -130.5q0 -58 -31.5 -104t-78.5 -72v-2q67 -37 67 -128q0 -93 -74.5 -153t-210.5 -60zM216 158h47q100 0 100 64q0 54 -77 54h-45zM272 421h33q100 0 103 64q1 27 -17 42t-52 15h-41z" />
<glyph unicode="C" horiz-adv-x="487" d="M330 230l126 -101q-81 -143 -220 -143q-96 0 -145.5 65.5t-49.5 179.5q0 50 8.5 108t30.5 126t55 122.5t87.5 90.5t122.5 36q78 0 125 -45t63 -125l-161 -77v12q0 75 -46 75q-31 0 -55.5 -40.5t-37 -98.5t-18.5 -109.5t-6 -84.5q2 -75 45 -75q44 0 76 84z" />
<glyph unicode="D" horiz-adv-x="543" d="M224 0h-209l148 700h171q63 0 110 -27t70.5 -69t34.5 -82.5t11 -79.5q0 -65 -12.5 -127.5t-39.5 -120t-65.5 -100.5t-95 -68.5t-123.5 -25.5zM214 160h27q62 0 107.5 87.5t45.5 193.5q0 46 -17.5 72.5t-50.5 26.5h-31z" />
<glyph unicode="E" horiz-adv-x="486" d="M394 0h-379l148 700h379l-33 -160h-209l-27 -126h172l-35 -160h-172l-20 -94h209z" />
<glyph unicode="F" horiz-adv-x="467" d="M185 0h-170l148 700h379l-33 -160h-209l-35 -162h174l-35 -159h-174z" />
<glyph unicode="G" horiz-adv-x="520" d="M349 256h-57l30 146h215q-5 -54 -17 -107t-36 -110t-56.5 -100t-82.5 -71t-110 -28q-96 0 -145 65.5t-49 179.5q0 50 8.5 108.5t30.5 126.5t55 122t88 90t123 36q78 0 125 -45t63 -125l-161 -77v12q0 75 -46 75q-31 0 -56 -41t-37.5 -99t-19 -110t-5.5 -83q2 -75 45 -75 q58 0 95 110z" />
<glyph unicode="H" horiz-adv-x="585" d="M475 0h-168l51 248h-124l-51 -248h-168l148 700h168l-62 -292h124l62 292h168z" />
<glyph unicode="I" horiz-adv-x="296" d="M186 0h-171l148 700h171z" />
<glyph unicode="J" horiz-adv-x="376" d="M-22 12l66 144q14 -6 30 -6q28 0 47.5 18t25.5 47l103 485h168l-108 -507q-23 -106 -83.5 -154.5t-144.5 -48.5q-56 0 -104 22z" />
<glyph unicode="K" horiz-adv-x="524" d="M476 0h-174l-20 173l-8 113h-2l-38 -59l-47 -227h-172l148 700h172l-39 -182l-20 -81h2q25 38 44 69l110 194h196l-218 -296z" />
<glyph unicode="L" horiz-adv-x="422" d="M363 0h-348l148 700h169l-114 -540h179z" />
<glyph unicode="M" horiz-adv-x="699" d="M589 0h-171l75 358l17 70h-2q-26 -33 -45 -55l-113 -133h4l-54 123l-24 65h-2q-6 -39 -12 -68l-76 -360h-171l148 700h176l42 -99l25 -71h2q27 35 51 63l93 107h185z" />
<glyph unicode="N" horiz-adv-x="582" d="M472 0h-138l-61 234l-26 119h-2q-7 -57 -20 -117l-50 -236h-160l148 700h142l53 -206l29 -130h2q10 76 22 132l44 204h165z" />
<glyph unicode="O" d="M254 146q31 0 56 41t37.5 99t19 110t5.5 83q-2 75 -45 75q-31 0 -56 -41t-37.5 -99t-19 -110t-5.5 -83q2 -75 45 -75zM235 -14q-96 0 -145 65.5t-49 179.5q0 50 8.5 108.5t30.5 126.5t55 122t88 90t123 36q95 0 144.5 -67.5t49.5 -181.5q0 -50 -8.5 -108t-30.5 -125.5 t-55 -121t-88 -89t-123 -35.5z" />
<glyph unicode="P" horiz-adv-x="513" d="M183 0h-168l147 700h181q105 0 161.5 -64.5t56.5 -153.5q0 -35 -9.5 -73t-32 -76.5t-54.5 -69t-82 -49.5t-110 -19h-49zM259 354h26q47 0 77.5 37.5t30.5 82.5q0 32 -20 50t-50 18h-25z" />
<glyph unicode="Q" horiz-adv-x="527" d="M468 -43l-75 -76q-47 49 -81 118q-37 -13 -77 -13q-96 0 -145 65.5t-49 179.5q0 50 8.5 108.5t30.5 126.5t55 122t88 90t123 36q95 0 144.5 -67.5t49.5 -181.5q0 -102 -34.5 -222t-107.5 -190q25 -49 70 -96zM254 146q31 0 56 41t37.5 99t19 110t5.5 83q-2 75 -45 75 q-31 0 -56 -41t-37.5 -99t-19 -110t-5.5 -83q2 -75 45 -75z" />
<glyph unicode="R" horiz-adv-x="550" d="M481 0h-168l-36 211h-1h-49l-44 -211h-168l147 700h181q104 0 161 -64.5t57 -152.5q0 -68 -35 -135t-104 -103h2zM262 370h26q47 0 76 30t29 72q0 34 -19.5 52t-50.5 18h-25z" />
<glyph unicode="S" horiz-adv-x="487" d="M-3 138l145 86q14 -33 41.5 -53.5t61.5 -20.5q30 0 45.5 15.5t15.5 36.5q0 23 -23.5 46t-56.5 45t-66 47.5t-56.5 66.5t-23.5 90q0 89 65 153t163 64q78 0 134.5 -43.5t84.5 -119.5l-143 -75q-28 78 -85 78q-26 0 -39.5 -14.5t-13.5 -33.5q0 -23 23.5 -43.5t56.5 -40.5 t66 -45t56.5 -68t23.5 -98q0 -99 -67 -162t-171 -63q-84 0 -149 42t-88 110z" />
<glyph unicode="T" horiz-adv-x="422" d="M258 0h-173l115 540h-100l33 160h373l-33 -160h-100z" />
<glyph unicode="U" horiz-adv-x="558" d="M329 228l100 472h171l-101 -478q-49 -232 -243 -232q-87 0 -147 52.5t-60 141.5q0 23 7 58l97 458h172l-100 -473q-3 -15 -3 -27q0 -50 44 -50q47 0 63 78z" />
<glyph unicode="V" horiz-adv-x="482" d="M586 700l-287 -700h-196l9 700h169l-26 -355l-11 -118h2q23 71 37 113l124 360h179z" />
<glyph unicode="W" horiz-adv-x="771" d="M880 700l-272 -700h-199l6 219l8 149h-2q-21 -73 -49 -145l-88 -223h-199l24 700h169l-30 -328l-15 -141h2q26 70 50 132l130 337h150l-7 -328l-11 -141h2q24 76 43 132l110 337h178z" />
<glyph unicode="X" horiz-adv-x="459" d="M366 350l58 -350h-171l-7 108l-3 116h-2q-18 -51 -48 -111l-56 -113h-176l206 350l-58 350h170l8 -111l3 -115h3q19 50 45 105l57 121h177z" />
<glyph unicode="Y" horiz-adv-x="480" d="M316 182l-38 -182h-167l39 190l-50 510h182l2 -129q0 -41 -1.5 -81.5t-2.5 -59.5l-2 -20h2q19 71 57 160l56 130h193z" />
<glyph unicode="Z" horiz-adv-x="484" d="M391 0h-422v2l284 471l43 65v2h-168l33 160h420v-5l-280 -461q-10 -16 -23 -34t-22 -28l-8 -9v-3h176z" />
<glyph unicode="[" horiz-adv-x="337" d="M239 -162h-228l218 1034h228l-26 -125h-83l-166 -784h83z" />
<glyph unicode="\" horiz-adv-x="319" d="M246 761l58 -822q-26 0 -80.5 0.5t-81.5 0.5l-59 821h163z" />
<glyph unicode="]" horiz-adv-x="337" d="M144 872h228l-218 -1034h-228l26 125h83l166 784h-83z" />
<glyph unicode="^" horiz-adv-x="365" d="M503 822l-97 -91l-28 36l-50 79h-2q-35 -39 -65 -65l-55 -50l-72 100l147 106h111z" />
<glyph unicode="_" horiz-adv-x="381" d="M377 -100l-30 -146h-383l30 146h383z" />
<glyph unicode="`" horiz-adv-x="239" d="M319 730l-240 102l56 119l232 -118z" />
<glyph unicode="a" horiz-adv-x="552" d="M318 225l30 141q4 24 4 32q0 27 -11.5 42t-31.5 15q-36 0 -65.5 -49.5t-43.5 -109.5t-14 -107q0 -77 47 -77q30 0 52 31t33 82zM526 157l-38 -172q-54 0 -102 21.5t-65 68.5h-2q-50 -89 -140 -89q-72 0 -113 54.5t-41 153.5q0 66 19 135t54 131t94 101t131 39 q89 0 141.5 -56t52.5 -137q0 -30 -5 -51l-32 -149q-2 -10 -2 -15q0 -35 48 -35z" />
<glyph unicode="b" horiz-adv-x="522" d="M45 271l98 459h166l-18 -84l-26 -98h2q50 52 115 52q69 0 105.5 -57t36.5 -160q0 -105 -35.5 -195t-103 -146t-151.5 -56q-47 0 -86.5 17.5t-69 52.5t-38.5 89t5 126zM239 395l-33 -156q-10 -45 3 -72.5t41 -27.5q30 0 52.5 31t33.5 76t16.5 83t5.5 64q0 77 -47 77 q-28 0 -47 -24.5t-25 -50.5z" />
<glyph unicode="c" horiz-adv-x="437" d="M333 210l108 -100q-43 -60 -90.5 -90t-112.5 -30q-108 0 -158.5 65.5t-50.5 172.5q0 91 33 173.5t101 138.5t156 56q69 0 117 -33.5t70 -93.5l-141 -87q-16 58 -60 58q-49 0 -81 -67t-32 -144q0 -87 56 -87q42 0 85 68z" />
<glyph unicode="d" horiz-adv-x="557" d="M318 225l33 158q9 41 -2.5 65t-36.5 24q-36 0 -66.5 -54t-45 -118t-14.5 -111q0 -77 47 -77q30 0 52 31t33 82zM526 157l-38 -172q-134 0 -167 90h-2q-50 -89 -140 -89q-72 0 -113 54.5t-41 153.5q0 161 80 284t184 123q37 0 64 -25.5t34 -58.5h2q5 62 15 108l22 105h165 l-111 -523q-11 -50 46 -50z" />
<glyph unicode="e" horiz-adv-x="487" d="M482 242h-291q-6 -41 9.5 -73.5t56.5 -32.5q51 0 95 62l110 -100q-51 -62 -97 -87t-114 -25q-113 0 -169 66t-56 173q0 61 18 125t52.5 120.5t92.5 92.5t129 36q70 0 113 -34t56 -90.5t11 -114t-16 -118.5zM214 357h132q9 44 -0.5 76.5t-39.5 32.5t-54 -30.5t-38 -78.5z " />
<glyph unicode="f" horiz-adv-x="332" d="M178 0h-166l95 450h-51l29 136h51q22 101 81 152t147 51q43 0 69 -7l-42 -130q-12 3 -24 3q-51 0 -63 -59l-2 -10h79l-29 -136h-79z" />
<glyph unicode="g" horiz-adv-x="522" d="M278 72h-2q-41 -48 -101 -48q-66 0 -105 51.5t-39 137.5q0 164 76.5 275.5t178.5 111.5q41 0 69 -19.5t35 -53.5h2q5 16 12.5 30.5t11.5 21.5l5 7h143q-16 -28 -27 -79l-95 -444q-19 -89 -47.5 -150t-83 -101t-131.5 -40q-145 0 -219 110l120 101q33 -63 92 -63 q40 0 64.5 37.5t40.5 114.5zM311 231l33 157q5 26 -4 51t-36 25q-32 0 -59 -39t-41 -93t-14 -105q0 -39 9.5 -59t34.5 -20q28 0 48.5 23t28.5 60z" />
<glyph unicode="h" horiz-adv-x="576" d="M548 157l-38 -172q-100 1 -149 56.5t-24 172.5l39 183q8 35 -3 54.5t-39 19.5q-62 0 -83 -96l-79 -375h-166l155 730h166l-20 -93l-22 -87h2q60 50 128 50q72 0 109 -56t13 -170l-35 -167q-11 -50 46 -50z" />
<glyph unicode="i" horiz-adv-x="275" d="M254 157l-38 -172q-84 1 -132.5 39t-48.5 119q0 36 8 71l57 261q12 56 12 101v10h151q4 -21 4 -53q0 -46 -9 -91l-50 -235q-2 -10 -2 -15q0 -35 48 -35zM220 632q-41 0 -70.5 29t-29.5 71t29.5 70.5t70.5 28.5t69.5 -28.5t28.5 -70.5t-28.5 -71t-69.5 -29z" />
<glyph unicode="j" horiz-adv-x="303" d="M23 -1l125 587h174l-130 -608q-22 -102 -81 -154t-141 -52q-100 0 -149 49l87 133q27 -22 53 -22q47 0 62 67zM262 632q-41 0 -70.5 29t-29.5 71t29.5 70.5t70.5 28.5t69.5 -28.5t28.5 -70.5t-28.5 -71t-69.5 -29z" />
<glyph unicode="k" horiz-adv-x="523" d="M503 147l-34 -153q-18 -1 -38 -1q-51 0 -90 20t-64 58t-36 63t-24 65h-2l-43 -199h-166l155 730h166l-24 -111q-5 -24 -11.5 -47.5t-12 -40.5t-5.5 -18h2q56 87 138 87q63 0 96.5 -40.5t33.5 -103.5q0 -77 -50 -147t-152 -98l-1 -2q45 -63 139 -63q15 0 23 1zM253 376 l-17 -80q53 4 105.5 41t52.5 88q0 26 -13.5 40.5t-37.5 14.5q-32 0 -55.5 -26.5t-34.5 -77.5z" />
<glyph unicode="l" horiz-adv-x="281" d="M253 157l-38 -172q-84 1 -132.5 39.5t-48.5 119.5q0 35 8 70l110 516h165l-110 -523q-2 -10 -2 -15q0 -35 48 -35z" />
<glyph unicode="m" horiz-adv-x="823" d="M795 157l-38 -172q-100 1 -149 56.5t-24 172.5l37 174q16 78 -33 78t-69 -93l-81 -373h-165l86 406q5 26 -3.5 43t-31.5 17q-55 0 -74 -93l-78 -373h-165l100 475q7 32 10 59.5t3 39.5l-1 12h151q2 -31 -2 -65h2q55 79 134 79t111 -81h2q61 81 137 81q46 0 77.5 -21 t43.5 -54t15 -74.5t-8 -83.5l-33 -160q-10 -50 46 -50z" />
<glyph unicode="n" horiz-adv-x="575" d="M547 157l-38 -172q-100 1 -149.5 56.5t-23.5 172.5l40 182q6 27 -3 49t-35 22q-44 0 -65 -40t-43 -147l-59 -280h-165l100 475q7 32 10 59.5t2 39.5v12h143q7 -32 7 -65h2q24 33 62 56t83 23q81 0 110.5 -64.5t10.5 -159.5l-35 -169q-10 -50 46 -50z" />
<glyph unicode="o" horiz-adv-x="497" d="M232 135q31 0 56.5 37.5t39 89t13.5 100.5q0 90 -55 90q-31 0 -56.5 -37.5t-39 -89t-13.5 -100.5q0 -90 55 -90zM224 -13q-103 0 -155 68t-52 179q0 63 16.5 125t48.5 117.5t87 89.5t125 34q103 0 155 -68t52 -179q0 -63 -16.5 -125t-48.5 -117.5t-87 -89.5t-125 -34z " />
<glyph unicode="p" horiz-adv-x="526" d="M120 -200h-166l154 720q4 20 4.5 36.5t-0.5 23.5l-2 6h143q7 -31 6 -65h2q49 75 126 75q72 0 107.5 -55.5t35.5 -148.5q0 -48 -14.5 -113t-42 -132.5t-76.5 -114t-109 -46.5q-76 0 -113 66h-2q-7 -37 -13 -67zM246 389l-41 -192q-6 -24 4 -47t37 -23q35 0 64.5 50 t43 111.5t13.5 110.5q0 67 -47 67q-57 0 -74 -77z" />
<glyph unicode="q" horiz-adv-x="525" d="M324 210l35 165q2 10 2 17q0 64 -42 64q-49 0 -88.5 -88.5t-39.5 -172.5q0 -82 51 -82q57 0 82 97zM397 -200h-166l33 159l19 70l-3 1q-49 -44 -103 -44q-71 0 -106.5 58.5t-35.5 151.5q0 91 30.5 183t90 156.5t130.5 64.5q44 0 72.5 -24t37.5 -57h2q7 20 15.5 37 t12.5 24l5 6h145q-18 -33 -28 -79z" />
<glyph unicode="r" horiz-adv-x="379" d="M172 0h-165l100 475q12 56 12 101v10h143q6 -27 6 -64h2q22 36 59 56t77 20q20 0 44 -7l-57 -168q-29 9 -48 9q-81 0 -103 -97z" />
<glyph unicode="s" horiz-adv-x="470" d="M494 507l-125 -96q-14 31 -48.5 46.5t-64 8t-29.5 -35.5q0 -18 22 -34t53.5 -30.5t63.5 -34t54 -54.5t22 -83q0 -90 -65 -149t-166 -59q-80 0 -139.5 36t-84.5 84l118 100q19 -31 54 -52t71 -21q51 0 51 38q0 22 -22 38.5t-53.5 30.5t-63 32t-53.5 52.5t-22 82.5 q0 83 60.5 138t160.5 55q64 0 121.5 -23.5t84.5 -69.5z" />
<glyph unicode="t" horiz-adv-x="341" d="M280 151l-5 -152q-42 -11 -78 -11q-68 0 -110 36t-42 106q0 26 6 56l55 260h-54l30 140h54l31 144h165l-31 -144h86l-30 -140h-85l-54 -255q-1 -4 -1 -11q0 -34 37 -34q11 0 26 5z" />
<glyph unicode="u" horiz-adv-x="571" d="M542 157l-38 -172q-134 0 -167 90h-2q-53 -89 -146 -89q-74 0 -112.5 43.5t-38.5 116.5q0 33 7 64l78 376h166l-84 -397q-3 -15 -3 -27q0 -50 42 -50q31 0 54.5 31t34.5 82l77 361h166l-80 -379q-2 -10 -2 -15q0 -35 48 -35z" />
<glyph unicode="v" horiz-adv-x="474" d="M275 1h-183l-29 585h175l-10 -241l-7 -151h2q33 89 54 142l99 250h183z" />
<glyph unicode="w" horiz-adv-x="786" d="M600 1h-183l1 225l2 126h-1q-26 -67 -51 -124l-100 -227h-183l-20 585h175l-15 -237l-10 -156h3q33 87 59 145l112 248h155l3 -237l-1 -156h2q30 88 52 146l92 247h182z" />
<glyph unicode="x" horiz-adv-x="430" d="M324 291l64 -291h-172l-8 85l-6 109h-2q-24 -56 -53 -109l-47 -85h-169l189 292l-64 294h171l10 -80l8 -114h2q31 67 56 115l41 79h169z" />
<glyph unicode="y" horiz-adv-x="481" d="M116 -6l-61 592h176v-214l-5 -204h2q48 145 68 198l83 220h182l-272 -576q-58 -122 -113.5 -169.5t-127.5 -47.5q-88 0 -136 64l108 129q11 -25 47 -25t49 33z" />
<glyph unicode="z" horiz-adv-x="453" d="M367 0h-418v2l211 327q16 23 34 47t28 36l10 12v2h-159l34 160h413v-2l-207 -317q-14 -22 -34 -48t-33 -41l-13 -16v-2h167z" />
<glyph unicode="{" horiz-adv-x="250" d="M171 -33l-29 -138q-162 0 -162 136q0 40 25 96t50.5 104t25.5 69q0 44 -33 44l32 148q58 0 58 78q0 16 -2.5 71t-2.5 83q0 112 52.5 166.5t139.5 54.5q13 0 39 -4l-31 -143q-40 0 -40 -64q0 -11 3 -43.5t3 -54.5q0 -44 -10.5 -87t-39 -81.5t-70.5 -47.5v-2q25 -2 39 -26 t14 -59q0 -50 -24 -105.5t-48 -101.5t-24 -72q0 -11 8.5 -19t20.5 -8q1 0 3 0.5t3 0.5q-1 1 -1 3q0 1 1 2z" />
<glyph unicode="|" horiz-adv-x="217" d="M331 800l-192 -900h-180l192 900h180z" />
<glyph unicode="}" horiz-adv-x="250" d="M142 737l29 138q162 0 162 -136q0 -40 -25.5 -96t-50.5 -104t-25 -69q0 -44 33 -44l-32 -148q-58 0 -58 -78q0 -16 2.5 -71t2.5 -83q0 -112 -52.5 -166.5t-139.5 -54.5q-13 0 -39 4l31 143q40 0 40 64q0 11 -3 43.5t-3 54.5q0 44 10.5 87t39 81.5t70.5 47.5v2 q-25 2 -39 26t-14 59q0 50 24 105.5t48 101.5t24 72q0 11 -8.5 19t-20.5 8q-1 0 -3 -0.5t-3 -0.5q1 -1 1 -3q0 -1 -1 -2z" />
<glyph unicode="~" horiz-adv-x="355" d="M274 450h91q0 -128 -104 -128q-27 0 -62.5 12t-43.5 12q-14 0 -14 -15h-91q0 63 23 96t80 33q28 0 63.5 -12.5t43.5 -12.5q14 0 14 15z" />
<glyph unicode="&#xa1;" horiz-adv-x="286" d="M181 0h-166l98 466h166zM226 507q-41 0 -70.5 29t-29.5 71t29.5 70.5t70.5 28.5t69.5 -28.5t28.5 -70.5t-28.5 -71t-69.5 -29z" />
<glyph unicode="&#xa2;" horiz-adv-x="425" d="M332 334l69 -131q-75 -55 -155 -55q-40 0 -74 12l-52 -99h-43l59 115q-90 52 -90 159q0 90 64.5 161.5t173.5 71.5q30 0 56 -6l56 104h43l-61 -116q29 -13 62 -42l-105 -125q-24 26 -54 26q-47 0 -61 -36q-12 -33 12 -53q14 -12 36 -12q38 0 64 26z" />
<glyph unicode="&#xa3;" horiz-adv-x="496" d="M410 173l32 -150q-56 -37 -132 -37q-28 0 -81 9.5t-76 9.5q-47 0 -79 -28l-61 123q62 60 85 179h-51l21 102h45q13 122 22 157q44 176 212 176q85 0 127 -40.5t66 -110.5l-147 -80q-7 71 -48 71q-9 0 -16.5 -2.5t-13.5 -9.5t-10.5 -13t-8.5 -18t-6.5 -20.5t-5 -25.5 t-4 -26t-4.5 -29t-4 -29h124l-21 -102h-125q-28 -97 -66 -143v-2q40 13 69.5 8.5t73.5 0.5t83 30z" />
<glyph unicode="&#xa4;" horiz-adv-x="505" d="M348 230l126 -101q-81 -143 -220 -143q-96 0 -145.5 65.5t-49.5 179.5q0 27 3 62h-50l8 34h46q4 30 7 46h-44l8 34h44q14 60 36 111t55.5 97t82.5 72.5t108 26.5q78 0 125 -45t63 -125l-161 -77v12q0 75 -46 75q-60 0 -94 -147h117l-8 -34h-116q-6 -34 -8 -46h115l-8 -34 h-111q-4 -40 -4 -72q2 -75 45 -75q44 0 76 84z" />
<glyph unicode="&#xa5;" horiz-adv-x="496" d="M328 163l-34 -163h-167l33 163h-117l7 34h115l-4 46h-101l7 34h90l-41 423h182l2 -129q0 -41 -1.5 -81.5t-2.5 -59.5l-2 -20h2q19 71 57 160l56 130h193l-221 -423h81l-7 -34h-91l-24 -46h105l-7 -34h-110z" />
<glyph unicode="&#xa6;" horiz-adv-x="230" d="M317 800l-85 -400h-163l85 400h163zM213 313l-88 -413h-163l88 413h163z" />
<glyph unicode="&#xa7;" horiz-adv-x="494" d="M344 298q12 14 12 30q0 19 -19.5 32.5t-62.5 29t-60 23.5q-17 -10 -17 -31q0 -9 5 -16.5t19.5 -15.5t28 -13.5t43 -17t51.5 -21.5zM434 257v-2q29 -37 29 -83q0 -83 -59.5 -134.5t-161.5 -51.5q-150 0 -228 107l104 105q24 -31 61 -53.5t78 -22.5q51 0 51 33 q0 19 -25.5 32t-62 24t-72.5 25.5t-61.5 44.5t-25.5 73q0 83 82 114v2q-26 24 -26 77q0 68 54 117.5t141 49.5q86 0 134 -33.5t70 -98.5l-133 -65q-17 63 -71 63q-21 0 -31.5 -8.5t-10.5 -20.5q0 -20 34 -35.5t75 -27.5t75 -43.5t34 -78.5q0 -67 -54 -109z" />
<glyph unicode="&#xa8;" horiz-adv-x="361" d="M281 814q0 -32 -21 -51.5t-55 -19.5t-55.5 19t-21.5 52t21.5 53t55.5 20q33 0 54.5 -20t21.5 -53zM469 814q0 -32 -21 -51.5t-55 -19.5t-55.5 19t-21.5 52t21.5 53t55.5 20q33 0 54.5 -20t21.5 -53z" />
<glyph unicode="&#xa9;" horiz-adv-x="753" d="M765 350q0 -153 -104 -256.5t-257 -103.5q-154 0 -258 103t-104 257q0 153 104 256.5t258 103.5q153 0 257 -103.5t104 -256.5zM404 81q113 0 187 77t74 192t-74 192t-187 77q-115 0 -190 -77t-75 -192t75 -192t190 -77zM523 253l-96 56q-10 -26 -25 -26q-24 0 -24 71 q0 76 25 76q13 0 22 -25l95 53q-35 80 -117 80q-73 0 -107.5 -54t-34.5 -128q0 -46 12.5 -85.5t46.5 -68.5t84 -29q86 0 119 80z" />
<glyph unicode="&#xaa;" horiz-adv-x="285" d="M301 383h-85l4 44h-51l-16 -44h-89l144 317h82zM193 492h28q1 14 2 29t3 35t3 32h-2q-4 -10 -16.5 -47t-17.5 -49z" />
<glyph unicode="&#xab;" horiz-adv-x="386" d="M190 251l-113 -83l-63 132l23 104l117 132l87 -96l-52 -50l-70 -51v-2q31 -30 55 -57zM388 251l-113 -83l-63 132l23 104l117 132l87 -96l-52 -50l-70 -51v-2q31 -30 55 -57z" />
<glyph unicode="&#xac;" horiz-adv-x="344" d="M339 273l-103 -82l-48 71l-90 -72l-77 107l100 65l-55 64l101 81l47 -70l92 73l77 -107l-101 -66z" />
<glyph unicode="&#xae;" horiz-adv-x="753" d="M764 350q0 -153 -104 -256.5t-257 -103.5q-154 0 -258 103t-104 257q0 153 104 256.5t258 103.5q153 0 257 -103.5t104 -256.5zM402 81q113 0 187.5 77t74.5 192t-74.5 192t-187.5 77q-114 0 -189 -77t-75 -192t75 -192t189 -77zM536 195h-104l-21 86h-24v-86h-96v322 h112q134 0 134 -118q0 -64 -41 -95zM387 372h19q35 0 35 27t-35 27h-19v-54z" />
<glyph unicode="&#xaf;" horiz-adv-x="306" d="M436 897l-27 -125h-258l27 125h258z" />
<glyph unicode="&#xb0;" horiz-adv-x="268" d="M356 606q0 -61 -45.5 -108t-113.5 -47q-60 0 -97.5 38t-37.5 91q0 59 45.5 104.5t116.5 45.5q61 0 96.5 -35.5t35.5 -88.5zM202 555q17 0 29.5 14t12.5 31q0 24 -25 24q-18 0 -30 -14t-12 -30q0 -25 25 -25z" />
<glyph unicode="&#xb1;" horiz-adv-x="370" d="M298 94h-274l25 124h275zM390 387h-100l-23 -105h-138l23 105h-100l26 124h100l23 105h138l-23 -105h100z" />
<glyph unicode="&#xb2;" horiz-adv-x="224" d="M237 385h-195v2l157 209q9 12 6 23t-15 11q-21 0 -38 -44l-69 41q41 83 118 83q43 0 67 -23t24 -56q0 -44 -27 -82l-7 -10q-14 -20 -28 -36.5t-21 -22.5l-7 -7v-2h55z" />
<glyph unicode="&#xb3;" horiz-adv-x="242" d="M292 611l-18 -13q-12 -9 -22.5 -15.5t-15.5 -8.5l-4 -1v-2q54 -21 54 -78q0 -42 -30 -80t-92 -38q-83 0 -108 71l79 52q7 -34 35 -34q12 0 19 8t7 19q0 15 -11.5 22t-27.5 5l-17 58l14 12q9 7 19 14t16 10.5t6 2.5v2h-96l17 83h194z" />
<glyph unicode="&#xb4;" horiz-adv-x="256" d="M410 832l-240 -102l-48 103l232 118z" />
<glyph unicode="&#xb6;" horiz-adv-x="559" d="M620 700l-148 -700h-40l148 700h40zM539 700l-148 -700h-156l41 195h-45q-100 0 -148.5 60.5t-48.5 156.5q0 71 31.5 135t98.5 108.5t155 44.5h220z" />
<glyph unicode="&#xb7;" horiz-adv-x="269" d="M169 259q-41 0 -70.5 29t-29.5 71t29.5 70.5t70.5 28.5t69.5 -28.5t28.5 -70.5t-28.5 -71t-69.5 -29z" />
<glyph unicode="&#xb8;" horiz-adv-x="242" d="M-45 -233l74 64q11 -17 31 -21t35.5 6t15.5 31q0 19 -14 28t-31.5 5t-25.5 -17l-69 41l59 135h89l-41 -86l2 -1q53 12 91.5 -17t38.5 -81q0 -70 -41.5 -106t-92.5 -36q-78 0 -121 55z" />
<glyph unicode="&#xb9;" horiz-adv-x="152" d="M163 385h-96l48 224h-30l19 91h126z" />
<glyph unicode="&#xba;" horiz-adv-x="260" d="M177 455q20 0 33.5 59t13.5 92q0 21 -12 21q-20 0 -34 -59t-14 -91q0 -22 13 -22zM169 372q-94 0 -94 120q0 50 13 96.5t49 84t88 37.5q91 0 91 -120q0 -36 -7.5 -72t-23.5 -70t-46 -55t-70 -21z" />
<glyph unicode="&#xbb;" horiz-adv-x="384" d="M54 454l113 83l63 -132l-23 -104l-117 -132l-87 96l52 50l70 51v2q-31 30 -55 57zM250 454l113 83l63 -132l-23 -104l-117 -132l-87 96l52 50l70 51v2q-31 30 -55 57z" />
<glyph unicode="&#xbc;" horiz-adv-x="479" d="M383 0h-88l8 42h-112l171 274h88l-39 -181h23l-20 -93h-23zM332 125l16 76h-2l-40 -74v-2h26zM166 385h-96l48 224h-30l19 91h126zM65 0l476 700h-118l-475 -700h117z" />
<glyph unicode="&#xbd;" horiz-adv-x="498" d="M166 385h-96l48 224h-30l19 91h126zM65 0l476 700h-118l-475 -700h117zM439 0h-195v2l157 209q9 12 6 23t-15 11q-21 0 -38 -44l-69 41q41 83 118 83q43 0 67 -23t24 -56q0 -44 -27 -82l-7 -10q-14 -20 -28 -36.5t-21 -23.5l-7 -6v-2h55z" />
<glyph unicode="&#xbe;" horiz-adv-x="501" d="M427 0h-88l8 42h-112l171 274h88l-39 -181h23l-20 -93h-23zM376 125l16 76h-2l-40 -74v-2h26zM260 611l-18 -13q-12 -9 -22.5 -15.5t-15.5 -8.5l-4 -1v-2q54 -21 54 -78q0 -42 -30 -80t-92 -38q-83 0 -108 71l79 52q7 -34 35 -34q12 0 19 8t7 19q0 15 -11.5 22t-27.5 5 l-17 58l14 12q9 7 19 14t16 10.5t6 2.5v2h-96l17 83h194zM107 0l476 700h-118l-475 -700h117z" />
<glyph unicode="&#xbf;" horiz-adv-x="417" d="M187 457l139 43q28 -39 28 -81q0 -45 -22 -81t-53 -58t-62.5 -39t-53.5 -33.5t-22 -32.5q0 -17 12.5 -26.5t34.5 -9.5q53 0 105 93l122 -103q-43 -71 -99.5 -107t-137.5 -36q-94 0 -148.5 50t-54.5 125q0 42 16 76t40.5 54.5t53 39t53 31t40.5 29t16 35.5q0 12 -7 31z M286 714q41 0 70.5 -29t29.5 -71t-29.5 -70.5t-70.5 -28.5t-69.5 28.5t-28.5 70.5t28.5 71t69.5 29z" />
<glyph unicode="&#xc0;" horiz-adv-x="498" d="M448 0h-168l7 78h-124l-24 -78h-179l294 700h196zM294 238l12 159l13 139h-2q-22 -78 -41 -136l-54 -162h72zM449 730l-240 102l56 119l232 -118z" />
<glyph unicode="&#xc1;" horiz-adv-x="498" d="M448 0h-168l7 78h-124l-24 -78h-179l294 700h196zM294 238l12 159l13 139h-2q-22 -78 -41 -136l-54 -162h72zM491 832l-240 -102l-48 103l232 118z" />
<glyph unicode="&#xc2;" horiz-adv-x="498" d="M448 0h-168l7 78h-124l-24 -78h-179l294 700h196zM294 238l12 159l13 139h-2q-22 -78 -41 -136l-54 -162h72zM538 822l-97 -91l-28 36l-50 79h-2q-35 -39 -65 -65l-55 -50l-72 100l147 106h111z" />
<glyph unicode="&#xc3;" horiz-adv-x="498" d="M448 0h-168l7 78h-124l-24 -78h-179l294 700h196zM294 238l12 159l13 139h-2q-22 -78 -41 -136l-54 -162h72zM427 890h91q0 -128 -104 -128q-27 0 -62.5 12t-43.5 12q-14 0 -14 -15h-91q0 63 23 96t80 33q28 0 63.5 -12.5t43.5 -12.5q14 0 14 15z" />
<glyph unicode="&#xc4;" horiz-adv-x="498" d="M448 0h-168l7 78h-124l-24 -78h-179l294 700h196zM294 238l12 159l13 139h-2q-22 -78 -41 -136l-54 -162h72zM345 814q0 -32 -21 -51.5t-55 -19.5t-55.5 19t-21.5 52t21.5 53t55.5 20q33 0 54.5 -20t21.5 -53zM533 814q0 -32 -21 -51.5t-55 -19.5t-55.5 19t-21.5 52 t21.5 53t55.5 20q33 0 54.5 -20t21.5 -53z" />
<glyph unicode="&#xc5;" horiz-adv-x="498" d="M448 0h-168l7 78h-124l-24 -78h-179l294 700h196zM294 238l12 159l13 139h-2q-22 -78 -41 -136l-54 -162h72zM362 751q-58 0 -88.5 32t-30.5 78q0 55 39 98.5t103 43.5q58 0 88.5 -32t30.5 -78q0 -55 -39 -98.5t-103 -43.5zM367 840q17 0 28 14t11 31q0 27 -27 27 q-17 0 -28 -13.5t-11 -30.5q0 -28 27 -28z" />
<glyph unicode="&#xc6;" horiz-adv-x="781" d="M689 0h-372l16 78h-151l-38 -78h-183l435 700h441l-33 -160h-214l-26 -126h176l-35 -160h-176l-20 -94h213zM366 238l53 239l17 70h-2l-57 -120q-7 -15 -14 -27l-89 -162h92z" />
<glyph unicode="&#xc7;" horiz-adv-x="487" d="M75 -233l74 64q11 -17 31 -21t35.5 6t15.5 31q0 19 -14 28t-31.5 5t-25.5 -17l-69 41l46 106q-96 55 -96 221q0 50 8.5 108t30.5 126t55 122.5t87.5 90.5t122.5 36q78 0 125 -45t63 -125l-161 -77q2 87 -46 87q-31 0 -55.5 -40.5t-37 -98.5t-18.5 -109.5t-6 -84.5 q2 -75 45 -75q44 0 76 84l126 -101q-81 -143 -220 -143q-4 0 -11.5 0.5t-10.5 0.5l-16 -34l2 -1q53 12 91.5 -17t38.5 -81q0 -70 -41.5 -106t-92.5 -36q-78 0 -121 55z" />
<glyph unicode="&#xc8;" horiz-adv-x="511" d="M419 0h-379l148 700h379l-33 -160h-209l-27 -126h172l-35 -160h-172l-20 -94h209zM499 730l-240 102l56 119l232 -118z" />
<glyph unicode="&#xc9;" horiz-adv-x="511" d="M419 0h-379l148 700h379l-33 -160h-209l-27 -126h172l-35 -160h-172l-20 -94h209zM534 832l-240 -102l-48 103l232 118z" />
<glyph unicode="&#xca;" horiz-adv-x="511" d="M419 0h-379l148 700h379l-33 -160h-209l-27 -126h172l-35 -160h-172l-20 -94h209zM579 822l-97 -91l-28 36l-50 79h-2q-35 -39 -65 -65l-55 -50l-72 100l147 106h111z" />
<glyph unicode="&#xcb;" horiz-adv-x="511" d="M419 0h-379l148 700h379l-33 -160h-209l-27 -126h172l-35 -160h-172l-20 -94h209zM380 814q0 -32 -21 -51.5t-55 -19.5t-55.5 19t-21.5 52t21.5 53t55.5 20q33 0 54.5 -20t21.5 -53zM568 814q0 -32 -21 -51.5t-55 -19.5t-55.5 19t-21.5 52t21.5 53t55.5 20q33 0 54.5 -20 t21.5 -53z" />
<glyph unicode="&#xcc;" horiz-adv-x="296" d="M186 0h-171l148 700h171zM381 730l-240 102l56 119l232 -118z" />
<glyph unicode="&#xcd;" horiz-adv-x="296" d="M186 0h-171l148 700h171zM402 832l-240 -102l-48 103l232 118z" />
<glyph unicode="&#xce;" horiz-adv-x="296" d="M186 0h-171l148 700h171zM438 822l-97 -91l-28 36l-50 79h-2q-35 -39 -65 -65l-55 -50l-72 100l147 106h111z" />
<glyph unicode="&#xcf;" horiz-adv-x="296" d="M186 0h-171l148 700h171zM249 814q0 -32 -21 -51.5t-55 -19.5t-55.5 19t-21.5 52t21.5 53t55.5 20q33 0 54.5 -20t21.5 -53zM437 814q0 -32 -21 -51.5t-55 -19.5t-55.5 19t-21.5 52t21.5 53t55.5 20q33 0 54.5 -20t21.5 -53z" />
<glyph unicode="&#xd0;" horiz-adv-x="543" d="M224 0h-209l63 300h-53l22 102h53l63 298h171q63 0 110 -27t70.5 -69t34.5 -82.5t11 -79.5q0 -65 -12.5 -127.5t-39.5 -120t-65.5 -100.5t-95 -68.5t-123.5 -25.5zM214 160h27q62 0 107.5 87.5t45.5 193.5q0 46 -17.5 72.5t-50.5 26.5h-31l-30 -138h70l-22 -102h-69z" />
<glyph unicode="&#xd1;" horiz-adv-x="582" d="M472 0h-138l-61 234l-26 119h-2q-7 -57 -20 -117l-50 -236h-160l148 700h142l53 -206l29 -130h2q10 76 22 132l44 204h165zM472 890h91q0 -128 -104 -128q-27 0 -62.5 12t-43.5 12q-14 0 -14 -15h-91q0 63 23 96t80 33q28 0 63.5 -12.5t43.5 -12.5q14 0 14 15z" />
<glyph unicode="&#xd2;" d="M254 146q31 0 56 41t37.5 99t19 110t5.5 83q-2 75 -45 75q-31 0 -56 -41t-37.5 -99t-19 -110t-5.5 -83q2 -75 45 -75zM235 -14q-96 0 -145 65.5t-49 179.5q0 50 8.5 108.5t30.5 126.5t55 122t88 90t123 36q95 0 144.5 -67.5t49.5 -181.5q0 -50 -8.5 -108t-30.5 -125.5 t-55 -121t-88 -89t-123 -35.5zM464 730l-240 102l56 119l232 -118z" />
<glyph unicode="&#xd3;" d="M254 146q31 0 56 41t37.5 99t19 110t5.5 83q-2 75 -45 75q-31 0 -56 -41t-37.5 -99t-19 -110t-5.5 -83q2 -75 45 -75zM235 -14q-96 0 -145 65.5t-49 179.5q0 50 8.5 108.5t30.5 126.5t55 122t88 90t123 36q95 0 144.5 -67.5t49.5 -181.5q0 -50 -8.5 -108t-30.5 -125.5 t-55 -121t-88 -89t-123 -35.5zM508 832l-240 -102l-48 103l232 118z" />
<glyph unicode="&#xd4;" d="M254 146q31 0 56 41t37.5 99t19 110t5.5 83q-2 75 -45 75q-31 0 -56 -41t-37.5 -99t-19 -110t-5.5 -83q2 -75 45 -75zM235 -14q-96 0 -145 65.5t-49 179.5q0 50 8.5 108.5t30.5 126.5t55 122t88 90t123 36q95 0 144.5 -67.5t49.5 -181.5q0 -50 -8.5 -108t-30.5 -125.5 t-55 -121t-88 -89t-123 -35.5zM555 822l-97 -91l-28 36l-50 79h-2q-35 -39 -65 -65l-55 -50l-72 100l147 106h111z" />
<glyph unicode="&#xd5;" d="M254 146q31 0 56 41t37.5 99t19 110t5.5 83q-2 75 -45 75q-31 0 -56 -41t-37.5 -99t-19 -110t-5.5 -83q2 -75 45 -75zM235 -14q-96 0 -145 65.5t-49 179.5q0 50 8.5 108.5t30.5 126.5t55 122t88 90t123 36q95 0 144.5 -67.5t49.5 -181.5q0 -50 -8.5 -108t-30.5 -125.5 t-55 -121t-88 -89t-123 -35.5zM433 890h91q0 -128 -104 -128q-27 0 -62.5 12t-43.5 12q-14 0 -14 -15h-91q0 63 23 96t80 33q28 0 63.5 -12.5t43.5 -12.5q14 0 14 15z" />
<glyph unicode="&#xd6;" d="M254 146q31 0 56 41t37.5 99t19 110t5.5 83q-2 75 -45 75q-31 0 -56 -41t-37.5 -99t-19 -110t-5.5 -83q2 -75 45 -75zM235 -14q-96 0 -145 65.5t-49 179.5q0 50 8.5 108.5t30.5 126.5t55 122t88 90t123 36q95 0 144.5 -67.5t49.5 -181.5q0 -50 -8.5 -108t-30.5 -125.5 t-55 -121t-88 -89t-123 -35.5zM350 814q0 -32 -21 -51.5t-55 -19.5t-55.5 19t-21.5 52t21.5 53t55.5 20q33 0 54.5 -20t21.5 -53zM538 814q0 -32 -21 -51.5t-55 -19.5t-55.5 19t-21.5 52t21.5 53t55.5 20q33 0 54.5 -20t21.5 -53z" />
<glyph unicode="&#xd7;" horiz-adv-x="344" d="M339 273l-103 -82l-48 71l-90 -72l-77 107l100 65l-55 64l101 81l47 -70l92 73l77 -107l-101 -66z" />
<glyph unicode="&#xd8;" d="M235 -14q-96 0 -145 65.5t-49 179.5q0 50 8.5 108.5t30.5 126.5t55 122t88 90t123 36q95 0 144.5 -67.5t49.5 -181.5q0 -50 -8.5 -108t-30.5 -125.5t-55 -121t-88 -89t-123 -35.5zM210 256l160 246q-6 52 -43 52q-27 0 -50 -32t-36.5 -81t-21 -96.5t-9.5 -88.5zM370 428 l-158 -240q10 -42 42 -42q26 0 48 29t35.5 74.5t21.5 90.5t11 88z" />
<glyph unicode="&#xd9;" horiz-adv-x="558" d="M329 228l100 472h171l-101 -478q-49 -232 -243 -232q-87 0 -147 52.5t-60 141.5q0 23 7 58l97 458h172l-100 -473q-3 -15 -3 -27q0 -50 44 -50q47 0 63 78zM490 730l-240 102l56 119l232 -118z" />
<glyph unicode="&#xda;" horiz-adv-x="558" d="M329 228l100 472h171l-101 -478q-49 -232 -243 -232q-87 0 -147 52.5t-60 141.5q0 23 7 58l97 458h172l-100 -473q-3 -15 -3 -27q0 -50 44 -50q47 0 63 78zM531 832l-240 -102l-48 103l232 118z" />
<glyph unicode="&#xdb;" horiz-adv-x="558" d="M329 228l100 472h171l-101 -478q-49 -232 -243 -232q-87 0 -147 52.5t-60 141.5q0 23 7 58l97 458h172l-100 -473q-3 -15 -3 -27q0 -50 44 -50q47 0 63 78zM578 822l-97 -91l-28 36l-50 79h-2q-35 -39 -65 -65l-55 -50l-72 100l147 106h111z" />
<glyph unicode="&#xdc;" horiz-adv-x="558" d="M329 228l100 472h171l-101 -478q-49 -232 -243 -232q-87 0 -147 52.5t-60 141.5q0 23 7 58l97 458h172l-100 -473q-3 -15 -3 -27q0 -50 44 -50q47 0 63 78zM373 814q0 -32 -21 -51.5t-55 -19.5t-55.5 19t-21.5 52t21.5 53t55.5 20q33 0 54.5 -20t21.5 -53zM561 814 q0 -32 -21 -51.5t-55 -19.5t-55.5 19t-21.5 52t21.5 53t55.5 20q33 0 54.5 -20t21.5 -53z" />
<glyph unicode="&#xdd;" horiz-adv-x="516" d="M304 0l38 182l270 518h-193l-56 -130q-17 -40 -31 -80t-20 -60l-6 -20h-2q1 8 2 21.5t2.5 56t1.5 83.5l-2 129h-182l50 -510l-39 -190h167zM525 832l-240 -102l-48 103l232 118z" />
<glyph unicode="&#xde;" horiz-adv-x="513" d="M183 0h-168l147 700h169l-19 -90h12q112 0 165 -63t53 -155q0 -35 -9.5 -73t-32 -76.5t-54.5 -69t-82 -49.5t-110 -19h-49zM240 264h26q47 0 77.5 37.5t30.5 82.5q0 32 -20 50t-50 18h-25z" />
<glyph unicode="&#xdf;" horiz-adv-x="535" d="M206 6l58 146q18 -15 45 -15t39.5 17.5t12.5 42.5q0 39 -37.5 104.5t-37.5 102.5q0 39 27 77.5t53.5 70.5t26.5 55q0 16 -10 26.5t-25 10.5q-17 0 -32.5 -14t-19.5 -34l-125 -596h-166l126 594q19 92 79.5 142t147.5 50q76 0 128 -39t52 -122q0 -42 -16 -77.5t-36 -55 t-36 -39.5t-16 -35q0 -24 19 -54.5t38 -71.5t19 -91q0 -99 -54.5 -156.5t-145.5 -57.5q-74 0 -114 19z" />
<glyph unicode="&#xe0;" horiz-adv-x="552" d="M318 225l30 141q4 24 4 32q0 27 -11.5 42t-31.5 15q-36 0 -65.5 -49.5t-43.5 -109.5t-14 -107q0 -77 47 -77q30 0 52 31t33 82zM526 157l-38 -172q-54 0 -102 21.5t-65 68.5h-2q-50 -89 -140 -89q-72 0 -113 54.5t-41 153.5q0 66 19 135t54 131t94 101t131 39 q89 0 141.5 -56t52.5 -137q0 -30 -5 -51l-32 -149q-2 -10 -2 -15q0 -35 48 -35zM444 598l-240 102l56 119l232 -118z" />
<glyph unicode="&#xe1;" horiz-adv-x="552" d="M318 225l30 141q4 24 4 32q0 27 -11.5 42t-31.5 15q-36 0 -65.5 -49.5t-43.5 -109.5t-14 -107q0 -77 47 -77q30 0 52 31t33 82zM526 157l-38 -172q-54 0 -102 21.5t-65 68.5h-2q-50 -89 -140 -89q-72 0 -113 54.5t-41 153.5q0 66 19 135t54 131t94 101t131 39 q89 0 141.5 -56t52.5 -137q0 -30 -5 -51l-32 -149q-2 -10 -2 -15q0 -35 48 -35zM452 700l-240 -102l-48 103l232 118z" />
<glyph unicode="&#xe2;" horiz-adv-x="552" d="M318 225l30 141q4 24 4 32q0 27 -11.5 42t-31.5 15q-36 0 -65.5 -49.5t-43.5 -109.5t-14 -107q0 -77 47 -77q30 0 52 31t33 82zM526 157l-38 -172q-54 0 -102 21.5t-65 68.5h-2q-50 -89 -140 -89q-72 0 -113 54.5t-41 153.5q0 66 19 135t54 131t94 101t131 39 q89 0 141.5 -56t52.5 -137q0 -30 -5 -51l-32 -149q-2 -10 -2 -15q0 -35 48 -35zM518 697l-97 -91l-28 36l-50 79h-2q-35 -39 -65 -65l-55 -50l-72 100l147 106h111z" />
<glyph unicode="&#xe3;" horiz-adv-x="552" d="M318 225l30 141q4 24 4 32q0 27 -11.5 42t-31.5 15q-36 0 -65.5 -49.5t-43.5 -109.5t-14 -107q0 -77 47 -77q30 0 52 31t33 82zM526 157l-38 -172q-54 0 -102 21.5t-65 68.5h-2q-50 -89 -140 -89q-72 0 -113 54.5t-41 153.5q0 66 19 135t54 131t94 101t131 39 q89 0 141.5 -56t52.5 -137q0 -30 -5 -51l-32 -149q-2 -10 -2 -15q0 -35 48 -35zM412 777h91q0 -128 -104 -128q-27 0 -62.5 12t-43.5 12q-14 0 -14 -15h-91q0 63 23 96t80 33q28 0 63.5 -12.5t43.5 -12.5q14 0 14 15z" />
<glyph unicode="&#xe4;" horiz-adv-x="552" d="M318 225l30 141q4 24 4 32q0 27 -11.5 42t-31.5 15q-36 0 -65.5 -49.5t-43.5 -109.5t-14 -107q0 -77 47 -77q30 0 52 31t33 82zM526 157l-38 -172q-54 0 -102 21.5t-65 68.5h-2q-50 -89 -140 -89q-72 0 -113 54.5t-41 153.5q0 66 19 135t54 131t94 101t131 39 q89 0 141.5 -56t52.5 -137q0 -30 -5 -51l-32 -149q-2 -10 -2 -15q0 -35 48 -35zM330 705q0 -32 -21 -51.5t-55 -19.5t-55.5 19t-21.5 52t21.5 53t55.5 20q33 0 54.5 -20t21.5 -53zM518 705q0 -32 -21 -51.5t-55 -19.5t-55.5 19t-21.5 52t21.5 53t55.5 20q33 0 54.5 -20 t21.5 -53z" />
<glyph unicode="&#xe5;" horiz-adv-x="552" d="M318 225l30 141q4 24 4 32q0 27 -11.5 42t-31.5 15q-36 0 -65.5 -49.5t-43.5 -109.5t-14 -107q0 -77 47 -77q30 0 52 31t33 82zM526 157l-38 -172q-54 0 -102 21.5t-65 68.5h-2q-50 -89 -140 -89q-72 0 -113 54.5t-41 153.5q0 66 19 135t54 131t94 101t131 39 q89 0 141.5 -56t52.5 -137q0 -30 -5 -51l-32 -149q-2 -10 -2 -15q0 -35 48 -35zM347 641q-58 0 -88.5 32t-30.5 78q0 55 39 98.5t103 43.5q58 0 88.5 -32t30.5 -78q0 -55 -39 -98.5t-103 -43.5zM352 730q17 0 28 14t11 31q0 27 -27 27q-17 0 -28 -13.5t-11 -30.5 q0 -28 27 -28z" />
<glyph unicode="&#xe6;" horiz-adv-x="758" d="M751 242h-291q-6 -42 9.5 -74t58.5 -32q49 0 93 62l110 -100q-47 -58 -97.5 -85t-115.5 -27q-123 0 -175 98h-2q-74 -98 -185 -98q-78 0 -123.5 40.5t-45.5 107.5q0 91 84.5 153.5t238.5 68.5l4 18q4 17 4 34q0 48 -44 48q-57 0 -102 -64l-95 114q94 94 195 94 q95 0 146 -83h2q74 79 178 79q69 0 110 -34t52 -90.5t8 -112.5t-17 -117zM483 357h132q9 45 -1 77t-40 32t-53.5 -31t-37.5 -78zM278 206l8 38q-6 1 -19 1q-45 0 -84 -24.5t-39 -59.5q0 -19 12.5 -29.5t31.5 -10.5q29 0 55.5 24t34.5 61z" />
<glyph unicode="&#xe7;" horiz-adv-x="437" d="M333 210l108 -100q-43 -60 -90.5 -90t-112.5 -30q-4 0 -11.5 0.5t-10.5 0.5l-18 -38l2 -1q53 12 91.5 -17t38.5 -81q0 -70 -41.5 -106t-92.5 -36q-78 0 -121 55l74 64q11 -17 31 -21t35.5 6t15.5 31q0 19 -14 28t-31.5 5t-25.5 -17l-69 41l46 106q-108 52 -108 218 q0 91 33 173.5t101 138.5t156 56q69 0 117 -33.5t70 -93.5l-141 -87q-16 58 -60 58q-49 0 -81 -67t-32 -144q0 -87 56 -87q42 0 85 68z" />
<glyph unicode="&#xe8;" horiz-adv-x="492" d="M482 242h-291q-6 -41 9.5 -73.5t56.5 -32.5q51 0 95 62l110 -100q-51 -62 -97 -87t-114 -25q-113 0 -169 66t-56 173q0 61 18 125t52.5 120.5t92.5 92.5t129 36q70 0 113 -34t56 -90.5t11 -114t-16 -118.5zM214 357h132q9 44 -0.5 76.5t-39.5 32.5t-54 -30.5t-38 -78.5z M434 601l-240 102l56 119l232 -118z" />
<glyph unicode="&#xe9;" horiz-adv-x="494" d="M482 242h-291q-6 -41 9.5 -73.5t56.5 -32.5q51 0 95 62l110 -100q-51 -62 -97 -87t-114 -25q-113 0 -169 66t-56 173q0 61 18 125t52.5 120.5t92.5 92.5t129 36q70 0 113 -34t56 -90.5t11 -114t-16 -118.5zM214 357h132q9 44 -0.5 76.5t-39.5 32.5t-54 -30.5t-38 -78.5z M450 700l-240 -102l-48 103l232 118z" />
<glyph unicode="&#xea;" horiz-adv-x="494" d="M482 242h-291q-6 -41 9.5 -73.5t56.5 -32.5q51 0 95 62l110 -100q-51 -62 -97 -87t-114 -25q-113 0 -169 66t-56 173q0 61 18 125t52.5 120.5t92.5 92.5t129 36q70 0 113 -34t56 -90.5t11 -114t-16 -118.5zM214 357h132q9 44 -0.5 76.5t-39.5 32.5t-54 -30.5t-38 -78.5z M516 697l-97 -91l-28 36l-50 79h-2q-35 -39 -65 -65l-55 -50l-72 100l147 106h111z" />
<glyph unicode="&#xeb;" horiz-adv-x="492" d="M482 242h-291q-6 -41 9.5 -73.5t56.5 -32.5q51 0 95 62l110 -100q-51 -62 -97 -87t-114 -25q-113 0 -169 66t-56 173q0 61 18 125t52.5 120.5t92.5 92.5t129 36q70 0 113 -34t56 -90.5t11 -114t-16 -118.5zM214 357h132q9 44 -0.5 76.5t-39.5 32.5t-54 -30.5t-38 -78.5z M328 719q0 -32 -21 -51.5t-55 -19.5t-55.5 19t-21.5 52t21.5 53t55.5 20q33 0 54.5 -20t21.5 -53zM516 719q0 -32 -21 -51.5t-55 -19.5t-55.5 19t-21.5 52t21.5 53t55.5 20q33 0 54.5 -20t21.5 -53z" />
<glyph unicode="&#xec;" horiz-adv-x="277" d="M297 620l-211 89l49 105l204 -104zM254 157l-38 -172q-100 1 -149.5 56.5t-23.5 172.5l57 261q7 32 10 59.5t2 39.5v12h151q12 -60 -5 -144l-50 -235q-11 -50 46 -50z" />
<glyph unicode="&#xed;" horiz-adv-x="278" d="M319 709l-211 -89l-42 90l204 104zM254 157l-38 -172q-100 1 -149.5 56.5t-23.5 172.5l57 261q7 32 10 59.5t2 39.5v12h151q12 -60 -5 -144l-50 -235q-11 -50 46 -50z" />
<glyph unicode="&#xee;" horiz-adv-x="277" d="M254 157l-38 -172q-100 1 -149.5 56.5t-23.5 172.5l57 261q7 32 10 59.5t2 39.5v12h151q12 -60 -5 -144l-50 -235q-11 -50 46 -50zM351 714l-72 -68l-20 27l-37 58h-2q-25 -29 -48 -48l-40 -37l-53 74l108 78h82z" />
<glyph unicode="&#xef;" horiz-adv-x="277" d="M200 723q0 -27 -17.5 -42.5t-46.5 -15.5q-28 0 -45.5 15.5t-17.5 42.5t18 44.5t45 17.5q29 0 46.5 -17t17.5 -45zM356 723q0 -27 -17.5 -42.5t-45.5 -15.5t-45.5 15.5t-17.5 42.5q0 28 17.5 45t45.5 17t45.5 -17t17.5 -45zM254 157l-38 -172q-100 1 -149.5 56.5 t-23.5 172.5l57 261q7 32 10 59.5t2 39.5v12h151q12 -60 -5 -144l-50 -235q-11 -50 46 -50z" />
<glyph unicode="&#xf0;" horiz-adv-x="557" d="M526 157l-38 -172q-134 0 -167 90h-2q-50 -89 -140 -89q-72 0 -113 54.5t-41 153.5q0 155 74.5 258.5t170.5 103.5q94 0 127 -59h2q8 32 8 53q0 23 -8 39l-28 -24l-24 30l23 23q-27 12 -78 12h-17l32 150q114 -10 172 -56l41 39l36 -39l-43 -37q32 -47 32 -123 q0 -47 -12 -107l-53 -250q-2 -10 -2 -15q0 -35 48 -35zM318 225l26 130q4 24 4 32q0 27 -11.5 42t-31.5 15q-36 0 -64.5 -47t-41.5 -104t-13 -104q0 -77 47 -77q29 0 52 31t33 82z" />
<glyph unicode="&#xf1;" horiz-adv-x="575" d="M547 157l-38 -172q-100 1 -149.5 56.5t-23.5 172.5l40 182q6 27 -3 49t-35 22q-44 0 -65 -40t-43 -147l-59 -280h-165l100 475q7 32 10 59.5t2 39.5v12h143q7 -32 7 -65h2q24 33 62 56t83 23q81 0 110.5 -64.5t10.5 -159.5l-35 -169q-10 -50 46 -50zM440 778h91 q0 -128 -104 -128q-27 0 -62.5 12t-43.5 12q-14 0 -14 -15h-91q0 63 23 96t80 33q28 0 63.5 -12.5t43.5 -12.5q14 0 14 15z" />
<glyph unicode="&#xf2;" horiz-adv-x="537" d="M252 135q31 0 56.5 37.5t39 89t13.5 100.5q0 90 -55 90q-31 0 -56.5 -37.5t-39 -89t-13.5 -100.5q0 -90 55 -90zM244 -13q-103 0 -155 68t-52 179q0 63 16.5 125t48.5 117.5t87 89.5t125 34q103 0 155 -68t52 -179q0 -63 -16.5 -125t-48.5 -117.5t-87 -89.5t-125 -34z M451 598l-240 102l56 119l232 -118z" />
<glyph unicode="&#xf3;" horiz-adv-x="537" d="M252 135q31 0 56.5 37.5t39 89t13.5 100.5q0 90 -55 90q-31 0 -56.5 -37.5t-39 -89t-13.5 -100.5q0 -90 55 -90zM244 -13q-103 0 -155 68t-52 179q0 63 16.5 125t48.5 117.5t87 89.5t125 34q103 0 155 -68t52 -179q0 -63 -16.5 -125t-48.5 -117.5t-87 -89.5t-125 -34z M464 700l-240 -102l-48 103l232 118z" />
<glyph unicode="&#xf4;" horiz-adv-x="537" d="M252 135q31 0 56.5 37.5t39 89t13.5 100.5q0 90 -55 90q-31 0 -56.5 -37.5t-39 -89t-13.5 -100.5q0 -90 55 -90zM244 -13q-103 0 -155 68t-52 179q0 63 16.5 125t48.5 117.5t87 89.5t125 34q103 0 155 -68t52 -179q0 -63 -16.5 -125t-48.5 -117.5t-87 -89.5t-125 -34z M515 697l-97 -91l-28 36l-50 79h-2q-35 -39 -65 -65l-55 -50l-72 100l147 106h111z" />
<glyph unicode="&#xf5;" horiz-adv-x="537" d="M252 135q31 0 56.5 37.5t39 89t13.5 100.5q0 90 -55 90q-31 0 -56.5 -37.5t-39 -89t-13.5 -100.5q0 -90 55 -90zM244 -13q-103 0 -155 68t-52 179q0 63 16.5 125t48.5 117.5t87 89.5t125 34q103 0 155 -68t52 -179q0 -63 -16.5 -125t-48.5 -117.5t-87 -89.5t-125 -34z M407 779h91q0 -128 -104 -128q-27 0 -62.5 12t-43.5 12q-14 0 -14 -15h-91q0 63 23 96t80 33q28 0 63.5 -12.5t43.5 -12.5q14 0 14 15z" />
<glyph unicode="&#xf6;" horiz-adv-x="537" d="M252 135q31 0 56.5 37.5t39 89t13.5 100.5q0 90 -55 90q-31 0 -56.5 -37.5t-39 -89t-13.5 -100.5q0 -90 55 -90zM244 -13q-103 0 -155 68t-52 179q0 63 16.5 125t48.5 117.5t87 89.5t125 34q103 0 155 -68t52 -179q0 -63 -16.5 -125t-48.5 -117.5t-87 -89.5t-125 -34z M322 696q0 -32 -21 -51.5t-55 -19.5t-55.5 19t-21.5 52t21.5 53t55.5 20q33 0 54.5 -20t21.5 -53zM510 696q0 -32 -21 -51.5t-55 -19.5t-55.5 19t-21.5 52t21.5 53t55.5 20q33 0 54.5 -20t21.5 -53z" />
<glyph unicode="&#xf7;" horiz-adv-x="358" d="M357 281h-335l31 145h335zM230 463q-24 0 -41.5 17t-17.5 42t17.5 42t41.5 17t41 -17t17 -42t-17 -42t-41 -17zM178 123q-24 0 -41.5 17t-17.5 42t17.5 42t41.5 17t41 -17t17 -42t-17 -42t-41 -17z" />
<glyph unicode="&#xf8;" horiz-adv-x="497" d="M224 -13q-103 0 -155 68t-52 179q0 63 16.5 125t48.5 117.5t87 89.5t125 34q103 0 155 -68t52 -179q0 -63 -16.5 -125t-48.5 -117.5t-87 -89.5t-125 -34zM187 163l116 286q-7 3 -17 3q-31 0 -56.5 -37.5t-39 -89t-13.5 -100.5q0 -41 10 -62zM331 421l-115 -284 q5 -2 16 -2q31 0 56.5 37.5t39 89t13.5 100.5q0 38 -10 59z" />
<glyph unicode="&#xf9;" horiz-adv-x="571" d="M542 157l-38 -172q-134 0 -167 90h-2q-53 -89 -146 -89q-74 0 -112.5 43.5t-38.5 116.5q0 33 7 64l78 376h166l-84 -397q-3 -15 -3 -27q0 -50 42 -50q31 0 54.5 31t34.5 82l77 361h166l-80 -379q-2 -10 -2 -15q0 -35 48 -35zM459 604l-240 102l56 119l232 -118z" />
<glyph unicode="&#xfa;" horiz-adv-x="571" d="M542 157l-38 -172q-134 0 -167 90h-2q-53 -89 -146 -89q-74 0 -112.5 43.5t-38.5 116.5q0 33 7 64l78 376h166l-84 -397q-3 -15 -3 -27q0 -50 42 -50q31 0 54.5 31t34.5 82l77 361h166l-80 -379q-2 -10 -2 -15q0 -35 48 -35zM495 710l-240 -102l-48 103l232 118z" />
<glyph unicode="&#xfb;" horiz-adv-x="571" d="M542 157l-38 -172q-134 0 -167 90h-2q-53 -89 -146 -89q-74 0 -112.5 43.5t-38.5 116.5q0 33 7 64l78 376h166l-84 -397q-3 -15 -3 -27q0 -50 42 -50q31 0 54.5 31t34.5 82l77 361h166l-80 -379q-2 -10 -2 -15q0 -35 48 -35zM549 707l-97 -91l-28 36l-50 79h-2 q-35 -39 -65 -65l-55 -50l-72 100l147 106h111z" />
<glyph unicode="&#xfc;" horiz-adv-x="571" d="M542 157l-38 -172q-134 0 -167 90h-2q-53 -89 -146 -89q-74 0 -112.5 43.5t-38.5 116.5q0 33 7 64l78 376h166l-84 -397q-3 -15 -3 -27q0 -50 42 -50q31 0 54.5 31t34.5 82l77 361h166l-80 -379q-2 -10 -2 -15q0 -35 48 -35zM347 705q0 -32 -21 -51.5t-55 -19.5t-55.5 19 t-21.5 52t21.5 53t55.5 20q33 0 54.5 -20t21.5 -53zM535 705q0 -32 -21 -51.5t-55 -19.5t-55.5 19t-21.5 52t21.5 53t55.5 20q33 0 54.5 -20t21.5 -53z" />
<glyph unicode="&#xfd;" horiz-adv-x="481" d="M116 -6l-61 592h176v-214l-5 -204h2q48 145 68 198l83 220h182l-272 -576q-58 -122 -113.5 -169.5t-127.5 -47.5q-88 0 -136 64l108 129q11 -25 47 -25t49 33zM443 710l-240 -102l-48 103l232 118z" />
<glyph unicode="&#xfe;" horiz-adv-x="526" d="M120 -200h-166l199 930h163l-19 -89q-8 -37 -15 -64.5t-10 -36.5l-4 -9h2q43 65 117 65q72 0 107.5 -55.5t35.5 -148.5q0 -48 -14.5 -113t-42 -132.5t-76.5 -114t-109 -46.5q-76 0 -113 66h-2q-7 -37 -13 -67zM246 389l-41 -192q-6 -24 4 -47t37 -23q35 0 64.5 50 t43 111.5t13.5 110.5q0 67 -47 67q-57 0 -74 -77z" />
<glyph unicode="&#xff;" horiz-adv-x="481" d="M116 -6l-61 592h176v-214l-5 -204h2q48 145 68 198l83 220h182l-272 -576q-58 -122 -113.5 -169.5t-127.5 -47.5q-88 0 -136 64l108 129q11 -25 47 -25t49 33zM302 705q0 -32 -21 -51.5t-55 -19.5t-55.5 19t-21.5 52t21.5 53t55.5 20q33 0 54.5 -20t21.5 -53zM490 705 q0 -32 -21 -51.5t-55 -19.5t-55.5 19t-21.5 52t21.5 53t55.5 20q33 0 54.5 -20t21.5 -53z" />
<glyph unicode="&#x131;" horiz-adv-x="275" d="M254 157l-38 -172q-100 1 -149.5 56.5t-23.5 172.5l57 261q7 32 10 59.5t2 39.5v12h151q12 -60 -5 -144l-50 -235q-11 -50 46 -50z" />
<glyph unicode="&#x141;" horiz-adv-x="428" d="M368 0h-349l55 262l-65 -26l-7 35l81 32l84 397h170l-69 -323l83 33l6 -35l-98 -39l-37 -176h179z" />
<glyph unicode="&#x142;" horiz-adv-x="281" d="M253 157l-38 -172q-84 1 -132.5 39.5t-48.5 119.5q0 35 8 70l10 46l-34 -13l-7 35l50 19l91 429h165l-75 -357l47 19l6 -35l-62 -25l-26 -125q-2 -10 -2 -15q0 -35 48 -35z" />
<glyph unicode="&#x152;" horiz-adv-x="724" d="M632 0h-381q-97 0 -153.5 67t-56.5 178q0 49 9.5 105.5t33 119.5t58 113.5t90.5 83.5t124 33h424l-33 -160h-209l-27 -126h172l-35 -160h-172l-20 -94h209zM285 160l82 380h-20q-41 0 -74.5 -53t-48.5 -117.5t-15 -116.5q0 -53 17 -74.5t59 -18.5z" />
<glyph unicode="&#x153;" horiz-adv-x="792" d="M229 135q48 0 80 73.5t32 150.5q0 93 -52 93q-48 0 -80 -74t-32 -151q0 -92 52 -92zM788 242h-291q-6 -42 9.5 -74t58.5 -32q49 0 93 62l110 -100q-48 -59 -95.5 -85.5t-107.5 -26.5q-67 0 -112.5 32.5t-63.5 85.5h-2q-73 -117 -180 -117q-89 0 -139.5 69.5t-50.5 174.5 q0 86 29 168t91.5 141.5t144.5 59.5q67 0 107 -35t52 -89h2q79 123 199 123q60 0 98.5 -35t51 -90.5t11.5 -114.5t-15 -117zM520 357h132q9 45 -1 77t-40 32t-53.5 -31t-37.5 -78z" />
<glyph unicode="&#x160;" horiz-adv-x="487" d="M142 224l-145 -86q23 -68 88 -110t149 -42q104 0 171 63t67 162q0 55 -23.5 98t-56.5 68t-66 45t-56.5 40.5t-23.5 43.5q0 19 13.5 33.5t39.5 14.5q57 0 85 -78l143 75q-28 76 -84.5 119.5t-134.5 43.5q-98 0 -163 -64t-65 -153q0 -49 23.5 -90t56.5 -66.5t66 -47.5 t56.5 -45t23.5 -46q0 -21 -15.5 -36.5t-45.5 -15.5q-34 0 -61.5 20.5t-41.5 53.5zM188 875l97 91l28 -36l50 -79h2q35 39 65 65l55 50l72 -100l-147 -106h-111z" />
<glyph unicode="&#x161;" horiz-adv-x="497" d="M514 507l-125 -96q-14 31 -48.5 46.5t-64 8t-29.5 -35.5q0 -18 22 -34t53.5 -30.5t63.5 -34t54 -54.5t22 -83q0 -90 -65 -149t-166 -59q-80 0 -139.5 36t-84.5 84l118 100q19 -31 54 -52t71 -21q51 0 51 38q0 22 -22 38.5t-53.5 30.5t-63 32t-53.5 52.5t-22 82.5 q0 83 60.5 138t160.5 55q64 0 121.5 -23.5t84.5 -69.5zM181 777l97 91l28 -36l50 -79h2q35 39 65 65l55 50l72 -100l-147 -106h-111z" />
<glyph unicode="&#x178;" horiz-adv-x="496" d="M294 0l38 182l270 518h-193l-56 -130q-17 -40 -31 -80t-20 -60l-6 -20h-2q1 8 2 21.5t2.5 56t1.5 83.5l-2 129h-182l50 -510l-39 -190h167zM358 814q0 -32 -21 -51.5t-55 -19.5t-55.5 19t-21.5 52t21.5 53t55.5 20q33 0 54.5 -20t21.5 -53zM546 814q0 -32 -21 -51.5 t-55 -19.5t-55.5 19t-21.5 52t21.5 53t55.5 20q33 0 54.5 -20t21.5 -53z" />
<glyph unicode="&#x17d;" horiz-adv-x="484" d="M391 0h-422v2l284 471l43 65v2h-168l33 160h420v-5l-280 -461q-10 -16 -23 -34t-22 -28l-8 -9v-3h176zM241 875l97 91l28 -36l50 -79h2q35 39 65 65l55 50l72 -100l-147 -106h-111z" />
<glyph unicode="&#x17e;" horiz-adv-x="493" d="M392 0h-418v2l211 327q16 23 34 47t28 36l10 12v2h-159l34 160h413v-2l-207 -317q-14 -22 -34 -48t-33 -41l-13 -16v-2h167zM206 768l97 91l28 -36l50 -79h2q35 39 65 65l55 50l72 -100l-147 -106h-111z" />
<glyph unicode="&#x192;" horiz-adv-x="362" d="M380 370v-38h-95q21 -74 21 -127q0 -93 -51.5 -154t-162.5 -61q-23 0 -47 3l20 149h10q42 0 56.5 19.5t14.5 56.5q0 45 -20 114h-94v38h83q-20 73 -20 128q0 94 51.5 155t161.5 61q30 0 63 -5l-22 -149q-14 2 -24 2q-41 0 -55.5 -19.5t-14.5 -58.5q0 -46 19 -114h106z " />
<glyph unicode="&#x2c6;" horiz-adv-x="365" d="M503 822l-97 -91l-28 36l-50 79h-2q-35 -39 -65 -65l-55 -50l-72 100l147 106h111z" />
<glyph unicode="&#x2c7;" horiz-adv-x="251" d="M120 891l90 85l26 -34l46 -74h2q33 37 61 61l51 47l66 -94l-136 -98h-103z" />
<glyph unicode="&#x2d8;" horiz-adv-x="328" d="M327 904l138 13q-5 -85 -46.5 -129.5t-136.5 -44.5q-72 0 -111 30t-39 83q0 28 12 63l139 -15q-10 -19 -10 -32q0 -20 19 -20q15 0 25 13t10 31v8z" />
<glyph unicode="&#x2d9;" horiz-adv-x="162" d="M204 755q-20 0 -34.5 14t-14.5 35q0 20 14.5 33.5t34.5 13.5t33.5 -13.5t13.5 -33.5q0 -21 -13.5 -35t-33.5 -14z" />
<glyph unicode="&#x2da;" horiz-adv-x="283" d="M280 751q-58 0 -88.5 32t-30.5 78q0 55 39 98.5t103 43.5q58 0 88.5 -32t30.5 -78q0 -55 -39 -98.5t-103 -43.5zM285 840q17 0 28 14t11 31q0 27 -27 27q-17 0 -28 -13.5t-11 -30.5q0 -28 27 -28z" />
<glyph unicode="&#x2db;" horiz-adv-x="273" d="M173 -92l33 -155q-35 -10 -75 -10q-76 0 -119.5 48t-43.5 115q0 60 36.5 108.5t105.5 64.5l28 -79q-49 -15 -49 -55q0 -18 13 -30t37 -12q18 0 34 5z" />
<glyph unicode="&#x2dc;" horiz-adv-x="373" d="M380 890h91q0 -128 -104 -128q-27 0 -62.5 12t-43.5 12q-14 0 -14 -15h-91q0 63 23 96t80 33q28 0 63.5 -12.5t43.5 -12.5q14 0 14 15z" />
<glyph unicode="&#x2dd;" horiz-adv-x="295" d="M412 749h-129l70 231h140zM242 749h-129l70 231h140z" />
<glyph unicode="&#x3c0;" horiz-adv-x="753" d="M764 350q0 -153 -104 -256.5t-257 -103.5q-154 0 -258 103t-104 257q0 153 104 256.5t258 103.5q153 0 257 -103.5t104 -256.5zM402 81q113 0 187.5 77t74.5 192t-74.5 192t-187.5 77q-114 0 -189 -77t-75 -192t75 -192t189 -77zM392 195h-96v322h112q134 0 134 -115 q0 -114 -134 -114h-16v-93zM392 379h19q22 0 28.5 6t6.5 17q0 12 -6.5 18t-28.5 6h-19v-47z" />
<glyph unicode="&#x2013;" horiz-adv-x="374" d="M375 233h-370l31 145h369z" />
<glyph unicode="&#x2014;" horiz-adv-x="574" d="M575 233h-570l31 145h569z" />
<glyph unicode="&#x2018;" horiz-adv-x="212" d="M142 588l3 -2q13 6 34 6q41 0 65.5 -28t24.5 -66q0 -40 -27 -69t-75 -29q-46 0 -77 29.5t-31 89.5q0 94 57.5 152t138.5 58q23 0 40 -5l-14 -64q-13 3 -30 3q-82 0 -109 -75z" />
<glyph unicode="&#x2019;" horiz-adv-x="212" d="M218 547l-3 2q-13 -6 -34 -6q-41 0 -65.5 28t-24.5 66q0 40 27 69t75 29q46 0 77 -29.5t31 -89.5q0 -94 -57.5 -152t-138.5 -58q-23 0 -40 5l14 64q13 -3 30 -3q82 0 109 75z" />
<glyph unicode="&#x201a;" horiz-adv-x="293" d="M135 1l-3 2q-13 -6 -34 -6q-41 0 -65.5 28t-24.5 66q0 40 27 69t75 29q46 0 77 -29.5t31 -89.5q0 -94 -57.5 -152t-138.5 -58q-23 0 -40 5l14 64q14 -3 30 -3q82 0 109 75z" />
<glyph unicode="&#x201c;" horiz-adv-x="452" d="M142 573l3 -2q13 6 34 6q41 0 65.5 -28t24.5 -66q0 -40 -27 -69t-75 -29q-46 0 -77 29.5t-31 89.5q0 94 57.5 152t138.5 58q23 0 40 -5l-14 -64q-13 3 -30 3q-82 0 -109 -75zM382 573l3 -2q13 6 34 6q41 0 65.5 -28t24.5 -66q0 -40 -27 -69t-75 -29q-46 0 -77 29.5 t-31 89.5q0 94 57.5 152t138.5 58q23 0 40 -5l-14 -64q-13 3 -30 3q-82 0 -109 -75z" />
<glyph unicode="&#x201d;" horiz-adv-x="451" d="M218 526l-3 2q-13 -6 -34 -6q-41 0 -65.5 28t-24.5 66q0 40 27 69t75 29q46 0 77 -29.5t31 -89.5q0 -94 -57.5 -152t-138.5 -58q-23 0 -40 5l14 64q13 -3 30 -3q82 0 109 75zM457 526l-3 2q-13 -6 -34 -6q-41 0 -65.5 28t-24.5 66q0 40 27 69t75 29q46 0 77 -29.5 t31 -89.5q0 -94 -57.5 -152t-138.5 -58q-22 0 -40 5l14 64q14 -3 30 -3q82 0 109 75z" />
<glyph unicode="&#x201e;" horiz-adv-x="533" d="M135 1l-3 2q-13 -6 -34 -6q-41 0 -65.5 28t-24.5 66q0 40 27 69t75 29q46 0 77 -29.5t31 -89.5q0 -94 -57.5 -152t-138.5 -58q-23 0 -40 5l14 64q14 -3 30 -3q82 0 109 75zM375 1l-3 2q-13 -6 -34 -6q-41 0 -65.5 28t-24.5 66q0 40 27 69t75 29q46 0 77 -29.5t31 -89.5 q0 -94 -57.5 -152t-138.5 -58q-22 0 -40 5l14 64q14 -3 30 -3q82 0 109 75z" />
<glyph unicode="&#x2020;" horiz-adv-x="433" d="M334 380l-102 -480h-166l106 496q-10 2 -17 2q-31 0 -34 -18l-107 -2q21 141 137 141q18 0 46 -5l61 286h166l-65 -302q5 -1 17 -1q30 0 34 18l107 2q-21 -141 -137 -141q-25 0 -46 4z" />
<glyph unicode="&#x2021;" horiz-adv-x="436" d="M313 280l-81 -380h-167l86 396q-10 2 -17 2q-31 0 -34 -18l-107 -2q21 141 137 141q18 0 46 -5l15 72q-10 2 -17 2q-31 0 -34 -18l-107 -2q21 141 137 141q18 0 46 -5l41 196h167l-46 -212q5 -1 17 -1q30 0 34 18l107 2q-21 -141 -137 -141q-25 0 -46 4l-15 -72 q5 -1 17 -1q30 0 34 18l107 2q-21 -141 -137 -141q-25 0 -46 4z" />
<glyph unicode="&#x2022;" horiz-adv-x="401" d="M189 212q-70 0 -120.5 49.5t-50.5 121.5t50.5 121t120.5 49t119 -48.5t49 -121.5q0 -72 -49 -121.5t-119 -49.5z" />
<glyph unicode="&#x2026;" horiz-adv-x="759" d="M119 -14q-41 0 -70.5 29t-29.5 71t29.5 70.5t70.5 28.5t69.5 -28.5t28.5 -70.5t-28.5 -71t-69.5 -29zM356 -14q-41 0 -70.5 29t-29.5 71t29.5 70.5t70.5 28.5t69.5 -28.5t28.5 -70.5t-28.5 -71t-69.5 -29zM593 -14q-41 0 -70.5 29t-29.5 71t29.5 70.5t70.5 28.5 t69.5 -28.5t28.5 -70.5t-28.5 -71t-69.5 -29z" />
<glyph unicode="&#x2030;" horiz-adv-x="886" d="M717 -14q-105 0 -105 125q0 36 8.5 72t26.5 70.5t51 56t76 21.5q104 0 104 -125q0 -36 -8.5 -72t-26 -70.5t-50.5 -56t-76 -21.5zM729 92q16 0 31 66q14 65 -2 65q-17 0 -32 -65q-15 -66 3 -66zM163 0l472 700h-141l-471 -700h140zM162 365q-105 0 -105 125q0 36 8.5 72 t26.5 70.5t51 56t76 21.5q104 0 104 -125q0 -36 -8.5 -72t-26 -70.5t-50.5 -56t-76 -21.5zM174 471q16 0 31 66q14 65 -2 65q-17 0 -32 -65q-15 -66 3 -66zM436 -14q-105 0 -105 125q0 36 8.5 72t26.5 70.5t51 56t76 21.5q104 0 104 -125q0 -36 -8.5 -72t-26 -70.5 t-50.5 -56t-76 -21.5zM448 92q16 0 31 66q14 65 -2 65q-17 0 -32 -65q-15 -66 3 -66z" />
<glyph unicode="&#x2039;" horiz-adv-x="188" d="M190 251l-113 -83l-63 132l23 104l117 132l87 -96l-52 -50l-70 -51v-2q31 -30 55 -57z" />
<glyph unicode="&#x203a;" horiz-adv-x="188" d="M54 454l113 83l63 -132l-23 -104l-117 -132l-87 96l52 50l70 51v2q-31 30 -55 57z" />
<glyph unicode="&#x2044;" horiz-adv-x="415" d="M536 700l-476 -700h-117l475 700h118z" />
<glyph unicode="&#x20ac;" horiz-adv-x="505" d="M348 230l126 -101q-81 -143 -220 -143q-96 0 -145.5 65.5t-49.5 179.5q0 27 3 62h-50l8 34h46q4 30 7 46h-44l8 34h44q14 60 36 111t55.5 97t82.5 72.5t108 26.5q78 0 125 -45t63 -125l-161 -77v12q0 75 -46 75q-60 0 -94 -147h117l-8 -34h-116q-6 -34 -8 -46h115l-8 -34 h-111q-4 -40 -4 -72q2 -75 45 -75q44 0 76 84z" />
<glyph unicode="&#x2116;" horiz-adv-x="994" d="M487 0h-133l-61 234l-26 119h-2q-6 -51 -30 -169q-22 -101 -80 -147.5t-138 -46.5q-55 0 -99 21l63 137q15 -5 29 -5q24 0 43 14t23 37l107 506h142l53 -206l29 -130h2q10 76 36 198q22 101 80 147.5t138 46.5q55 0 99 -21l-63 -137q-15 5 -29 5q-55 0 -67 -55zM817 189 q-77 0 -115 50.5t-38 132.5q0 46 12 92.5t35.5 87t64.5 66t93 25.5q77 0 115 -50.5t38 -132.5q0 -46 -12 -92.5t-35.5 -87t-64.5 -66t-93 -25.5zM939 0l26 125h-346l-26 -125h346zM829 333q24 0 40.5 39t16.5 80q0 47 -29 47q-24 0 -40.5 -39t-16.5 -80q0 -47 29 -47z" />
<glyph unicode="&#x2122;" horiz-adv-x="587" d="M610 385h-96l25 108l14 57h-2q-19 -28 -36 -51l-53 -71l-25 71l-14 49h-2q-3 -26 -8 -50l-22 -113h-96l67 315h102l11 -40l18 -70h2q25 40 43 67l29 43h110zM210 385h-96l48 224h-55l19 91h207l-19 -91h-56z" />
<glyph unicode="&#x2212;" horiz-adv-x="270" d="M292 233h-291l31 145h290z" />
<glyph unicode="&#x2260;" horiz-adv-x="340" d="M302 185h-183l-26 -47h-44l25 47h-70l26 124h112l44 81h-139l28 124h179l28 51h45l-28 -51h74l-28 -124h-114l-44 -81h141z" />
<glyph unicode="&#x25fc;" horiz-adv-x="585" d="M0 585h585v-585h-585v585z" />
<glyph unicode="&#xf8ff;" horiz-adv-x="1412" d="M109 424l16 36q8 -4 14 -4q26 0 26 35v148h40v-145q0 -38 -18 -57t-48 -19q-16 0 -30 6zM189 72h-40v179h-38v38h117v-38h-39v-179zM514 421h-116v218h116v-39h-75v-56h63v-39h-63v-45h75v-39zM456 72h-61v217h60q70 0 70 -59q0 -33 -26 -44v-1q32 -13 32 -48 q0 -65 -75 -65zM436 110h23q34 0 34 29q0 26 -34 26h-23v-55zM436 201h14q34 0 34 27q0 23 -34 23h-14v-50zM320 421h-40v179h-38v39h116v-39h-38v-179zM374 72h-43l-8 34h-50l-7 -34h-42l52 218h46zM317 143l-18 80v8l-1 -8l-17 -80h36zM548 336h-455v39h455v-39zM1257 201 q-6 -3 -13.5 -4t-12 0t-4.5 3q0 1 3 4l6 6q7 5 12.5 10t15 15t16.5 20t15 25.5t13.5 31.5t9 37t3.5 44q0 51 -11 96.5t-37 90t-78 71t-124 26.5q-119 0 -178.5 -51.5t-59.5 -105.5q0 -23 -13 -27q-86 -31 -86 -121q0 -37 15 -70t36 -44q12 -7 5 -8.5t-19 6.5q-58 41 -58 114 q0 45 22 83.5t59 55.5q12 5 12 15q0 69 71 128.5t194 59.5q137 0 217 -81t80 -238q0 -37 -10.5 -69.5t-24 -52.5t-31 -36.5t-27.5 -23t-18 -10.5zM1005 162l-5 23q-2 5 2 11q9 17 9 36q0 10 -7.5 14t-15 0t-8.5 -15q-1 -13 4 -46q0 -9 -1 -11q-8 -20 -20 -38q-3 -5 -4 1 q-8 38 -13 58q0 6 2 10q7 14 7 27q0 16 -9 21.5t-18 -2t-9 -22.5q0 -9 11 -40q2 -6 0 -9q-3 -4 -10 -15t-11 -18q-6 -11 -10 -1q-10 30 -16 43q-3 6 0 12q5 14 5 35q0 20 -13 19.5t-18 -18.5q-1 -5 -1 -10q0 -19 10 -41q3 -6 1 -9l-13 -27q-3 -4 -6 1q-12 22 -25 39 q-3 4 -3 10q1 9 1 23q-1 20 -17 21q-12 1 -14 -12q0 -4 1 -9q1 -7 16 -36q1 -3 1 -10q-17 -90 -8 -121q10 -35 51.5 -50.5t142.5 -15.5q178 0 183 82q0 2 1.5 22.5t3 36.5t5.5 41t9.5 44.5t14.5 40t21 33.5q8 9 -2 11q-6 2 -10 -2q-53 -40 -71 -220q-2 -17 -18 -28 t-45.5 -15.5t-54.5 -6t-61 -1.5q-35 0 -58.5 1.5t-49 6t-39.5 15.5t-16 28q-3 34 7 86q2 7 4 1q11 -22 17 -40q1 -3 0 -8q-2 -12 -2 -21q0 -23 13 -23q15 0 15 22q0 16 -5 32q-3 8 0 14q10 18 13 23q3 4 5 1q11 -25 16 -44q2 -7 0 -14q-4 -15 -4 -24q0 -20 12 -20 q16 0 16 26q0 14 -6 29q-2 5 3 15l23 41q5 -14 15 -58q0 -7 -3 -14q-6 -14 -6 -23q0 -17 13 -18q13 2 14 21q0 16 -4 36q0 5 2 9l19 34q3 4 4 -1l5 -24q1 -4 -1 -10q-6 -16 -6 -30q0 -16 13 -16q15 0 15 25q0 12 -3 33q-1 9 2 14q11 17 24 26q6 4 4.5 6t-8.5 -4 q-13 -10 -22 -21q-4 -7 -6 2zM1064 262q48 0 71 33t23 76q0 39 -25.5 67t-66.5 28q-42 0 -71.5 -27.5t-29.5 -68.5q0 -46 25 -77t74 -31zM852 269q-44 0 -71 26t-27 73q0 38 24.5 68t71.5 30q45 0 71.5 -23t26.5 -67q0 -50 -26.5 -78.5t-69.5 -28.5zM772 134q8 5 7 9t-8 5 q-91 8 -126 70t-35 165v39v37.5t-0.5 32t-1 32t-2 27t-4 27t-6 22.5t-8 22.5t-10.5 19.5q-17 29 -74 49.5t-139 20.5q-65 0 -141.5 -10t-98.5 -22q-38 -19 -59.5 -127t-21.5 -270q0 -64 2.5 -106.5t14.5 -73t19 -46t35 -27.5t43 -15t61 -10q3 -1 5 -1q67 -10 119 -10 q56 0 129 10q27 4 38.5 6t28.5 7.5t24 13t15 20.5t13 32q9 36 44 30q75 -11 137 21zM923 330v80h-15l-16 -32h-1l-17 32h-14v-80h15v51h1l14 -25h3l14 25h1v-51h15zM1042 324h-15l-9 29h-2l-9 -29h-15l15 40l-15 40h15l9 -30h2l9 30h15l-15 -40zM1134 324h-15v80h15v-80z M843 330v80h-15l-16 -32h-1l-17 32h-14v-80h15v51h1l14 -25h3l14 25h1v-51h15zM1067 324h-15v80h15v-80zM1100 324h-15v80h15v-80z" />
<glyph unicode="&#xfb01;" horiz-adv-x="608" d="M178 0h-166l95 450h-51l29 136h51q22 101 81 152t147 51q43 0 69 -7l-42 -130q-12 3 -24 3q-51 0 -63 -59l-2 -10h79l-29 -136h-79zM587 157l-38 -172q-84 1 -132.5 39t-48.5 119q0 36 8 71l57 261q12 56 12 101v10h151q4 -21 4 -53q0 -46 -9 -91l-50 -235q-2 -10 -2 -15 q0 -35 48 -35zM553 632q-41 0 -70.5 29t-29.5 71t29.5 70.5t70.5 28.5t69.5 -28.5t28.5 -70.5t-28.5 -71t-69.5 -29z" />
<glyph unicode="&#xfb02;" horiz-adv-x="608" d="M178 0h-166l95 450h-51l29 136h51q22 101 81 152t147 51q43 0 69 -7l-42 -130q-12 3 -24 3q-51 0 -63 -59l-2 -10h79l-29 -136h-79zM580 157l-38 -172q-84 1 -132.5 39.5t-48.5 119.5q0 35 8 70l110 516h165l-110 -523q-2 -10 -2 -15q0 -35 48 -35z" />
<glyph horiz-adv-x="514" d="M278 206l8 38q-6 1 -19 1q-46 0 -84.5 -25t-38.5 -61q0 -17 13 -27.5t30 -10.5q30 0 56.5 24t34.5 61zM491 157l-38 -172q-147 2 -175 105h-2q-52 -100 -150 -100q-66 0 -102.5 37.5t-36.5 102.5q0 94 83.5 156.5t239.5 69.5l4 18q8 34 -2 58t-46 24q-48 0 -94 -64 l-95 114q94 94 211 94q82 0 135.5 -51.5t53.5 -135.5q0 -51 -10 -101l-22 -105q-2 -10 -2 -15q0 -35 48 -35zM433 589l-240 102l56 119l232 -118z" />
<glyph horiz-adv-x="514" d="M278 206l8 38q-6 1 -19 1q-46 0 -84.5 -25t-38.5 -61q0 -17 13 -27.5t30 -10.5q30 0 56.5 24t34.5 61zM491 157l-38 -172q-147 2 -175 105h-2q-52 -100 -150 -100q-66 0 -102.5 37.5t-36.5 102.5q0 94 83.5 156.5t239.5 69.5l4 18q8 34 -2 58t-46 24q-48 0 -94 -64 l-95 114q94 94 211 94q82 0 135.5 -51.5t53.5 -135.5q0 -51 -10 -101l-22 -105q-2 -10 -2 -15q0 -35 48 -35zM443 718l-240 -102l-48 103l232 118z" />
<glyph horiz-adv-x="514" d="M278 206l8 38q-6 1 -19 1q-46 0 -84.5 -25t-38.5 -61q0 -17 13 -27.5t30 -10.5q30 0 56.5 24t34.5 61zM491 157l-38 -172q-147 2 -175 105h-2q-52 -100 -150 -100q-66 0 -102.5 37.5t-36.5 102.5q0 94 83.5 156.5t239.5 69.5l4 18q8 34 -2 58t-46 24q-48 0 -94 -64 l-95 114q94 94 211 94q82 0 135.5 -51.5t53.5 -135.5q0 -51 -10 -101l-22 -105q-2 -10 -2 -15q0 -35 48 -35zM497 702l-97 -91l-28 36l-50 79h-2q-35 -39 -65 -65l-55 -50l-72 100l147 106h111z" />
<glyph horiz-adv-x="514" d="M278 206l8 38q-6 1 -19 1q-46 0 -84.5 -25t-38.5 -61q0 -17 13 -27.5t30 -10.5q30 0 56.5 24t34.5 61zM491 157l-38 -172q-147 2 -175 105h-2q-52 -100 -150 -100q-66 0 -102.5 37.5t-36.5 102.5q0 94 83.5 156.5t239.5 69.5l4 18q8 34 -2 58t-46 24q-48 0 -94 -64 l-95 114q94 94 211 94q82 0 135.5 -51.5t53.5 -135.5q0 -51 -10 -101l-22 -105q-2 -10 -2 -15q0 -35 48 -35zM384 751h91q0 -128 -104 -128q-27 0 -62.5 12t-43.5 12q-14 0 -14 -15h-91q0 63 23 96t80 33q28 0 63.5 -12.5t43.5 -12.5q14 0 14 15z" />
<glyph horiz-adv-x="514" d="M278 206l8 38q-6 1 -19 1q-46 0 -84.5 -25t-38.5 -61q0 -17 13 -27.5t30 -10.5q30 0 56.5 24t34.5 61zM491 157l-38 -172q-147 2 -175 105h-2q-52 -100 -150 -100q-66 0 -102.5 37.5t-36.5 102.5q0 94 83.5 156.5t239.5 69.5l4 18q8 34 -2 58t-46 24q-48 0 -94 -64 l-95 114q94 94 211 94q82 0 135.5 -51.5t53.5 -135.5q0 -51 -10 -101l-22 -105q-2 -10 -2 -15q0 -35 48 -35zM294 704q0 -32 -21 -51.5t-55 -19.5t-55.5 19t-21.5 52t21.5 53t55.5 20q33 0 54.5 -20t21.5 -53zM482 704q0 -32 -21 -51.5t-55 -19.5t-55.5 19t-21.5 52t21.5 53 t55.5 20q33 0 54.5 -20t21.5 -53z" />
<glyph horiz-adv-x="514" d="M278 206l8 38q-6 1 -19 1q-46 0 -84.5 -25t-38.5 -61q0 -17 13 -27.5t30 -10.5q30 0 56.5 24t34.5 61zM491 157l-38 -172q-147 2 -175 105h-2q-52 -100 -150 -100q-66 0 -102.5 37.5t-36.5 102.5q0 94 83.5 156.5t239.5 69.5l4 18q8 34 -2 58t-46 24q-48 0 -94 -64 l-95 114q94 94 211 94q82 0 135.5 -51.5t53.5 -135.5q0 -51 -10 -101l-22 -105q-2 -10 -2 -15q0 -35 48 -35zM323 646q-58 0 -88.5 32t-30.5 78q0 55 39 98.5t103 43.5q58 0 88.5 -32t30.5 -78q0 -55 -39 -98.5t-103 -43.5zM328 735q17 0 28 14t11 31q0 27 -27 27 q-17 0 -28 -13.5t-11 -30.5q0 -28 27 -28z" />
<glyph d="M238 135q53 0 88 66.5t35 156.5q0 44 -17.5 69t-44.5 25q-52 0 -87 -66t-35 -156q0 -45 17 -70t44 -25zM232 -13q-103 0 -159 69t-56 180q0 49 11 99t34.5 98t56.5 85t81.5 59.5t105.5 22.5q103 0 159 -69t56 -180q0 -49 -11 -99t-34.5 -98t-56.5 -85t-81.5 -59.5 t-105.5 -22.5z" />
<glyph horiz-adv-x="287" d="M188 0h-174l89 426h-43l35 160h217z" />
<glyph horiz-adv-x="472" d="M417 0h-472v2l322 308q54 50 54 97q0 19 -11 30.5t-29 11.5q-27 0 -42.5 -20t-29.5 -57l-146 70q73 158 227 158q92 0 142.5 -51t50.5 -129q0 -91 -94 -188q-15 -16 -34 -33t-31 -27l-11 -9v-3h137z" />
<glyph horiz-adv-x="482" d="M475 426l-77 -64l-78 -61v-2q57 -14 91 -58.5t34 -115.5q0 -104 -69.5 -171t-179.5 -67q-92 0 -154 45.5t-76 105.5l140 84q10 -36 33.5 -55.5t55.5 -19.5q36 0 56 22t20 54q0 42 -32.5 63t-83.5 6l-10 138l48 37l76 57v2h-206l34 160h411z" />
<glyph horiz-adv-x="523" d="M367 -103h-166l26 124h-282v2l422 570h150l-89 -412h50l-35 -160h-50zM272 167l43 180h-2q-1 -3 -6.5 -13.5t-12.5 -24t-10 -19.5l-37 -69l-31 -52v-2h56z" />
<glyph horiz-adv-x="496" d="M472 423h-226l-32 -97l2 -1q33 7 61 7q81 0 135 -49t54 -146q0 -51 -15 -97.5t-44 -84.5t-78 -60.5t-111 -22.5q-81 0 -142 40t-85 99l145 90q5 -29 28.5 -49.5t55.5 -20.5q37 0 57.5 27.5t20.5 59.5q0 30 -18.5 51t-52.5 21q-53 0 -84 -49l-116 74l116 371h364z" />
<glyph horiz-adv-x="503" d="M543 578l-131 -84q-24 47 -74 47q-48 0 -87 -44.5t-53 -124.5h2q47 67 133 67q75 0 116 -53t41 -136q0 -110 -69.5 -185t-180.5 -75q-112 0 -168 68.5t-56 196.5q0 189 92 314.5t236 125.5q137 0 199 -117zM243 142q35 0 59 29.5t24 73.5q0 68 -53 68q-35 0 -58.5 -31 t-23.5 -74q0 -66 52 -66z" />
<glyph horiz-adv-x="430" d="M168 -103h-178l267 529h-225l35 160h456z" />
<glyph horiz-adv-x="527" d="M363 226q0 32 -22 54.5t-63 22.5q-50 0 -74 -32.5t-24 -67.5q0 -31 22 -51.5t62 -20.5q51 0 75 30t24 65zM322 430q32 0 48.5 23t16.5 52q0 52 -47 52q-31 0 -49 -22t-18 -52q0 -53 49 -53zM432 377v-2q42 -26 65.5 -58t23.5 -88q0 -96 -71 -169.5t-200 -73.5 q-111 0 -174 56t-63 143q0 75 47 129.5t125 73.5v2q-60 49 -60 119q0 76 57.5 130.5t164.5 54.5q100 0 148 -48t48 -116q0 -100 -111 -153z" />
<glyph horiz-adv-x="512" d="M-14 12l131 84q24 -47 74 -47q48 0 87 44.5t53 124.5h-2q-47 -67 -133 -67q-75 0 -116 53t-41 136q0 110 69.5 185t180.5 75q112 0 168 -68.5t56 -196.5q0 -189 -92 -314.5t-236 -125.5q-137 0 -199 117zM286 448q-35 0 -59 -29.5t-24 -73.5q0 -68 53 -68q35 0 58.5 31 t23.5 74q0 66 -52 66z" />
<glyph horiz-adv-x="514" d="M278 206l8 38q-6 1 -19 1q-46 0 -84.5 -25t-38.5 -61q0 -17 13 -27.5t30 -10.5q30 0 56.5 24t34.5 61zM491 157l-38 -172q-147 2 -175 105h-2q-52 -100 -150 -100q-66 0 -102.5 37.5t-36.5 102.5q0 94 83.5 156.5t239.5 69.5l4 18q8 34 -2 58t-46 24q-48 0 -94 -64 l-95 114q94 94 211 94q82 0 135.5 -51.5t53.5 -135.5q0 -51 -10 -101l-22 -105q-2 -10 -2 -15q0 -35 48 -35z" />
<glyph horiz-adv-x="470" d="M189 -100h-100l31 100q-47 16 -82 45t-51 61l118 100q19 -31 54 -52t71 -21q51 0 51 38q0 22 -22 38.5t-53.5 30.5t-63 32t-53.5 52.5t-22 82.5q0 83 60.5 138t160.5 55h11l31 88h99l-34 -106q70 -25 99 -75l-125 -96q-14 31 -48.5 46.5t-64 8t-29.5 -35.5q0 -18 22 -34 t53.5 -30.5t63.5 -34t54 -54.5t22 -83q0 -89 -63.5 -148t-162.5 -60z" />
<glyph horiz-adv-x="496" d="M414 157l32 -141q-59 -28 -131 -28q-30 0 -86.5 6t-84.5 6q-52 0 -91 -14l-53 108q42 37 65 145h-55l10 48h54q23 130 44 179q52 124 190 132q11 1 23 1q76 0 128.5 -53t63.5 -131l-163 -45v8q0 65 -45 65q-9 0 -16 -2.5t-13 -8t-10.5 -11.5t-9 -16.5t-7.5 -18.5 t-6.5 -22.5t-5.5 -24t-5.5 -26.5t-5.5 -26h102l-10 -48h-104q-23 -79 -63 -114l3 -2q30 7 108 9.5t142 24.5z" />
<glyph horiz-adv-x="511" d="M457 177l-7 -34h-113l-30 -143h-169l30 143h-113l7 34h113l-9 46h-94l7 34h80l-67 329h180l16 -170l5 -83h2q16 42 35 83l78 170h195l-209 -329h80l-7 -34h-94l-29 -46h113z" />
<glyph horiz-adv-x="437" d="M333 210l108 -100q-43 -60 -90.5 -90t-112.5 -30q-108 0 -158.5 65.5t-50.5 172.5v5h-54l7 34h49q1 22 6 46h-46l8 34h45q29 108 100.5 178.5t174.5 70.5q69 0 117 -33.5t70 -93.5l-141 -87q-16 58 -60 58q-29 0 -53.5 -26t-39.5 -67h81l-8 -34h-83q-6 -28 -8 -46h82 l-8 -34h-76v-4q0 -87 56 -87q42 0 85 68z" />
</font>
</defs>
</svg>
