<?xml version="1.0" encoding="utf-8"?>
<!-- Generator: Adobe Illustrator 15.0.2, SVG Export Plug-In . SVG Version: 6.00 Build 0)  -->
<!DOCTYPE svg PUBLIC "-//W3C//DTD SVG 1.1//EN" "http://www.w3.org/Graphics/SVG/1.1/DTD/svg11.dtd">
<svg version="1.1" id="Layer_1" xmlns="http://www.w3.org/2000/svg" xmlns:xlink="http://www.w3.org/1999/xlink" x="0px" y="0px"
	 width="640px" height="480px" viewBox="0 0 640 480" enable-background="new 0 0 640 480" xml:space="preserve">
<g>
	<path fill="#463631" stroke="#DFB000" stroke-miterlimit="10" d="M115.279,35.011c-1.26-2.454-1.889-4.094-1.889-4.925
		c0-1.954,1.144-2.934,3.431-2.934c1.127,0,2.603,0.549,4.426,1.642l1.493-3.331c-2.122-2.022-4.809-3.033-8.057-3.033
		c-2.454,0-4.593,0.663-6.415,1.988c-2.057,1.459-3.084,3.381-3.084,5.771c0,1.625,0.712,3.728,2.139,6.315
		c1.425,2.586,2.139,4.36,2.139,5.32c0,1.792-0.862,2.687-2.587,2.687c-1.027,0-2.285-0.391-3.594-1.169
		c-1.232-0.732-2.781-1.519-2.781-2.354V40.83c0,0.018,0.006,0.033-0.022,0.051c-0.011-0.018,0.022-0.033,0.022-0.051v0.072
		c-2,2.036-6.191,3.061-9.301,3.061c-2.355,0-3.517-1.084-3.517-3.107c0-1.226,0.247-2.355,0.711-3.355h13.774
		c1.062-2,1.593-3.954,1.593-6.739c0-5.602-2.471-8.367-7.41-8.367c-4.012,0-7.791,2.023-11.339,6.033
		c-3.448,3.881-5.171,7.868-5.171,11.946c0,1.457,0.263,2.74,0.772,3.854c-0.148-0.032-0.367-0.006-0.664,0.082
		c-0.663,0.199-1.094,0.316-1.292,0.348c-1.394,0-2.073-0.596-2.04-1.789c0.033-1.127,0.788-3.349,2.264-6.664
		c1.475-3.314,2.213-5.899,2.213-7.759c0-3.944-1.979-5.949-5.935-6.015c-3.327-0.066-5.885,1.555-7.681,4.128
		C72.754,15.164,75.759,9.5,76.493,7.5h-8.479L52.507,40.962c-3.846,3.083-9.374,6.317-11.595,6.317
		c-2.222,0-3.332-0.97-3.332-2.727c0-1.062,0.597-2.814,1.79-5.168c1.194-2.355,1.79-4.135,1.79-5.295
		c0-0.929-0.464-1.687-1.392-2.25c5.469-1.227,10.394-3.771,14.77-7.617c5.006-4.376,7.51-9.135,7.51-14.273
		c0-6.633-3.997-9.949-11.985-9.949c-6.2,0-13.296,3.414-21.284,10.244c-6.434,5.504-11.887,11.587-16.363,18.25
		c-2.652,3.947-5.288,8.82-7.907,14.621c-3.15,6.931-4.725,12.069-4.725,15.416c0,1.394,0.38,2.604,1.144,3.632
		c0.828,1.125,1.923,1.691,3.283,1.691c2.751,0,5.104-1.725,7.061-5.174c2.587-4.573,5.173-9.53,7.759-14.867
		c1.358-2.818,2.453-4.741,3.282-5.77c1.592-1.989,3.149-2.984,4.675-2.984c1.425,0,2.138,0.845,2.138,2.537
		c0,1.392-0.87,3.788-2.611,7.186c-1.74,3.398-2.61,5.927-2.61,7.584c0,3.416,2.386,5.122,7.161,5.122
		c5.711,0,12.057-2.991,19.037-8.976c0.194,0.077,0.426,0.123,0.705,0.123l6.515-0.05l4.686-10.462
		c0.865-1.918,2.246-3.839,4.142-5.757c2.261-2.251,4.241-3.341,5.938-3.276c0.897,0.033,1.347,0.53,1.347,1.491
		c0,0.4-0.887,2.422-2.661,6.069c-1.775,3.648-2.659,6.398-2.659,8.256c0,4.243,2.005,6.348,6.017,6.313
		c1.393,0,2.702-0.429,3.929-1.292c1.062-0.729,1.79-1.591,2.188-2.586c0.468-1.08,0.662-1.944,0.615-2.613
		c0.434,0.781,1.001,1.472,1.712,2.066c1.692,1.426,3.93,2.137,6.715,2.137c4.536,0,8.306-1.109,11.311-3.326
		c1.494,2.217,3.883,3.326,7.171,3.326c2.587,0,4.757-0.678,6.515-2.035c1.922-1.461,2.884-3.449,2.884-5.969
		C117.169,39.438,116.539,37.465,115.279,35.011z M92.322,29.931c1.26-1.856,2.388-2.956,3.382-2.956c1.127,0,1.69,1.151,1.69,2.94
		c0,1.328-0.298,1.584-0.895,4.584h-6.416C90.614,33.5,91.36,31.356,92.322,29.931z M29.324,27.353
		C36.718,13.031,43.166,5.869,48.67,5.869c1.425,0,2.139,0.896,2.139,2.686c0,3.679-1.858,7.208-5.571,10.591
		C40.431,23.522,35.125,26.258,29.324,27.353z"/>
	<path fill="#463631" stroke="#DFB000" stroke-miterlimit="10" d="M125.103,42.72c-0.729-0.498-1.708-0.729-2.934-0.697
		c-1.294,0.034-2.454,0.481-3.481,1.343c-1.028,0.863-1.542,1.924-1.542,3.184c0.033,1.923,1.276,2.883,3.729,2.883
		c3.548,0,5.354-1.341,5.421-4.027C126.329,44.21,125.931,43.316,125.103,42.72z"/>
	<path fill="#463631" stroke="#DFB000" stroke-miterlimit="10" d="M163.16,27.152c1.127,0,2.603,0.549,4.426,1.642l1.492-3.331
		c-2.122-2.022-4.808-3.033-8.057-3.033c-2.453,0-4.592,0.663-6.415,1.988c-2.056,1.459-3.083,3.381-3.083,5.771
		c0,1.625,0.713,3.728,2.138,6.315c1.426,2.586,2.14,4.36,2.14,5.32c0,1.792-0.863,2.687-2.586,2.687
		c-1.028,0-2.016-0.391-3.324-1.169c-1.152-0.686-2.391-1.419-2.391-2.194V40.83c0,0.035,0.011,0.064-0.043,0.1
		c-0.022-0.033,0.043-0.066,0.043-0.1v0.146c-3,1.984-6.443,2.986-9.514,2.986c-2.354,0-3.681-1.084-3.681-3.107
		c0-1.226,0.081-2.355,0.546-3.355h13.773c1.062-2,1.593-3.954,1.593-6.739c0-5.602-2.47-8.367-7.409-8.367
		c-4.012,0-7.791,2.023-11.339,6.033c-3.448,3.881-5.172,7.868-5.172,11.946c0,2.752,0.909,4.895,2.735,6.42
		c1.69,1.425,3.929,2.139,6.713,2.139c4.499,0,8.239-1.093,11.232-3.273c1.497,2.181,3.87,3.275,7.131,3.275
		c2.586,0,4.757-0.679,6.514-2.037c1.924-1.459,2.886-3.447,2.886-5.969c0-1.49-0.631-3.463-1.89-5.917
		c-1.261-2.454-1.89-4.094-1.89-4.925C159.729,28.132,160.873,27.152,163.16,27.152z M138.78,29.931
		c1.259-1.856,2.386-2.956,3.382-2.956c1.126,0,1.689,1.151,1.689,2.94c0,1.328-0.297,1.584-0.895,4.584h-6.416
		C137.071,33.5,137.818,31.356,138.78,29.931z"/>
</g>
</svg>
